%TF.GenerationSoftware,KiCad,Pcbnew,9.0.2*%
%TF.CreationDate,2025-05-24T17:19:21-04:00*%
%TF.ProjectId,DJUNGELSKOG Keychain,444a554e-4745-44c5-934b-4f47204b6579,rev?*%
%TF.SameCoordinates,Original*%
%TF.FileFunction,Profile,NP*%
%FSLAX46Y46*%
G04 Gerber Fmt 4.6, Leading zero omitted, Abs format (unit mm)*
G04 Created by KiCad (PCBNEW 9.0.2) date 2025-05-24 17:19:21*
%MOMM*%
%LPD*%
G01*
G04 APERTURE LIST*
%ADD10C,0.050000*%
%TA.AperFunction,Profile*%
%ADD11C,0.050000*%
%TD*%
G04 APERTURE END LIST*
D10*
X167000000Y-123500000D02*
X166999960Y-123515502D01*
X166999840Y-123531074D01*
X166999640Y-123546716D01*
X166999358Y-123562429D01*
X166998996Y-123578213D01*
X166998552Y-123594068D01*
X166998025Y-123609995D01*
X166997417Y-123625993D01*
X166996726Y-123642065D01*
X166995952Y-123658209D01*
X166995094Y-123674426D01*
X166994152Y-123690716D01*
X166993126Y-123707080D01*
X166992015Y-123723519D01*
X166990820Y-123740031D01*
X166989538Y-123756619D01*
X166988171Y-123773281D01*
X166986717Y-123790019D01*
X166985177Y-123806832D01*
X166983549Y-123823722D01*
X166981834Y-123840688D01*
X166980030Y-123857731D01*
X166978138Y-123874851D01*
X166976157Y-123892048D01*
X166974087Y-123909323D01*
X166971927Y-123926676D01*
X166969677Y-123944107D01*
X166967336Y-123961617D01*
X166964903Y-123979206D01*
X166962379Y-123996875D01*
X166959763Y-124014623D01*
X166957055Y-124032451D01*
X166954253Y-124050359D01*
X166951358Y-124068347D01*
X166948369Y-124086417D01*
X166945286Y-124104567D01*
X166942108Y-124122800D01*
X166938834Y-124141113D01*
X166935465Y-124159509D01*
X166931999Y-124177988D01*
X166928436Y-124196548D01*
X166924777Y-124215192D01*
X166921019Y-124233919D01*
X166917163Y-124252730D01*
X166913209Y-124271624D01*
X166909155Y-124290602D01*
X166905002Y-124309665D01*
X166900748Y-124328812D01*
X166896394Y-124348044D01*
X166891939Y-124367362D01*
X166887382Y-124386764D01*
X166882722Y-124406252D01*
X166877960Y-124425826D01*
X166873095Y-124445487D01*
X166868127Y-124465233D01*
X166863054Y-124485066D01*
X166857876Y-124504986D01*
X166852594Y-124524993D01*
X166847205Y-124545088D01*
X166841711Y-124565270D01*
X166836110Y-124585539D01*
X166830401Y-124605897D01*
X166824585Y-124626342D01*
X166818661Y-124646877D01*
X166812629Y-124667499D01*
X166806487Y-124688210D01*
X166800235Y-124709011D01*
X166793873Y-124729900D01*
X166787401Y-124750879D01*
X166780818Y-124771946D01*
X166774122Y-124793104D01*
X166767315Y-124814351D01*
X166760395Y-124835689D01*
X166753362Y-124857116D01*
X166746215Y-124878633D01*
X166738955Y-124900241D01*
X166731579Y-124921939D01*
X166724089Y-124943727D01*
X166716483Y-124965606D01*
X166708761Y-124987576D01*
X166700922Y-125009636D01*
X166692967Y-125031788D01*
X166684894Y-125054030D01*
X166676703Y-125076363D01*
X166668394Y-125098787D01*
X166659966Y-125121302D01*
X166651418Y-125143909D01*
X166642751Y-125166606D01*
X166633964Y-125189394D01*
X166625056Y-125212274D01*
X166616027Y-125235244D01*
X166606876Y-125258305D01*
X166597604Y-125281458D01*
X166588209Y-125304701D01*
X166578691Y-125328035D01*
X166569051Y-125351460D01*
X166559286Y-125374975D01*
X166549398Y-125398581D01*
X166539386Y-125422277D01*
X166529248Y-125446064D01*
X166518986Y-125469940D01*
X166508598Y-125493906D01*
X166498084Y-125517963D01*
X166487445Y-125542108D01*
X166476678Y-125566343D01*
X166465785Y-125590667D01*
X166454765Y-125615079D01*
X166443618Y-125639580D01*
X166432343Y-125664169D01*
X166420939Y-125688846D01*
X166409408Y-125713610D01*
X166397748Y-125738462D01*
X166385960Y-125763399D01*
X166374042Y-125788424D01*
X166361996Y-125813533D01*
X166349820Y-125838729D01*
X166337515Y-125864008D01*
X166325080Y-125889372D01*
X166312515Y-125914820D01*
X166299821Y-125940351D01*
X166286996Y-125965964D01*
X166274042Y-125991659D01*
X166260957Y-126017435D01*
X166247743Y-126043291D01*
X166234398Y-126069226D01*
X166220923Y-126095241D01*
X166207318Y-126121333D01*
X166193584Y-126147502D01*
X166179719Y-126173747D01*
X166165725Y-126200067D01*
X166151602Y-126226461D01*
X166137349Y-126252928D01*
X166122967Y-126279467D01*
X166108457Y-126306076D01*
X166093818Y-126332755D01*
X166079051Y-126359501D01*
X166064156Y-126386314D01*
X166049134Y-126413192D01*
X166033986Y-126440134D01*
X166018711Y-126467138D01*
X166003311Y-126494202D01*
X165987786Y-126521325D01*
X165972137Y-126548505D01*
X165956365Y-126575739D01*
X165940470Y-126603027D01*
X165924453Y-126630365D01*
X165908317Y-126657752D01*
X165892060Y-126685185D01*
X165875686Y-126712662D01*
X165859194Y-126740180D01*
X165842586Y-126767737D01*
X165825865Y-126795330D01*
X165809030Y-126822956D01*
X165792085Y-126850611D01*
X165775030Y-126878293D01*
X165757868Y-126905998D01*
X165740600Y-126933723D01*
X165723229Y-126961464D01*
X165705758Y-126989216D01*
X165688188Y-127016976D01*
X165670523Y-127044738D01*
X165652764Y-127072499D01*
X165634916Y-127100254D01*
X165616982Y-127127996D01*
X165598965Y-127155721D01*
X165580869Y-127183422D01*
X165562698Y-127211094D01*
X165544456Y-127238729D01*
X165526148Y-127266321D01*
X165507780Y-127293861D01*
X165489357Y-127321342D01*
X165470884Y-127348756D01*
X165452368Y-127376092D01*
X165433816Y-127403341D01*
X165415235Y-127430492D01*
X165396634Y-127457533D01*
X165378022Y-127484453D01*
X165359408Y-127511237D01*
X165340803Y-127537871D01*
X165322218Y-127564339D01*
X165303666Y-127590624D01*
X165285162Y-127616706D01*
X165266722Y-127642563D01*
X165248362Y-127668174D01*
X165230102Y-127693511D01*
X165211965Y-127718545D01*
X165193976Y-127743243D01*
X165176163Y-127767568D01*
X165158559Y-127791477D01*
X165141204Y-127814920D01*
X165124142Y-127837837D01*
X165107429Y-127860161D01*
X165091129Y-127881805D01*
X165075327Y-127902664D01*
X165060128Y-127922606D01*
X165045674Y-127941450D01*
X165032163Y-127958948D01*
X165019898Y-127974722D01*
X165009398Y-127988124D01*
X165001796Y-127997744D01*
X165000000Y-128000000D01*
X173500000Y-121000000D02*
X173492261Y-121014168D01*
X173484519Y-121028298D01*
X173476778Y-121042386D01*
X173469034Y-121056437D01*
X173461290Y-121070447D01*
X173453544Y-121084420D01*
X173445798Y-121098351D01*
X173438050Y-121112246D01*
X173430302Y-121126099D01*
X173422551Y-121139915D01*
X173414801Y-121153691D01*
X173407048Y-121167429D01*
X173399296Y-121181127D01*
X173391541Y-121194788D01*
X173383786Y-121208408D01*
X173376029Y-121221992D01*
X173368273Y-121235535D01*
X173360514Y-121249042D01*
X173352755Y-121262508D01*
X173344995Y-121275938D01*
X173337234Y-121289328D01*
X173329471Y-121302681D01*
X173321709Y-121315995D01*
X173313944Y-121329272D01*
X173306180Y-121342510D01*
X173298413Y-121355711D01*
X173290647Y-121368872D01*
X173282879Y-121381998D01*
X173275111Y-121395084D01*
X173267341Y-121408134D01*
X173259571Y-121421145D01*
X173251800Y-121434120D01*
X173244028Y-121447056D01*
X173236255Y-121459956D01*
X173228482Y-121472817D01*
X173220707Y-121485642D01*
X173212932Y-121498428D01*
X173205156Y-121511179D01*
X173197380Y-121523891D01*
X173189602Y-121536568D01*
X173181824Y-121549206D01*
X173174044Y-121561809D01*
X173166265Y-121574374D01*
X173158484Y-121586903D01*
X173150703Y-121599394D01*
X173142921Y-121611849D01*
X173135139Y-121624267D01*
X173127355Y-121636650D01*
X173119572Y-121648995D01*
X173111787Y-121661304D01*
X173104002Y-121673576D01*
X173096215Y-121685813D01*
X173088429Y-121698013D01*
X173080642Y-121710177D01*
X173072854Y-121722305D01*
X173065065Y-121734397D01*
X173057277Y-121746453D01*
X173049487Y-121758473D01*
X173041697Y-121770457D01*
X173033906Y-121782406D01*
X173026115Y-121794318D01*
X173018322Y-121806195D01*
X173010530Y-121818036D01*
X173002737Y-121829843D01*
X172994944Y-121841613D01*
X172987149Y-121853348D01*
X172979355Y-121865047D01*
X172971560Y-121876712D01*
X172963765Y-121888341D01*
X172955968Y-121899935D01*
X172948172Y-121911494D01*
X172940375Y-121923018D01*
X172932577Y-121934507D01*
X172924779Y-121945961D01*
X172916981Y-121957380D01*
X172909182Y-121968765D01*
X172901383Y-121980114D01*
X172893583Y-121991429D01*
X172885783Y-122002709D01*
X172877983Y-122013955D01*
X172870182Y-122025166D01*
X172862380Y-122036344D01*
X172854579Y-122047486D01*
X172846777Y-122058594D01*
X172838975Y-122069668D01*
X172831172Y-122080708D01*
X172823369Y-122091713D01*
X172815565Y-122102685D01*
X172807761Y-122113622D01*
X172799957Y-122124527D01*
X172792153Y-122135396D01*
X172784348Y-122146232D01*
X172776543Y-122157034D01*
X172768737Y-122167803D01*
X172760932Y-122178537D01*
X172753126Y-122189239D01*
X172745320Y-122199906D01*
X172737513Y-122210541D01*
X172729707Y-122221142D01*
X172721899Y-122231709D01*
X172714092Y-122242243D01*
X172706285Y-122252745D01*
X172698477Y-122263212D01*
X172690669Y-122273647D01*
X172682861Y-122284049D01*
X172675052Y-122294418D01*
X172667244Y-122304753D01*
X172659435Y-122315056D01*
X172651626Y-122325326D01*
X172643816Y-122335564D01*
X172636007Y-122345768D01*
X172628197Y-122355940D01*
X172620388Y-122366079D01*
X172612578Y-122376186D01*
X172604768Y-122386261D01*
X172596957Y-122396303D01*
X172589147Y-122406312D01*
X172581336Y-122416290D01*
X172573525Y-122426235D01*
X172565714Y-122436148D01*
X172557904Y-122446028D01*
X172550092Y-122455877D01*
X172542281Y-122465694D01*
X172534470Y-122475479D01*
X172526658Y-122485232D01*
X172518847Y-122494953D01*
X172511035Y-122504642D01*
X172503223Y-122514300D01*
X172495412Y-122523925D01*
X172487600Y-122533520D01*
X172479788Y-122543082D01*
X172471975Y-122552614D01*
X172464163Y-122562114D01*
X172456351Y-122571582D01*
X172448539Y-122581019D01*
X172440727Y-122590425D01*
X172432914Y-122599800D01*
X172425102Y-122609143D01*
X172417289Y-122618455D01*
X172409477Y-122627737D01*
X172401664Y-122636987D01*
X172393852Y-122646207D01*
X172386039Y-122655395D01*
X172378227Y-122664553D01*
X172370414Y-122673680D01*
X172362601Y-122682776D01*
X172354789Y-122691841D01*
X172346976Y-122700876D01*
X172339163Y-122709881D01*
X172331351Y-122718855D01*
X172323538Y-122727798D01*
X172315726Y-122736711D01*
X172307913Y-122745594D01*
X172300100Y-122754447D01*
X172292288Y-122763269D01*
X172284475Y-122772061D01*
X172276663Y-122780823D01*
X172268850Y-122789555D01*
X172261038Y-122798257D01*
X172253226Y-122806929D01*
X172245413Y-122815571D01*
X172237601Y-122824183D01*
X172229789Y-122832766D01*
X172221977Y-122841318D01*
X172214164Y-122849841D01*
X172206352Y-122858335D01*
X172198540Y-122866799D01*
X172190728Y-122875233D01*
X172182916Y-122883638D01*
X172175104Y-122892013D01*
X172167293Y-122900359D01*
X172159481Y-122908676D01*
X172151669Y-122916963D01*
X172143858Y-122925222D01*
X172136046Y-122933451D01*
X172128235Y-122941651D01*
X172120423Y-122949822D01*
X172112612Y-122957964D01*
X172104801Y-122966077D01*
X172096990Y-122974161D01*
X172089179Y-122982216D01*
X172081368Y-122990242D01*
X172073557Y-122998240D01*
X172065747Y-123006209D01*
X172057936Y-123014150D01*
X172050126Y-123022061D01*
X172042315Y-123029945D01*
X172034505Y-123037799D01*
X172026694Y-123045626D01*
X172018885Y-123053424D01*
X172011074Y-123061194D01*
X172003265Y-123068935D01*
X171995455Y-123076648D01*
X171987645Y-123084333D01*
X171979835Y-123091990D01*
X171972026Y-123099618D01*
X171964216Y-123107219D01*
X171956407Y-123114792D01*
X171948598Y-123122337D01*
X171940789Y-123129853D01*
X171932980Y-123137343D01*
X171925171Y-123144803D01*
X171917362Y-123152237D01*
X171909554Y-123159643D01*
X171901745Y-123167021D01*
X171893937Y-123174371D01*
X171886129Y-123181695D01*
X171878321Y-123188990D01*
X171870512Y-123196259D01*
X171862705Y-123203499D01*
X171854897Y-123210713D01*
X171847089Y-123217898D01*
X171839281Y-123225057D01*
X171831474Y-123232189D01*
X171823666Y-123239294D01*
X171815859Y-123246370D01*
X171808052Y-123253421D01*
X171800245Y-123260444D01*
X171792438Y-123267441D01*
X171784631Y-123274410D01*
X171776824Y-123281353D01*
X171769018Y-123288268D01*
X171761211Y-123295157D01*
X171753405Y-123302019D01*
X171745598Y-123308855D01*
X171737792Y-123315663D01*
X171729986Y-123322446D01*
X171722180Y-123329201D01*
X171714374Y-123335931D01*
X171706568Y-123342633D01*
X171698762Y-123349310D01*
X171690957Y-123355959D01*
X171683151Y-123362583D01*
X171675346Y-123369180D01*
X171667540Y-123375752D01*
X171659735Y-123382296D01*
X171651929Y-123388816D01*
X171644124Y-123395308D01*
X171636319Y-123401775D01*
X171628514Y-123408215D01*
X171620709Y-123414630D01*
X171612905Y-123421019D01*
X171605099Y-123427382D01*
X171597295Y-123433719D01*
X171589490Y-123440030D01*
X171581686Y-123446315D01*
X171573880Y-123452576D01*
X171566077Y-123458809D01*
X171558271Y-123465019D01*
X171550468Y-123471201D01*
X171542662Y-123477359D01*
X171534859Y-123483491D01*
X171527054Y-123489598D01*
X171519250Y-123495678D01*
X171511445Y-123501735D01*
X171503642Y-123507765D01*
X171495837Y-123513771D01*
X171488034Y-123519750D01*
X171480229Y-123525706D01*
X171472425Y-123531635D01*
X171464621Y-123537540D01*
X171456817Y-123543419D01*
X171449012Y-123549274D01*
X171441209Y-123555103D01*
X171433404Y-123560909D01*
X171425601Y-123566688D01*
X171417796Y-123572443D01*
X171409993Y-123578173D01*
X171402188Y-123583879D01*
X171394385Y-123589559D01*
X171386580Y-123595215D01*
X171378776Y-123600846D01*
X171370971Y-123606453D01*
X171363168Y-123612035D01*
X171355363Y-123617593D01*
X171347559Y-123623125D01*
X171339754Y-123628635D01*
X171331950Y-123634118D01*
X171324145Y-123639579D01*
X171316341Y-123645013D01*
X171308536Y-123650425D01*
X171300732Y-123655812D01*
X171292926Y-123661175D01*
X171285122Y-123666513D01*
X171277316Y-123671828D01*
X171269512Y-123677118D01*
X171261706Y-123682385D01*
X171253902Y-123687626D01*
X171246095Y-123692845D01*
X171238291Y-123698039D01*
X171230484Y-123703210D01*
X171222679Y-123708356D01*
X171214872Y-123713479D01*
X171207068Y-123718577D01*
X171199260Y-123723653D01*
X171191455Y-123728704D01*
X171183647Y-123733732D01*
X171175842Y-123738736D01*
X171168034Y-123743717D01*
X171160228Y-123748673D01*
X171152420Y-123753607D01*
X171144614Y-123758516D01*
X171136805Y-123763403D01*
X171128998Y-123768265D01*
X171121189Y-123773106D01*
X171113382Y-123777921D01*
X171105573Y-123782715D01*
X171097765Y-123787483D01*
X171089955Y-123792230D01*
X171082147Y-123796953D01*
X171074337Y-123801653D01*
X171066529Y-123806329D01*
X171058717Y-123810983D01*
X171050909Y-123815613D01*
X171043097Y-123820221D01*
X171035288Y-123824805D01*
X171027475Y-123829367D01*
X171019666Y-123833905D01*
X171011853Y-123838421D01*
X171004042Y-123842913D01*
X170996229Y-123847383D01*
X170988418Y-123851829D01*
X170980603Y-123856254D01*
X170972792Y-123860655D01*
X170957165Y-123869389D01*
X170941536Y-123878033D01*
X170925906Y-123886586D01*
X170910274Y-123895050D01*
X170894641Y-123903423D01*
X170879006Y-123911707D01*
X170863369Y-123919901D01*
X170847731Y-123928006D01*
X170832090Y-123936022D01*
X170816448Y-123943950D01*
X170800804Y-123951789D01*
X170785157Y-123959539D01*
X170769509Y-123967202D01*
X170753858Y-123974777D01*
X170738205Y-123982264D01*
X170722549Y-123989664D01*
X170706892Y-123996976D01*
X170691231Y-124004202D01*
X170675569Y-124011341D01*
X170659903Y-124018394D01*
X170644235Y-124025360D01*
X170628564Y-124032240D01*
X170612890Y-124039034D01*
X170597213Y-124045742D01*
X170581534Y-124052365D01*
X170565851Y-124058902D01*
X170550165Y-124065354D01*
X170534476Y-124071721D01*
X170518783Y-124078004D01*
X170503087Y-124084202D01*
X170487388Y-124090315D01*
X170471685Y-124096344D01*
X170455978Y-124102289D01*
X170440268Y-124108150D01*
X170424554Y-124113927D01*
X170408836Y-124119620D01*
X170393114Y-124125230D01*
X170377388Y-124130757D01*
X170361657Y-124136201D01*
X170345923Y-124141561D01*
X170330185Y-124146839D01*
X170314442Y-124152034D01*
X170298694Y-124157146D01*
X170282942Y-124162176D01*
X170267186Y-124167124D01*
X170251424Y-124171989D01*
X170235658Y-124176772D01*
X170219887Y-124181473D01*
X170204112Y-124186093D01*
X170188331Y-124190631D01*
X170172545Y-124195087D01*
X170156753Y-124199461D01*
X170140957Y-124203755D01*
X170125155Y-124207967D01*
X170109348Y-124212098D01*
X170093535Y-124216148D01*
X170077717Y-124220116D01*
X170061892Y-124224004D01*
X170046063Y-124227812D01*
X170030227Y-124231538D01*
X170014385Y-124235184D01*
X169998537Y-124238749D01*
X169982683Y-124242234D01*
X169966823Y-124245639D01*
X169950957Y-124248963D01*
X169935084Y-124252207D01*
X169919205Y-124255371D01*
X169903320Y-124258455D01*
X169887428Y-124261459D01*
X169871529Y-124264383D01*
X169855623Y-124267226D01*
X169839711Y-124269990D01*
X169823792Y-124272675D01*
X169807865Y-124275279D01*
X169791932Y-124277804D01*
X169775992Y-124280249D01*
X169760044Y-124282614D01*
X169744089Y-124284900D01*
X169728127Y-124287106D01*
X169712158Y-124289232D01*
X169696181Y-124291280D01*
X169680196Y-124293247D01*
X169664204Y-124295135D01*
X169648204Y-124296944D01*
X169632196Y-124298673D01*
X169616181Y-124300323D01*
X169600158Y-124301893D01*
X169584127Y-124303384D01*
X169568088Y-124304795D01*
X169552041Y-124306128D01*
X169535985Y-124307380D01*
X169519922Y-124308553D01*
X169503850Y-124309647D01*
X169487770Y-124310662D01*
X169471682Y-124311597D01*
X169455586Y-124312452D01*
X169439481Y-124313228D01*
X169423368Y-124313925D01*
X169407246Y-124314542D01*
X169391116Y-124315079D01*
X169374977Y-124315537D01*
X169358829Y-124315916D01*
X169342673Y-124316214D01*
X169326509Y-124316434D01*
X169310335Y-124316573D01*
X169294153Y-124316633D01*
X169277962Y-124316613D01*
X169261763Y-124316513D01*
X169245554Y-124316333D01*
X169229337Y-124316073D01*
X169213111Y-124315734D01*
X169196876Y-124315314D01*
X169180633Y-124314815D01*
X169164380Y-124314235D01*
X169148119Y-124313575D01*
X169131849Y-124312835D01*
X169115570Y-124312015D01*
X169099282Y-124311115D01*
X169082986Y-124310134D01*
X169066680Y-124309072D01*
X169050366Y-124307930D01*
X169034043Y-124306708D01*
X169017712Y-124305404D01*
X169001372Y-124304021D01*
X168985023Y-124302556D01*
X168968665Y-124301010D01*
X168952299Y-124299384D01*
X168935925Y-124297676D01*
X168919542Y-124295888D01*
X168903150Y-124294018D01*
X168886750Y-124292067D01*
X168870342Y-124290035D01*
X168853926Y-124287922D01*
X168837502Y-124285726D01*
X168821069Y-124283450D01*
X168804629Y-124281092D01*
X168788180Y-124278652D01*
X168771724Y-124276130D01*
X168755261Y-124273527D01*
X168738790Y-124270841D01*
X168722311Y-124268074D01*
X168705825Y-124265224D01*
X168689332Y-124262293D01*
X168672832Y-124259279D01*
X168656324Y-124256183D01*
X168639811Y-124253004D01*
X168623290Y-124249743D01*
X168606764Y-124246400D01*
X168590231Y-124242974D01*
X168573691Y-124239465D01*
X168557147Y-124235873D01*
X168540596Y-124232199D01*
X168524040Y-124228442D01*
X168507479Y-124224602D01*
X168490913Y-124220679D01*
X168474342Y-124216673D01*
X168457766Y-124212584D01*
X168441186Y-124208412D01*
X168424603Y-124204156D01*
X168408015Y-124199818D01*
X168391424Y-124195396D01*
X168374830Y-124190891D01*
X168358234Y-124186302D01*
X168341635Y-124181630D01*
X168325033Y-124176875D01*
X168308430Y-124172037D01*
X168291826Y-124167115D01*
X168275220Y-124162110D01*
X168258614Y-124157021D01*
X168242008Y-124151849D01*
X168225402Y-124146594D01*
X168208796Y-124141255D01*
X168192192Y-124135834D01*
X168175589Y-124130328D01*
X168158989Y-124124740D01*
X168142391Y-124119069D01*
X168125796Y-124113314D01*
X168109205Y-124107477D01*
X168092618Y-124101557D01*
X168076036Y-124095554D01*
X168059459Y-124089468D01*
X168042889Y-124083300D01*
X168026325Y-124077049D01*
X168009769Y-124070717D01*
X167993221Y-124064302D01*
X167976682Y-124057805D01*
X167960152Y-124051227D01*
X167943633Y-124044567D01*
X167927126Y-124037827D01*
X167910631Y-124031005D01*
X167894148Y-124024102D01*
X167877680Y-124017120D01*
X167861227Y-124010057D01*
X167844790Y-124002915D01*
X167828370Y-123995694D01*
X167811968Y-123988393D01*
X167795585Y-123981015D01*
X167779223Y-123973558D01*
X167762882Y-123966025D01*
X167746565Y-123958414D01*
X167730272Y-123950727D01*
X167714004Y-123942964D01*
X167697764Y-123935127D01*
X167681552Y-123927215D01*
X167665370Y-123919229D01*
X167649221Y-123911171D01*
X167633104Y-123903041D01*
X167617024Y-123894840D01*
X167600980Y-123886569D01*
X167584976Y-123878229D01*
X167569013Y-123869821D01*
X167553093Y-123861347D01*
X167537219Y-123852807D01*
X167521393Y-123844203D01*
X167505618Y-123835537D01*
X167489896Y-123826810D01*
X167474230Y-123818023D01*
X167458623Y-123809178D01*
X167443078Y-123800278D01*
X167427598Y-123791324D01*
X167412186Y-123782319D01*
X167396847Y-123773264D01*
X167381584Y-123764163D01*
X167366401Y-123755018D01*
X167351303Y-123745831D01*
X167336294Y-123736607D01*
X167321379Y-123727348D01*
X167306564Y-123718059D01*
X167291854Y-123708742D01*
X167277255Y-123699403D01*
X167262774Y-123690046D01*
X167248417Y-123680677D01*
X167234194Y-123671300D01*
X167220111Y-123661923D01*
X167206178Y-123652552D01*
X167192406Y-123643194D01*
X167178805Y-123633859D01*
X167165387Y-123624554D01*
X167152165Y-123615292D01*
X167139156Y-123606084D01*
X167126375Y-123596943D01*
X167113843Y-123587885D01*
X167101582Y-123578927D01*
X167089617Y-123570092D01*
X167077978Y-123561403D01*
X167066703Y-123552891D01*
X167055835Y-123544591D01*
X167045429Y-123536551D01*
X167035555Y-123528831D01*
X167026310Y-123521509D01*
X167017829Y-123514704D01*
X167010323Y-123508595D01*
X167004173Y-123503512D01*
X167000000Y-123500000D01*
X161500000Y-81500000D02*
X161525675Y-81525689D01*
X161551318Y-81551374D01*
X161576929Y-81577056D01*
X161602508Y-81602734D01*
X161628055Y-81628409D01*
X161653571Y-81654079D01*
X161679055Y-81679747D01*
X161704507Y-81705410D01*
X161729927Y-81731071D01*
X161755316Y-81756727D01*
X161780673Y-81782380D01*
X161805998Y-81808029D01*
X161831292Y-81833675D01*
X161856554Y-81859317D01*
X161881785Y-81884956D01*
X161906984Y-81910591D01*
X161932152Y-81936223D01*
X161957288Y-81961851D01*
X161982393Y-81987476D01*
X162007466Y-82013096D01*
X162032507Y-82038714D01*
X162057518Y-82064328D01*
X162082497Y-82089938D01*
X162107444Y-82115545D01*
X162132360Y-82141148D01*
X162157245Y-82166748D01*
X162182099Y-82192345D01*
X162206921Y-82217937D01*
X162231712Y-82243527D01*
X162256472Y-82269112D01*
X162281201Y-82294695D01*
X162305898Y-82320273D01*
X162330565Y-82345849D01*
X162355200Y-82371421D01*
X162379804Y-82396989D01*
X162404377Y-82422554D01*
X162428919Y-82448116D01*
X162453429Y-82473673D01*
X162477910Y-82499228D01*
X162502358Y-82524779D01*
X162526776Y-82550327D01*
X162551163Y-82575871D01*
X162575519Y-82601412D01*
X162599844Y-82626949D01*
X162624139Y-82652483D01*
X162648402Y-82678013D01*
X162672635Y-82703540D01*
X162696836Y-82729063D01*
X162721007Y-82754584D01*
X162745147Y-82780100D01*
X162769257Y-82805614D01*
X162793335Y-82831124D01*
X162817384Y-82856631D01*
X162841401Y-82882133D01*
X162865388Y-82907633D01*
X162889343Y-82933129D01*
X162913269Y-82958623D01*
X162937163Y-82984112D01*
X162961028Y-83009599D01*
X162984861Y-83035081D01*
X163008665Y-83060561D01*
X163032437Y-83086037D01*
X163056180Y-83111510D01*
X163079891Y-83136979D01*
X163103573Y-83162445D01*
X163127224Y-83187908D01*
X163150845Y-83213367D01*
X163174434Y-83238823D01*
X163197995Y-83264276D01*
X163221524Y-83289725D01*
X163245023Y-83315172D01*
X163268492Y-83340614D01*
X163291931Y-83366054D01*
X163315339Y-83391490D01*
X163338718Y-83416923D01*
X163362065Y-83442352D01*
X163385384Y-83467779D01*
X163408671Y-83493201D01*
X163431929Y-83518621D01*
X163455156Y-83544037D01*
X163478354Y-83569451D01*
X163501521Y-83594860D01*
X163524659Y-83620267D01*
X163547766Y-83645670D01*
X163570844Y-83671071D01*
X163593891Y-83696467D01*
X163616909Y-83721861D01*
X163639896Y-83747251D01*
X163662854Y-83772639D01*
X163685782Y-83798022D01*
X163708680Y-83823403D01*
X163731548Y-83848780D01*
X163754386Y-83874155D01*
X163777194Y-83899525D01*
X163799974Y-83924894D01*
X163822722Y-83950258D01*
X163845442Y-83975620D01*
X163868131Y-84000977D01*
X163890791Y-84026333D01*
X163913421Y-84051684D01*
X163936022Y-84077033D01*
X163958593Y-84102378D01*
X163981135Y-84127721D01*
X164003646Y-84153060D01*
X164026129Y-84178396D01*
X164048581Y-84203729D01*
X164071005Y-84229059D01*
X164093398Y-84254385D01*
X164115763Y-84279709D01*
X164138097Y-84305028D01*
X164160403Y-84330346D01*
X164182679Y-84355659D01*
X164204926Y-84380971D01*
X164227143Y-84406278D01*
X164249331Y-84431583D01*
X164271489Y-84456884D01*
X164293619Y-84482183D01*
X164315719Y-84507478D01*
X164337790Y-84532771D01*
X164359831Y-84558060D01*
X164381844Y-84583346D01*
X164403827Y-84608629D01*
X164425782Y-84633909D01*
X164447706Y-84659185D01*
X164469602Y-84684460D01*
X164491469Y-84709730D01*
X164513307Y-84734998D01*
X164535115Y-84760262D01*
X164556895Y-84785525D01*
X164578645Y-84810783D01*
X164600367Y-84836039D01*
X164622059Y-84861291D01*
X164643723Y-84886541D01*
X164665358Y-84911787D01*
X164686964Y-84937031D01*
X164708540Y-84962271D01*
X164730089Y-84987509D01*
X164751608Y-85012743D01*
X164773099Y-85037975D01*
X164794560Y-85063203D01*
X164815993Y-85088429D01*
X164837397Y-85113651D01*
X164858772Y-85138871D01*
X164880119Y-85164087D01*
X164901437Y-85189302D01*
X164922726Y-85214512D01*
X164943987Y-85239720D01*
X164965218Y-85264925D01*
X164986422Y-85290127D01*
X165007596Y-85315325D01*
X165028743Y-85340522D01*
X165049860Y-85365715D01*
X165070950Y-85390906D01*
X165092010Y-85416092D01*
X165113043Y-85441278D01*
X165134046Y-85466458D01*
X165155022Y-85491638D01*
X165175968Y-85516813D01*
X165196887Y-85541986D01*
X165217776Y-85567156D01*
X165238638Y-85592324D01*
X165259471Y-85617487D01*
X165280277Y-85642649D01*
X165301053Y-85667807D01*
X165321802Y-85692964D01*
X165342521Y-85718116D01*
X165363214Y-85743267D01*
X165383877Y-85768413D01*
X165404513Y-85793558D01*
X165425120Y-85818699D01*
X165445700Y-85843839D01*
X165466250Y-85868974D01*
X165486774Y-85894108D01*
X165507268Y-85919237D01*
X165527735Y-85944366D01*
X165548173Y-85969490D01*
X165568585Y-85994612D01*
X165588967Y-86019731D01*
X165609322Y-86044848D01*
X165629648Y-86069961D01*
X165649947Y-86095073D01*
X165670218Y-86120180D01*
X165690461Y-86145286D01*
X165710676Y-86170388D01*
X165730863Y-86195489D01*
X165751022Y-86220585D01*
X165771154Y-86245681D01*
X165791257Y-86270772D01*
X165811334Y-86295862D01*
X165831381Y-86320947D01*
X165851402Y-86346032D01*
X165871394Y-86371112D01*
X165891360Y-86396191D01*
X165911296Y-86421266D01*
X165931207Y-86446340D01*
X165951088Y-86471409D01*
X165970943Y-86496477D01*
X165990769Y-86521541D01*
X166010569Y-86546605D01*
X166030339Y-86571663D01*
X166050084Y-86596721D01*
X166069800Y-86621775D01*
X166089490Y-86646827D01*
X166109150Y-86671876D01*
X166128785Y-86696923D01*
X166148391Y-86721966D01*
X166167971Y-86747008D01*
X166187522Y-86772046D01*
X166207047Y-86797083D01*
X166226543Y-86822116D01*
X166246014Y-86847148D01*
X166265455Y-86872175D01*
X166284871Y-86897202D01*
X166304258Y-86922224D01*
X166323619Y-86947246D01*
X166342951Y-86972263D01*
X166362258Y-86997279D01*
X166381536Y-87022291D01*
X166400788Y-87047303D01*
X166420012Y-87072310D01*
X166439210Y-87097317D01*
X166458379Y-87122318D01*
X166477523Y-87147320D01*
X166496638Y-87172317D01*
X166515728Y-87197313D01*
X166534789Y-87222305D01*
X166553824Y-87247297D01*
X166572831Y-87272284D01*
X166591813Y-87297271D01*
X166610766Y-87322253D01*
X166629693Y-87347234D01*
X166648592Y-87372211D01*
X166667466Y-87397188D01*
X166686311Y-87422160D01*
X166705131Y-87447132D01*
X166723923Y-87472100D01*
X166742689Y-87497067D01*
X166761427Y-87522029D01*
X166780140Y-87546992D01*
X166798824Y-87571949D01*
X166817483Y-87596907D01*
X166836114Y-87621860D01*
X166854719Y-87646813D01*
X166873297Y-87671761D01*
X166891849Y-87696709D01*
X166910373Y-87721652D01*
X166928872Y-87746596D01*
X166947343Y-87771535D01*
X166965788Y-87796473D01*
X166984206Y-87821407D01*
X167002598Y-87846341D01*
X167020963Y-87871271D01*
X167039302Y-87896200D01*
X167057613Y-87921125D01*
X167075900Y-87946050D01*
X167094158Y-87970970D01*
X167112392Y-87995890D01*
X167130597Y-88020806D01*
X167148778Y-88045721D01*
X167166931Y-88070633D01*
X167185059Y-88095544D01*
X167203158Y-88120450D01*
X167221234Y-88145357D01*
X167239281Y-88170259D01*
X167257303Y-88195161D01*
X167275298Y-88220059D01*
X167293268Y-88244957D01*
X167311210Y-88269850D01*
X167329128Y-88294743D01*
X167347017Y-88319632D01*
X167364882Y-88344521D01*
X167382720Y-88369405D01*
X167400533Y-88394290D01*
X167418317Y-88419170D01*
X167436078Y-88444050D01*
X167453811Y-88468926D01*
X167471519Y-88493802D01*
X167489200Y-88518673D01*
X167506856Y-88543545D01*
X167524485Y-88568412D01*
X167542089Y-88593279D01*
X167559665Y-88618142D01*
X167577218Y-88643006D01*
X167594742Y-88667864D01*
X167612243Y-88692723D01*
X167629715Y-88717578D01*
X167647164Y-88742433D01*
X167664585Y-88767283D01*
X167681982Y-88792134D01*
X167699351Y-88816980D01*
X167716696Y-88841827D01*
X167734014Y-88866669D01*
X167751307Y-88891511D01*
X167768573Y-88916349D01*
X167785816Y-88941188D01*
X167803030Y-88966022D01*
X167820221Y-88990856D01*
X167837384Y-89015686D01*
X167854523Y-89040517D01*
X167871635Y-89065343D01*
X167888723Y-89090169D01*
X167905783Y-89114991D01*
X167922820Y-89139814D01*
X167939829Y-89164632D01*
X167956815Y-89189451D01*
X167973773Y-89214265D01*
X167990708Y-89239080D01*
X168007615Y-89263890D01*
X168024498Y-89288701D01*
X168041355Y-89313507D01*
X168058187Y-89338315D01*
X168074992Y-89363117D01*
X168091774Y-89387921D01*
X168108528Y-89412720D01*
X168125259Y-89437519D01*
X168141963Y-89462314D01*
X168158643Y-89487111D01*
X168175296Y-89511902D01*
X168191926Y-89536694D01*
X168208528Y-89561482D01*
X168225107Y-89586270D01*
X168241659Y-89611054D01*
X168258187Y-89635840D01*
X168274688Y-89660620D01*
X168291166Y-89685401D01*
X168307617Y-89710178D01*
X168324045Y-89734956D01*
X168340445Y-89759729D01*
X168356823Y-89784503D01*
X168373173Y-89809273D01*
X168389500Y-89834044D01*
X168405800Y-89858810D01*
X168422077Y-89883577D01*
X168438327Y-89908340D01*
X168454553Y-89933104D01*
X168470753Y-89957863D01*
X168486930Y-89982624D01*
X168503080Y-90007379D01*
X168519207Y-90032137D01*
X168535306Y-90056889D01*
X168551383Y-90081643D01*
X168567433Y-90106392D01*
X168583461Y-90131142D01*
X168599461Y-90155888D01*
X168615438Y-90180635D01*
X168631389Y-90205377D01*
X168647316Y-90230121D01*
X168663217Y-90254860D01*
X168679095Y-90279601D01*
X168694947Y-90304337D01*
X168710775Y-90329075D01*
X168726577Y-90353807D01*
X168742356Y-90378542D01*
X168758108Y-90403271D01*
X168773838Y-90428003D01*
X168789541Y-90452729D01*
X168805221Y-90477457D01*
X168820875Y-90502180D01*
X168836506Y-90526906D01*
X168852110Y-90551626D01*
X168867692Y-90576348D01*
X168883247Y-90601065D01*
X168898780Y-90625784D01*
X168914286Y-90650498D01*
X168929770Y-90675215D01*
X168945227Y-90699926D01*
X168960662Y-90724639D01*
X168976070Y-90749347D01*
X168991455Y-90774058D01*
X169006814Y-90798763D01*
X169022151Y-90823470D01*
X169037462Y-90848173D01*
X169052750Y-90872878D01*
X169068011Y-90897577D01*
X169083251Y-90922279D01*
X169098463Y-90946976D01*
X169113654Y-90971675D01*
X169128818Y-90996369D01*
X169143960Y-91021066D01*
X169159076Y-91045757D01*
X169174169Y-91070451D01*
X169189236Y-91095139D01*
X169204282Y-91119830D01*
X169219300Y-91144516D01*
X169234297Y-91169205D01*
X169249267Y-91193888D01*
X169279137Y-91243255D01*
X169308911Y-91292616D01*
X169338588Y-91341973D01*
X169368169Y-91391324D01*
X169397654Y-91440671D01*
X169427043Y-91490012D01*
X169456336Y-91539349D01*
X169485533Y-91588681D01*
X169514635Y-91638009D01*
X169543641Y-91687332D01*
X169572552Y-91736651D01*
X169601368Y-91785965D01*
X169630088Y-91835275D01*
X169658713Y-91884580D01*
X169687244Y-91933882D01*
X169715680Y-91983179D01*
X169744021Y-92032472D01*
X169772268Y-92081762D01*
X169800420Y-92131047D01*
X169828478Y-92180329D01*
X169856442Y-92229606D01*
X169884312Y-92278881D01*
X169912088Y-92328151D01*
X169939771Y-92377418D01*
X169967360Y-92426682D01*
X169994855Y-92475942D01*
X170022257Y-92525199D01*
X170049565Y-92574453D01*
X170076781Y-92623703D01*
X170103903Y-92672951D01*
X170130933Y-92722195D01*
X170157870Y-92771437D01*
X170184714Y-92820676D01*
X170211466Y-92869912D01*
X170238125Y-92919145D01*
X170264692Y-92968376D01*
X170291166Y-93017605D01*
X170317549Y-93066830D01*
X170343840Y-93116054D01*
X170370038Y-93165275D01*
X170396146Y-93214494D01*
X170422161Y-93263711D01*
X170448085Y-93312926D01*
X170473918Y-93362139D01*
X170499659Y-93411351D01*
X170525310Y-93460560D01*
X170550869Y-93509768D01*
X170576337Y-93558974D01*
X170601715Y-93608178D01*
X170627002Y-93657382D01*
X170652198Y-93706583D01*
X170677304Y-93755784D01*
X170702319Y-93804983D01*
X170727244Y-93854182D01*
X170752080Y-93903379D01*
X170776825Y-93952575D01*
X170801480Y-94001771D01*
X170826045Y-94050965D01*
X170850521Y-94100159D01*
X170874907Y-94149353D01*
X170899204Y-94198546D01*
X170923411Y-94247738D01*
X170947530Y-94296931D01*
X170971559Y-94346123D01*
X170995499Y-94395315D01*
X171019350Y-94444506D01*
X171043112Y-94493698D01*
X171066785Y-94542890D01*
X171090370Y-94592083D01*
X171113867Y-94641275D01*
X171137275Y-94690468D01*
X171160595Y-94739662D01*
X171183826Y-94788856D01*
X171206970Y-94838051D01*
X171230026Y-94887246D01*
X171252993Y-94936443D01*
X171275873Y-94985640D01*
X171298665Y-95034839D01*
X171321370Y-95084039D01*
X171343988Y-95133239D01*
X171366517Y-95182442D01*
X171388960Y-95231646D01*
X171411316Y-95280851D01*
X171433584Y-95330058D01*
X171455766Y-95379267D01*
X171477860Y-95428477D01*
X171499868Y-95477690D01*
X171521790Y-95526904D01*
X171543624Y-95576121D01*
X171565373Y-95625340D01*
X171587035Y-95674561D01*
X171608610Y-95723785D01*
X171630100Y-95773011D01*
X171651503Y-95822240D01*
X171672821Y-95871471D01*
X171694052Y-95920706D01*
X171715198Y-95969943D01*
X171736259Y-96019184D01*
X171757233Y-96068428D01*
X171778122Y-96117674D01*
X171798926Y-96166925D01*
X171819644Y-96216179D01*
X171840278Y-96265436D01*
X171860826Y-96314697D01*
X171881289Y-96363962D01*
X171901667Y-96413231D01*
X171921960Y-96462503D01*
X171942169Y-96511780D01*
X171962293Y-96561062D01*
X171982332Y-96610347D01*
X172002287Y-96659637D01*
X172022157Y-96708931D01*
X172041943Y-96758231D01*
X172061645Y-96807535D01*
X172081263Y-96856844D01*
X172100797Y-96906157D01*
X172120247Y-96955476D01*
X172139613Y-97004801D01*
X172158895Y-97054130D01*
X172178094Y-97103465D01*
X172197209Y-97152806D01*
X172216240Y-97202152D01*
X172235188Y-97251505D01*
X172254053Y-97300863D01*
X172272835Y-97350227D01*
X172291533Y-97399597D01*
X172310148Y-97448974D01*
X172328680Y-97498357D01*
X172347129Y-97547747D01*
X172365496Y-97597143D01*
X172383780Y-97646546D01*
X172401981Y-97695956D01*
X172420099Y-97745373D01*
X172438135Y-97794797D01*
X172456088Y-97844228D01*
X172473959Y-97893667D01*
X172491748Y-97943113D01*
X172509455Y-97992567D01*
X172527080Y-98042029D01*
X172544622Y-98091499D01*
X172562083Y-98140976D01*
X172579461Y-98190462D01*
X172596758Y-98239956D01*
X172613973Y-98289459D01*
X172631107Y-98338970D01*
X172648159Y-98388490D01*
X172665129Y-98438018D01*
X172682018Y-98487556D01*
X172698826Y-98537102D01*
X172715552Y-98586658D01*
X172732197Y-98636223D01*
X172748761Y-98685798D01*
X172765244Y-98735382D01*
X172781646Y-98784976D01*
X172797967Y-98834580D01*
X172814207Y-98884194D01*
X172830367Y-98933818D01*
X172846446Y-98983453D01*
X172862444Y-99033098D01*
X172878361Y-99082753D01*
X172894199Y-99132419D01*
X172909955Y-99182097D01*
X172925632Y-99231785D01*
X172941228Y-99281484D01*
X172956744Y-99331195D01*
X172972179Y-99380917D01*
X172987535Y-99430651D01*
X173002810Y-99480397D01*
X173018006Y-99530154D01*
X173033122Y-99579924D01*
X173048158Y-99629705D01*
X173063114Y-99679500D01*
X173077990Y-99729306D01*
X173092787Y-99779126D01*
X173107505Y-99828958D01*
X173122142Y-99878803D01*
X173136701Y-99928661D01*
X173151180Y-99978533D01*
X173165580Y-100028418D01*
X173179900Y-100078317D01*
X173194141Y-100128230D01*
X173208303Y-100178156D01*
X173222386Y-100228097D01*
X173236390Y-100278052D01*
X173250315Y-100328021D01*
X173264162Y-100378005D01*
X173277929Y-100428004D01*
X173291618Y-100478018D01*
X173305227Y-100528046D01*
X173318759Y-100578091D01*
X173332211Y-100628150D01*
X173345585Y-100678225D01*
X173358881Y-100728316D01*
X173372098Y-100778423D01*
X173385236Y-100828547D01*
X173398297Y-100878686D01*
X173411279Y-100928842D01*
X173424182Y-100979015D01*
X173437008Y-101029204D01*
X173449755Y-101079411D01*
X173462425Y-101129635D01*
X173475016Y-101179876D01*
X173487530Y-101230135D01*
X173499965Y-101280412D01*
X173512323Y-101330707D01*
X173524602Y-101381019D01*
X173536804Y-101431351D01*
X173548929Y-101481700D01*
X173560975Y-101532069D01*
X173572944Y-101582457D01*
X173584835Y-101632863D01*
X173596649Y-101683289D01*
X173608385Y-101733735D01*
X173620044Y-101784200D01*
X173631625Y-101834685D01*
X173643129Y-101885191D01*
X173654556Y-101935717D01*
X173665906Y-101986263D01*
X173677178Y-102036830D01*
X173688373Y-102087418D01*
X173699490Y-102138028D01*
X173710531Y-102188658D01*
X173721495Y-102239311D01*
X173732381Y-102289985D01*
X173743191Y-102340681D01*
X173753923Y-102391400D01*
X173764579Y-102442141D01*
X173775158Y-102492905D01*
X173785660Y-102543691D01*
X173796085Y-102594501D01*
X173806433Y-102645335D01*
X173816705Y-102696192D01*
X173826900Y-102747072D01*
X173837018Y-102797977D01*
X173847060Y-102848907D01*
X173857025Y-102899861D01*
X173866913Y-102950839D01*
X173876725Y-103001843D01*
X173886460Y-103052872D01*
X173896119Y-103103927D01*
X173905701Y-103155007D01*
X173915207Y-103206114D01*
X173924637Y-103257247D01*
X173933990Y-103308406D01*
X173943267Y-103359592D01*
X173952468Y-103410806D01*
X173961592Y-103462046D01*
X173970640Y-103513315D01*
X173979612Y-103564611D01*
X173988508Y-103615935D01*
X173997327Y-103667288D01*
X174006071Y-103718670D01*
X174014738Y-103770080D01*
X174023329Y-103821520D01*
X174031844Y-103872989D01*
X174040283Y-103924488D01*
X174048646Y-103976017D01*
X174056933Y-104027576D01*
X174065144Y-104079167D01*
X174073279Y-104130788D01*
X174081338Y-104182440D01*
X174089321Y-104234124D01*
X174097228Y-104285840D01*
X174105059Y-104337588D01*
X174112814Y-104389369D01*
X174120493Y-104441182D01*
X174128097Y-104493029D01*
X174135625Y-104544909D01*
X174143076Y-104596823D01*
X174150452Y-104648771D01*
X174157752Y-104700753D01*
X174164977Y-104752770D01*
X174172125Y-104804822D01*
X174179198Y-104856910D01*
X174186195Y-104909033D01*
X174193116Y-104961192D01*
X174199962Y-105013388D01*
X174206731Y-105065621D01*
X174213425Y-105117891D01*
X174220044Y-105170198D01*
X174226586Y-105222544D01*
X174233053Y-105274927D01*
X174239444Y-105327349D01*
X174245759Y-105379811D01*
X174251998Y-105432311D01*
X174258162Y-105484852D01*
X174264250Y-105537433D01*
X174270262Y-105590054D01*
X174276199Y-105642716D01*
X174282060Y-105695419D01*
X174287845Y-105748165D01*
X174293554Y-105800952D01*
X174299188Y-105853783D01*
X174304746Y-105906656D01*
X174310228Y-105959572D01*
X174315634Y-106012533D01*
X174320964Y-106065538D01*
X174326219Y-106118588D01*
X174331398Y-106171682D01*
X174336501Y-106224823D01*
X174341528Y-106278010D01*
X174346480Y-106331243D01*
X174351355Y-106384523D01*
X174356155Y-106437851D01*
X174360878Y-106491227D01*
X174365526Y-106544652D01*
X174370098Y-106598125D01*
X174374594Y-106651648D01*
X174379014Y-106705222D01*
X174383358Y-106758845D01*
X174387626Y-106812520D01*
X174391818Y-106866246D01*
X174395934Y-106920025D01*
X174399974Y-106973856D01*
X174403938Y-107027740D01*
X174407825Y-107081678D01*
X174411636Y-107135671D01*
X174415372Y-107189718D01*
X174419031Y-107243821D01*
X174422613Y-107297980D01*
X174426120Y-107352196D01*
X174429550Y-107406469D01*
X174432903Y-107460800D01*
X174436180Y-107515190D01*
X174439381Y-107569638D01*
X174442505Y-107624147D01*
X174445553Y-107678716D01*
X174448524Y-107733346D01*
X174451419Y-107788038D01*
X174454236Y-107842793D01*
X174456977Y-107897610D01*
X174459642Y-107952492D01*
X174462229Y-108007438D01*
X174464740Y-108062450D01*
X174467173Y-108117527D01*
X174469530Y-108172672D01*
X174471810Y-108227884D01*
X174474012Y-108283164D01*
X174476137Y-108338514D01*
X174478185Y-108393934D01*
X174480156Y-108449424D01*
X174482049Y-108504986D01*
X174483865Y-108560620D01*
X174485604Y-108616328D01*
X174487264Y-108672110D01*
X174488847Y-108727967D01*
X174490353Y-108783900D01*
X174491780Y-108839909D01*
X174493130Y-108895997D01*
X174494402Y-108952163D01*
X174495595Y-109008409D01*
X174496710Y-109064736D01*
X174497748Y-109121144D01*
X174498706Y-109177635D01*
X174499587Y-109234210D01*
X174500389Y-109290870D01*
X174501112Y-109347615D01*
X174501756Y-109404448D01*
X174502322Y-109461369D01*
X174502808Y-109518379D01*
X174503216Y-109575479D01*
X174503544Y-109632671D01*
X174503793Y-109689956D01*
X174503962Y-109747335D01*
X174504052Y-109804809D01*
X174504062Y-109862380D01*
X174503993Y-109920049D01*
X174503843Y-109977817D01*
X174503614Y-110035685D01*
X174503304Y-110093656D01*
X174502913Y-110151730D01*
X174502443Y-110209909D01*
X174501891Y-110268195D01*
X174501259Y-110326588D01*
X174500545Y-110385091D01*
X174499751Y-110443705D01*
X174498875Y-110502432D01*
X174497917Y-110561273D01*
X174496878Y-110620231D01*
X174495756Y-110679306D01*
X174494553Y-110738501D01*
X174493268Y-110797817D01*
X174491899Y-110857257D01*
X174490449Y-110916821D01*
X174488915Y-110976514D01*
X174487298Y-111036335D01*
X174485597Y-111096288D01*
X174483813Y-111156374D01*
X174481945Y-111216596D01*
X174479993Y-111276956D01*
X174477957Y-111337456D01*
X174475836Y-111398098D01*
X174473630Y-111458886D01*
X174471339Y-111519821D01*
X174468962Y-111580906D01*
X174466499Y-111642143D01*
X174463951Y-111703536D01*
X174461316Y-111765087D01*
X174458594Y-111826799D01*
X174455785Y-111888675D01*
X174452889Y-111950718D01*
X174449905Y-112012931D01*
X174446832Y-112075317D01*
X174443671Y-112137880D01*
X174440421Y-112200623D01*
X174437082Y-112263549D01*
X174433653Y-112326663D01*
X174430133Y-112389967D01*
X174426523Y-112453467D01*
X174422822Y-112517165D01*
X174419029Y-112581067D01*
X174415144Y-112645176D01*
X174411166Y-112709496D01*
X174407094Y-112774034D01*
X174402929Y-112838792D01*
X174398670Y-112903776D01*
X174394315Y-112968992D01*
X174389864Y-113034445D01*
X174385318Y-113100139D01*
X174380674Y-113166082D01*
X174375932Y-113232278D01*
X174371092Y-113298735D01*
X174366152Y-113365458D01*
X174361112Y-113432455D01*
X174355972Y-113499732D01*
X174350729Y-113567297D01*
X174345383Y-113635157D01*
X174339934Y-113703321D01*
X174334379Y-113771796D01*
X174328719Y-113840592D01*
X174322952Y-113909718D01*
X174317076Y-113979183D01*
X174311091Y-114048998D01*
X174304995Y-114119173D01*
X174298787Y-114189719D01*
X174292465Y-114260647D01*
X174286028Y-114331972D01*
X174279474Y-114403704D01*
X174272802Y-114475859D01*
X174266009Y-114548451D01*
X174259094Y-114621495D01*
X174252054Y-114695008D01*
X174244889Y-114769006D01*
X174237594Y-114843509D01*
X174230168Y-114918537D01*
X174222608Y-114994110D01*
X174214912Y-115070250D01*
X174207075Y-115146982D01*
X174199096Y-115224333D01*
X174190970Y-115302328D01*
X174182694Y-115381000D01*
X174174263Y-115460379D01*
X174165673Y-115540502D01*
X174156920Y-115621406D01*
X174147998Y-115703132D01*
X174138902Y-115785727D01*
X174129624Y-115869241D01*
X174120158Y-115953727D01*
X174110497Y-116039247D01*
X174100631Y-116125869D01*
X174090552Y-116213666D01*
X174080248Y-116302725D01*
X174069708Y-116393138D01*
X174058918Y-116485015D01*
X174047861Y-116578479D01*
X174036520Y-116673671D01*
X174024875Y-116770756D01*
X174012899Y-116869928D01*
X174000565Y-116971417D01*
X173987836Y-117075500D01*
X173974669Y-117182513D01*
X173961010Y-117292879D01*
X173946792Y-117407131D01*
X173931925Y-117525970D01*
X173916286Y-117650341D01*
X173899706Y-117781582D01*
X173881928Y-117921694D01*
X173862534Y-118073938D01*
X173840751Y-118244344D01*
X173814793Y-118446850D01*
X173790721Y-118634364D01*
X173770969Y-118788218D01*
X173751337Y-118941281D01*
X173731845Y-119093552D01*
X173712512Y-119245028D01*
X173702912Y-119320468D01*
X173693358Y-119395708D01*
X173683855Y-119470749D01*
X173674403Y-119545590D01*
X173665005Y-119620230D01*
X173655664Y-119694670D01*
X173646383Y-119768909D01*
X173637163Y-119842947D01*
X173628007Y-119916784D01*
X173618917Y-119990420D01*
X173609897Y-120063853D01*
X173600947Y-120137085D01*
X173592072Y-120210114D01*
X173583272Y-120282940D01*
X173574552Y-120355564D01*
X173565912Y-120427984D01*
X173557355Y-120500201D01*
X173548885Y-120572214D01*
X173540503Y-120644023D01*
X173532211Y-120715628D01*
X173524013Y-120787029D01*
X173515910Y-120858224D01*
X173507905Y-120929215D01*
X173500000Y-121000000D01*
X157500000Y-73500000D02*
X157517024Y-73545283D01*
X157534202Y-73590750D01*
X157551535Y-73636401D01*
X157569023Y-73682236D01*
X157586668Y-73728256D01*
X157604468Y-73774460D01*
X157622426Y-73820848D01*
X157640540Y-73867422D01*
X157658812Y-73914180D01*
X157677242Y-73961123D01*
X157695830Y-74008251D01*
X157714577Y-74055563D01*
X157733483Y-74103061D01*
X157752548Y-74150743D01*
X157771774Y-74198611D01*
X157791160Y-74246663D01*
X157810706Y-74294900D01*
X157830414Y-74343322D01*
X157850283Y-74391929D01*
X157870313Y-74440720D01*
X157890506Y-74489696D01*
X157910861Y-74538857D01*
X157931379Y-74588202D01*
X157952060Y-74637731D01*
X157972904Y-74687444D01*
X157993911Y-74737340D01*
X158015083Y-74787421D01*
X158036419Y-74837685D01*
X158057919Y-74888132D01*
X158079584Y-74938762D01*
X158101414Y-74989575D01*
X158123409Y-75040570D01*
X158145570Y-75091746D01*
X158167896Y-75143105D01*
X158190388Y-75194645D01*
X158213046Y-75246365D01*
X158235870Y-75298266D01*
X158258860Y-75350348D01*
X158282017Y-75402608D01*
X158305340Y-75455048D01*
X158328830Y-75507666D01*
X158352486Y-75560461D01*
X158376310Y-75613434D01*
X158400300Y-75666584D01*
X158424458Y-75719910D01*
X158448782Y-75773411D01*
X158473273Y-75827087D01*
X158497932Y-75880937D01*
X158522757Y-75934959D01*
X158547749Y-75989154D01*
X158572908Y-76043520D01*
X158598234Y-76098057D01*
X158623726Y-76152763D01*
X158649385Y-76207637D01*
X158675210Y-76262679D01*
X158701201Y-76317888D01*
X158727358Y-76373261D01*
X158753681Y-76428799D01*
X158780169Y-76484499D01*
X158806822Y-76540362D01*
X158833640Y-76596384D01*
X158860622Y-76652565D01*
X158887768Y-76708904D01*
X158915078Y-76765398D01*
X158942551Y-76822047D01*
X158970186Y-76878849D01*
X158997984Y-76935802D01*
X159025943Y-76992904D01*
X159054063Y-77050154D01*
X159082344Y-77107549D01*
X159110784Y-77165088D01*
X159139382Y-77222768D01*
X159168139Y-77280588D01*
X159197053Y-77338545D01*
X159226123Y-77396637D01*
X159255348Y-77454862D01*
X159284728Y-77513216D01*
X159314261Y-77571699D01*
X159343946Y-77630306D01*
X159373783Y-77689035D01*
X159403769Y-77747883D01*
X159433903Y-77806847D01*
X159464184Y-77865924D01*
X159494611Y-77925111D01*
X159525183Y-77984404D01*
X159555896Y-78043799D01*
X159586750Y-78103294D01*
X159617743Y-78162884D01*
X159648874Y-78222565D01*
X159680139Y-78282334D01*
X159711537Y-78342185D01*
X159743066Y-78402114D01*
X159774724Y-78462117D01*
X159806507Y-78522188D01*
X159838414Y-78582323D01*
X159870441Y-78642516D01*
X159902587Y-78702761D01*
X159934847Y-78763054D01*
X159967220Y-78823387D01*
X159999700Y-78883754D01*
X160032286Y-78944149D01*
X160064973Y-79004564D01*
X160097757Y-79064993D01*
X160130634Y-79125428D01*
X160163601Y-79185861D01*
X160196652Y-79246282D01*
X160229783Y-79306685D01*
X160262988Y-79367058D01*
X160296262Y-79427393D01*
X160329600Y-79487680D01*
X160362996Y-79547906D01*
X160396442Y-79608062D01*
X160429933Y-79668135D01*
X160463461Y-79728112D01*
X160497018Y-79787980D01*
X160530597Y-79847725D01*
X160564188Y-79907331D01*
X160597783Y-79966782D01*
X160631372Y-80026062D01*
X160664943Y-80085152D01*
X160698487Y-80144033D01*
X160731990Y-80202684D01*
X160765439Y-80261082D01*
X160798821Y-80319205D01*
X160832120Y-80377026D01*
X160865320Y-80434517D01*
X160898403Y-80491649D01*
X160931349Y-80548388D01*
X160964137Y-80604700D01*
X160996744Y-80660545D01*
X161029145Y-80715882D01*
X161061310Y-80770662D01*
X161093208Y-80824834D01*
X161124805Y-80878341D01*
X161156059Y-80931116D01*
X161186927Y-80983087D01*
X161217357Y-81034170D01*
X161247290Y-81084269D01*
X161276658Y-81133271D01*
X161305377Y-81181045D01*
X161333352Y-81227433D01*
X161360461Y-81272240D01*
X161386553Y-81315224D01*
X161411434Y-81356070D01*
X161434837Y-81394351D01*
X161456378Y-81429455D01*
X161475448Y-81460405D01*
X161490911Y-81485389D01*
X161500000Y-81500000D01*
X158500000Y-72000000D02*
X158454559Y-72090866D01*
X158411865Y-72176147D01*
X158391491Y-72216780D01*
X158371735Y-72256119D01*
X158352573Y-72294199D01*
X158333984Y-72331055D01*
X158315945Y-72366720D01*
X158298431Y-72401230D01*
X158281422Y-72434618D01*
X158264893Y-72466919D01*
X158248821Y-72498167D01*
X158240950Y-72513407D01*
X158233185Y-72528397D01*
X158225523Y-72543140D01*
X158217960Y-72557642D01*
X158210495Y-72571906D01*
X158203125Y-72585938D01*
X158195846Y-72599740D01*
X158188656Y-72613317D01*
X158181551Y-72626675D01*
X158174530Y-72639816D01*
X158167589Y-72652746D01*
X158160725Y-72665468D01*
X158153935Y-72677987D01*
X158147217Y-72690308D01*
X158140567Y-72702433D01*
X158133984Y-72714369D01*
X158127463Y-72726118D01*
X158121002Y-72737686D01*
X158114599Y-72749077D01*
X158108250Y-72760294D01*
X158101952Y-72771343D01*
X158095703Y-72782227D01*
X158089500Y-72792950D01*
X158083340Y-72803518D01*
X158077219Y-72813935D01*
X158071136Y-72824203D01*
X158065088Y-72834329D01*
X158059071Y-72844316D01*
X158053082Y-72854169D01*
X158047119Y-72863892D01*
X158041179Y-72873488D01*
X158035259Y-72882963D01*
X158029356Y-72892321D01*
X158023468Y-72901566D01*
X158017591Y-72910702D01*
X158011723Y-72919733D01*
X158005860Y-72928664D01*
X158000000Y-72937500D01*
X157994140Y-72946244D01*
X157988277Y-72954901D01*
X157982409Y-72963475D01*
X157976532Y-72971970D01*
X157970644Y-72980390D01*
X157964741Y-72988741D01*
X157958821Y-72997026D01*
X157952881Y-73005249D01*
X157946918Y-73013415D01*
X157940929Y-73021528D01*
X157934912Y-73029593D01*
X157928864Y-73037613D01*
X157922781Y-73045593D01*
X157916660Y-73053537D01*
X157910500Y-73061450D01*
X157904297Y-73069336D01*
X157898048Y-73077199D01*
X157891750Y-73085043D01*
X157885401Y-73092873D01*
X157878998Y-73100693D01*
X157872537Y-73108507D01*
X157866016Y-73116320D01*
X157859433Y-73124135D01*
X157852783Y-73131958D01*
X157846065Y-73139792D01*
X157839275Y-73147642D01*
X157832411Y-73155512D01*
X157825470Y-73163406D01*
X157818449Y-73171329D01*
X157811344Y-73179285D01*
X157804154Y-73187278D01*
X157796875Y-73195313D01*
X157789505Y-73203393D01*
X157782040Y-73211523D01*
X157774477Y-73219708D01*
X157766815Y-73227951D01*
X157759050Y-73236257D01*
X157751179Y-73244631D01*
X157743199Y-73253076D01*
X157735107Y-73261597D01*
X157726902Y-73270198D01*
X157718578Y-73278883D01*
X157710135Y-73287657D01*
X157701569Y-73296524D01*
X157692876Y-73305488D01*
X157684055Y-73314554D01*
X157666016Y-73333008D01*
X157647427Y-73351919D01*
X157628265Y-73371323D01*
X157608509Y-73391253D01*
X157588135Y-73411743D01*
X157567120Y-73432829D01*
X157545441Y-73454544D01*
X157500000Y-73500000D01*
X157500000Y-66500000D02*
X157507137Y-66505722D01*
X157514252Y-66511453D01*
X157521349Y-66517195D01*
X157528425Y-66522945D01*
X157535484Y-66528706D01*
X157542520Y-66534476D01*
X157556538Y-66546047D01*
X157570478Y-66557658D01*
X157584340Y-66569308D01*
X157598125Y-66580997D01*
X157611833Y-66592726D01*
X157625465Y-66604494D01*
X157639020Y-66616302D01*
X157652498Y-66628150D01*
X157665901Y-66640036D01*
X157679228Y-66651963D01*
X157692479Y-66663928D01*
X157705655Y-66675934D01*
X157718755Y-66687979D01*
X157731780Y-66700063D01*
X157744731Y-66712187D01*
X157757607Y-66724350D01*
X157770409Y-66736553D01*
X157783136Y-66748796D01*
X157795790Y-66761078D01*
X157808369Y-66773400D01*
X157820875Y-66785762D01*
X157833308Y-66798164D01*
X157845667Y-66810605D01*
X157857954Y-66823086D01*
X157870167Y-66835606D01*
X157882308Y-66848167D01*
X157894376Y-66860768D01*
X157906372Y-66873408D01*
X157918296Y-66886089D01*
X157930147Y-66898809D01*
X157941927Y-66911570D01*
X157953635Y-66924370D01*
X157965272Y-66937211D01*
X157976837Y-66950092D01*
X157988332Y-66963014D01*
X157999755Y-66975975D01*
X158011107Y-66988978D01*
X158022388Y-67002020D01*
X158033599Y-67015103D01*
X158044740Y-67028227D01*
X158055810Y-67041391D01*
X158066810Y-67054596D01*
X158077740Y-67067841D01*
X158088600Y-67081128D01*
X158099391Y-67094455D01*
X158110112Y-67107823D01*
X158120763Y-67121233D01*
X158131345Y-67134683D01*
X158141858Y-67148175D01*
X158152301Y-67161707D01*
X158162676Y-67175282D01*
X158172982Y-67188897D01*
X158183219Y-67202554D01*
X158193387Y-67216253D01*
X158203487Y-67229993D01*
X158213518Y-67243775D01*
X158223481Y-67257599D01*
X158233376Y-67271465D01*
X158243202Y-67285372D01*
X158252961Y-67299322D01*
X158262651Y-67313314D01*
X158272274Y-67327349D01*
X158281829Y-67341425D01*
X158291316Y-67355544D01*
X158300735Y-67369706D01*
X158310087Y-67383911D01*
X158319372Y-67398158D01*
X158328589Y-67412448D01*
X158337739Y-67426781D01*
X158346821Y-67441157D01*
X158355836Y-67455576D01*
X158364784Y-67470038D01*
X158373665Y-67484544D01*
X158382479Y-67499093D01*
X158391226Y-67513686D01*
X158399906Y-67528323D01*
X158408520Y-67543003D01*
X158417066Y-67557727D01*
X158425546Y-67572496D01*
X158433958Y-67587308D01*
X158442304Y-67602165D01*
X158450584Y-67617066D01*
X158458797Y-67632011D01*
X158466943Y-67647002D01*
X158475022Y-67662037D01*
X158483035Y-67677116D01*
X158490982Y-67692241D01*
X158498862Y-67707411D01*
X158506675Y-67722626D01*
X158514422Y-67737886D01*
X158522102Y-67753192D01*
X158529716Y-67768543D01*
X158537263Y-67783940D01*
X158544744Y-67799382D01*
X158552158Y-67814871D01*
X158559506Y-67830406D01*
X158566787Y-67845987D01*
X158574002Y-67861614D01*
X158581150Y-67877287D01*
X158588232Y-67893007D01*
X158595247Y-67908774D01*
X158602196Y-67924588D01*
X158609077Y-67940448D01*
X158615893Y-67956356D01*
X158622641Y-67972311D01*
X158629323Y-67988313D01*
X158635938Y-68004362D01*
X158642487Y-68020459D01*
X158648968Y-68036604D01*
X158655383Y-68052796D01*
X158661731Y-68069036D01*
X158668011Y-68085325D01*
X158674225Y-68101662D01*
X158680372Y-68118046D01*
X158686451Y-68134480D01*
X158692464Y-68150962D01*
X158698409Y-68167492D01*
X158704287Y-68184072D01*
X158710097Y-68200700D01*
X158715840Y-68217377D01*
X158721516Y-68234104D01*
X158727124Y-68250880D01*
X158732664Y-68267705D01*
X158738136Y-68284580D01*
X158743541Y-68301505D01*
X158748878Y-68318479D01*
X158754146Y-68335503D01*
X158759347Y-68352578D01*
X158764479Y-68369702D01*
X158769543Y-68386877D01*
X158774539Y-68404102D01*
X158779466Y-68421377D01*
X158784325Y-68438703D01*
X158789115Y-68456080D01*
X158793836Y-68473508D01*
X158798488Y-68490987D01*
X158803071Y-68508516D01*
X158807585Y-68526097D01*
X158812030Y-68543730D01*
X158816405Y-68561413D01*
X158820711Y-68579148D01*
X158824947Y-68596935D01*
X158829113Y-68614773D01*
X158833210Y-68632663D01*
X158837236Y-68650605D01*
X158841193Y-68668599D01*
X158845079Y-68686645D01*
X158848894Y-68704743D01*
X158852639Y-68722893D01*
X158856314Y-68741096D01*
X158859917Y-68759351D01*
X158863449Y-68777659D01*
X158866911Y-68796019D01*
X158870301Y-68814432D01*
X158873619Y-68832897D01*
X158876866Y-68851416D01*
X158880041Y-68869987D01*
X158883144Y-68888611D01*
X158886175Y-68907288D01*
X158889134Y-68926018D01*
X158892021Y-68944802D01*
X158894835Y-68963638D01*
X158897576Y-68982528D01*
X158900244Y-69001471D01*
X158902839Y-69020467D01*
X158905361Y-69039516D01*
X158907809Y-69058619D01*
X158910184Y-69077776D01*
X158912485Y-69096985D01*
X158914712Y-69116249D01*
X158916864Y-69135565D01*
X158918943Y-69154936D01*
X158920947Y-69174359D01*
X158922876Y-69193836D01*
X158924731Y-69213367D01*
X158926510Y-69232951D01*
X158928214Y-69252589D01*
X158929842Y-69272280D01*
X158931395Y-69292025D01*
X158932872Y-69311823D01*
X158934274Y-69331674D01*
X158935598Y-69351579D01*
X158936847Y-69371537D01*
X158938019Y-69391549D01*
X158939114Y-69411613D01*
X158940132Y-69431731D01*
X158941073Y-69451902D01*
X158941936Y-69472126D01*
X158942722Y-69492402D01*
X158943430Y-69512732D01*
X158944060Y-69533114D01*
X158944612Y-69553549D01*
X158945086Y-69574036D01*
X158945481Y-69594576D01*
X158945797Y-69615168D01*
X158946034Y-69635812D01*
X158946193Y-69656508D01*
X158946271Y-69677256D01*
X158946271Y-69698055D01*
X158946190Y-69718906D01*
X158946030Y-69739808D01*
X158945789Y-69760761D01*
X158945468Y-69781765D01*
X158945067Y-69802819D01*
X158944585Y-69823924D01*
X158944022Y-69845079D01*
X158943378Y-69866283D01*
X158942652Y-69887538D01*
X158941846Y-69908841D01*
X158940957Y-69930194D01*
X158939987Y-69951595D01*
X158938935Y-69973044D01*
X158937801Y-69994542D01*
X158936584Y-70016087D01*
X158935285Y-70037679D01*
X158933903Y-70059318D01*
X158932439Y-70081004D01*
X158930891Y-70102735D01*
X158929261Y-70124512D01*
X158927547Y-70146334D01*
X158925749Y-70168201D01*
X158923869Y-70190111D01*
X158921904Y-70212066D01*
X158919856Y-70234063D01*
X158917723Y-70256103D01*
X158915507Y-70278184D01*
X158913207Y-70300307D01*
X158910822Y-70322470D01*
X158908353Y-70344673D01*
X158905799Y-70366915D01*
X158903161Y-70389195D01*
X158900438Y-70411513D01*
X158897631Y-70433868D01*
X158894739Y-70456259D01*
X158891762Y-70478685D01*
X158888700Y-70501145D01*
X158885553Y-70523639D01*
X158882322Y-70546165D01*
X158879006Y-70568722D01*
X158875604Y-70591310D01*
X158872118Y-70613927D01*
X158868548Y-70636572D01*
X158864892Y-70659243D01*
X158861152Y-70681941D01*
X158857327Y-70704662D01*
X158853418Y-70727407D01*
X158849424Y-70750173D01*
X158845346Y-70772960D01*
X158841184Y-70795765D01*
X158836939Y-70818587D01*
X158832609Y-70841424D01*
X158828196Y-70864275D01*
X158823700Y-70887138D01*
X158819121Y-70910011D01*
X158814460Y-70932892D01*
X158809716Y-70955779D01*
X158804890Y-70978670D01*
X158799983Y-71001563D01*
X158794995Y-71024455D01*
X158789926Y-71047343D01*
X158784778Y-71070226D01*
X158779550Y-71093101D01*
X158774243Y-71115964D01*
X158768859Y-71138814D01*
X158763397Y-71161646D01*
X158757858Y-71184457D01*
X158752244Y-71207245D01*
X158746555Y-71230005D01*
X158740792Y-71252733D01*
X158734957Y-71275426D01*
X158729050Y-71298080D01*
X158723073Y-71320690D01*
X158717027Y-71343251D01*
X158710914Y-71365758D01*
X158704734Y-71388206D01*
X158698491Y-71410590D01*
X158692186Y-71432903D01*
X158685820Y-71455139D01*
X158679397Y-71477292D01*
X158672917Y-71499353D01*
X158666385Y-71521316D01*
X158659803Y-71543172D01*
X158653173Y-71564912D01*
X158646499Y-71586526D01*
X158639786Y-71608005D01*
X158633036Y-71629336D01*
X158626254Y-71650508D01*
X158619446Y-71671508D01*
X158612616Y-71692320D01*
X158605771Y-71712929D01*
X158598917Y-71733317D01*
X158592062Y-71753464D01*
X158585214Y-71773349D01*
X158578383Y-71792947D01*
X158571580Y-71812230D01*
X158564818Y-71831166D01*
X158558111Y-71849719D01*
X158551478Y-71867846D01*
X158544937Y-71885496D01*
X158538516Y-71902608D01*
X158532244Y-71919108D01*
X158526163Y-71934900D01*
X158520322Y-71949861D01*
X158514796Y-71963821D01*
X158509691Y-71976532D01*
X158505179Y-71987588D01*
X158501607Y-71996195D01*
X158500000Y-72000000D01*
X153928230Y-65425825D02*
X153955354Y-65425865D01*
X153982398Y-65425984D01*
X154009362Y-65426183D01*
X154036246Y-65426462D01*
X154063051Y-65426819D01*
X154089776Y-65427255D01*
X154116421Y-65427769D01*
X154142987Y-65428361D01*
X154169474Y-65429032D01*
X154195880Y-65429780D01*
X154222208Y-65430606D01*
X154248456Y-65431509D01*
X154274625Y-65432490D01*
X154300714Y-65433547D01*
X154326724Y-65434681D01*
X154352654Y-65435891D01*
X154378506Y-65437177D01*
X154404278Y-65438539D01*
X154429971Y-65439977D01*
X154455585Y-65441490D01*
X154481119Y-65443079D01*
X154506575Y-65444742D01*
X154531951Y-65446480D01*
X154557249Y-65448293D01*
X154582467Y-65450180D01*
X154607606Y-65452141D01*
X154632666Y-65454176D01*
X154657647Y-65456285D01*
X154682549Y-65458467D01*
X154707372Y-65460722D01*
X154732115Y-65463050D01*
X154756780Y-65465450D01*
X154781366Y-65467923D01*
X154805873Y-65470468D01*
X154830300Y-65473085D01*
X154854649Y-65475774D01*
X154878918Y-65478534D01*
X154903109Y-65481366D01*
X154927220Y-65484269D01*
X154951253Y-65487242D01*
X154975206Y-65490286D01*
X154999080Y-65493400D01*
X155022875Y-65496584D01*
X155046590Y-65499838D01*
X155070227Y-65503162D01*
X155093784Y-65506555D01*
X155117262Y-65510018D01*
X155140661Y-65513549D01*
X155163980Y-65517148D01*
X155187220Y-65520816D01*
X155210381Y-65524553D01*
X155233462Y-65528357D01*
X155256464Y-65532229D01*
X155279386Y-65536168D01*
X155302228Y-65540175D01*
X155324991Y-65544248D01*
X155347673Y-65548388D01*
X155370277Y-65552595D01*
X155392800Y-65556868D01*
X155415243Y-65561207D01*
X155437606Y-65565611D01*
X155459889Y-65570081D01*
X155482092Y-65574616D01*
X155504215Y-65579216D01*
X155526257Y-65583881D01*
X155548219Y-65588610D01*
X155570100Y-65593403D01*
X155591901Y-65598260D01*
X155613621Y-65603181D01*
X155635260Y-65608165D01*
X155656818Y-65613213D01*
X155678295Y-65618323D01*
X155699690Y-65623495D01*
X155721005Y-65628730D01*
X155742238Y-65634027D01*
X155763389Y-65639386D01*
X155784458Y-65644806D01*
X155805446Y-65650288D01*
X155826351Y-65655830D01*
X155847174Y-65661433D01*
X155867915Y-65667096D01*
X155888573Y-65672819D01*
X155909149Y-65678602D01*
X155929641Y-65684444D01*
X155950051Y-65690345D01*
X155970377Y-65696306D01*
X155990620Y-65702324D01*
X156010779Y-65708401D01*
X156030854Y-65714536D01*
X156050845Y-65720728D01*
X156070752Y-65726978D01*
X156090574Y-65733284D01*
X156110311Y-65739647D01*
X156129963Y-65746066D01*
X156149530Y-65752541D01*
X156169011Y-65759072D01*
X156188406Y-65765657D01*
X156207715Y-65772298D01*
X156226938Y-65778993D01*
X156246074Y-65785742D01*
X156265123Y-65792544D01*
X156284085Y-65799400D01*
X156302959Y-65806309D01*
X156321744Y-65813270D01*
X156340442Y-65820284D01*
X156359051Y-65827349D01*
X156377570Y-65834465D01*
X156396000Y-65841632D01*
X156414341Y-65848850D01*
X156432591Y-65856117D01*
X156450750Y-65863434D01*
X156468818Y-65870800D01*
X156486795Y-65878215D01*
X156504679Y-65885677D01*
X156522471Y-65893187D01*
X156540170Y-65900745D01*
X156557776Y-65908348D01*
X156575287Y-65915998D01*
X156592704Y-65923693D01*
X156610026Y-65931433D01*
X156627252Y-65939217D01*
X156644382Y-65947045D01*
X156661415Y-65954916D01*
X156678351Y-65962829D01*
X156695188Y-65970784D01*
X156711927Y-65978780D01*
X156728566Y-65986817D01*
X156745105Y-65994894D01*
X156761543Y-66003009D01*
X156777879Y-66011163D01*
X156794113Y-66019355D01*
X156810243Y-66027583D01*
X156826269Y-66035847D01*
X156842190Y-66044146D01*
X156858005Y-66052480D01*
X156873714Y-66060846D01*
X156889314Y-66069245D01*
X156904805Y-66077676D01*
X156920187Y-66086137D01*
X156935457Y-66094627D01*
X156950615Y-66103146D01*
X156965660Y-66111691D01*
X156980590Y-66120263D01*
X156995404Y-66128859D01*
X157010101Y-66137479D01*
X157024680Y-66146122D01*
X157039138Y-66154785D01*
X157053475Y-66163467D01*
X157067688Y-66172168D01*
X157081777Y-66180884D01*
X157095740Y-66189616D01*
X157109574Y-66198360D01*
X157123278Y-66207115D01*
X157136849Y-66215880D01*
X157150287Y-66224652D01*
X157163588Y-66233430D01*
X157176750Y-66242210D01*
X157189771Y-66250991D01*
X157202648Y-66259769D01*
X157215379Y-66268544D01*
X157227960Y-66277311D01*
X157240389Y-66286068D01*
X157252663Y-66294811D01*
X157264777Y-66303538D01*
X157276729Y-66312244D01*
X157288514Y-66320926D01*
X157300129Y-66329580D01*
X157311568Y-66338201D01*
X157322827Y-66346784D01*
X157333901Y-66355324D01*
X157344783Y-66363815D01*
X157355469Y-66372252D01*
X157365950Y-66380626D01*
X157376220Y-66388931D01*
X157386270Y-66397159D01*
X157396091Y-66405299D01*
X157405674Y-66413342D01*
X157415006Y-66421275D01*
X157424074Y-66429085D01*
X157432865Y-66436756D01*
X157441359Y-66444271D01*
X157449538Y-66451607D01*
X157457376Y-66458739D01*
X157464843Y-66465635D01*
X157471903Y-66472256D01*
X157478506Y-66478548D01*
X157484586Y-66484440D01*
X157490047Y-66489828D01*
X157494732Y-66494542D01*
X157498340Y-66498253D01*
X157500000Y-66500000D01*
D11*
X151500000Y-66500000D02*
G75*
G02*
X153928228Y-65425825I3000000J-3500000D01*
G01*
D10*
X149553168Y-65053168D02*
X149563762Y-65058179D01*
X149574319Y-65063194D01*
X149584850Y-65068218D01*
X149595343Y-65073248D01*
X149605811Y-65078287D01*
X149616242Y-65083330D01*
X149626647Y-65088383D01*
X149637016Y-65093441D01*
X149647361Y-65098509D01*
X149657669Y-65103581D01*
X149667953Y-65108664D01*
X149678201Y-65113751D01*
X149688425Y-65118849D01*
X149698613Y-65123950D01*
X149718908Y-65134180D01*
X149739087Y-65144441D01*
X149759151Y-65154733D01*
X149779102Y-65165057D01*
X149798942Y-65175413D01*
X149818672Y-65185801D01*
X149838294Y-65196222D01*
X149857809Y-65206678D01*
X149877219Y-65217167D01*
X149896525Y-65227691D01*
X149915730Y-65238250D01*
X149934834Y-65248845D01*
X149953840Y-65259477D01*
X149972749Y-65270145D01*
X149991563Y-65280852D01*
X150010283Y-65291597D01*
X150028911Y-65302381D01*
X150047449Y-65313205D01*
X150065898Y-65324070D01*
X150084261Y-65334976D01*
X150102539Y-65345924D01*
X150120733Y-65356915D01*
X150138846Y-65367951D01*
X150156880Y-65379031D01*
X150174835Y-65390156D01*
X150192715Y-65401329D01*
X150210520Y-65412549D01*
X150228254Y-65423818D01*
X150245917Y-65435137D01*
X150263512Y-65446507D01*
X150281041Y-65457928D01*
X150298506Y-65469403D01*
X150315909Y-65480933D01*
X150333251Y-65492519D01*
X150350536Y-65504162D01*
X150367766Y-65515863D01*
X150384942Y-65527625D01*
X150402068Y-65539448D01*
X150419144Y-65551334D01*
X150436175Y-65563286D01*
X150453162Y-65575304D01*
X150470108Y-65587391D01*
X150487016Y-65599548D01*
X150503888Y-65611778D01*
X150520727Y-65624082D01*
X150537537Y-65636464D01*
X150554320Y-65648924D01*
X150571078Y-65661466D01*
X150587817Y-65674092D01*
X150604538Y-65686805D01*
X150621246Y-65699607D01*
X150637944Y-65712502D01*
X150654636Y-65725493D01*
X150671325Y-65738583D01*
X150688017Y-65751776D01*
X150704715Y-65765076D01*
X150721425Y-65778486D01*
X150738150Y-65792011D01*
X150754896Y-65805655D01*
X150771669Y-65819423D01*
X150788474Y-65833321D01*
X150805317Y-65847353D01*
X150822206Y-65861527D01*
X150839146Y-65875848D01*
X150856145Y-65890323D01*
X150873212Y-65904959D01*
X150890355Y-65919766D01*
X150907583Y-65934751D01*
X150924907Y-65949925D01*
X150942337Y-65965297D01*
X150959886Y-65980880D01*
X150977567Y-65996686D01*
X150995394Y-66012729D01*
X151013383Y-66029025D01*
X151031554Y-66045592D01*
X151049925Y-66062449D01*
X151068520Y-66079619D01*
X151087365Y-66097128D01*
X151106490Y-66115003D01*
X151125928Y-66133281D01*
X151145720Y-66152000D01*
X151165913Y-66171206D01*
X151186565Y-66190957D01*
X151207743Y-66211321D01*
X151229533Y-66232382D01*
X151252042Y-66254247D01*
X151275410Y-66277056D01*
X151299824Y-66300994D01*
X151325545Y-66326322D01*
X151352958Y-66353425D01*
X151382681Y-66382919D01*
X151415823Y-66415911D01*
X151454816Y-66454830D01*
X151500000Y-66500000D01*
X140204933Y-63913096D02*
X141000000Y-64500000D01*
X141911040Y-64420687D02*
X141895008Y-64420727D01*
X141878638Y-64420847D01*
X141861927Y-64421049D01*
X141844872Y-64421335D01*
X141827472Y-64421706D01*
X141809723Y-64422164D01*
X141791625Y-64422710D01*
X141773175Y-64423347D01*
X141754372Y-64424075D01*
X141735217Y-64424896D01*
X141715707Y-64425812D01*
X141695844Y-64426824D01*
X141675627Y-64427933D01*
X141655059Y-64429140D01*
X141634140Y-64430448D01*
X141612873Y-64431856D01*
X141591263Y-64433367D01*
X141569312Y-64434980D01*
X141547026Y-64436697D01*
X141524413Y-64438518D01*
X141501478Y-64440445D01*
X141478233Y-64442476D01*
X141454688Y-64444613D01*
X141430857Y-64446854D01*
X141406754Y-64449199D01*
X141382399Y-64451648D01*
X141357812Y-64454199D01*
X141333020Y-64456849D01*
X141308053Y-64459596D01*
X141282947Y-64462437D01*
X141257744Y-64465366D01*
X141232497Y-64468378D01*
X141207267Y-64471466D01*
X141182132Y-64474619D01*
X141157187Y-64477824D01*
X141132554Y-64481065D01*
X141108391Y-64484320D01*
X141084910Y-64487557D01*
X141062410Y-64490731D01*
X141041337Y-64493774D01*
X141022434Y-64496570D01*
X141007181Y-64498883D01*
X141000000Y-64500000D01*
X152000000Y-67000000D02*
X152000000Y-67000000D01*
X139500000Y-132500000D02*
X139531597Y-132528910D01*
X139563260Y-132557771D01*
X139594987Y-132586584D01*
X139626780Y-132615348D01*
X139658639Y-132644063D01*
X139690562Y-132672729D01*
X139722550Y-132701347D01*
X139754604Y-132729915D01*
X139786723Y-132758434D01*
X139818907Y-132786905D01*
X139851155Y-132815326D01*
X139883469Y-132843698D01*
X139915848Y-132872020D01*
X139948292Y-132900294D01*
X139980800Y-132928517D01*
X140013374Y-132956692D01*
X140046012Y-132984817D01*
X140078716Y-133012892D01*
X140111484Y-133040917D01*
X140144316Y-133068893D01*
X140177214Y-133096818D01*
X140210176Y-133124694D01*
X140243203Y-133152520D01*
X140276294Y-133180296D01*
X140309450Y-133208021D01*
X140342670Y-133235696D01*
X140375955Y-133263321D01*
X140409304Y-133290896D01*
X140442718Y-133318420D01*
X140476196Y-133345894D01*
X140509738Y-133373317D01*
X140543344Y-133400689D01*
X140577015Y-133428010D01*
X140610749Y-133455281D01*
X140644548Y-133482500D01*
X140678411Y-133509669D01*
X140712337Y-133536786D01*
X140746328Y-133563852D01*
X140780382Y-133590867D01*
X140814500Y-133617830D01*
X140848682Y-133644742D01*
X140882928Y-133671602D01*
X140917237Y-133698411D01*
X140951609Y-133725168D01*
X140986045Y-133751873D01*
X141020545Y-133778526D01*
X141055108Y-133805127D01*
X141089734Y-133831676D01*
X141124423Y-133858172D01*
X141159175Y-133884616D01*
X141193991Y-133911008D01*
X141228869Y-133937347D01*
X141263810Y-133963634D01*
X141298815Y-133989868D01*
X141333881Y-134016049D01*
X141369011Y-134042177D01*
X141404203Y-134068252D01*
X141439457Y-134094274D01*
X141474774Y-134120242D01*
X141510153Y-134146158D01*
X141545595Y-134172019D01*
X141581098Y-134197827D01*
X141616664Y-134223582D01*
X141652291Y-134249282D01*
X141687980Y-134274929D01*
X141723731Y-134300522D01*
X141759544Y-134326060D01*
X141795418Y-134351545D01*
X141831354Y-134376975D01*
X141867351Y-134402350D01*
X141903409Y-134427671D01*
X141939528Y-134452937D01*
X141975708Y-134478148D01*
X142011949Y-134503304D01*
X142048251Y-134528406D01*
X142084614Y-134553452D01*
X142121037Y-134578442D01*
X142157520Y-134603377D01*
X142194064Y-134628257D01*
X142230667Y-134653081D01*
X142267331Y-134677849D01*
X142304055Y-134702561D01*
X142340838Y-134727217D01*
X142377681Y-134751817D01*
X142414584Y-134776360D01*
X142451546Y-134800847D01*
X142488567Y-134825277D01*
X142525647Y-134849651D01*
X142562786Y-134873967D01*
X142599983Y-134898227D01*
X142637240Y-134922429D01*
X142674554Y-134946574D01*
X142711927Y-134970662D01*
X142749358Y-134994692D01*
X142786847Y-135018664D01*
X142824394Y-135042578D01*
X142861998Y-135066435D01*
X142899660Y-135090233D01*
X142937379Y-135113973D01*
X142975155Y-135137654D01*
X143012988Y-135161277D01*
X143050878Y-135184841D01*
X143088824Y-135208346D01*
X143126827Y-135231792D01*
X143164886Y-135255178D01*
X143203000Y-135278506D01*
X143241171Y-135301773D01*
X143279397Y-135324981D01*
X143317678Y-135348129D01*
X143356014Y-135371218D01*
X143394405Y-135394246D01*
X143432851Y-135417213D01*
X143471352Y-135440120D01*
X143509906Y-135462967D01*
X143548515Y-135485752D01*
X143587177Y-135508477D01*
X143625893Y-135531140D01*
X143664662Y-135553742D01*
X143703485Y-135576282D01*
X143742360Y-135598761D01*
X143781287Y-135621178D01*
X143820267Y-135643533D01*
X143859299Y-135665825D01*
X143898383Y-135688055D01*
X143937518Y-135710223D01*
X143976705Y-135732327D01*
X144015942Y-135754369D01*
X144055230Y-135776348D01*
X144094569Y-135798263D01*
X144133957Y-135820115D01*
X144173396Y-135841903D01*
X144212884Y-135863627D01*
X144252421Y-135885287D01*
X144292007Y-135906883D01*
X144331642Y-135928414D01*
X144371325Y-135949881D01*
X144411056Y-135971282D01*
X144450834Y-135992619D01*
X144490660Y-136013891D01*
X144530533Y-136035096D01*
X144570452Y-136056237D01*
X144610418Y-136077311D01*
X144650429Y-136098319D01*
X144690487Y-136119261D01*
X144730589Y-136140137D01*
X144770736Y-136160946D01*
X144810928Y-136181688D01*
X144851163Y-136202362D01*
X144891442Y-136222970D01*
X144931765Y-136243509D01*
X144972130Y-136263981D01*
X145012538Y-136284385D01*
X145052988Y-136304721D01*
X145093480Y-136324988D01*
X145134013Y-136345187D01*
X145174586Y-136365317D01*
X145215200Y-136385377D01*
X145255854Y-136405369D01*
X145296547Y-136425290D01*
X145337279Y-136445142D01*
X145378050Y-136464924D01*
X145418859Y-136484635D01*
X145459705Y-136504276D01*
X145500589Y-136523846D01*
X145541509Y-136543345D01*
X145582465Y-136562773D01*
X145623457Y-136582129D01*
X145664484Y-136601414D01*
X145705545Y-136620627D01*
X145746641Y-136639767D01*
X145787769Y-136658835D01*
X145828931Y-136677830D01*
X145870125Y-136696752D01*
X145911351Y-136715601D01*
X145952608Y-136734376D01*
X145993896Y-136753077D01*
X146035214Y-136771705D01*
X146076561Y-136790258D01*
X146117937Y-136808736D01*
X146159342Y-136827140D01*
X146200774Y-136845469D01*
X146242232Y-136863722D01*
X146283718Y-136881899D01*
X146325228Y-136900001D01*
X146366764Y-136918026D01*
X146408324Y-136935975D01*
X146449908Y-136953847D01*
X146491515Y-136971642D01*
X146533143Y-136989360D01*
X146574794Y-137007000D01*
X146616465Y-137024563D01*
X146658156Y-137042047D01*
X146699866Y-137059452D01*
X146741595Y-137076779D01*
X146783342Y-137094026D01*
X146825105Y-137111195D01*
X146866885Y-137128283D01*
X146908680Y-137145292D01*
X146950489Y-137162220D01*
X146992312Y-137179068D01*
X147034148Y-137195835D01*
X147075996Y-137212520D01*
X147117855Y-137229124D01*
X147159725Y-137245646D01*
X147201603Y-137262087D01*
X147243490Y-137278444D01*
X147285384Y-137294719D01*
X147327285Y-137310911D01*
X147369192Y-137327019D01*
X147411103Y-137343044D01*
X147453018Y-137358984D01*
X147494935Y-137374841D01*
X147536854Y-137390612D01*
X147578774Y-137406298D01*
X147620693Y-137421899D01*
X147662611Y-137437415D01*
X147704526Y-137452844D01*
X147746437Y-137468187D01*
X147788344Y-137483443D01*
X147830245Y-137498612D01*
X147872138Y-137513693D01*
X147914024Y-137528687D01*
X147955900Y-137543592D01*
X147997766Y-137558410D01*
X148039619Y-137573138D01*
X148081460Y-137587777D01*
X148123287Y-137602327D01*
X148165098Y-137616786D01*
X148206892Y-137631156D01*
X148248668Y-137645435D01*
X148290425Y-137659623D01*
X148332161Y-137673719D01*
X148373875Y-137687724D01*
X148415566Y-137701637D01*
X148457231Y-137715458D01*
X148498871Y-137729185D01*
X148540482Y-137742820D01*
X148582065Y-137756361D01*
X148623617Y-137769808D01*
X148665136Y-137783160D01*
X148706622Y-137796419D01*
X148748073Y-137809582D01*
X148789487Y-137822649D01*
X148830863Y-137835621D01*
X148872198Y-137848497D01*
X148913492Y-137861276D01*
X148954743Y-137873959D01*
X148995948Y-137886544D01*
X149037108Y-137899031D01*
X149078218Y-137911420D01*
X149119279Y-137923711D01*
X149160287Y-137935903D01*
X149201242Y-137947996D01*
X149242141Y-137959990D01*
X149282983Y-137971883D01*
X149323766Y-137983676D01*
X149364487Y-137995368D01*
X149405146Y-138006959D01*
X149445739Y-138018449D01*
X149486265Y-138029836D01*
X149526723Y-138041122D01*
X149567109Y-138052305D01*
X149607422Y-138063385D01*
X149647660Y-138074361D01*
X149687820Y-138085234D01*
X149727901Y-138096002D01*
X149767900Y-138106666D01*
X149807816Y-138117225D01*
X149847645Y-138127679D01*
X149887386Y-138138027D01*
X149927037Y-138148269D01*
X149966595Y-138158405D01*
X150006057Y-138168434D01*
X150045422Y-138178356D01*
X150084687Y-138188171D01*
X150123849Y-138197878D01*
X150162907Y-138207476D01*
X150201857Y-138216966D01*
X150240698Y-138226348D01*
X150279426Y-138235620D01*
X150318039Y-138244782D01*
X150356535Y-138253835D01*
X150394910Y-138262778D01*
X150433163Y-138271610D01*
X150471291Y-138280331D01*
X150509290Y-138288941D01*
X150547159Y-138297440D01*
X150566050Y-138301649D01*
X150584894Y-138305827D01*
X150603717Y-138309980D01*
X150622493Y-138314103D01*
X150641246Y-138318199D01*
X150659952Y-138322266D01*
X150678635Y-138326306D01*
X150697270Y-138330316D01*
X150715880Y-138334300D01*
X150734443Y-138338253D01*
X150752979Y-138342181D01*
X150771468Y-138346078D01*
X150789929Y-138349949D01*
X150808342Y-138353789D01*
X150826727Y-138357603D01*
X150845063Y-138361387D01*
X150863370Y-138365144D01*
X150881628Y-138368871D01*
X150899855Y-138372571D01*
X150918033Y-138376241D01*
X150936180Y-138379884D01*
X150954276Y-138383496D01*
X150972340Y-138387082D01*
X150990353Y-138390637D01*
X151008333Y-138394166D01*
X151026262Y-138397664D01*
X151044157Y-138401135D01*
X151062000Y-138404576D01*
X151079807Y-138407990D01*
X151097563Y-138411373D01*
X151115282Y-138414729D01*
X151132949Y-138418055D01*
X151150577Y-138421353D01*
X151168153Y-138424621D01*
X151185690Y-138427862D01*
X151203174Y-138431072D01*
X151220618Y-138434255D01*
X151238009Y-138437408D01*
X151255357Y-138440533D01*
X151272653Y-138443628D01*
X151289905Y-138446695D01*
X151307103Y-138449733D01*
X151324258Y-138452742D01*
X151341358Y-138455722D01*
X151358413Y-138458673D01*
X151375413Y-138461594D01*
X151392367Y-138464488D01*
X151409265Y-138467352D01*
X151426116Y-138470187D01*
X151442912Y-138472993D01*
X151459659Y-138475770D01*
X151476350Y-138478518D01*
X151492990Y-138481238D01*
X151509575Y-138483928D01*
X151526108Y-138486589D01*
X151542585Y-138489221D01*
X151559009Y-138491825D01*
X151575376Y-138494399D01*
X151591690Y-138496945D01*
X151607946Y-138499462D01*
X151624147Y-138501949D01*
X151640291Y-138504408D01*
X151656378Y-138506838D01*
X151672408Y-138509239D01*
X151688380Y-138511612D01*
X151704293Y-138513955D01*
X151720148Y-138516270D01*
X151735945Y-138518556D01*
X151751681Y-138520813D01*
X151767359Y-138523041D01*
X151782975Y-138525241D01*
X151798532Y-138527412D01*
X151814026Y-138529554D01*
X151829462Y-138531668D01*
X151844833Y-138533753D01*
X151860145Y-138535810D01*
X151875391Y-138537837D01*
X151890578Y-138539837D01*
X151905698Y-138541808D01*
X151920758Y-138543751D01*
X151935751Y-138545665D01*
X151950683Y-138547551D01*
X151965546Y-138549408D01*
X151980349Y-138551238D01*
X151995082Y-138553039D01*
X152009753Y-138554812D01*
X152024354Y-138556557D01*
X152038893Y-138558274D01*
X152053360Y-138559962D01*
X152067766Y-138561624D01*
X152082098Y-138563256D01*
X152096368Y-138564862D01*
X152110564Y-138566439D01*
X152124698Y-138567989D01*
X152138755Y-138569511D01*
X152152752Y-138571005D01*
X152166670Y-138572472D01*
X152180527Y-138573912D01*
X152194306Y-138575324D01*
X152208022Y-138576709D01*
X152221659Y-138578066D01*
X152235233Y-138579397D01*
X152248727Y-138580700D01*
X152262159Y-138581977D01*
X152275509Y-138583226D01*
X152288796Y-138584449D01*
X152302000Y-138585644D01*
X152315143Y-138586814D01*
X152328201Y-138587956D01*
X152341196Y-138589072D01*
X152354107Y-138590162D01*
X152366955Y-138591226D01*
X152379716Y-138592262D01*
X152392416Y-138593274D01*
X152405028Y-138594259D01*
X152417577Y-138595218D01*
X152430039Y-138596151D01*
X152442438Y-138597059D01*
X152454748Y-138597941D01*
X152466995Y-138598798D01*
X152479153Y-138599629D01*
X152491248Y-138600436D01*
X152503252Y-138601216D01*
X152515193Y-138601972D01*
X152527043Y-138602703D01*
X152538830Y-138603410D01*
X152550525Y-138604091D01*
X152562158Y-138604748D01*
X152573697Y-138605380D01*
X152585174Y-138605989D01*
X152596557Y-138606573D01*
X152607877Y-138607133D01*
X152619103Y-138607669D01*
X152630267Y-138608182D01*
X152641335Y-138608670D01*
X152652341Y-138609136D01*
X152663252Y-138609578D01*
X152674100Y-138609997D01*
X152684852Y-138610392D01*
X152695542Y-138610765D01*
X152706135Y-138611115D01*
X152716666Y-138611442D01*
X152727100Y-138611747D01*
X152737472Y-138612030D01*
X152747746Y-138612290D01*
X152757959Y-138612529D01*
X152768073Y-138612745D01*
X152778127Y-138612940D01*
X152788081Y-138613113D01*
X152797974Y-138613265D01*
X152807769Y-138613396D01*
X152817503Y-138613505D01*
X152827137Y-138613594D01*
X152836711Y-138613662D01*
X152846185Y-138613709D01*
X152855599Y-138613736D01*
X152864913Y-138613743D01*
X152874167Y-138613729D01*
X152883321Y-138613696D01*
X152892416Y-138613643D01*
X152901411Y-138613571D01*
X152910346Y-138613479D01*
X152919181Y-138613368D01*
X152927957Y-138613238D01*
X152936633Y-138613089D01*
X152945250Y-138612922D01*
X152953767Y-138612736D01*
X152962226Y-138612531D01*
X152970585Y-138612309D01*
X152978886Y-138612069D01*
X152987087Y-138611811D01*
X152995231Y-138611535D01*
X153003274Y-138611243D01*
X153011261Y-138610932D01*
X153019148Y-138610605D01*
X153026979Y-138610261D01*
X153034710Y-138609901D01*
X153042385Y-138609524D01*
X153049960Y-138609131D01*
X153057481Y-138608721D01*
X153064902Y-138608297D01*
X153072268Y-138607856D01*
X153079536Y-138607400D01*
X153086749Y-138606928D01*
X153093864Y-138606443D01*
X153100925Y-138605940D01*
X153107889Y-138605425D01*
X153114799Y-138604894D01*
X153121611Y-138604350D01*
X153128371Y-138603790D01*
X153135034Y-138603218D01*
X153141645Y-138602631D01*
X153148160Y-138602032D01*
X153154622Y-138601417D01*
X153160990Y-138600792D01*
X153167306Y-138600152D01*
X153173527Y-138599501D01*
X153179698Y-138598835D01*
X153185774Y-138598159D01*
X153191801Y-138597469D01*
X153197734Y-138596769D01*
X153203617Y-138596055D01*
X153209409Y-138595331D01*
X153215150Y-138594594D01*
X153220801Y-138593849D01*
X153226403Y-138593089D01*
X153231915Y-138592322D01*
X153237378Y-138591541D01*
X153242752Y-138590752D01*
X153248078Y-138589951D01*
X153253316Y-138589142D01*
X153258507Y-138588321D01*
X153263611Y-138587493D01*
X153268667Y-138586652D01*
X153273638Y-138585805D01*
X153278562Y-138584946D01*
X153283402Y-138584081D01*
X153288196Y-138583205D01*
X153292906Y-138582323D01*
X153297571Y-138581429D01*
X153302153Y-138580530D01*
X153306691Y-138579620D01*
X153311147Y-138578706D01*
X153315559Y-138577780D01*
X153319891Y-138576851D01*
X153324180Y-138575911D01*
X153328389Y-138574967D01*
X153332556Y-138574013D01*
X153336645Y-138573055D01*
X153340692Y-138572087D01*
X153344662Y-138571117D01*
X153348591Y-138570136D01*
X153352444Y-138569154D01*
X153356256Y-138568161D01*
X153359994Y-138567166D01*
X153363692Y-138566162D01*
X153367317Y-138565157D01*
X153370903Y-138564142D01*
X153374417Y-138563126D01*
X153377892Y-138562101D01*
X153381297Y-138561075D01*
X153384663Y-138560041D01*
X153387960Y-138559006D01*
X153391220Y-138557962D01*
X153394412Y-138556919D01*
X153397567Y-138555867D01*
X153400655Y-138554816D01*
X153403708Y-138553756D01*
X153406695Y-138552697D01*
X153409646Y-138551630D01*
X153412534Y-138550565D01*
X153415386Y-138549491D01*
X153418176Y-138548419D01*
X153420932Y-138547339D01*
X153423627Y-138546261D01*
X153426287Y-138545176D01*
X153428888Y-138544093D01*
X153431456Y-138543002D01*
X153433966Y-138541914D01*
X153436442Y-138540819D01*
X153438862Y-138539726D01*
X153441250Y-138538627D01*
X153443582Y-138537530D01*
X153445883Y-138536427D01*
X153448129Y-138535327D01*
X153450344Y-138534220D01*
X153452507Y-138533117D01*
X153454639Y-138532007D01*
X153456720Y-138530901D01*
X153458770Y-138529789D01*
X153460771Y-138528680D01*
X153462742Y-138527565D01*
X153464665Y-138526455D01*
X153466559Y-138525338D01*
X153468405Y-138524226D01*
X153470223Y-138523107D01*
X153471995Y-138521994D01*
X153473739Y-138520874D01*
X153475438Y-138519759D01*
X153477110Y-138518638D01*
X153478739Y-138517522D01*
X153480340Y-138516400D01*
X153481900Y-138515283D01*
X153483433Y-138514160D01*
X153484925Y-138513043D01*
X153486391Y-138511919D01*
X153487818Y-138510801D01*
X153489219Y-138509678D01*
X153490582Y-138508559D01*
X153491920Y-138507435D01*
X153493220Y-138506316D01*
X153494496Y-138505192D01*
X153495736Y-138504073D01*
X153496951Y-138502949D01*
X153498132Y-138501830D01*
X153499289Y-138500705D01*
X153500000Y-138500000D01*
X153500000Y-138500000D02*
X153546702Y-138473684D01*
X153593360Y-138447302D01*
X153639976Y-138420851D01*
X153686548Y-138394334D01*
X153733076Y-138367749D01*
X153779562Y-138341097D01*
X153826004Y-138314377D01*
X153872402Y-138287591D01*
X153918757Y-138260737D01*
X153965068Y-138233817D01*
X154011336Y-138206829D01*
X154057560Y-138179775D01*
X154103739Y-138152653D01*
X154149875Y-138125465D01*
X154195967Y-138098210D01*
X154242015Y-138070888D01*
X154288019Y-138043500D01*
X154333978Y-138016045D01*
X154379893Y-137988523D01*
X154425764Y-137960935D01*
X154471590Y-137933280D01*
X154517372Y-137905559D01*
X154563109Y-137877771D01*
X154608801Y-137849918D01*
X154654449Y-137821997D01*
X154700052Y-137794011D01*
X154745609Y-137765959D01*
X154791122Y-137737840D01*
X154836590Y-137709656D01*
X154882012Y-137681405D01*
X154927389Y-137653089D01*
X154972721Y-137624706D01*
X155018007Y-137596258D01*
X155063248Y-137567745D01*
X155108443Y-137539165D01*
X155153592Y-137510520D01*
X155198696Y-137481810D01*
X155243753Y-137453034D01*
X155288765Y-137424192D01*
X155333730Y-137395286D01*
X155378649Y-137366314D01*
X155423522Y-137337277D01*
X155468349Y-137308175D01*
X155513129Y-137279007D01*
X155557862Y-137249775D01*
X155602549Y-137220478D01*
X155647188Y-137191116D01*
X155691781Y-137161689D01*
X155736327Y-137132198D01*
X155780826Y-137102642D01*
X155825277Y-137073022D01*
X155869682Y-137043337D01*
X155914038Y-137013587D01*
X155958347Y-136983774D01*
X156002609Y-136953896D01*
X156046823Y-136923954D01*
X156090988Y-136893948D01*
X156135106Y-136863879D01*
X156179176Y-136833745D01*
X156223197Y-136803548D01*
X156267170Y-136773286D01*
X156311095Y-136742962D01*
X156354971Y-136712574D01*
X156398798Y-136682122D01*
X156442576Y-136651607D01*
X156486305Y-136621029D01*
X156529986Y-136590388D01*
X156573617Y-136559683D01*
X156617198Y-136528916D01*
X156660731Y-136498086D01*
X156704213Y-136467193D01*
X156747646Y-136436238D01*
X156791029Y-136405220D01*
X156834362Y-136374140D01*
X156877645Y-136342997D01*
X156920877Y-136311792D01*
X156964059Y-136280526D01*
X157007191Y-136249197D01*
X157050271Y-136217806D01*
X157093301Y-136186353D01*
X157136280Y-136154839D01*
X157179208Y-136123264D01*
X157222084Y-136091626D01*
X157264909Y-136059928D01*
X157307683Y-136028169D01*
X157350405Y-135996348D01*
X157393074Y-135964466D01*
X157435692Y-135932524D01*
X157478258Y-135900521D01*
X157520771Y-135868458D01*
X157563232Y-135836334D01*
X157605639Y-135804150D01*
X157647995Y-135771905D01*
X157690297Y-135739601D01*
X157732546Y-135707237D01*
X157774741Y-135674813D01*
X157816883Y-135642330D01*
X157858972Y-135609787D01*
X157901006Y-135577185D01*
X157942986Y-135544524D01*
X157984913Y-135511803D01*
X158026784Y-135479024D01*
X158068602Y-135446186D01*
X158110364Y-135413290D01*
X158152072Y-135380336D01*
X158193724Y-135347323D01*
X158235321Y-135314252D01*
X158276863Y-135281123D01*
X158318349Y-135247937D01*
X158359779Y-135214693D01*
X158401152Y-135181392D01*
X158442470Y-135148033D01*
X158483731Y-135114618D01*
X158524935Y-135081145D01*
X158566083Y-135047617D01*
X158607173Y-135014031D01*
X158648206Y-134980390D01*
X158689182Y-134946692D01*
X158730100Y-134912938D01*
X158770960Y-134879129D01*
X158811761Y-134845264D01*
X158852505Y-134811344D01*
X158893189Y-134777369D01*
X158933815Y-134743339D01*
X158974382Y-134709255D01*
X159014889Y-134675116D01*
X159055337Y-134640923D01*
X159095725Y-134606675D01*
X159136053Y-134572374D01*
X159176321Y-134538020D01*
X159216529Y-134503612D01*
X159256676Y-134469151D01*
X159296761Y-134434637D01*
X159336786Y-134400071D01*
X159376749Y-134365452D01*
X159416650Y-134330781D01*
X159456489Y-134296059D01*
X159496266Y-134261284D01*
X159535981Y-134226459D01*
X159575632Y-134191582D01*
X159615221Y-134156654D01*
X159654746Y-134121676D01*
X159694208Y-134086648D01*
X159733606Y-134051569D01*
X159772940Y-134016441D01*
X159812209Y-133981264D01*
X159851413Y-133946037D01*
X159890552Y-133910761D01*
X159929626Y-133875437D01*
X159968635Y-133840065D01*
X160007577Y-133804645D01*
X160046453Y-133769177D01*
X160085263Y-133733662D01*
X160124006Y-133698100D01*
X160162681Y-133662491D01*
X160201289Y-133626836D01*
X160239829Y-133591136D01*
X160278301Y-133555389D01*
X160316705Y-133519597D01*
X160355039Y-133483761D01*
X160393305Y-133447879D01*
X160431501Y-133411954D01*
X160469627Y-133375985D01*
X160507683Y-133339972D01*
X160545668Y-133303917D01*
X160583582Y-133267819D01*
X160621425Y-133231678D01*
X160659196Y-133195496D01*
X160696896Y-133159272D01*
X160734522Y-133123007D01*
X160772076Y-133086702D01*
X160809557Y-133050356D01*
X160846964Y-133013971D01*
X160884297Y-132977547D01*
X160921555Y-132941084D01*
X160958739Y-132904582D01*
X160995848Y-132868042D01*
X161032880Y-132831465D01*
X161069837Y-132794852D01*
X161106717Y-132758201D01*
X161143520Y-132721515D01*
X161180246Y-132684794D01*
X161216894Y-132648037D01*
X161253463Y-132611246D01*
X161289954Y-132574422D01*
X161326366Y-132537564D01*
X161362697Y-132500673D01*
X161398949Y-132463750D01*
X161435119Y-132426796D01*
X161471209Y-132389810D01*
X161507217Y-132352794D01*
X161543142Y-132315749D01*
X161578985Y-132278674D01*
X161614745Y-132241571D01*
X161650420Y-132204439D01*
X161686012Y-132167281D01*
X161721518Y-132130096D01*
X161756939Y-132092885D01*
X161792274Y-132055648D01*
X161827523Y-132018387D01*
X161862684Y-131981103D01*
X161897757Y-131943795D01*
X161932742Y-131906465D01*
X161967638Y-131869113D01*
X162002445Y-131831741D01*
X162037161Y-131794348D01*
X162071786Y-131756936D01*
X162106320Y-131719506D01*
X162140762Y-131682058D01*
X162175111Y-131644594D01*
X162209366Y-131607113D01*
X162243527Y-131569618D01*
X162277593Y-131532108D01*
X162311564Y-131494586D01*
X162345438Y-131457051D01*
X162379215Y-131419505D01*
X162412894Y-131381948D01*
X162446475Y-131344382D01*
X162479956Y-131306808D01*
X162513337Y-131269227D01*
X162546617Y-131231639D01*
X162579795Y-131194047D01*
X162612870Y-131156450D01*
X162645842Y-131118850D01*
X162678709Y-131081249D01*
X162711472Y-131043647D01*
X162744128Y-131006046D01*
X162776676Y-130968447D01*
X162809117Y-130930851D01*
X162841449Y-130893260D01*
X162873671Y-130855674D01*
X162905782Y-130818095D01*
X162937781Y-130780525D01*
X162969667Y-130742965D01*
X163001439Y-130705416D01*
X163033096Y-130667881D01*
X163064637Y-130630359D01*
X163096060Y-130592854D01*
X163127365Y-130555366D01*
X163158550Y-130517897D01*
X163189614Y-130480449D01*
X163220556Y-130443024D01*
X163251375Y-130405623D01*
X163282070Y-130368249D01*
X163312638Y-130330902D01*
X163343079Y-130293585D01*
X163373392Y-130256300D01*
X163403574Y-130219050D01*
X163433625Y-130181835D01*
X163463543Y-130144658D01*
X163493327Y-130107522D01*
X163522974Y-130070428D01*
X163552484Y-130033379D01*
X163581855Y-129996378D01*
X163611085Y-129959426D01*
X163640173Y-129922526D01*
X163669116Y-129885681D01*
X163697912Y-129848894D01*
X163726561Y-129812168D01*
X163755060Y-129775504D01*
X163783407Y-129738907D01*
X163811599Y-129702379D01*
X163839636Y-129665923D01*
X163867515Y-129629543D01*
X163895233Y-129593242D01*
X163922788Y-129557023D01*
X163950178Y-129520891D01*
X163977400Y-129484848D01*
X164004453Y-129448899D01*
X164031332Y-129413048D01*
X164058037Y-129377299D01*
X164084562Y-129341656D01*
X164110907Y-129306124D01*
X164137067Y-129270708D01*
X164163041Y-129235412D01*
X164188823Y-129200242D01*
X164214411Y-129165203D01*
X164239802Y-129130300D01*
X164264992Y-129095539D01*
X164289976Y-129060927D01*
X164314751Y-129026469D01*
X164339313Y-128992173D01*
X164363657Y-128958046D01*
X164387779Y-128924094D01*
X164411674Y-128890325D01*
X164435337Y-128856749D01*
X164458762Y-128823372D01*
X164481943Y-128790206D01*
X164504876Y-128757258D01*
X164527553Y-128724539D01*
X164549968Y-128692061D01*
X164572113Y-128659835D01*
X164593982Y-128627873D01*
X164615566Y-128596188D01*
X164636856Y-128564795D01*
X164657844Y-128533709D01*
X164678518Y-128502946D01*
X164698869Y-128472525D01*
X164718885Y-128442464D01*
X164738553Y-128412786D01*
X164757860Y-128383512D01*
X164776789Y-128354669D01*
X164795324Y-128326285D01*
X164813446Y-128298392D01*
X164831134Y-128271025D01*
X164848365Y-128244223D01*
X164865111Y-128218034D01*
X164881342Y-128192510D01*
X164897020Y-128167712D01*
X164912103Y-128143715D01*
X164926538Y-128120607D01*
X164940261Y-128098498D01*
X164953189Y-128077531D01*
X164965213Y-128057892D01*
X164976179Y-128039847D01*
X164985854Y-128023798D01*
X164993826Y-128010452D01*
X165000000Y-128000000D01*
X166000000Y-123500000D02*
X166000000Y-123500000D01*
X165000000Y-128500000D02*
X165000000Y-128500000D01*
X139500000Y-132500000D02*
X139500000Y-132500000D01*
X138000000Y-129500000D02*
X138000040Y-129517862D01*
X138000160Y-129535697D01*
X138000359Y-129553506D01*
X138000638Y-129571288D01*
X138000996Y-129589044D01*
X138001434Y-129606773D01*
X138001950Y-129624476D01*
X138002546Y-129642153D01*
X138003221Y-129659805D01*
X138003975Y-129677430D01*
X138004807Y-129695029D01*
X138005719Y-129712603D01*
X138006708Y-129730151D01*
X138007777Y-129747673D01*
X138008923Y-129765170D01*
X138010148Y-129782642D01*
X138011452Y-129800088D01*
X138012833Y-129817509D01*
X138014293Y-129834904D01*
X138015830Y-129852275D01*
X138017445Y-129869621D01*
X138019139Y-129886942D01*
X138020910Y-129904238D01*
X138022758Y-129921509D01*
X138024685Y-129938755D01*
X138026688Y-129955977D01*
X138028770Y-129973174D01*
X138030928Y-129990347D01*
X138033165Y-130007495D01*
X138035478Y-130024619D01*
X138037869Y-130041719D01*
X138040337Y-130058794D01*
X138042881Y-130075845D01*
X138045504Y-130092872D01*
X138048203Y-130109875D01*
X138050979Y-130126854D01*
X138053832Y-130143809D01*
X138056762Y-130160740D01*
X138059769Y-130177647D01*
X138062852Y-130194530D01*
X138066012Y-130211389D01*
X138069250Y-130228225D01*
X138072563Y-130245037D01*
X138075954Y-130261826D01*
X138079421Y-130278590D01*
X138082965Y-130295331D01*
X138086585Y-130312049D01*
X138090282Y-130328743D01*
X138094055Y-130345413D01*
X138097905Y-130362060D01*
X138101831Y-130378684D01*
X138105834Y-130395284D01*
X138109913Y-130411860D01*
X138114069Y-130428413D01*
X138118300Y-130444943D01*
X138122609Y-130461449D01*
X138126993Y-130477932D01*
X138131454Y-130494392D01*
X138135992Y-130510828D01*
X138140605Y-130527240D01*
X138145295Y-130543630D01*
X138150061Y-130559996D01*
X138154903Y-130576338D01*
X138159822Y-130592657D01*
X138164817Y-130608952D01*
X138169888Y-130625224D01*
X138175035Y-130641473D01*
X138180259Y-130657697D01*
X138185559Y-130673899D01*
X138190935Y-130690076D01*
X138196387Y-130706230D01*
X138201915Y-130722361D01*
X138207520Y-130738467D01*
X138213200Y-130754550D01*
X138218957Y-130770609D01*
X138224790Y-130786644D01*
X138230699Y-130802655D01*
X138236684Y-130818641D01*
X138242746Y-130834604D01*
X138248883Y-130850543D01*
X138255097Y-130866457D01*
X138261386Y-130882347D01*
X138267752Y-130898212D01*
X138274194Y-130914053D01*
X138280712Y-130929869D01*
X138287306Y-130945661D01*
X138293976Y-130961427D01*
X138300721Y-130977169D01*
X138307543Y-130992885D01*
X138314441Y-131008577D01*
X138321415Y-131024243D01*
X138328465Y-131039883D01*
X138335590Y-131055498D01*
X138342792Y-131071087D01*
X138350069Y-131086650D01*
X138357422Y-131102187D01*
X138364851Y-131117697D01*
X138372356Y-131133181D01*
X138379936Y-131148639D01*
X138387592Y-131164070D01*
X138395323Y-131179474D01*
X138403130Y-131194850D01*
X138411012Y-131210199D01*
X138418970Y-131225521D01*
X138427003Y-131240814D01*
X138435112Y-131256080D01*
X138443295Y-131271317D01*
X138451554Y-131286526D01*
X138459887Y-131301706D01*
X138468296Y-131316856D01*
X138476779Y-131331978D01*
X138485338Y-131347069D01*
X138493970Y-131362131D01*
X138502677Y-131377163D01*
X138511459Y-131392164D01*
X138520315Y-131407134D01*
X138529244Y-131422073D01*
X138538248Y-131436980D01*
X138547326Y-131451855D01*
X138556477Y-131466699D01*
X138565701Y-131481509D01*
X138574999Y-131496287D01*
X138584370Y-131511031D01*
X138593813Y-131525741D01*
X138603330Y-131540417D01*
X138612918Y-131555058D01*
X138622579Y-131569664D01*
X138632311Y-131584234D01*
X138642115Y-131598769D01*
X138651991Y-131613266D01*
X138661937Y-131627727D01*
X138671954Y-131642149D01*
X138682041Y-131656534D01*
X138692198Y-131670880D01*
X138702425Y-131685186D01*
X138712721Y-131699452D01*
X138723086Y-131713678D01*
X138733519Y-131727863D01*
X138744020Y-131742005D01*
X138754588Y-131756105D01*
X138765223Y-131770162D01*
X138775925Y-131784174D01*
X138786692Y-131798142D01*
X138797525Y-131812064D01*
X138808422Y-131825940D01*
X138819383Y-131839768D01*
X138830407Y-131853548D01*
X138841493Y-131867279D01*
X138852642Y-131880961D01*
X138863851Y-131894591D01*
X138875120Y-131908169D01*
X138886449Y-131921694D01*
X138897836Y-131935165D01*
X138909280Y-131948581D01*
X138920780Y-131961941D01*
X138932335Y-131975243D01*
X138943944Y-131988486D01*
X138955606Y-132001669D01*
X138967320Y-132014790D01*
X138979083Y-132027849D01*
X138990895Y-132040843D01*
X139002755Y-132053771D01*
X139014659Y-132066632D01*
X139026608Y-132079423D01*
X139038599Y-132092144D01*
X139050630Y-132104791D01*
X139062699Y-132117364D01*
X139074804Y-132129861D01*
X139086943Y-132142278D01*
X139099113Y-132154615D01*
X139111313Y-132166868D01*
X139123538Y-132179036D01*
X139135786Y-132191115D01*
X139148055Y-132203103D01*
X139160340Y-132214997D01*
X139172639Y-132226795D01*
X139184947Y-132238492D01*
X139197260Y-132250086D01*
X139209575Y-132261573D01*
X139221886Y-132272948D01*
X139234189Y-132284209D01*
X139246477Y-132295351D01*
X139258745Y-132306368D01*
X139270986Y-132317255D01*
X139283194Y-132328009D01*
X139295361Y-132338621D01*
X139307477Y-132349086D01*
X139319535Y-132359398D01*
X139331524Y-132369547D01*
X139343431Y-132379526D01*
X139355245Y-132389325D01*
X139366951Y-132398934D01*
X139378533Y-132408341D01*
X139389972Y-132417532D01*
X139401246Y-132426493D01*
X139412332Y-132435206D01*
X139423199Y-132443651D01*
X139433813Y-132451802D01*
X139444130Y-132459631D01*
X139454097Y-132467101D01*
X139463645Y-132474165D01*
X139472683Y-132480762D01*
X139481079Y-132486802D01*
X139488632Y-132492154D01*
X139494989Y-132496582D01*
X139500000Y-132500000D01*
X130840669Y-80500000D02*
X130837447Y-80454326D01*
X130834307Y-80408690D01*
X130831250Y-80363092D01*
X130828276Y-80317531D01*
X130825384Y-80272009D01*
X130822575Y-80226525D01*
X130819848Y-80181079D01*
X130817204Y-80135672D01*
X130814642Y-80090303D01*
X130812162Y-80044973D01*
X130809764Y-79999682D01*
X130807448Y-79954429D01*
X130805214Y-79909216D01*
X130803062Y-79864041D01*
X130800993Y-79818906D01*
X130799004Y-79773810D01*
X130797098Y-79728754D01*
X130795273Y-79683737D01*
X130793530Y-79638760D01*
X130791868Y-79593822D01*
X130790288Y-79548925D01*
X130788789Y-79504067D01*
X130787371Y-79459250D01*
X130786035Y-79414473D01*
X130784780Y-79369736D01*
X130783605Y-79325040D01*
X130782512Y-79280384D01*
X130781500Y-79235770D01*
X130780568Y-79191196D01*
X130779718Y-79146663D01*
X130778948Y-79102172D01*
X130778258Y-79057722D01*
X130777650Y-79013313D01*
X130777121Y-78968946D01*
X130776673Y-78924620D01*
X130776306Y-78880336D01*
X130776018Y-78836095D01*
X130775811Y-78791895D01*
X130775684Y-78747738D01*
X130775637Y-78703623D01*
X130775670Y-78659551D01*
X130775783Y-78615521D01*
X130775975Y-78571534D01*
X130776247Y-78527591D01*
X130776599Y-78483690D01*
X130777031Y-78439833D01*
X130777541Y-78396019D01*
X130778132Y-78352248D01*
X130778801Y-78308522D01*
X130779550Y-78264839D01*
X130780378Y-78221201D01*
X130781285Y-78177606D01*
X130782271Y-78134056D01*
X130783336Y-78090550D01*
X130784480Y-78047089D01*
X130785702Y-78003673D01*
X130787004Y-77960302D01*
X130788383Y-77916976D01*
X130789841Y-77873696D01*
X130791378Y-77830461D01*
X130792993Y-77787272D01*
X130794686Y-77744128D01*
X130796458Y-77701030D01*
X130798307Y-77657979D01*
X130800234Y-77614974D01*
X130802240Y-77572016D01*
X130804323Y-77529104D01*
X130806483Y-77486239D01*
X130808722Y-77443421D01*
X130811038Y-77400651D01*
X130813431Y-77357928D01*
X130815902Y-77315252D01*
X130818450Y-77272625D01*
X130821075Y-77230045D01*
X130823777Y-77187513D01*
X130826556Y-77145030D01*
X130829412Y-77102596D01*
X130832345Y-77060210D01*
X130835355Y-77017873D01*
X130838441Y-76975585D01*
X130841603Y-76933347D01*
X130844842Y-76891158D01*
X130848158Y-76849019D01*
X130851549Y-76806930D01*
X130855017Y-76764891D01*
X130858561Y-76722903D01*
X130862180Y-76680965D01*
X130865875Y-76639077D01*
X130869646Y-76597241D01*
X130873493Y-76555456D01*
X130877415Y-76513723D01*
X130881413Y-76472041D01*
X130885485Y-76430411D01*
X130889633Y-76388833D01*
X130893856Y-76347307D01*
X130898154Y-76305834D01*
X130902527Y-76264414D01*
X130906975Y-76223047D01*
X130911497Y-76181733D01*
X130916094Y-76140472D01*
X130920765Y-76099265D01*
X130925510Y-76058112D01*
X130930330Y-76017013D01*
X130935223Y-75975969D01*
X130940191Y-75934979D01*
X130945232Y-75894044D01*
X130950347Y-75853165D01*
X130955536Y-75812340D01*
X130960798Y-75771571D01*
X130966133Y-75730859D01*
X130971542Y-75690202D01*
X130977023Y-75649602D01*
X130982578Y-75609058D01*
X130988205Y-75568571D01*
X130993905Y-75528142D01*
X130999678Y-75487770D01*
X131005523Y-75447455D01*
X131011441Y-75407199D01*
X131017430Y-75367001D01*
X131023492Y-75326861D01*
X131029626Y-75286781D01*
X131035831Y-75246759D01*
X131042108Y-75206796D01*
X131048456Y-75166894D01*
X131054876Y-75127051D01*
X131061367Y-75087268D01*
X131067929Y-75047546D01*
X131074562Y-75007885D01*
X131081266Y-74968285D01*
X131088040Y-74928746D01*
X131094885Y-74889269D01*
X131101800Y-74849854D01*
X131108786Y-74810501D01*
X131115841Y-74771211D01*
X131122966Y-74731983D01*
X131130161Y-74692819D01*
X131137426Y-74653719D01*
X131144759Y-74614682D01*
X131152163Y-74575709D01*
X131159635Y-74536801D01*
X131167176Y-74497958D01*
X131174785Y-74459180D01*
X131182464Y-74420467D01*
X131190210Y-74381820D01*
X131198025Y-74343239D01*
X131205908Y-74304725D01*
X131213859Y-74266277D01*
X131221877Y-74227897D01*
X131229963Y-74189584D01*
X131238116Y-74151338D01*
X131246336Y-74113161D01*
X131254624Y-74075053D01*
X131262978Y-74037013D01*
X131271398Y-73999043D01*
X131279885Y-73961142D01*
X131288439Y-73923312D01*
X131297058Y-73885551D01*
X131305743Y-73847861D01*
X131314493Y-73810243D01*
X131323309Y-73772695D01*
X131332190Y-73735220D01*
X131341136Y-73697817D01*
X131350147Y-73660486D01*
X131359222Y-73623228D01*
X131368362Y-73586044D01*
X131377566Y-73548933D01*
X131386833Y-73511897D01*
X131396165Y-73474935D01*
X131405560Y-73438048D01*
X131415018Y-73401236D01*
X131424539Y-73364500D01*
X131434123Y-73327841D01*
X131443769Y-73291258D01*
X131453477Y-73254751D01*
X131463248Y-73218322D01*
X131473081Y-73181971D01*
X131482975Y-73145699D01*
X131492930Y-73109504D01*
X131502947Y-73073389D01*
X131513024Y-73037354D01*
X131523162Y-73001398D01*
X131533360Y-72965523D01*
X131543618Y-72929729D01*
X131553936Y-72894016D01*
X131564314Y-72858385D01*
X131574750Y-72822836D01*
X131585246Y-72787369D01*
X131595800Y-72751986D01*
X131606413Y-72716686D01*
X131617084Y-72681470D01*
X131627813Y-72646339D01*
X131638599Y-72611293D01*
X131649443Y-72576332D01*
X131660343Y-72541457D01*
X131671300Y-72506668D01*
X131682314Y-72471966D01*
X131693383Y-72437352D01*
X131704509Y-72402826D01*
X131715689Y-72368387D01*
X131726925Y-72334038D01*
X131738216Y-72299778D01*
X131749561Y-72265608D01*
X131760960Y-72231528D01*
X131772414Y-72197539D01*
X131783920Y-72163642D01*
X131795480Y-72129836D01*
X131807092Y-72096122D01*
X131818757Y-72062502D01*
X131830474Y-72028975D01*
X131842243Y-71995542D01*
X131854063Y-71962203D01*
X131865935Y-71928960D01*
X131877857Y-71895812D01*
X131889829Y-71862760D01*
X131901851Y-71829804D01*
X131913923Y-71796946D01*
X131926043Y-71764186D01*
X131938213Y-71731524D01*
X131950431Y-71698960D01*
X131962697Y-71666496D01*
X131975011Y-71634133D01*
X131987371Y-71601869D01*
X131999779Y-71569707D01*
X132012233Y-71537646D01*
X132024733Y-71505687D01*
X132037278Y-71473832D01*
X132049869Y-71442079D01*
X132062504Y-71410431D01*
X132068839Y-71394643D01*
X132075183Y-71378887D01*
X132081541Y-71363151D01*
X132087907Y-71347448D01*
X132094286Y-71331765D01*
X132100673Y-71316115D01*
X132107074Y-71300485D01*
X132113483Y-71284888D01*
X132119905Y-71269312D01*
X132126335Y-71253768D01*
X132132778Y-71238245D01*
X132139229Y-71222755D01*
X132145692Y-71207287D01*
X132152164Y-71191851D01*
X132158649Y-71176437D01*
X132165141Y-71161055D01*
X132171645Y-71145695D01*
X132178158Y-71130369D01*
X132184683Y-71115064D01*
X132191215Y-71099792D01*
X132197760Y-71084542D01*
X132204312Y-71069326D01*
X132210876Y-71054131D01*
X132217448Y-71038970D01*
X132224032Y-71023832D01*
X132230623Y-71008727D01*
X132237226Y-70993645D01*
X132243836Y-70978596D01*
X132250458Y-70963570D01*
X132257086Y-70948578D01*
X132263727Y-70933609D01*
X132270374Y-70918673D01*
X132277033Y-70903761D01*
X132283699Y-70888882D01*
X132290375Y-70874028D01*
X132297059Y-70859207D01*
X132303754Y-70844410D01*
X132310455Y-70829646D01*
X132317167Y-70814907D01*
X132323886Y-70800202D01*
X132330616Y-70785521D01*
X132337352Y-70770874D01*
X132344099Y-70756252D01*
X132350852Y-70741664D01*
X132357615Y-70727100D01*
X132364385Y-70712571D01*
X132371165Y-70698067D01*
X132377951Y-70683597D01*
X132384747Y-70669153D01*
X132391549Y-70654742D01*
X132398362Y-70640358D01*
X132405180Y-70626007D01*
X132412008Y-70611683D01*
X132418841Y-70597393D01*
X132425684Y-70583129D01*
X132432533Y-70568899D01*
X132439392Y-70554696D01*
X132446256Y-70540527D01*
X132453129Y-70526385D01*
X132460007Y-70512277D01*
X132466895Y-70498197D01*
X132473788Y-70484151D01*
X132480690Y-70470132D01*
X132487597Y-70456148D01*
X132494513Y-70442191D01*
X132501434Y-70428269D01*
X132508363Y-70414375D01*
X132515298Y-70400515D01*
X132522241Y-70386683D01*
X132529188Y-70372887D01*
X132536144Y-70359118D01*
X132543105Y-70345384D01*
X132550073Y-70331679D01*
X132557046Y-70318009D01*
X132564027Y-70304367D01*
X132571013Y-70290761D01*
X132578006Y-70277183D01*
X132585003Y-70263641D01*
X132592008Y-70250128D01*
X132599017Y-70236650D01*
X132606033Y-70223201D01*
X132613054Y-70209788D01*
X132620081Y-70196404D01*
X132627113Y-70183056D01*
X132634151Y-70169738D01*
X132641193Y-70156455D01*
X132648242Y-70143202D01*
X132655294Y-70129985D01*
X132662353Y-70116798D01*
X132669415Y-70103646D01*
X132676484Y-70090526D01*
X132683556Y-70077441D01*
X132690634Y-70064387D01*
X132697716Y-70051368D01*
X132704803Y-70038381D01*
X132711894Y-70025430D01*
X132718990Y-70012510D01*
X132726089Y-69999625D01*
X132733194Y-69986773D01*
X132740302Y-69973956D01*
X132747414Y-69961172D01*
X132754530Y-69948423D01*
X132761650Y-69935706D01*
X132768774Y-69923025D01*
X132775902Y-69910377D01*
X132783032Y-69897765D01*
X132790167Y-69885186D01*
X132797305Y-69872642D01*
X132804446Y-69860132D01*
X132811591Y-69847658D01*
X132818739Y-69835217D01*
X132825889Y-69822812D01*
X132833043Y-69810441D01*
X132840199Y-69798106D01*
X132847359Y-69785804D01*
X132854521Y-69773539D01*
X132861686Y-69761308D01*
X132868853Y-69749113D01*
X132876023Y-69736953D01*
X132883194Y-69724829D01*
X132890369Y-69712739D01*
X132897545Y-69700686D01*
X132904724Y-69688667D01*
X132911904Y-69676685D01*
X132919086Y-69664738D01*
X132926270Y-69652828D01*
X132933456Y-69640953D01*
X132940643Y-69629114D01*
X132947832Y-69617311D01*
X132955022Y-69605544D01*
X132962214Y-69593813D01*
X132969406Y-69582119D01*
X132976600Y-69570461D01*
X132983795Y-69558839D01*
X132990991Y-69547254D01*
X132998187Y-69535706D01*
X133005384Y-69524194D01*
X133012582Y-69512718D01*
X133019781Y-69501280D01*
X133026980Y-69489878D01*
X133034179Y-69478513D01*
X133041378Y-69467185D01*
X133048578Y-69455894D01*
X133055778Y-69444640D01*
X133062977Y-69433424D01*
X133070177Y-69422244D01*
X133077376Y-69411102D01*
X133084575Y-69399997D01*
X133091773Y-69388930D01*
X133098971Y-69377900D01*
X133106168Y-69366908D01*
X133113365Y-69355953D01*
X133120560Y-69345036D01*
X133127755Y-69334156D01*
X133134948Y-69323316D01*
X133142141Y-69312511D01*
X133149332Y-69301746D01*
X133156522Y-69291018D01*
X133163710Y-69280329D01*
X133170897Y-69269677D01*
X133178082Y-69259064D01*
X133185266Y-69248488D01*
X133192447Y-69237952D01*
X133199627Y-69227453D01*
X133206804Y-69216994D01*
X133213980Y-69206572D01*
X133221152Y-69196190D01*
X133228324Y-69185844D01*
X133235491Y-69175539D01*
X133242657Y-69165271D01*
X133249820Y-69155044D01*
X133256981Y-69144853D01*
X133264137Y-69134704D01*
X133271292Y-69124591D01*
X133278443Y-69114519D01*
X133285592Y-69104484D01*
X133292736Y-69094491D01*
X133299878Y-69084534D01*
X133307015Y-69074619D01*
X133314150Y-69064740D01*
X133321280Y-69054903D01*
X133328407Y-69045103D01*
X133335529Y-69035345D01*
X133342649Y-69025624D01*
X133349762Y-69015945D01*
X133356874Y-69006303D01*
X133363979Y-68996703D01*
X133371082Y-68987139D01*
X133378178Y-68977619D01*
X133385271Y-68968135D01*
X133392358Y-68958693D01*
X133399442Y-68949289D01*
X133406519Y-68939927D01*
X133413593Y-68930602D01*
X133420659Y-68921320D01*
X133427723Y-68912075D01*
X133434779Y-68902873D01*
X133441831Y-68893707D01*
X133448876Y-68884585D01*
X133455918Y-68875500D01*
X133462951Y-68866458D01*
X133469981Y-68857453D01*
X133477002Y-68848492D01*
X133484020Y-68839567D01*
X133491029Y-68830686D01*
X133498035Y-68821841D01*
X133505031Y-68813041D01*
X133512024Y-68804277D01*
X133519006Y-68795557D01*
X133525986Y-68786873D01*
X133532955Y-68778234D01*
X133539921Y-68769632D01*
X133546876Y-68761074D01*
X133553828Y-68752552D01*
X133560769Y-68744075D01*
X133567706Y-68735634D01*
X133574632Y-68727238D01*
X133581554Y-68718878D01*
X133588465Y-68710563D01*
X133595372Y-68702285D01*
X133602268Y-68694051D01*
X133609159Y-68685853D01*
X133616038Y-68677701D01*
X133622913Y-68669584D01*
X133629776Y-68661513D01*
X133636635Y-68653478D01*
X133643481Y-68645488D01*
X133650322Y-68637535D01*
X133657151Y-68629626D01*
X133663976Y-68621754D01*
X133670787Y-68613927D01*
X133677593Y-68606136D01*
X133684387Y-68598390D01*
X133691175Y-68590681D01*
X133697950Y-68583017D01*
X133704720Y-68575389D01*
X133711476Y-68567806D01*
X133718227Y-68560259D01*
X133724964Y-68552758D01*
X133731696Y-68545293D01*
X133738413Y-68537873D01*
X133745125Y-68530489D01*
X133751823Y-68523151D01*
X133758515Y-68515849D01*
X133765192Y-68508592D01*
X133771864Y-68501371D01*
X133778520Y-68494195D01*
X133785171Y-68487056D01*
X133791807Y-68479962D01*
X133798436Y-68472903D01*
X133805051Y-68465890D01*
X133811659Y-68458913D01*
X133818251Y-68451982D01*
X133824837Y-68445085D01*
X133831407Y-68438235D01*
X133837972Y-68431420D01*
X133844519Y-68424651D01*
X133851061Y-68417917D01*
X133857585Y-68411229D01*
X133864104Y-68404575D01*
X133870606Y-68397968D01*
X133877101Y-68391396D01*
X133883579Y-68384869D01*
X133890050Y-68378378D01*
X133896505Y-68371932D01*
X133902952Y-68365521D01*
X133909382Y-68359156D01*
X133915805Y-68352825D01*
X133922211Y-68346540D01*
X133928609Y-68340290D01*
X133934990Y-68334086D01*
X133941364Y-68327916D01*
X133947719Y-68321791D01*
X133954067Y-68315701D01*
X133960397Y-68309657D01*
X133966720Y-68303647D01*
X133973024Y-68297683D01*
X133979321Y-68291752D01*
X133985598Y-68285868D01*
X133991869Y-68280017D01*
X133998120Y-68274212D01*
X134004364Y-68268440D01*
X134010589Y-68262714D01*
X134016806Y-68257022D01*
X134023003Y-68251375D01*
X134029194Y-68245762D01*
X134035364Y-68240194D01*
X134041526Y-68234659D01*
X134047669Y-68229170D01*
X134053804Y-68223714D01*
X134059918Y-68218303D01*
X134066026Y-68212925D01*
X134072112Y-68207592D01*
X134078191Y-68202293D01*
X134084249Y-68197038D01*
X134090299Y-68191816D01*
X134096328Y-68186639D01*
X134102350Y-68181495D01*
X134108350Y-68176395D01*
X134114343Y-68171328D01*
X134120314Y-68166306D01*
X134126277Y-68161316D01*
X134132219Y-68156370D01*
X134138153Y-68151457D01*
X134144064Y-68146588D01*
X134149969Y-68141752D01*
X134155851Y-68136959D01*
X134161725Y-68132198D01*
X134167577Y-68127482D01*
X134173421Y-68122797D01*
X134179242Y-68118156D01*
X134185056Y-68113547D01*
X134190847Y-68108982D01*
X134196630Y-68104448D01*
X134202390Y-68099957D01*
X134208142Y-68095498D01*
X134213871Y-68091082D01*
X134219592Y-68086698D01*
X134225290Y-68082357D01*
X134230980Y-68078046D01*
X134236647Y-68073779D01*
X134242305Y-68069543D01*
X134247940Y-68065349D01*
X134253567Y-68061186D01*
X134259171Y-68057066D01*
X134264766Y-68052976D01*
X134270338Y-68048929D01*
X134275901Y-68044912D01*
X134281441Y-68040937D01*
X134286972Y-68036993D01*
X134292479Y-68033090D01*
X134297978Y-68029217D01*
X134303453Y-68025386D01*
X134308920Y-68021586D01*
X134314363Y-68017826D01*
X134319797Y-68014097D01*
X134325207Y-68010408D01*
X134330609Y-68006749D01*
X134340669Y-68000000D01*
D11*
X134340668Y-68000000D02*
G75*
G02*
X140204933Y-63913095I3659332J1000000D01*
G01*
D10*
X134000000Y-68500000D02*
X134000000Y-68500000D01*
X126000000Y-84500000D02*
X126000000Y-84500000D01*
X112500000Y-106000000D02*
X112517974Y-105955092D01*
X112535946Y-105910242D01*
X112553926Y-105865428D01*
X112571903Y-105820672D01*
X112589888Y-105775951D01*
X112607871Y-105731289D01*
X112625862Y-105686661D01*
X112643850Y-105642093D01*
X112661846Y-105597558D01*
X112679840Y-105553083D01*
X112697841Y-105508643D01*
X112715840Y-105464261D01*
X112733847Y-105419914D01*
X112751851Y-105375626D01*
X112769863Y-105331372D01*
X112787872Y-105287177D01*
X112805889Y-105243016D01*
X112823903Y-105198915D01*
X112841925Y-105154847D01*
X112859945Y-105110839D01*
X112877972Y-105066865D01*
X112895996Y-105022950D01*
X112914028Y-104979069D01*
X112932058Y-104935247D01*
X112950095Y-104891459D01*
X112968129Y-104847730D01*
X112986171Y-104804036D01*
X113004210Y-104760400D01*
X113022256Y-104716798D01*
X113040300Y-104673256D01*
X113058352Y-104629747D01*
X113076400Y-104586297D01*
X113094456Y-104542882D01*
X113112509Y-104499525D01*
X113130570Y-104456202D01*
X113148628Y-104412938D01*
X113166693Y-104369708D01*
X113184755Y-104326538D01*
X113202825Y-104283400D01*
X113220891Y-104240322D01*
X113257037Y-104154293D01*
X113293191Y-104068448D01*
X113329353Y-103982790D01*
X113365524Y-103897316D01*
X113401704Y-103812028D01*
X113437891Y-103726925D01*
X113474087Y-103642006D01*
X113510291Y-103557273D01*
X113546502Y-103472725D01*
X113582722Y-103388361D01*
X113618949Y-103304182D01*
X113655183Y-103220188D01*
X113691425Y-103136378D01*
X113727675Y-103052753D01*
X113763931Y-102969312D01*
X113800194Y-102886055D01*
X113836465Y-102802983D01*
X113872742Y-102720094D01*
X113909025Y-102637390D01*
X113945316Y-102554869D01*
X113981612Y-102472533D01*
X114017915Y-102390380D01*
X114054224Y-102308411D01*
X114090539Y-102226625D01*
X114126860Y-102145023D01*
X114163187Y-102063605D01*
X114199519Y-101982369D01*
X114235857Y-101901317D01*
X114272201Y-101820449D01*
X114308549Y-101739763D01*
X114344903Y-101659261D01*
X114381262Y-101578941D01*
X114417626Y-101498804D01*
X114453994Y-101418850D01*
X114490367Y-101339079D01*
X114526745Y-101259490D01*
X114563127Y-101180084D01*
X114599513Y-101100861D01*
X114635903Y-101021820D01*
X114672297Y-100942961D01*
X114708696Y-100864285D01*
X114745097Y-100785790D01*
X114781503Y-100707478D01*
X114817912Y-100629348D01*
X114854324Y-100551399D01*
X114890739Y-100473633D01*
X114927158Y-100396048D01*
X114963579Y-100318646D01*
X115000004Y-100241424D01*
X115036430Y-100164385D01*
X115072860Y-100087526D01*
X115109292Y-100010850D01*
X115145726Y-99934354D01*
X115182162Y-99858040D01*
X115218600Y-99781907D01*
X115255040Y-99705955D01*
X115291482Y-99630185D01*
X115327925Y-99554595D01*
X115364370Y-99479186D01*
X115400816Y-99403958D01*
X115437263Y-99328911D01*
X115473711Y-99254045D01*
X115510160Y-99179359D01*
X115546610Y-99104853D01*
X115583060Y-99030529D01*
X115619511Y-98956384D01*
X115655962Y-98882420D01*
X115692414Y-98808637D01*
X115728865Y-98735033D01*
X115765317Y-98661610D01*
X115801768Y-98588366D01*
X115838218Y-98515303D01*
X115874669Y-98442420D01*
X115911118Y-98369717D01*
X115947567Y-98297193D01*
X115984014Y-98224849D01*
X116020461Y-98152685D01*
X116056906Y-98080700D01*
X116093350Y-98008896D01*
X116129793Y-97937270D01*
X116166233Y-97865824D01*
X116202672Y-97794557D01*
X116239109Y-97723470D01*
X116275543Y-97652562D01*
X116311976Y-97581833D01*
X116348406Y-97511283D01*
X116384833Y-97440913D01*
X116421258Y-97370721D01*
X116457679Y-97300708D01*
X116494098Y-97230874D01*
X116530514Y-97161219D01*
X116566926Y-97091743D01*
X116603334Y-97022446D01*
X116639739Y-96953327D01*
X116676140Y-96884386D01*
X116712537Y-96815625D01*
X116748930Y-96747041D01*
X116785319Y-96678636D01*
X116821703Y-96610410D01*
X116858083Y-96542362D01*
X116894458Y-96474492D01*
X116930828Y-96406800D01*
X116967193Y-96339287D01*
X117003553Y-96271951D01*
X117039907Y-96204794D01*
X117076256Y-96137814D01*
X117112599Y-96071013D01*
X117148936Y-96004389D01*
X117185267Y-95937944D01*
X117221591Y-95871676D01*
X117257910Y-95805586D01*
X117294222Y-95739673D01*
X117330527Y-95673938D01*
X117366825Y-95608381D01*
X117403116Y-95543001D01*
X117439400Y-95477799D01*
X117475677Y-95412775D01*
X117511946Y-95347927D01*
X117548208Y-95283257D01*
X117584461Y-95218765D01*
X117620706Y-95154450D01*
X117656943Y-95090311D01*
X117693172Y-95026351D01*
X117729392Y-94962567D01*
X117765604Y-94898960D01*
X117801806Y-94835531D01*
X117837999Y-94772278D01*
X117874183Y-94709203D01*
X117910358Y-94646305D01*
X117946523Y-94583583D01*
X117982678Y-94521038D01*
X118018823Y-94458670D01*
X118054957Y-94396479D01*
X118091082Y-94334465D01*
X118127196Y-94272628D01*
X118163299Y-94210967D01*
X118199391Y-94149483D01*
X118235472Y-94088175D01*
X118271541Y-94027044D01*
X118307600Y-93966090D01*
X118343646Y-93905312D01*
X118379681Y-93844711D01*
X118415703Y-93784286D01*
X118451713Y-93724038D01*
X118487711Y-93663966D01*
X118523696Y-93604071D01*
X118559669Y-93544352D01*
X118595628Y-93484809D01*
X118631574Y-93425443D01*
X118667506Y-93366253D01*
X118703425Y-93307239D01*
X118739330Y-93248401D01*
X118775221Y-93189740D01*
X118811098Y-93131255D01*
X118846961Y-93072946D01*
X118882808Y-93014814D01*
X118918641Y-92956857D01*
X118954459Y-92899077D01*
X118990261Y-92841473D01*
X119026048Y-92784045D01*
X119061819Y-92726793D01*
X119097575Y-92669717D01*
X119133314Y-92612817D01*
X119169037Y-92556093D01*
X119204743Y-92499545D01*
X119240433Y-92443174D01*
X119276105Y-92386978D01*
X119311761Y-92330959D01*
X119347399Y-92275115D01*
X119383019Y-92219447D01*
X119418621Y-92163956D01*
X119454206Y-92108640D01*
X119489772Y-92053501D01*
X119525319Y-91998537D01*
X119560847Y-91943750D01*
X119596357Y-91889138D01*
X119631847Y-91834703D01*
X119667318Y-91780443D01*
X119702769Y-91726360D01*
X119738200Y-91672452D01*
X119773611Y-91618721D01*
X119809002Y-91565165D01*
X119844372Y-91511786D01*
X119879720Y-91458583D01*
X119915048Y-91405555D01*
X119950354Y-91352704D01*
X119985639Y-91300029D01*
X120020902Y-91247530D01*
X120056142Y-91195207D01*
X120091360Y-91143060D01*
X120126556Y-91091089D01*
X120161728Y-91039295D01*
X120196877Y-90987677D01*
X120232003Y-90936234D01*
X120267105Y-90884969D01*
X120302183Y-90833879D01*
X120337237Y-90782966D01*
X120372266Y-90732229D01*
X120407271Y-90681668D01*
X120442250Y-90631283D01*
X120477204Y-90581076D01*
X120512132Y-90531044D01*
X120547035Y-90481189D01*
X120581911Y-90431511D01*
X120616761Y-90382009D01*
X120651584Y-90332683D01*
X120686380Y-90283534D01*
X120721149Y-90234562D01*
X120755890Y-90185767D01*
X120790603Y-90137148D01*
X120825288Y-90088706D01*
X120859945Y-90040442D01*
X120894572Y-89992353D01*
X120929171Y-89944442D01*
X120963740Y-89896708D01*
X120998279Y-89849151D01*
X121032788Y-89801771D01*
X121067267Y-89754569D01*
X121101715Y-89707543D01*
X121136132Y-89660695D01*
X121170518Y-89614024D01*
X121204872Y-89567531D01*
X121239194Y-89521215D01*
X121273483Y-89475077D01*
X121307740Y-89429116D01*
X121341964Y-89383334D01*
X121376155Y-89337729D01*
X121410312Y-89292302D01*
X121444434Y-89247052D01*
X121478523Y-89201981D01*
X121512577Y-89157089D01*
X121546595Y-89112374D01*
X121580578Y-89067838D01*
X121614525Y-89023480D01*
X121648436Y-88979300D01*
X121682311Y-88935300D01*
X121716148Y-88891478D01*
X121749948Y-88847835D01*
X121783710Y-88804370D01*
X121817435Y-88761085D01*
X121851120Y-88717979D01*
X121884767Y-88675053D01*
X121918374Y-88632305D01*
X121951942Y-88589738D01*
X121985469Y-88547349D01*
X122018956Y-88505141D01*
X122052402Y-88463113D01*
X122085807Y-88421264D01*
X122119170Y-88379596D01*
X122152490Y-88338108D01*
X122185768Y-88296800D01*
X122219003Y-88255673D01*
X122252194Y-88214727D01*
X122285341Y-88173962D01*
X122318444Y-88133378D01*
X122351501Y-88092974D01*
X122384513Y-88052753D01*
X122417480Y-88012713D01*
X122450400Y-87972854D01*
X122483273Y-87933178D01*
X122516098Y-87893683D01*
X122548876Y-87854371D01*
X122581606Y-87815241D01*
X122614286Y-87776294D01*
X122646918Y-87737529D01*
X122679499Y-87698948D01*
X122712030Y-87660550D01*
X122744510Y-87622335D01*
X122776938Y-87584304D01*
X122809314Y-87546457D01*
X122841638Y-87508793D01*
X122873908Y-87471314D01*
X122906125Y-87434020D01*
X122938287Y-87396910D01*
X122970395Y-87359986D01*
X123002447Y-87323246D01*
X123034442Y-87286693D01*
X123066381Y-87250325D01*
X123098263Y-87214143D01*
X123130086Y-87178147D01*
X123161851Y-87142338D01*
X123193557Y-87106715D01*
X123225202Y-87071280D01*
X123256787Y-87036032D01*
X123288311Y-87000972D01*
X123319773Y-86966100D01*
X123351171Y-86931417D01*
X123382507Y-86896922D01*
X123413778Y-86862616D01*
X123444985Y-86828500D01*
X123476125Y-86794573D01*
X123507200Y-86760836D01*
X123538207Y-86727290D01*
X123569146Y-86693934D01*
X123600017Y-86660770D01*
X123630818Y-86627797D01*
X123661548Y-86595016D01*
X123692208Y-86562427D01*
X123722795Y-86530031D01*
X123753309Y-86497828D01*
X123783749Y-86465819D01*
X123814115Y-86434004D01*
X123844405Y-86402384D01*
X123874618Y-86370958D01*
X123904754Y-86339728D01*
X123934811Y-86308694D01*
X123964789Y-86277856D01*
X123994686Y-86247215D01*
X124024502Y-86216772D01*
X124054235Y-86186526D01*
X124083884Y-86156479D01*
X124113448Y-86126632D01*
X124142927Y-86096984D01*
X124172318Y-86067536D01*
X124201622Y-86038289D01*
X124230836Y-86009244D01*
X124259959Y-85980400D01*
X124288990Y-85951760D01*
X124317929Y-85923323D01*
X124346773Y-85895091D01*
X124375521Y-85867063D01*
X124404172Y-85839241D01*
X124432724Y-85811625D01*
X124461176Y-85784216D01*
X124489528Y-85757016D01*
X124517776Y-85730024D01*
X124545919Y-85703241D01*
X124573957Y-85676670D01*
X124601887Y-85650309D01*
X124629708Y-85624161D01*
X124657418Y-85598226D01*
X124685015Y-85572505D01*
X124712497Y-85547000D01*
X124739863Y-85521711D01*
X124767111Y-85496639D01*
X124794239Y-85471785D01*
X124821244Y-85447151D01*
X124848125Y-85422738D01*
X124874879Y-85398547D01*
X124901505Y-85374579D01*
X124927999Y-85350835D01*
X124954361Y-85327317D01*
X124980586Y-85304027D01*
X125006674Y-85280965D01*
X125032620Y-85258134D01*
X125058423Y-85235534D01*
X125084080Y-85213168D01*
X125109587Y-85191036D01*
X125134942Y-85169142D01*
X125160142Y-85147486D01*
X125185184Y-85126070D01*
X125210063Y-85104897D01*
X125234777Y-85083969D01*
X125259322Y-85063287D01*
X125283694Y-85042855D01*
X125307889Y-85022673D01*
X125331903Y-85002745D01*
X125355732Y-84983074D01*
X125379371Y-84963661D01*
X125402816Y-84944511D01*
X125426060Y-84925625D01*
X125449100Y-84907007D01*
X125471929Y-84888661D01*
X125494542Y-84870589D01*
X125516932Y-84852796D01*
X125539093Y-84835285D01*
X125561018Y-84818062D01*
X125582699Y-84801129D01*
X125604128Y-84784492D01*
X125625298Y-84768157D01*
X125646198Y-84752128D01*
X125666819Y-84736411D01*
X125687151Y-84721014D01*
X125707181Y-84705942D01*
X125726899Y-84691204D01*
X125746289Y-84676807D01*
X125765337Y-84662761D01*
X125784028Y-84649075D01*
X125802341Y-84635761D01*
X125820258Y-84622831D01*
X125837755Y-84610298D01*
X125854807Y-84598179D01*
X125871383Y-84586492D01*
X125887450Y-84575258D01*
X125902966Y-84564501D01*
X125917882Y-84554251D01*
X125932140Y-84544544D01*
X125945665Y-84535426D01*
X125958359Y-84526955D01*
X125970091Y-84519213D01*
X125980666Y-84512316D01*
X125989774Y-84506453D01*
X125996808Y-84501992D01*
X126000000Y-84500000D01*
X112500000Y-106000000D02*
X112500000Y-106000000D01*
X116000000Y-112000000D02*
X115991339Y-112001073D01*
X115982691Y-112002123D01*
X115974062Y-112003152D01*
X115965446Y-112004158D01*
X115956849Y-112005143D01*
X115948266Y-112006105D01*
X115939700Y-112007046D01*
X115931149Y-112007965D01*
X115922615Y-112008862D01*
X115914095Y-112009737D01*
X115905592Y-112010591D01*
X115897104Y-112011422D01*
X115888632Y-112012233D01*
X115880175Y-112013021D01*
X115871735Y-112013788D01*
X115863309Y-112014534D01*
X115854900Y-112015258D01*
X115846505Y-112015961D01*
X115838127Y-112016643D01*
X115829762Y-112017303D01*
X115821415Y-112017942D01*
X115813081Y-112018560D01*
X115804764Y-112019156D01*
X115796461Y-112019732D01*
X115788174Y-112020286D01*
X115779901Y-112020819D01*
X115771645Y-112021332D01*
X115763402Y-112021823D01*
X115755175Y-112022293D01*
X115746963Y-112022743D01*
X115738766Y-112023172D01*
X115730583Y-112023579D01*
X115722416Y-112023967D01*
X115714263Y-112024333D01*
X115706125Y-112024679D01*
X115698002Y-112025004D01*
X115689894Y-112025309D01*
X115681799Y-112025593D01*
X115673721Y-112025856D01*
X115665655Y-112026099D01*
X115657606Y-112026322D01*
X115649569Y-112026524D01*
X115641549Y-112026706D01*
X115633541Y-112026867D01*
X115625549Y-112027009D01*
X115617571Y-112027130D01*
X115609607Y-112027230D01*
X115601657Y-112027311D01*
X115593722Y-112027371D01*
X115585801Y-112027412D01*
X115577894Y-112027432D01*
X115570001Y-112027432D01*
X115562122Y-112027413D01*
X115554257Y-112027373D01*
X115546406Y-112027314D01*
X115538569Y-112027234D01*
X115530746Y-112027135D01*
X115522936Y-112027016D01*
X115515141Y-112026877D01*
X115507359Y-112026718D01*
X115499592Y-112026540D01*
X115491837Y-112026342D01*
X115484097Y-112026125D01*
X115476370Y-112025887D01*
X115468656Y-112025631D01*
X115460956Y-112025354D01*
X115453270Y-112025058D01*
X115445597Y-112024743D01*
X115437938Y-112024408D01*
X115430292Y-112024054D01*
X115422660Y-112023680D01*
X115415040Y-112023287D01*
X115407434Y-112022875D01*
X115399841Y-112022443D01*
X115392262Y-112021993D01*
X115384695Y-112021523D01*
X115377142Y-112021033D01*
X115369602Y-112020525D01*
X115362075Y-112019997D01*
X115354561Y-112019450D01*
X115347060Y-112018884D01*
X115339571Y-112018300D01*
X115332096Y-112017696D01*
X115324634Y-112017073D01*
X115317184Y-112016431D01*
X115309747Y-112015770D01*
X115302323Y-112015090D01*
X115294912Y-112014391D01*
X115287513Y-112013674D01*
X115280127Y-112012937D01*
X115272754Y-112012182D01*
X115265393Y-112011408D01*
X115258045Y-112010615D01*
X115250709Y-112009803D01*
X115243386Y-112008973D01*
X115236075Y-112008124D01*
X115228776Y-112007256D01*
X115221490Y-112006370D01*
X115214216Y-112005465D01*
X115206955Y-112004541D01*
X115199705Y-112003599D01*
X115192468Y-112002638D01*
X115185243Y-112001659D01*
X115178030Y-112000661D01*
X115170829Y-111999645D01*
X115163641Y-111998610D01*
X115156464Y-111997556D01*
X115149300Y-111996485D01*
X115142147Y-111995395D01*
X115135006Y-111994286D01*
X115127877Y-111993159D01*
X115120760Y-111992014D01*
X115113655Y-111990850D01*
X115106561Y-111989668D01*
X115099479Y-111988468D01*
X115092410Y-111987250D01*
X115085351Y-111986013D01*
X115078305Y-111984758D01*
X115071269Y-111983484D01*
X115064246Y-111982193D01*
X115057233Y-111980883D01*
X115050233Y-111979555D01*
X115043244Y-111978209D01*
X115036267Y-111976845D01*
X115029300Y-111975463D01*
X115022346Y-111974062D01*
X115015401Y-111972644D01*
X115008470Y-111971207D01*
X115001548Y-111969753D01*
X114994639Y-111968280D01*
X114987740Y-111966789D01*
X114980853Y-111965280D01*
X114973976Y-111963753D01*
X114967111Y-111962209D01*
X114960256Y-111960646D01*
X114953414Y-111959065D01*
X114946581Y-111957466D01*
X114939761Y-111955849D01*
X114932950Y-111954214D01*
X114926151Y-111952562D01*
X114919362Y-111950891D01*
X114912585Y-111949203D01*
X114905817Y-111947496D01*
X114899061Y-111945772D01*
X114892315Y-111944030D01*
X114885581Y-111942270D01*
X114878856Y-111940492D01*
X114872144Y-111938696D01*
X114858749Y-111935051D01*
X114845396Y-111931335D01*
X114832084Y-111927547D01*
X114818815Y-111923688D01*
X114805587Y-111919758D01*
X114792400Y-111915757D01*
X114779254Y-111911685D01*
X114766148Y-111907541D01*
X114753083Y-111903327D01*
X114740058Y-111899042D01*
X114727073Y-111894685D01*
X114714128Y-111890258D01*
X114701222Y-111885760D01*
X114688355Y-111881191D01*
X114675528Y-111876551D01*
X114662739Y-111871840D01*
X114649989Y-111867057D01*
X114637277Y-111862205D01*
X114624603Y-111857281D01*
X114611967Y-111852286D01*
X114599368Y-111847220D01*
X114586807Y-111842082D01*
X114574283Y-111836874D01*
X114561797Y-111831595D01*
X114549347Y-111826244D01*
X114536933Y-111820823D01*
X114524556Y-111815330D01*
X114512215Y-111809765D01*
X114499911Y-111804129D01*
X114487642Y-111798422D01*
X114475408Y-111792643D01*
X114463210Y-111786793D01*
X114451047Y-111780870D01*
X114438919Y-111774876D01*
X114426826Y-111768810D01*
X114414768Y-111762672D01*
X114402744Y-111756462D01*
X114390755Y-111750179D01*
X114378799Y-111743825D01*
X114366878Y-111737397D01*
X114354990Y-111730898D01*
X114343136Y-111724325D01*
X114331315Y-111717680D01*
X114319528Y-111710962D01*
X114307773Y-111704170D01*
X114296052Y-111697306D01*
X114284363Y-111690367D01*
X114272707Y-111683356D01*
X114261084Y-111676271D01*
X114249493Y-111669111D01*
X114237934Y-111661878D01*
X114226407Y-111654571D01*
X114214912Y-111647189D01*
X114203449Y-111639733D01*
X114192018Y-111632202D01*
X114180618Y-111624596D01*
X114169250Y-111616915D01*
X114157913Y-111609158D01*
X114146607Y-111601326D01*
X114135332Y-111593419D01*
X114124088Y-111585435D01*
X114112874Y-111577376D01*
X114101692Y-111569240D01*
X114090540Y-111561027D01*
X114079418Y-111552738D01*
X114068327Y-111544371D01*
X114057267Y-111535927D01*
X114046236Y-111527406D01*
X114035236Y-111518807D01*
X114024265Y-111510131D01*
X114013325Y-111501376D01*
X114002414Y-111492542D01*
X113991533Y-111483630D01*
X113980682Y-111474639D01*
X113969861Y-111465568D01*
X113959069Y-111456418D01*
X113948306Y-111447188D01*
X113937573Y-111437879D01*
X113926870Y-111428488D01*
X113916195Y-111419018D01*
X113905550Y-111409466D01*
X113894934Y-111399833D01*
X113884347Y-111390119D01*
X113873790Y-111380323D01*
X113863261Y-111370445D01*
X113852761Y-111360484D01*
X113842291Y-111350441D01*
X113831849Y-111340315D01*
X113821436Y-111330106D01*
X113811052Y-111319813D01*
X113800697Y-111309436D01*
X113790371Y-111298975D01*
X113780074Y-111288429D01*
X113769806Y-111277798D01*
X113759566Y-111267083D01*
X113749355Y-111256281D01*
X113739173Y-111245394D01*
X113729020Y-111234421D01*
X113718895Y-111223361D01*
X113708799Y-111212214D01*
X113698733Y-111200980D01*
X113688694Y-111189658D01*
X113678685Y-111178249D01*
X113668705Y-111166751D01*
X113658753Y-111155164D01*
X113648831Y-111143489D01*
X113638937Y-111131724D01*
X113629072Y-111119869D01*
X113619237Y-111107924D01*
X113609430Y-111095889D01*
X113599652Y-111083763D01*
X113589904Y-111071545D01*
X113580185Y-111059237D01*
X113570495Y-111046836D01*
X113560834Y-111034343D01*
X113551202Y-111021757D01*
X113541600Y-111009078D01*
X113532027Y-110996305D01*
X113522484Y-110983439D01*
X113512970Y-110970478D01*
X113503486Y-110957423D01*
X113494032Y-110944272D01*
X113484608Y-110931026D01*
X113475213Y-110917685D01*
X113465849Y-110904247D01*
X113456514Y-110890712D01*
X113447210Y-110877081D01*
X113437935Y-110863351D01*
X113428692Y-110849525D01*
X113419478Y-110835599D01*
X113410295Y-110821575D01*
X113401143Y-110807453D01*
X113392022Y-110793230D01*
X113382931Y-110778908D01*
X113373871Y-110764485D01*
X113364843Y-110749962D01*
X113355846Y-110735338D01*
X113346880Y-110720612D01*
X113337945Y-110705784D01*
X113329043Y-110690853D01*
X113320171Y-110675820D01*
X113311332Y-110660684D01*
X113302525Y-110645444D01*
X113293750Y-110630100D01*
X113285007Y-110614652D01*
X113276297Y-110599099D01*
X113267619Y-110583440D01*
X113258974Y-110567676D01*
X113250362Y-110551806D01*
X113241784Y-110535829D01*
X113233238Y-110519745D01*
X113224726Y-110503553D01*
X113216247Y-110487254D01*
X113207802Y-110470847D01*
X113199391Y-110454331D01*
X113191015Y-110437706D01*
X113182672Y-110420971D01*
X113174364Y-110404127D01*
X113166091Y-110387172D01*
X113157852Y-110370107D01*
X113149649Y-110352930D01*
X113141480Y-110335642D01*
X113133348Y-110318242D01*
X113125251Y-110300729D01*
X113117189Y-110283104D01*
X113109164Y-110265365D01*
X113101175Y-110247513D01*
X113093223Y-110229547D01*
X113085307Y-110211466D01*
X113077428Y-110193271D01*
X113069587Y-110174960D01*
X113061782Y-110156534D01*
X113054016Y-110137991D01*
X113046287Y-110119333D01*
X113038596Y-110100557D01*
X113030944Y-110081664D01*
X113023330Y-110062654D01*
X113015755Y-110043525D01*
X113008218Y-110024278D01*
X113000722Y-110004913D01*
X112993264Y-109985428D01*
X112985847Y-109965824D01*
X112978469Y-109946100D01*
X112971132Y-109926255D01*
X112963835Y-109906290D01*
X112956579Y-109886204D01*
X112949364Y-109865997D01*
X112942191Y-109845668D01*
X112935059Y-109825217D01*
X112927969Y-109804644D01*
X112920921Y-109783948D01*
X112913916Y-109763129D01*
X112906953Y-109742186D01*
X112900034Y-109721120D01*
X112893157Y-109699930D01*
X112886325Y-109678615D01*
X112879536Y-109657176D01*
X112872791Y-109635612D01*
X112866091Y-109613923D01*
X112859436Y-109592108D01*
X112852825Y-109570167D01*
X112846260Y-109548100D01*
X112839741Y-109525907D01*
X112833268Y-109503587D01*
X112826841Y-109481140D01*
X112820460Y-109458567D01*
X112814127Y-109435865D01*
X112807841Y-109413037D01*
X112801603Y-109390080D01*
X112795412Y-109366995D01*
X112789270Y-109343783D01*
X112783176Y-109320441D01*
X112777131Y-109296972D01*
X112771135Y-109273373D01*
X112765189Y-109249645D01*
X112759293Y-109225789D01*
X112753447Y-109201803D01*
X112747652Y-109177688D01*
X112741907Y-109153443D01*
X112736214Y-109129069D01*
X112730573Y-109104565D01*
X112724984Y-109079931D01*
X112719446Y-109055168D01*
X112713962Y-109030275D01*
X112708531Y-109005251D01*
X112703153Y-108980098D01*
X112697829Y-108954816D01*
X112692559Y-108929403D01*
X112687343Y-108903860D01*
X112682183Y-108878188D01*
X112677078Y-108852386D01*
X112672028Y-108826454D01*
X112667035Y-108800393D01*
X112662097Y-108774202D01*
X112657217Y-108747882D01*
X112652394Y-108721434D01*
X112647628Y-108694856D01*
X112642920Y-108668149D01*
X112638271Y-108641315D01*
X112633680Y-108614352D01*
X112629148Y-108587261D01*
X112624676Y-108560043D01*
X112620264Y-108532698D01*
X112615912Y-108505226D01*
X112611620Y-108477627D01*
X112607390Y-108449903D01*
X112603221Y-108422054D01*
X112599114Y-108394079D01*
X112595069Y-108365980D01*
X112591087Y-108337758D01*
X112587168Y-108309412D01*
X112583313Y-108280944D01*
X112579521Y-108252354D01*
X112575793Y-108223643D01*
X112572131Y-108194812D01*
X112568533Y-108165861D01*
X112565001Y-108136792D01*
X112561535Y-108107606D01*
X112558135Y-108078303D01*
X112554802Y-108048885D01*
X112551536Y-108019353D01*
X112548338Y-107989707D01*
X112545207Y-107959949D01*
X112542145Y-107930081D01*
X112539152Y-107900104D01*
X112536227Y-107870019D01*
X112533373Y-107839828D01*
X112530588Y-107809532D01*
X112527874Y-107779134D01*
X112525231Y-107748634D01*
X112522658Y-107718035D01*
X112520158Y-107687339D01*
X112517729Y-107656548D01*
X112515373Y-107625664D01*
X112513089Y-107594689D01*
X112510879Y-107563626D01*
X112508742Y-107532478D01*
X112506679Y-107501246D01*
X112504691Y-107469935D01*
X112502776Y-107438546D01*
X112500937Y-107407083D01*
X112499174Y-107375550D01*
X112497486Y-107343949D01*
X112495874Y-107312285D01*
X112494338Y-107280562D01*
X112492879Y-107248783D01*
X112491497Y-107216952D01*
X112490192Y-107185076D01*
X112488965Y-107153157D01*
X112487816Y-107121202D01*
X112486745Y-107089215D01*
X112485752Y-107057204D01*
X112484838Y-107025172D01*
X112484002Y-106993128D01*
X112483245Y-106961078D01*
X112482568Y-106929029D01*
X112481969Y-106896990D01*
X112481450Y-106864967D01*
X112481010Y-106832971D01*
X112480650Y-106801011D01*
X112480368Y-106769097D01*
X112480167Y-106737239D01*
X112480044Y-106705450D01*
X112480000Y-106673742D01*
X112480035Y-106642129D01*
X112480149Y-106610625D01*
X112480340Y-106579247D01*
X112480609Y-106548012D01*
X112480955Y-106516938D01*
X112481377Y-106486048D01*
X112481874Y-106455362D01*
X112482446Y-106424907D01*
X112483090Y-106394711D01*
X112483807Y-106364805D01*
X112484593Y-106335223D01*
X112485446Y-106306006D01*
X112486365Y-106277198D01*
X112487347Y-106248851D01*
X112488387Y-106221024D01*
X112489481Y-106193788D01*
X112490624Y-106167227D01*
X112491809Y-106141442D01*
X112493027Y-106116561D01*
X112494267Y-106092745D01*
X112495513Y-106070209D01*
X112496742Y-106049255D01*
X112497920Y-106030340D01*
X112498985Y-106014248D01*
X112499800Y-106002689D01*
X112500000Y-106000000D01*
D11*
X112500000Y-114000000D02*
X116000000Y-112000000D01*
D10*
X105500000Y-118000000D02*
X105501075Y-117987221D01*
X105502168Y-117974465D01*
X105503279Y-117961735D01*
X105504408Y-117949027D01*
X105505555Y-117936345D01*
X105506720Y-117923686D01*
X105507902Y-117911051D01*
X105509103Y-117898440D01*
X105510321Y-117885853D01*
X105511557Y-117873289D01*
X105512811Y-117860751D01*
X105514082Y-117848234D01*
X105515371Y-117835743D01*
X105516678Y-117823274D01*
X105518003Y-117810830D01*
X105519345Y-117798409D01*
X105520704Y-117786012D01*
X105522081Y-117773638D01*
X105523476Y-117761288D01*
X105524888Y-117748961D01*
X105526318Y-117736658D01*
X105527765Y-117724378D01*
X105529229Y-117712122D01*
X105530710Y-117699888D01*
X105532209Y-117687679D01*
X105533725Y-117675492D01*
X105535259Y-117663329D01*
X105536810Y-117651188D01*
X105538377Y-117639072D01*
X105539962Y-117626977D01*
X105541565Y-117614907D01*
X105543184Y-117602859D01*
X105544820Y-117590834D01*
X105546474Y-117578832D01*
X105548144Y-117566853D01*
X105549831Y-117554897D01*
X105551536Y-117542964D01*
X105553257Y-117531053D01*
X105554995Y-117519166D01*
X105556750Y-117507300D01*
X105558522Y-117495459D01*
X105560311Y-117483639D01*
X105562116Y-117471842D01*
X105563939Y-117460067D01*
X105565778Y-117448316D01*
X105567633Y-117436586D01*
X105569506Y-117424880D01*
X105571395Y-117413195D01*
X105573300Y-117401533D01*
X105575223Y-117389893D01*
X105577162Y-117378276D01*
X105579117Y-117366681D01*
X105581089Y-117355108D01*
X105583077Y-117343558D01*
X105585082Y-117332029D01*
X105587103Y-117320523D01*
X105589141Y-117309039D01*
X105591195Y-117297577D01*
X105593266Y-117286137D01*
X105595352Y-117274719D01*
X105597455Y-117263323D01*
X105599575Y-117251949D01*
X105601710Y-117240597D01*
X105603862Y-117229266D01*
X105606030Y-117217958D01*
X105608214Y-117206671D01*
X105610415Y-117195406D01*
X105612631Y-117184162D01*
X105614864Y-117172941D01*
X105617112Y-117161741D01*
X105619377Y-117150563D01*
X105621658Y-117139406D01*
X105623954Y-117128271D01*
X105626267Y-117117157D01*
X105628596Y-117106065D01*
X105630940Y-117094994D01*
X105633301Y-117083944D01*
X105635677Y-117072916D01*
X105638069Y-117061909D01*
X105640477Y-117050924D01*
X105642901Y-117039959D01*
X105645340Y-117029016D01*
X105647796Y-117018095D01*
X105650267Y-117007194D01*
X105652753Y-116996314D01*
X105655256Y-116985456D01*
X105657774Y-116974618D01*
X105660308Y-116963802D01*
X105662857Y-116953006D01*
X105665422Y-116942232D01*
X105668002Y-116931478D01*
X105670598Y-116920745D01*
X105673210Y-116910033D01*
X105675837Y-116899342D01*
X105678480Y-116888672D01*
X105681138Y-116878022D01*
X105683811Y-116867393D01*
X105686500Y-116856785D01*
X105689204Y-116846197D01*
X105691924Y-116835630D01*
X105694659Y-116825083D01*
X105697409Y-116814557D01*
X105700174Y-116804052D01*
X105702955Y-116793567D01*
X105705751Y-116783102D01*
X105708563Y-116772658D01*
X105711389Y-116762234D01*
X105714231Y-116751830D01*
X105717088Y-116741447D01*
X105719960Y-116731084D01*
X105722847Y-116720741D01*
X105725750Y-116710418D01*
X105728667Y-116700116D01*
X105731599Y-116689834D01*
X105734547Y-116679571D01*
X105737510Y-116669329D01*
X105740487Y-116659107D01*
X105743480Y-116648905D01*
X105746487Y-116638722D01*
X105749510Y-116628560D01*
X105752547Y-116618417D01*
X105755600Y-116608295D01*
X105758667Y-116598192D01*
X105761749Y-116588109D01*
X105764846Y-116578046D01*
X105767958Y-116568003D01*
X105771085Y-116557978D01*
X105774226Y-116547975D01*
X105777382Y-116537990D01*
X105780553Y-116528025D01*
X105783739Y-116518079D01*
X105786939Y-116508154D01*
X105790155Y-116498247D01*
X105793385Y-116488361D01*
X105796629Y-116478493D01*
X105799888Y-116468645D01*
X105803162Y-116458816D01*
X105806451Y-116449007D01*
X105809754Y-116439217D01*
X105813071Y-116429446D01*
X105816404Y-116419695D01*
X105819750Y-116409963D01*
X105823112Y-116400249D01*
X105826488Y-116390556D01*
X105829878Y-116380880D01*
X105833283Y-116371225D01*
X105836702Y-116361588D01*
X105840136Y-116351971D01*
X105843584Y-116342371D01*
X105847047Y-116332792D01*
X105850524Y-116323231D01*
X105854015Y-116313689D01*
X105857521Y-116304166D01*
X105861041Y-116294662D01*
X105864576Y-116285176D01*
X105868124Y-116275710D01*
X105871688Y-116266262D01*
X105875265Y-116256833D01*
X105878857Y-116247422D01*
X105882463Y-116238031D01*
X105886083Y-116228657D01*
X105889718Y-116219303D01*
X105893366Y-116209966D01*
X105897029Y-116200649D01*
X105900707Y-116191350D01*
X105904398Y-116182070D01*
X105908103Y-116172807D01*
X105911823Y-116163564D01*
X105915557Y-116154338D01*
X105919304Y-116145132D01*
X105923067Y-116135942D01*
X105926843Y-116126773D01*
X105930633Y-116117620D01*
X105934437Y-116108487D01*
X105938256Y-116099370D01*
X105942088Y-116090274D01*
X105945935Y-116081194D01*
X105949795Y-116072133D01*
X105953670Y-116063089D01*
X105957558Y-116054065D01*
X105961461Y-116045057D01*
X105965377Y-116036069D01*
X105969307Y-116027097D01*
X105973252Y-116018145D01*
X105977210Y-116009209D01*
X105981182Y-116000292D01*
X105985169Y-115991392D01*
X105989168Y-115982511D01*
X105993183Y-115973647D01*
X105997210Y-115964802D01*
X106001252Y-115955973D01*
X106005307Y-115947163D01*
X106009377Y-115938369D01*
X106013460Y-115929595D01*
X106017558Y-115920837D01*
X106021668Y-115912098D01*
X106025793Y-115903374D01*
X106029931Y-115894670D01*
X106034084Y-115885982D01*
X106038250Y-115877314D01*
X106042430Y-115868660D01*
X106046623Y-115860026D01*
X106050831Y-115851408D01*
X106055052Y-115842809D01*
X106059287Y-115834226D01*
X106063535Y-115825661D01*
X106067798Y-115817112D01*
X106072074Y-115808583D01*
X106076364Y-115800068D01*
X106080667Y-115791573D01*
X106084984Y-115783093D01*
X106089315Y-115774632D01*
X106093660Y-115766187D01*
X106098017Y-115757760D01*
X106102390Y-115749349D01*
X106106774Y-115740956D01*
X106111174Y-115732579D01*
X106115586Y-115724221D01*
X106120013Y-115715878D01*
X106124452Y-115707553D01*
X106128906Y-115699244D01*
X106133373Y-115690954D01*
X106137854Y-115682678D01*
X106142348Y-115674422D01*
X106146856Y-115666180D01*
X106151377Y-115657957D01*
X106155912Y-115649749D01*
X106160460Y-115641560D01*
X106165023Y-115633385D01*
X106169598Y-115625229D01*
X106174188Y-115617088D01*
X106178790Y-115608966D01*
X106188036Y-115592769D01*
X106197336Y-115576638D01*
X106206690Y-115560574D01*
X106216098Y-115544576D01*
X106225560Y-115528643D01*
X106235075Y-115512777D01*
X106244645Y-115496976D01*
X106254269Y-115481240D01*
X106263946Y-115465569D01*
X106273677Y-115449963D01*
X106283462Y-115434422D01*
X106293301Y-115418946D01*
X106303193Y-115403534D01*
X106313139Y-115388187D01*
X106323138Y-115372903D01*
X106333192Y-115357683D01*
X106343299Y-115342528D01*
X106353459Y-115327435D01*
X106363673Y-115312407D01*
X106373941Y-115297441D01*
X106384262Y-115282539D01*
X106394637Y-115267699D01*
X106405066Y-115252922D01*
X106415548Y-115238208D01*
X106426083Y-115223557D01*
X106436673Y-115208968D01*
X106447315Y-115194441D01*
X106458012Y-115179976D01*
X106468762Y-115165573D01*
X106479565Y-115151231D01*
X106490422Y-115136952D01*
X106501333Y-115122733D01*
X106512297Y-115108577D01*
X106523315Y-115094481D01*
X106534387Y-115080446D01*
X106545512Y-115066473D01*
X106556691Y-115052560D01*
X106567924Y-115038708D01*
X106579211Y-115024917D01*
X106590551Y-115011185D01*
X106601945Y-114997515D01*
X106613393Y-114983904D01*
X106624894Y-114970354D01*
X106636450Y-114956863D01*
X106648060Y-114943433D01*
X106659723Y-114930062D01*
X106671441Y-114916751D01*
X106683212Y-114903499D01*
X106695038Y-114890307D01*
X106706917Y-114877174D01*
X106718851Y-114864100D01*
X106730839Y-114851085D01*
X106742882Y-114838130D01*
X106754978Y-114825233D01*
X106767129Y-114812396D01*
X106779334Y-114799617D01*
X106791594Y-114786896D01*
X106803908Y-114774235D01*
X106816277Y-114761632D01*
X106828700Y-114749087D01*
X106841178Y-114736601D01*
X106853711Y-114724172D01*
X106866299Y-114711803D01*
X106878941Y-114699491D01*
X106891638Y-114687237D01*
X106904390Y-114675041D01*
X106917197Y-114662904D01*
X106930060Y-114650824D01*
X106942977Y-114638802D01*
X106955950Y-114626837D01*
X106968978Y-114614931D01*
X106982061Y-114603082D01*
X106995200Y-114591290D01*
X107008394Y-114579557D01*
X107021644Y-114567880D01*
X107034949Y-114556261D01*
X107048310Y-114544700D01*
X107061727Y-114533196D01*
X107075200Y-114521749D01*
X107088728Y-114510360D01*
X107102313Y-114499027D01*
X107115954Y-114487753D01*
X107129651Y-114476535D01*
X107143404Y-114465374D01*
X107157214Y-114454271D01*
X107171080Y-114443225D01*
X107185002Y-114432236D01*
X107198981Y-114421304D01*
X107213017Y-114410429D01*
X107227109Y-114399611D01*
X107241259Y-114388851D01*
X107255465Y-114378147D01*
X107269728Y-114367501D01*
X107284048Y-114356912D01*
X107298426Y-114346379D01*
X107312861Y-114335904D01*
X107327353Y-114325486D01*
X107341902Y-114315125D01*
X107356509Y-114304821D01*
X107371174Y-114294575D01*
X107385896Y-114284385D01*
X107400676Y-114274253D01*
X107415514Y-114264178D01*
X107430410Y-114254160D01*
X107445364Y-114244199D01*
X107460376Y-114234295D01*
X107475447Y-114224449D01*
X107490575Y-114214660D01*
X107505762Y-114204929D01*
X107521008Y-114195255D01*
X107536312Y-114185638D01*
X107551675Y-114176079D01*
X107567096Y-114166578D01*
X107582576Y-114157134D01*
X107598116Y-114147748D01*
X107613714Y-114138419D01*
X107629371Y-114129148D01*
X107645087Y-114119935D01*
X107660863Y-114110780D01*
X107676698Y-114101683D01*
X107692592Y-114092644D01*
X107708546Y-114083663D01*
X107724559Y-114074740D01*
X107740632Y-114065875D01*
X107756765Y-114057069D01*
X107772958Y-114048321D01*
X107789210Y-114039631D01*
X107805522Y-114031000D01*
X107821895Y-114022428D01*
X107838327Y-114013914D01*
X107854820Y-114005460D01*
X107871372Y-113997064D01*
X107887985Y-113988727D01*
X107904659Y-113980449D01*
X107921392Y-113972230D01*
X107938187Y-113964071D01*
X107955042Y-113955971D01*
X107971957Y-113947930D01*
X107988933Y-113939950D01*
X108005970Y-113932029D01*
X108023067Y-113924167D01*
X108040225Y-113916366D01*
X108057445Y-113908625D01*
X108074725Y-113900944D01*
X108092066Y-113893323D01*
X108109468Y-113885763D01*
X108126930Y-113878263D01*
X108144454Y-113870825D01*
X108162040Y-113863447D01*
X108179686Y-113856130D01*
X108197393Y-113848874D01*
X108215162Y-113841679D01*
X108232991Y-113834546D01*
X108250882Y-113827474D01*
X108268834Y-113820464D01*
X108286847Y-113813516D01*
X108304922Y-113806630D01*
X108323058Y-113799806D01*
X108341255Y-113793044D01*
X108359513Y-113786345D01*
X108377832Y-113779708D01*
X108396213Y-113773134D01*
X108414655Y-113766623D01*
X108433158Y-113760176D01*
X108451722Y-113753791D01*
X108470347Y-113747470D01*
X108489033Y-113741213D01*
X108507780Y-113735019D01*
X108526589Y-113728889D01*
X108545458Y-113722824D01*
X108564388Y-113716823D01*
X108583379Y-113710886D01*
X108602431Y-113705014D01*
X108621543Y-113699207D01*
X108640716Y-113693465D01*
X108659949Y-113687788D01*
X108679243Y-113682176D01*
X108698597Y-113676631D01*
X108718012Y-113671151D01*
X108737487Y-113665737D01*
X108757021Y-113660389D01*
X108776616Y-113655107D01*
X108796270Y-113649893D01*
X108815984Y-113644745D01*
X108835757Y-113639664D01*
X108855590Y-113634650D01*
X108875482Y-113629704D01*
X108895432Y-113624825D01*
X108915442Y-113620014D01*
X108935510Y-113615271D01*
X108955637Y-113610597D01*
X108975822Y-113605991D01*
X108996065Y-113601453D01*
X109016366Y-113596984D01*
X109036724Y-113592585D01*
X109057140Y-113588255D01*
X109077613Y-113583994D01*
X109098142Y-113579803D01*
X109118728Y-113575682D01*
X109139371Y-113571631D01*
X109160069Y-113567650D01*
X109180823Y-113563741D01*
X109201633Y-113559902D01*
X109222497Y-113556133D01*
X109243417Y-113552437D01*
X109264390Y-113548811D01*
X109285418Y-113545258D01*
X109306499Y-113541776D01*
X109327633Y-113538366D01*
X109348820Y-113535029D01*
X109370060Y-113531764D01*
X109391352Y-113528572D01*
X109412695Y-113525454D01*
X109434089Y-113522408D01*
X109455534Y-113519436D01*
X109477028Y-113516537D01*
X109498573Y-113513712D01*
X109520166Y-113510961D01*
X109541808Y-113508285D01*
X109563498Y-113505683D01*
X109585235Y-113503156D01*
X109607019Y-113500704D01*
X109628850Y-113498327D01*
X109650725Y-113496025D01*
X109672646Y-113493798D01*
X109694611Y-113491648D01*
X109716620Y-113489573D01*
X109738671Y-113487575D01*
X109760764Y-113485653D01*
X109782899Y-113483807D01*
X109805074Y-113482038D01*
X109827289Y-113480346D01*
X109849543Y-113478731D01*
X109871835Y-113477193D01*
X109894165Y-113475733D01*
X109916530Y-113474350D01*
X109938932Y-113473045D01*
X109961367Y-113471818D01*
X109983836Y-113470669D01*
X110006338Y-113469598D01*
X110028871Y-113468606D01*
X110051435Y-113467692D01*
X110074028Y-113466857D01*
X110096649Y-113466101D01*
X110119297Y-113465423D01*
X110141972Y-113464825D01*
X110164671Y-113464306D01*
X110187393Y-113463866D01*
X110210138Y-113463505D01*
X110232904Y-113463224D01*
X110255689Y-113463022D01*
X110278493Y-113462900D01*
X110301313Y-113462858D01*
X110324149Y-113462895D01*
X110346999Y-113463012D01*
X110369861Y-113463210D01*
X110392734Y-113463486D01*
X110415617Y-113463843D01*
X110438507Y-113464280D01*
X110461403Y-113464796D01*
X110484304Y-113465393D01*
X110507207Y-113466069D01*
X110530110Y-113466825D01*
X110553013Y-113467661D01*
X110575913Y-113468577D01*
X110598807Y-113469572D01*
X110621695Y-113470647D01*
X110644574Y-113471801D01*
X110667443Y-113473034D01*
X110690298Y-113474347D01*
X110713138Y-113475738D01*
X110735960Y-113477208D01*
X110758763Y-113478757D01*
X110781544Y-113480385D01*
X110804300Y-113482091D01*
X110827030Y-113483874D01*
X110849731Y-113485735D01*
X110872400Y-113487674D01*
X110895034Y-113489690D01*
X110917632Y-113491782D01*
X110940190Y-113493951D01*
X110962706Y-113496196D01*
X110985177Y-113498516D01*
X111007600Y-113500912D01*
X111029973Y-113503383D01*
X111052291Y-113505927D01*
X111074553Y-113508546D01*
X111096755Y-113511237D01*
X111118894Y-113514002D01*
X111140968Y-113516838D01*
X111162972Y-113519746D01*
X111184903Y-113522725D01*
X111206759Y-113525774D01*
X111228535Y-113528892D01*
X111250229Y-113532079D01*
X111271836Y-113535334D01*
X111293355Y-113538655D01*
X111314779Y-113542044D01*
X111336107Y-113545497D01*
X111357335Y-113549015D01*
X111378458Y-113552596D01*
X111399473Y-113556240D01*
X111420377Y-113559946D01*
X111430790Y-113561822D01*
X111441165Y-113563712D01*
X111451518Y-113565618D01*
X111461833Y-113567537D01*
X111472125Y-113569472D01*
X111482379Y-113571420D01*
X111492607Y-113573384D01*
X111502796Y-113575360D01*
X111512959Y-113577352D01*
X111523083Y-113579357D01*
X111533179Y-113581376D01*
X111543234Y-113583407D01*
X111553260Y-113585453D01*
X111563246Y-113587511D01*
X111573201Y-113589583D01*
X111583115Y-113591667D01*
X111592996Y-113593765D01*
X111602836Y-113595874D01*
X111612642Y-113597996D01*
X111622406Y-113600129D01*
X111632134Y-113602275D01*
X111641820Y-113604433D01*
X111651469Y-113606602D01*
X111661075Y-113608782D01*
X111670642Y-113610974D01*
X111680166Y-113613176D01*
X111689650Y-113615390D01*
X111699090Y-113617614D01*
X111708488Y-113619848D01*
X111717842Y-113622093D01*
X111727152Y-113624347D01*
X111736418Y-113626612D01*
X111745639Y-113628886D01*
X111754814Y-113631169D01*
X111763943Y-113633461D01*
X111773027Y-113635762D01*
X111782062Y-113638072D01*
X111791052Y-113640391D01*
X111799992Y-113642717D01*
X111808885Y-113645052D01*
X111817728Y-113647395D01*
X111826523Y-113649745D01*
X111835266Y-113652102D01*
X111843962Y-113654467D01*
X111852604Y-113656838D01*
X111861198Y-113659217D01*
X111869737Y-113661601D01*
X111878227Y-113663993D01*
X111886661Y-113666389D01*
X111895046Y-113668792D01*
X111903373Y-113671199D01*
X111911652Y-113673613D01*
X111919870Y-113676030D01*
X111928040Y-113678454D01*
X111936148Y-113680880D01*
X111944208Y-113683312D01*
X111952204Y-113685747D01*
X111960152Y-113688187D01*
X111968035Y-113690629D01*
X111975869Y-113693076D01*
X111983637Y-113695523D01*
X111991356Y-113697976D01*
X111999008Y-113700429D01*
X112006610Y-113702887D01*
X112014144Y-113705343D01*
X112021628Y-113707805D01*
X112029044Y-113710264D01*
X112036409Y-113712729D01*
X112043704Y-113715190D01*
X112050948Y-113717656D01*
X112058122Y-113720119D01*
X112065245Y-113722586D01*
X112072295Y-113725048D01*
X112079296Y-113727515D01*
X112086223Y-113729976D01*
X112093100Y-113732441D01*
X112099902Y-113734901D01*
X112106654Y-113737363D01*
X112113331Y-113739820D01*
X112119957Y-113742279D01*
X112126508Y-113744731D01*
X112133008Y-113747186D01*
X112139432Y-113749634D01*
X112145805Y-113752083D01*
X112152101Y-113754524D01*
X112158347Y-113756968D01*
X112164514Y-113759402D01*
X112170632Y-113761838D01*
X112176671Y-113764264D01*
X112182660Y-113766692D01*
X112188571Y-113769109D01*
X112194431Y-113771527D01*
X112200212Y-113773935D01*
X112205944Y-113776343D01*
X112211595Y-113778740D01*
X112217198Y-113781137D01*
X112222720Y-113783522D01*
X112228193Y-113785908D01*
X112233586Y-113788280D01*
X112238930Y-113790653D01*
X112244194Y-113793012D01*
X112249409Y-113795371D01*
X112254544Y-113797715D01*
X112259631Y-113800060D01*
X112264637Y-113802390D01*
X112269595Y-113804719D01*
X112274474Y-113807033D01*
X112279304Y-113809347D01*
X112284054Y-113811644D01*
X112288757Y-113813941D01*
X112293381Y-113816221D01*
X112297957Y-113818500D01*
X112302454Y-113820762D01*
X112306904Y-113823023D01*
X112311276Y-113825266D01*
X112315601Y-113827508D01*
X112319848Y-113829732D01*
X112324049Y-113831955D01*
X112328172Y-113834159D01*
X112332250Y-113836362D01*
X112336250Y-113838545D01*
X112340206Y-113840727D01*
X112344085Y-113842890D01*
X112347919Y-113845050D01*
X112351678Y-113847191D01*
X112355392Y-113849330D01*
X112359032Y-113851449D01*
X112362628Y-113853566D01*
X112366150Y-113855662D01*
X112369629Y-113857756D01*
X112373034Y-113859829D01*
X112376398Y-113861900D01*
X112379689Y-113863950D01*
X112382938Y-113865998D01*
X112386115Y-113868024D01*
X112389252Y-113870048D01*
X112392318Y-113872050D01*
X112395343Y-113874049D01*
X112398299Y-113876027D01*
X112401215Y-113878002D01*
X112404063Y-113879955D01*
X112406871Y-113881905D01*
X112409613Y-113883834D01*
X112412315Y-113885759D01*
X112414952Y-113887662D01*
X112417550Y-113889563D01*
X112420084Y-113891440D01*
X112422581Y-113893315D01*
X112425014Y-113895168D01*
X112427410Y-113897018D01*
X112429744Y-113898845D01*
X112432041Y-113900669D01*
X112434278Y-113902470D01*
X112436479Y-113904269D01*
X112438621Y-113906045D01*
X112440728Y-113907817D01*
X112442777Y-113909568D01*
X112444791Y-113911315D01*
X112446749Y-113913040D01*
X112448673Y-113914761D01*
X112450542Y-113916460D01*
X112452377Y-113918156D01*
X112454159Y-113919830D01*
X112455908Y-113921500D01*
X112457605Y-113923149D01*
X112459270Y-113924794D01*
X112460884Y-113926417D01*
X112462466Y-113928037D01*
X112463999Y-113929635D01*
X112465501Y-113931230D01*
X112466955Y-113932803D01*
X112468379Y-113934373D01*
X112469756Y-113935921D01*
X112471104Y-113937467D01*
X112472407Y-113938991D01*
X112473680Y-113940512D01*
X112474910Y-113942012D01*
X112476111Y-113943509D01*
X112477270Y-113944985D01*
X112478400Y-113946458D01*
X112479490Y-113947910D01*
X112480553Y-113949360D01*
X112481576Y-113950790D01*
X112482572Y-113952216D01*
X112483530Y-113953623D01*
X112484461Y-113955026D01*
X112485356Y-113956411D01*
X112486225Y-113957792D01*
X112487058Y-113959155D01*
X112487866Y-113960514D01*
X112488639Y-113961855D01*
X112489388Y-113963193D01*
X112490103Y-113964513D01*
X112490794Y-113965830D01*
X112491454Y-113967130D01*
X112492089Y-113968427D01*
X112492694Y-113969706D01*
X112493275Y-113970983D01*
X112493826Y-113972244D01*
X112494355Y-113973501D01*
X112494855Y-113974742D01*
X112495332Y-113975981D01*
X112495781Y-113977204D01*
X112496209Y-113978425D01*
X112496610Y-113979630D01*
X112496988Y-113980833D01*
X112497342Y-113982022D01*
X112497673Y-113983208D01*
X112497980Y-113984380D01*
X112498266Y-113985550D01*
X112498528Y-113986707D01*
X112498768Y-113987861D01*
X112498986Y-113989003D01*
X112499182Y-113990141D01*
X112499356Y-113991269D01*
X112499510Y-113992394D01*
X112499642Y-113993508D01*
X112499753Y-113994619D01*
X112499843Y-113995720D01*
X112499913Y-113996818D01*
X112499962Y-113997908D01*
X112499991Y-113998994D01*
X112500000Y-114000000D01*
X120000000Y-129000000D02*
X119984600Y-129006330D01*
X119969204Y-129012637D01*
X119953810Y-129018922D01*
X119938420Y-129025184D01*
X119923031Y-129031423D01*
X119907646Y-129037639D01*
X119892263Y-129043833D01*
X119876884Y-129050004D01*
X119861506Y-129056153D01*
X119846133Y-129062278D01*
X119830761Y-129068381D01*
X119815393Y-129074462D01*
X119800027Y-129080520D01*
X119784664Y-129086555D01*
X119769304Y-129092568D01*
X119753947Y-129098558D01*
X119738592Y-129104525D01*
X119723241Y-129110470D01*
X119707892Y-129116393D01*
X119692546Y-129122292D01*
X119677203Y-129128170D01*
X119661863Y-129134025D01*
X119646525Y-129139857D01*
X119631191Y-129145667D01*
X119615859Y-129151455D01*
X119600531Y-129157219D01*
X119585204Y-129162962D01*
X119569882Y-129168682D01*
X119554561Y-129174380D01*
X119539245Y-129180055D01*
X119523930Y-129185708D01*
X119508619Y-129191339D01*
X119493310Y-129196947D01*
X119478005Y-129202533D01*
X119462701Y-129208096D01*
X119447402Y-129213637D01*
X119432105Y-129219156D01*
X119416811Y-129224653D01*
X119401520Y-129230127D01*
X119386232Y-129235579D01*
X119370946Y-129241009D01*
X119355664Y-129246416D01*
X119340384Y-129251801D01*
X119325108Y-129257164D01*
X119309835Y-129262505D01*
X119294564Y-129267824D01*
X119279296Y-129273120D01*
X119264032Y-129278394D01*
X119248770Y-129283646D01*
X119233512Y-129288876D01*
X119218256Y-129294084D01*
X119203003Y-129299269D01*
X119187753Y-129304433D01*
X119172507Y-129309574D01*
X119157262Y-129314693D01*
X119142022Y-129319790D01*
X119126784Y-129324865D01*
X119111549Y-129329918D01*
X119096317Y-129334949D01*
X119081088Y-129339958D01*
X119065862Y-129344945D01*
X119050640Y-129349909D01*
X119035419Y-129354852D01*
X119020203Y-129359773D01*
X119004989Y-129364672D01*
X118989778Y-129369548D01*
X118974570Y-129374403D01*
X118959366Y-129379236D01*
X118944164Y-129384047D01*
X118928965Y-129388836D01*
X118913769Y-129393603D01*
X118898577Y-129398348D01*
X118883387Y-129403072D01*
X118868201Y-129407773D01*
X118853017Y-129412453D01*
X118837837Y-129417110D01*
X118822660Y-129421746D01*
X118807486Y-129426360D01*
X118792314Y-129430952D01*
X118777147Y-129435523D01*
X118761981Y-129440071D01*
X118746820Y-129444598D01*
X118731661Y-129449103D01*
X118716505Y-129453586D01*
X118701352Y-129458048D01*
X118686203Y-129462487D01*
X118671056Y-129466905D01*
X118655914Y-129471301D01*
X118640773Y-129475676D01*
X118625636Y-129480028D01*
X118610502Y-129484359D01*
X118595372Y-129488669D01*
X118580244Y-129492956D01*
X118565120Y-129497222D01*
X118549998Y-129501467D01*
X118534880Y-129505689D01*
X118519764Y-129509891D01*
X118504653Y-129514070D01*
X118489544Y-129518228D01*
X118474438Y-129522364D01*
X118459335Y-129526479D01*
X118444237Y-129530571D01*
X118429140Y-129534643D01*
X118414048Y-129538693D01*
X118398957Y-129542721D01*
X118383871Y-129546728D01*
X118368787Y-129550713D01*
X118353707Y-129554677D01*
X118338630Y-129558619D01*
X118323557Y-129562540D01*
X118308485Y-129566439D01*
X118293419Y-129570317D01*
X118278354Y-129574174D01*
X118263293Y-129578008D01*
X118248235Y-129581822D01*
X118233181Y-129585614D01*
X118218129Y-129589384D01*
X118203082Y-129593133D01*
X118188036Y-129596861D01*
X118172995Y-129600567D01*
X118157956Y-129604252D01*
X118142922Y-129607916D01*
X118127889Y-129611558D01*
X118112861Y-129615179D01*
X118097835Y-129618778D01*
X118082814Y-129622356D01*
X118067794Y-129625913D01*
X118052779Y-129629449D01*
X118037766Y-129632963D01*
X118022758Y-129636456D01*
X118007752Y-129639927D01*
X117992750Y-129643377D01*
X117977750Y-129646807D01*
X117962755Y-129650214D01*
X117947762Y-129653601D01*
X117932773Y-129656966D01*
X117917786Y-129660310D01*
X117902804Y-129663633D01*
X117887824Y-129666935D01*
X117872849Y-129670215D01*
X117857876Y-129673474D01*
X117842907Y-129676712D01*
X117827940Y-129679929D01*
X117812978Y-129683125D01*
X117798019Y-129686299D01*
X117783063Y-129689453D01*
X117768110Y-129692585D01*
X117753161Y-129695696D01*
X117738215Y-129698786D01*
X117723273Y-129701855D01*
X117708333Y-129704903D01*
X117693398Y-129707929D01*
X117678465Y-129710935D01*
X117663537Y-129713919D01*
X117648610Y-129716883D01*
X117633689Y-129719825D01*
X117618769Y-129722747D01*
X117603854Y-129725647D01*
X117588942Y-129728526D01*
X117574034Y-129731384D01*
X117559128Y-129734222D01*
X117544227Y-129737038D01*
X117529328Y-129739833D01*
X117514433Y-129742608D01*
X117499541Y-129745361D01*
X117484654Y-129748093D01*
X117469768Y-129750805D01*
X117454888Y-129753495D01*
X117440009Y-129756165D01*
X117425136Y-129758813D01*
X117410264Y-129761441D01*
X117395397Y-129764048D01*
X117380533Y-129766634D01*
X117365673Y-129769198D01*
X117350815Y-129771743D01*
X117335963Y-129774266D01*
X117321112Y-129776768D01*
X117306266Y-129779249D01*
X117291422Y-129781710D01*
X117276583Y-129784150D01*
X117261747Y-129786569D01*
X117246915Y-129788967D01*
X117232085Y-129791344D01*
X117217260Y-129793700D01*
X117202438Y-129796036D01*
X117187620Y-129798351D01*
X117172804Y-129800645D01*
X117157994Y-129802918D01*
X117143185Y-129805171D01*
X117128381Y-129807403D01*
X117113580Y-129809614D01*
X117098783Y-129811804D01*
X117083989Y-129813974D01*
X117069200Y-129816122D01*
X117054412Y-129818251D01*
X117039630Y-129820358D01*
X117024850Y-129822445D01*
X117010075Y-129824510D01*
X116995302Y-129826556D01*
X116980534Y-129828580D01*
X116965769Y-129830584D01*
X116951008Y-129832568D01*
X116936249Y-129834530D01*
X116921496Y-129836472D01*
X116906745Y-129838394D01*
X116891998Y-129840294D01*
X116877254Y-129842174D01*
X116862515Y-129844034D01*
X116847778Y-129845873D01*
X116833047Y-129847691D01*
X116818317Y-129849489D01*
X116803593Y-129851266D01*
X116788871Y-129853022D01*
X116774154Y-129854758D01*
X116759439Y-129856474D01*
X116744729Y-129858168D01*
X116730021Y-129859843D01*
X116715319Y-129861496D01*
X116700619Y-129863130D01*
X116685924Y-129864742D01*
X116671231Y-129866334D01*
X116656543Y-129867906D01*
X116641858Y-129869457D01*
X116627178Y-129870988D01*
X116612500Y-129872498D01*
X116597827Y-129873988D01*
X116583157Y-129875457D01*
X116568491Y-129876905D01*
X116553828Y-129878334D01*
X116539171Y-129879742D01*
X116524515Y-129881129D01*
X116509865Y-129882496D01*
X116495216Y-129883843D01*
X116480574Y-129885169D01*
X116465933Y-129886474D01*
X116451298Y-129887759D01*
X116436665Y-129889024D01*
X116422037Y-129890269D01*
X116407412Y-129891493D01*
X116392792Y-129892697D01*
X116378174Y-129893880D01*
X116363562Y-129895043D01*
X116348951Y-129896186D01*
X116334347Y-129897308D01*
X116305147Y-129899491D01*
X116275962Y-129901594D01*
X116246793Y-129903615D01*
X116217640Y-129905554D01*
X116188502Y-129907413D01*
X116159379Y-129909190D01*
X116130272Y-129910887D01*
X116101181Y-129912502D01*
X116072105Y-129914037D01*
X116043045Y-129915490D01*
X116014000Y-129916863D01*
X115984972Y-129918155D01*
X115955959Y-129919366D01*
X115926962Y-129920497D01*
X115897981Y-129921547D01*
X115869016Y-129922516D01*
X115840067Y-129923405D01*
X115811134Y-129924213D01*
X115782218Y-129924941D01*
X115753317Y-129925588D01*
X115724433Y-129926155D01*
X115695565Y-129926642D01*
X115666713Y-129927049D01*
X115637878Y-129927375D01*
X115609059Y-129927621D01*
X115580257Y-129927788D01*
X115551471Y-129927874D01*
X115522702Y-129927880D01*
X115493949Y-129927806D01*
X115465213Y-129927652D01*
X115436494Y-129927419D01*
X115407792Y-129927105D01*
X115379106Y-129926712D01*
X115350437Y-129926239D01*
X115321786Y-129925686D01*
X115293151Y-129925054D01*
X115264534Y-129924342D01*
X115235933Y-129923551D01*
X115207350Y-129922680D01*
X115178784Y-129921730D01*
X115150235Y-129920700D01*
X115121704Y-129919590D01*
X115093190Y-129918402D01*
X115064694Y-129917134D01*
X115036215Y-129915787D01*
X115007753Y-129914361D01*
X114979310Y-129912855D01*
X114950884Y-129911271D01*
X114922476Y-129909607D01*
X114894085Y-129907864D01*
X114865713Y-129906042D01*
X114837358Y-129904142D01*
X114809022Y-129902162D01*
X114780704Y-129900103D01*
X114752403Y-129897966D01*
X114724121Y-129895750D01*
X114695858Y-129893455D01*
X114667612Y-129891081D01*
X114639385Y-129888629D01*
X114611177Y-129886098D01*
X114582987Y-129883488D01*
X114554816Y-129880800D01*
X114526663Y-129878033D01*
X114498529Y-129875188D01*
X114470414Y-129872264D01*
X114442318Y-129869262D01*
X114414240Y-129866181D01*
X114386182Y-129863022D01*
X114358143Y-129859785D01*
X114330123Y-129856470D01*
X114302122Y-129853076D01*
X114274141Y-129849604D01*
X114246178Y-129846054D01*
X114218236Y-129842425D01*
X114190313Y-129838719D01*
X114162409Y-129834935D01*
X114134525Y-129831072D01*
X114106661Y-129827132D01*
X114078817Y-129823113D01*
X114050992Y-129819017D01*
X114023188Y-129814843D01*
X113995403Y-129810591D01*
X113967639Y-129806261D01*
X113939895Y-129801853D01*
X113912171Y-129797368D01*
X113884467Y-129792805D01*
X113856784Y-129788164D01*
X113829121Y-129783446D01*
X113801479Y-129778650D01*
X113773858Y-129773776D01*
X113746257Y-129768825D01*
X113718678Y-129763797D01*
X113691119Y-129758691D01*
X113663581Y-129753507D01*
X113636064Y-129748246D01*
X113608569Y-129742908D01*
X113581094Y-129737492D01*
X113553642Y-129731999D01*
X113526210Y-129726429D01*
X113498800Y-129720782D01*
X113471412Y-129715057D01*
X113444045Y-129709256D01*
X113416700Y-129703377D01*
X113389377Y-129697421D01*
X113362076Y-129691388D01*
X113334797Y-129685278D01*
X113307540Y-129679091D01*
X113280305Y-129672827D01*
X113253092Y-129666486D01*
X113225902Y-129660068D01*
X113198735Y-129653574D01*
X113171590Y-129647002D01*
X113144468Y-129640354D01*
X113117368Y-129633629D01*
X113090292Y-129626828D01*
X113063238Y-129619949D01*
X113036208Y-129612994D01*
X113009201Y-129605963D01*
X112982217Y-129598855D01*
X112955256Y-129591670D01*
X112928319Y-129584409D01*
X112901405Y-129577071D01*
X112874515Y-129569657D01*
X112847649Y-129562167D01*
X112820807Y-129554600D01*
X112793988Y-129546957D01*
X112767194Y-129539237D01*
X112740424Y-129531442D01*
X112713678Y-129523570D01*
X112686957Y-129515622D01*
X112660260Y-129507597D01*
X112633587Y-129499497D01*
X112606940Y-129491321D01*
X112580317Y-129483068D01*
X112553719Y-129474740D01*
X112527146Y-129466335D01*
X112500599Y-129457855D01*
X112474076Y-129449299D01*
X112447579Y-129440667D01*
X112421107Y-129431959D01*
X112394661Y-129423175D01*
X112368241Y-129414316D01*
X112341846Y-129405381D01*
X112315478Y-129396370D01*
X112289135Y-129387284D01*
X112262819Y-129378122D01*
X112236529Y-129368885D01*
X112210265Y-129359572D01*
X112184027Y-129350183D01*
X112157817Y-129340720D01*
X112131633Y-129331181D01*
X112105476Y-129321566D01*
X112079346Y-129311876D01*
X112053243Y-129302111D01*
X112027167Y-129292271D01*
X112001118Y-129282356D01*
X111975097Y-129272365D01*
X111949104Y-129262300D01*
X111923138Y-129252159D01*
X111897200Y-129241944D01*
X111871290Y-129231653D01*
X111845408Y-129221288D01*
X111819555Y-129210848D01*
X111793729Y-129200333D01*
X111767933Y-129189743D01*
X111742164Y-129179078D01*
X111716425Y-129168339D01*
X111690714Y-129157525D01*
X111665032Y-129146637D01*
X111639379Y-129135674D01*
X111613756Y-129124637D01*
X111588162Y-129113525D01*
X111562597Y-129102339D01*
X111537062Y-129091078D01*
X111511557Y-129079743D01*
X111486082Y-129068334D01*
X111460637Y-129056851D01*
X111435222Y-129045294D01*
X111409837Y-129033663D01*
X111384482Y-129021957D01*
X111359159Y-129010178D01*
X111333866Y-128998325D01*
X111308603Y-128986397D01*
X111283372Y-128974396D01*
X111258172Y-128962322D01*
X111233003Y-128950173D01*
X111207866Y-128937951D01*
X111182760Y-128925656D01*
X111157686Y-128913287D01*
X111132644Y-128900844D01*
X111107633Y-128888328D01*
X111082655Y-128875739D01*
X111057709Y-128863076D01*
X111032796Y-128850340D01*
X111007915Y-128837531D01*
X110983067Y-128824649D01*
X110958251Y-128811694D01*
X110933469Y-128798665D01*
X110908720Y-128785564D01*
X110884004Y-128772390D01*
X110859322Y-128759143D01*
X110834673Y-128745824D01*
X110810058Y-128732432D01*
X110785477Y-128718967D01*
X110760929Y-128705430D01*
X110736416Y-128691820D01*
X110711938Y-128678138D01*
X110687494Y-128664383D01*
X110663085Y-128650556D01*
X110638710Y-128636657D01*
X110614371Y-128622686D01*
X110590066Y-128608643D01*
X110565797Y-128594528D01*
X110541563Y-128580341D01*
X110517365Y-128566082D01*
X110493203Y-128551752D01*
X110469077Y-128537349D01*
X110444986Y-128522875D01*
X110420932Y-128508330D01*
X110396915Y-128493713D01*
X110372933Y-128479025D01*
X110348989Y-128464265D01*
X110325082Y-128449434D01*
X110301211Y-128434533D01*
X110277378Y-128419560D01*
X110253582Y-128404516D01*
X110229824Y-128389401D01*
X110206103Y-128374215D01*
X110182420Y-128358959D01*
X110158775Y-128343632D01*
X110135169Y-128328234D01*
X110111601Y-128312766D01*
X110088071Y-128297228D01*
X110064580Y-128281619D01*
X110041128Y-128265940D01*
X110017715Y-128250191D01*
X109994341Y-128234372D01*
X109971006Y-128218483D01*
X109947711Y-128202524D01*
X109924456Y-128186496D01*
X109901241Y-128170397D01*
X109878065Y-128154230D01*
X109854930Y-128137992D01*
X109831835Y-128121686D01*
X109808781Y-128105310D01*
X109785767Y-128088865D01*
X109762795Y-128072351D01*
X109739863Y-128055767D01*
X109716973Y-128039115D01*
X109694124Y-128022395D01*
X109671317Y-128005605D01*
X109648551Y-127988747D01*
X109625828Y-127971820D01*
X109603146Y-127954826D01*
X109580507Y-127937762D01*
X109557910Y-127920631D01*
X109535356Y-127903432D01*
X109512845Y-127886165D01*
X109490377Y-127868829D01*
X109467952Y-127851427D01*
X109445570Y-127833956D01*
X109423232Y-127816418D01*
X109400937Y-127798813D01*
X109378687Y-127781141D01*
X109356480Y-127763401D01*
X109334318Y-127745594D01*
X109312200Y-127727720D01*
X109290127Y-127709780D01*
X109268098Y-127691773D01*
X109246115Y-127673699D01*
X109224176Y-127655559D01*
X109202283Y-127637353D01*
X109180435Y-127619080D01*
X109158634Y-127600741D01*
X109136877Y-127582337D01*
X109115167Y-127563866D01*
X109093504Y-127545330D01*
X109071886Y-127526728D01*
X109050315Y-127508061D01*
X109028791Y-127489329D01*
X109007314Y-127470531D01*
X108985884Y-127451668D01*
X108964501Y-127432741D01*
X108943166Y-127413748D01*
X108921879Y-127394691D01*
X108900639Y-127375569D01*
X108879447Y-127356384D01*
X108858304Y-127337133D01*
X108837209Y-127317819D01*
X108816162Y-127298441D01*
X108795165Y-127278999D01*
X108774216Y-127259493D01*
X108753316Y-127239923D01*
X108732466Y-127220291D01*
X108711665Y-127200595D01*
X108690914Y-127180836D01*
X108670213Y-127161013D01*
X108649562Y-127141129D01*
X108628961Y-127121181D01*
X108608410Y-127101171D01*
X108587910Y-127081098D01*
X108567461Y-127060964D01*
X108547063Y-127040767D01*
X108526716Y-127020508D01*
X108506420Y-127000188D01*
X108486176Y-126979806D01*
X108465984Y-126959362D01*
X108445843Y-126938857D01*
X108425755Y-126918291D01*
X108405718Y-126897664D01*
X108385735Y-126876976D01*
X108365803Y-126856228D01*
X108345925Y-126835419D01*
X108326099Y-126814550D01*
X108306327Y-126793620D01*
X108286608Y-126772631D01*
X108266943Y-126751581D01*
X108247331Y-126730472D01*
X108227773Y-126709304D01*
X108208270Y-126688076D01*
X108188820Y-126666789D01*
X108169425Y-126645443D01*
X108150085Y-126624038D01*
X108130799Y-126602574D01*
X108111568Y-126581052D01*
X108092393Y-126559471D01*
X108073273Y-126537833D01*
X108054208Y-126516136D01*
X108035199Y-126494382D01*
X108016246Y-126472570D01*
X107997349Y-126450700D01*
X107978508Y-126428774D01*
X107959724Y-126406790D01*
X107940996Y-126384749D01*
X107922325Y-126362652D01*
X107903711Y-126340498D01*
X107885155Y-126318287D01*
X107866655Y-126296021D01*
X107848213Y-126273699D01*
X107829829Y-126251320D01*
X107811502Y-126228886D01*
X107793234Y-126206397D01*
X107775023Y-126183852D01*
X107756871Y-126161253D01*
X107738778Y-126138598D01*
X107720743Y-126115889D01*
X107702767Y-126093126D01*
X107684850Y-126070308D01*
X107666993Y-126047436D01*
X107649195Y-126024510D01*
X107631456Y-126001530D01*
X107613778Y-125978497D01*
X107596159Y-125955411D01*
X107578600Y-125932272D01*
X107561102Y-125909079D01*
X107543664Y-125885834D01*
X107526286Y-125862536D01*
X107508970Y-125839187D01*
X107491714Y-125815785D01*
X107474519Y-125792331D01*
X107457386Y-125768825D01*
X107440314Y-125745268D01*
X107423304Y-125721660D01*
X107406356Y-125698000D01*
X107389470Y-125674290D01*
X107372645Y-125650529D01*
X107355883Y-125626717D01*
X107339184Y-125602855D01*
X107322547Y-125578944D01*
X107305973Y-125554982D01*
X107289462Y-125530971D01*
X107273014Y-125506910D01*
X107256629Y-125482800D01*
X107240307Y-125458641D01*
X107224050Y-125434433D01*
X107207856Y-125410177D01*
X107191726Y-125385873D01*
X107175660Y-125361520D01*
X107159658Y-125337119D01*
X107143720Y-125312671D01*
X107127848Y-125288175D01*
X107112039Y-125263632D01*
X107096296Y-125239042D01*
X107080618Y-125214405D01*
X107065005Y-125189721D01*
X107049457Y-125164991D01*
X107033975Y-125140215D01*
X107018558Y-125115393D01*
X107003207Y-125090525D01*
X106987922Y-125065612D01*
X106972703Y-125040653D01*
X106957550Y-125015650D01*
X106942464Y-124990601D01*
X106927444Y-124965508D01*
X106919959Y-124952945D01*
X106912491Y-124940371D01*
X106905040Y-124927785D01*
X106897605Y-124915189D01*
X106890187Y-124902582D01*
X106882785Y-124889963D01*
X106875401Y-124877334D01*
X106868033Y-124864694D01*
X106860682Y-124852043D01*
X106853348Y-124839381D01*
X106846031Y-124826709D01*
X106838731Y-124814025D01*
X106831447Y-124801331D01*
X106824181Y-124788626D01*
X106816931Y-124775911D01*
X106809698Y-124763184D01*
X106802483Y-124750448D01*
X106795284Y-124737700D01*
X106788102Y-124724942D01*
X106780937Y-124712173D01*
X106773790Y-124699394D01*
X106766659Y-124686604D01*
X106759545Y-124673804D01*
X106752449Y-124660994D01*
X106745369Y-124648173D01*
X106738307Y-124635341D01*
X106731262Y-124622500D01*
X106724234Y-124609647D01*
X106717223Y-124596785D01*
X106710229Y-124583912D01*
X106703253Y-124571030D01*
X106696293Y-124558136D01*
X106689351Y-124545233D01*
X106682426Y-124532320D01*
X106675519Y-124519396D01*
X106668629Y-124506463D01*
X106661756Y-124493519D01*
X106654900Y-124480565D01*
X106648062Y-124467601D01*
X106641241Y-124454628D01*
X106634437Y-124441644D01*
X106627651Y-124428650D01*
X106620882Y-124415647D01*
X106614131Y-124402633D01*
X106607397Y-124389610D01*
X106600680Y-124376577D01*
X106593981Y-124363535D01*
X106587300Y-124350482D01*
X106580636Y-124337420D01*
X106573989Y-124324348D01*
X106567360Y-124311267D01*
X106560748Y-124298175D01*
X106554155Y-124285075D01*
X106547578Y-124271964D01*
X106541019Y-124258844D01*
X106534478Y-124245715D01*
X106527955Y-124232576D01*
X106521449Y-124219428D01*
X106514961Y-124206270D01*
X106508490Y-124193103D01*
X106502037Y-124179926D01*
X106495602Y-124166740D01*
X106489185Y-124153545D01*
X106482785Y-124140341D01*
X106476403Y-124127127D01*
X106470039Y-124113904D01*
X106463692Y-124100672D01*
X106457363Y-124087431D01*
X106451053Y-124074181D01*
X106444760Y-124060921D01*
X106438484Y-124047653D01*
X106432227Y-124034375D01*
X106425988Y-124021089D01*
X106419766Y-124007793D01*
X106413562Y-123994489D01*
X106407377Y-123981175D01*
X106401209Y-123967853D01*
X106395059Y-123954522D01*
X106388927Y-123941182D01*
X106382813Y-123927833D01*
X106376717Y-123914476D01*
X106370639Y-123901109D01*
X106364579Y-123887734D01*
X106358537Y-123874350D01*
X106352513Y-123860959D01*
X106346507Y-123847557D01*
X106340519Y-123834148D01*
X106334550Y-123820730D01*
X106328598Y-123807303D01*
X106322664Y-123793868D01*
X106316749Y-123780425D01*
X106310852Y-123766972D01*
X106304973Y-123753512D01*
X106299112Y-123740043D01*
X106293269Y-123726566D01*
X106287444Y-123713080D01*
X106281638Y-123699587D01*
X106275850Y-123686084D01*
X106270080Y-123672574D01*
X106264328Y-123659055D01*
X106258595Y-123645529D01*
X106252880Y-123631994D01*
X106247183Y-123618451D01*
X106241504Y-123604900D01*
X106235844Y-123591341D01*
X106230202Y-123577774D01*
X106224579Y-123564199D01*
X106218974Y-123550615D01*
X106213387Y-123537025D01*
X106207818Y-123523425D01*
X106202268Y-123509819D01*
X106196736Y-123496204D01*
X106191223Y-123482582D01*
X106185728Y-123468951D01*
X106180252Y-123455314D01*
X106174794Y-123441668D01*
X106169355Y-123428015D01*
X106163933Y-123414353D01*
X106158531Y-123400685D01*
X106153147Y-123387008D01*
X106147782Y-123373324D01*
X106142434Y-123359632D01*
X106137106Y-123345934D01*
X106131796Y-123332227D01*
X106126505Y-123318514D01*
X106121232Y-123304792D01*
X106115978Y-123291063D01*
X106110742Y-123277327D01*
X106105526Y-123263584D01*
X106100327Y-123249832D01*
X106095148Y-123236075D01*
X106089986Y-123222309D01*
X106084844Y-123208537D01*
X106079720Y-123194757D01*
X106074615Y-123180970D01*
X106069529Y-123167176D01*
X106064461Y-123153375D01*
X106059412Y-123139566D01*
X106054382Y-123125752D01*
X106049370Y-123111929D01*
X106044378Y-123098100D01*
X106039404Y-123084263D01*
X106034449Y-123070421D01*
X106029512Y-123056570D01*
X106024594Y-123042714D01*
X106019695Y-123028849D01*
X106014815Y-123014979D01*
X106009954Y-123001101D01*
X106005112Y-122987218D01*
X106000288Y-122973327D01*
X105995484Y-122959430D01*
X105990698Y-122945525D01*
X105985931Y-122931615D01*
X105981182Y-122917697D01*
X105976453Y-122903773D01*
X105971743Y-122889842D01*
X105967052Y-122875906D01*
X105962379Y-122861962D01*
X105957726Y-122848013D01*
X105953091Y-122834056D01*
X105948476Y-122820093D01*
X105943879Y-122806124D01*
X105939301Y-122792149D01*
X105934742Y-122778166D01*
X105930203Y-122764179D01*
X105925682Y-122750184D01*
X105921181Y-122736184D01*
X105916698Y-122722177D01*
X105912234Y-122708165D01*
X105907789Y-122694145D01*
X105903364Y-122680121D01*
X105898957Y-122666089D01*
X105894570Y-122652052D01*
X105890202Y-122638008D01*
X105885853Y-122623960D01*
X105881522Y-122609904D01*
X105877211Y-122595844D01*
X105872919Y-122581776D01*
X105868647Y-122567704D01*
X105864393Y-122553624D01*
X105860159Y-122539541D01*
X105855943Y-122525450D01*
X105851747Y-122511354D01*
X105847570Y-122497252D01*
X105843412Y-122483145D01*
X105839273Y-122469031D01*
X105835154Y-122454913D01*
X105831053Y-122440788D01*
X105826973Y-122426659D01*
X105822910Y-122412523D01*
X105818868Y-122398383D01*
X105814844Y-122384235D01*
X105810841Y-122370084D01*
X105806855Y-122355926D01*
X105802890Y-122341764D01*
X105798943Y-122327595D01*
X105795017Y-122313422D01*
X105791109Y-122299243D01*
X105787220Y-122285059D01*
X105783351Y-122270869D01*
X105779501Y-122256675D01*
X105775670Y-122242475D01*
X105771859Y-122228270D01*
X105768067Y-122214059D01*
X105764295Y-122199845D01*
X105760541Y-122185624D01*
X105756808Y-122171399D01*
X105753093Y-122157168D01*
X105749398Y-122142933D01*
X105745722Y-122128692D01*
X105742066Y-122114447D01*
X105738428Y-122100196D01*
X105734811Y-122085942D01*
X105731213Y-122071681D01*
X105727634Y-122057417D01*
X105724074Y-122043146D01*
X105720535Y-122028873D01*
X105717014Y-122014593D01*
X105713513Y-122000309D01*
X105710031Y-121986020D01*
X105706569Y-121971727D01*
X105703126Y-121957429D01*
X105699703Y-121943127D01*
X105696299Y-121928819D01*
X105692915Y-121914508D01*
X105689550Y-121900191D01*
X105686205Y-121885871D01*
X105682879Y-121871545D01*
X105679573Y-121857216D01*
X105676286Y-121842881D01*
X105673019Y-121828544D01*
X105669771Y-121814200D01*
X105666543Y-121799854D01*
X105663334Y-121785501D01*
X105660145Y-121771146D01*
X105656975Y-121756785D01*
X105653825Y-121742422D01*
X105650694Y-121728053D01*
X105647584Y-121713681D01*
X105644492Y-121699303D01*
X105641421Y-121684923D01*
X105638368Y-121670538D01*
X105635336Y-121656150D01*
X105632322Y-121641756D01*
X105629329Y-121627360D01*
X105626355Y-121612958D01*
X105623401Y-121598554D01*
X105620467Y-121584144D01*
X105617552Y-121569732D01*
X105614656Y-121555314D01*
X105611781Y-121540895D01*
X105608924Y-121526470D01*
X105606088Y-121512043D01*
X105603271Y-121497610D01*
X105600474Y-121483175D01*
X105597697Y-121468735D01*
X105594939Y-121454293D01*
X105592201Y-121439845D01*
X105589483Y-121425396D01*
X105586784Y-121410941D01*
X105584105Y-121396485D01*
X105581445Y-121382023D01*
X105578806Y-121367560D01*
X105576186Y-121353091D01*
X105573586Y-121338620D01*
X105571005Y-121324144D01*
X105568444Y-121309667D01*
X105565903Y-121295184D01*
X105563382Y-121280700D01*
X105560880Y-121266211D01*
X105558398Y-121251721D01*
X105555935Y-121237225D01*
X105553493Y-121222727D01*
X105551070Y-121208225D01*
X105548667Y-121193721D01*
X105546284Y-121179213D01*
X105543921Y-121164703D01*
X105541577Y-121150188D01*
X105539253Y-121135672D01*
X105536949Y-121121150D01*
X105534664Y-121106628D01*
X105532400Y-121092101D01*
X105530155Y-121077573D01*
X105527930Y-121063039D01*
X105525724Y-121048505D01*
X105523539Y-121033966D01*
X105521373Y-121019426D01*
X105519227Y-121004881D01*
X105517101Y-120990336D01*
X105514995Y-120975785D01*
X105512909Y-120961234D01*
X105510842Y-120946678D01*
X105508795Y-120932121D01*
X105506768Y-120917559D01*
X105504761Y-120902997D01*
X105502773Y-120888430D01*
X105500806Y-120873863D01*
X105498858Y-120859291D01*
X105496930Y-120844718D01*
X105495022Y-120830141D01*
X105493134Y-120815563D01*
X105491266Y-120800981D01*
X105489417Y-120786398D01*
X105487589Y-120771811D01*
X105485780Y-120757224D01*
X105483991Y-120742631D01*
X105482222Y-120728039D01*
X105480473Y-120713442D01*
X105478744Y-120698845D01*
X105477034Y-120684244D01*
X105475345Y-120669642D01*
X105473675Y-120655036D01*
X105472025Y-120640430D01*
X105470395Y-120625819D01*
X105468785Y-120611209D01*
X105467195Y-120596594D01*
X105465625Y-120581979D01*
X105464075Y-120567360D01*
X105462544Y-120552741D01*
X105461034Y-120538118D01*
X105459543Y-120523495D01*
X105458072Y-120508867D01*
X105456621Y-120494240D01*
X105455190Y-120479609D01*
X105453780Y-120464978D01*
X105452388Y-120450343D01*
X105451017Y-120435708D01*
X105449666Y-120421069D01*
X105448335Y-120406431D01*
X105447023Y-120391788D01*
X105445732Y-120377146D01*
X105444460Y-120362500D01*
X105443209Y-120347854D01*
X105441977Y-120333205D01*
X105440765Y-120318556D01*
X105439573Y-120303903D01*
X105438401Y-120289250D01*
X105437249Y-120274594D01*
X105436118Y-120259938D01*
X105435005Y-120245279D01*
X105433913Y-120230620D01*
X105432841Y-120215957D01*
X105431789Y-120201296D01*
X105430757Y-120186630D01*
X105429744Y-120171965D01*
X105428752Y-120157297D01*
X105427780Y-120142629D01*
X105426827Y-120127958D01*
X105425895Y-120113287D01*
X105424982Y-120098613D01*
X105424090Y-120083940D01*
X105423217Y-120069263D01*
X105422364Y-120054588D01*
X105421532Y-120039908D01*
X105420719Y-120025230D01*
X105419926Y-120010548D01*
X105419154Y-119995868D01*
X105418401Y-119981184D01*
X105417668Y-119966501D01*
X105416955Y-119951815D01*
X105416262Y-119937130D01*
X105415589Y-119922441D01*
X105414937Y-119907754D01*
X105414304Y-119893063D01*
X105413691Y-119878374D01*
X105413098Y-119863681D01*
X105412525Y-119848990D01*
X105411972Y-119834295D01*
X105411439Y-119819602D01*
X105410926Y-119804906D01*
X105410433Y-119790211D01*
X105409960Y-119775513D01*
X105409507Y-119760816D01*
X105409074Y-119746116D01*
X105408661Y-119731418D01*
X105408268Y-119716717D01*
X105407895Y-119702017D01*
X105407542Y-119687314D01*
X105407209Y-119672613D01*
X105406895Y-119657909D01*
X105406602Y-119643206D01*
X105406329Y-119628501D01*
X105406076Y-119613797D01*
X105405843Y-119599090D01*
X105405630Y-119584386D01*
X105405437Y-119569678D01*
X105405264Y-119554972D01*
X105405111Y-119540263D01*
X105404978Y-119525556D01*
X105404865Y-119510846D01*
X105404772Y-119496138D01*
X105404699Y-119481427D01*
X105404646Y-119466719D01*
X105404613Y-119452007D01*
X105404600Y-119437297D01*
X105404607Y-119422585D01*
X105404634Y-119407875D01*
X105404681Y-119393162D01*
X105404748Y-119378451D01*
X105404835Y-119363738D01*
X105404942Y-119349027D01*
X105405069Y-119334313D01*
X105405216Y-119319601D01*
X105405383Y-119304887D01*
X105405570Y-119290175D01*
X105405777Y-119275460D01*
X105406004Y-119260748D01*
X105406251Y-119246033D01*
X105406518Y-119231321D01*
X105406805Y-119216606D01*
X105407112Y-119201894D01*
X105407440Y-119187179D01*
X105407787Y-119172466D01*
X105408154Y-119157751D01*
X105408541Y-119143039D01*
X105408948Y-119128324D01*
X105409375Y-119113612D01*
X105409823Y-119098897D01*
X105410290Y-119084185D01*
X105410777Y-119069471D01*
X105411284Y-119054759D01*
X105411812Y-119040045D01*
X105412359Y-119025334D01*
X105412926Y-119010620D01*
X105413514Y-118995909D01*
X105414121Y-118981196D01*
X105414748Y-118966486D01*
X105415396Y-118951773D01*
X105416063Y-118937064D01*
X105416750Y-118922352D01*
X105417458Y-118907643D01*
X105418185Y-118892932D01*
X105418933Y-118878224D01*
X105419700Y-118863513D01*
X105420487Y-118848806D01*
X105421295Y-118834097D01*
X105422122Y-118819390D01*
X105422970Y-118804682D01*
X105423837Y-118789976D01*
X105424725Y-118775269D01*
X105425632Y-118760565D01*
X105426560Y-118745858D01*
X105427507Y-118731155D01*
X105428475Y-118716450D01*
X105429462Y-118701748D01*
X105430470Y-118687044D01*
X105431498Y-118672344D01*
X105432545Y-118657641D01*
X105433613Y-118642942D01*
X105434700Y-118628241D01*
X105435808Y-118613543D01*
X105436936Y-118598843D01*
X105438083Y-118584147D01*
X105439251Y-118569449D01*
X105440438Y-118554755D01*
X105441646Y-118540058D01*
X105442874Y-118525365D01*
X105444122Y-118510670D01*
X105445389Y-118495979D01*
X105446677Y-118481286D01*
X105447984Y-118466597D01*
X105449312Y-118451906D01*
X105450660Y-118437218D01*
X105452028Y-118422529D01*
X105453415Y-118407844D01*
X105454823Y-118393156D01*
X105456251Y-118378473D01*
X105457698Y-118363788D01*
X105459166Y-118349106D01*
X105460654Y-118334423D01*
X105462161Y-118319744D01*
X105463689Y-118305063D01*
X105465237Y-118290386D01*
X105466804Y-118275708D01*
X105468392Y-118261033D01*
X105470000Y-118246357D01*
X105471627Y-118231685D01*
X105473275Y-118217011D01*
X105474943Y-118202341D01*
X105476631Y-118187670D01*
X105478338Y-118173003D01*
X105480066Y-118158334D01*
X105481813Y-118143669D01*
X105483581Y-118129003D01*
X105485369Y-118114341D01*
X105487176Y-118099677D01*
X105489004Y-118085018D01*
X105490852Y-118070357D01*
X105492719Y-118055701D01*
X105494607Y-118041043D01*
X105496514Y-118026389D01*
X105498442Y-118011734D01*
X105500000Y-118000000D01*
X127000000Y-127000000D02*
X126963704Y-127006090D01*
X126927111Y-127012310D01*
X126890218Y-127018663D01*
X126853024Y-127025149D01*
X126815528Y-127031768D01*
X126777730Y-127038522D01*
X126739627Y-127045411D01*
X126701218Y-127052437D01*
X126662502Y-127059600D01*
X126623478Y-127066902D01*
X126584144Y-127074342D01*
X126544500Y-127081923D01*
X126504544Y-127089645D01*
X126464275Y-127097508D01*
X126423691Y-127105515D01*
X126382793Y-127113664D01*
X126341577Y-127121959D01*
X126300045Y-127130398D01*
X126258193Y-127138984D01*
X126216022Y-127147717D01*
X126173530Y-127156598D01*
X126130717Y-127165628D01*
X126087580Y-127174808D01*
X126044120Y-127184138D01*
X126000335Y-127193619D01*
X125956225Y-127203252D01*
X125911788Y-127213039D01*
X125867024Y-127222979D01*
X125821931Y-127233074D01*
X125776510Y-127243325D01*
X125730759Y-127253731D01*
X125684677Y-127264295D01*
X125638264Y-127275017D01*
X125591520Y-127285897D01*
X125544443Y-127296936D01*
X125497033Y-127308135D01*
X125449289Y-127319495D01*
X125401211Y-127331017D01*
X125352799Y-127342701D01*
X125304052Y-127354547D01*
X125254969Y-127366558D01*
X125205551Y-127378732D01*
X125155797Y-127391072D01*
X125105707Y-127403577D01*
X125055281Y-127416248D01*
X125004518Y-127429085D01*
X124953419Y-127442090D01*
X124901984Y-127455263D01*
X124850213Y-127468605D01*
X124798105Y-127482115D01*
X124745662Y-127495795D01*
X124692884Y-127509644D01*
X124639770Y-127523664D01*
X124586322Y-127537854D01*
X124532539Y-127552216D01*
X124478424Y-127566749D01*
X124423975Y-127581454D01*
X124369195Y-127596331D01*
X124314085Y-127611381D01*
X124258644Y-127626603D01*
X124202875Y-127641998D01*
X124146778Y-127657566D01*
X124090356Y-127673307D01*
X124033609Y-127689221D01*
X123976540Y-127705308D01*
X123919149Y-127721569D01*
X123861440Y-127738002D01*
X123803413Y-127754609D01*
X123745073Y-127771388D01*
X123686419Y-127788340D01*
X123627457Y-127805465D01*
X123568187Y-127822761D01*
X123508614Y-127840228D01*
X123448741Y-127857867D01*
X123388570Y-127875676D01*
X123328106Y-127893655D01*
X123267352Y-127911803D01*
X123206312Y-127930119D01*
X123144992Y-127948602D01*
X123083396Y-127967252D01*
X123021528Y-127986066D01*
X122959394Y-128005045D01*
X122897000Y-128024186D01*
X122834352Y-128043488D01*
X122771456Y-128062950D01*
X122708319Y-128082569D01*
X122644949Y-128102343D01*
X122581353Y-128122272D01*
X122517539Y-128142351D01*
X122453516Y-128162580D01*
X122389293Y-128182954D01*
X122324881Y-128203472D01*
X122260290Y-128224130D01*
X122195532Y-128244925D01*
X122130617Y-128265852D01*
X122065561Y-128286909D01*
X122000375Y-128308091D01*
X121935075Y-128329393D01*
X121869677Y-128350810D01*
X121804197Y-128372337D01*
X121738654Y-128393967D01*
X121673068Y-128415696D01*
X121607458Y-128437514D01*
X121541849Y-128459416D01*
X121476264Y-128481393D01*
X121410730Y-128503436D01*
X121345276Y-128525534D01*
X121279933Y-128547678D01*
X121214735Y-128569856D01*
X121149719Y-128592055D01*
X121084925Y-128614261D01*
X121020399Y-128636458D01*
X120956190Y-128658628D01*
X120892352Y-128680752D01*
X120828948Y-128702809D01*
X120766044Y-128724774D01*
X120703718Y-128746619D01*
X120642058Y-128768313D01*
X120581162Y-128789820D01*
X120521147Y-128811098D01*
X120462146Y-128832097D01*
X120404318Y-128852759D01*
X120347855Y-128873015D01*
X120292987Y-128892777D01*
X120240009Y-128911939D01*
X120189297Y-128930359D01*
X120141358Y-128947849D01*
X120096918Y-128964137D01*
X120057102Y-128978801D01*
X120023935Y-128991082D01*
X120000000Y-129000000D01*
X120000000Y-128500000D02*
X120000000Y-128500000D01*
D11*
X127000000Y-127000000D02*
X138000000Y-129500000D01*
X141911040Y-64420687D02*
G75*
G02*
X149553168Y-65053168I4088960J2920687D01*
G01*
D10*
X126000000Y-84500000D02*
X126170386Y-84360580D01*
X126336785Y-84224397D01*
X126498844Y-84091741D01*
X126657028Y-83962232D01*
X126810986Y-83836156D01*
X126961181Y-83713136D01*
X127107265Y-83593457D01*
X127249698Y-83476745D01*
X127388134Y-83363281D01*
X127523031Y-83252694D01*
X127654044Y-83145264D01*
X127781628Y-83040621D01*
X127905442Y-82939044D01*
X128025938Y-82840163D01*
X128142777Y-82744258D01*
X128256408Y-82650961D01*
X128366494Y-82560549D01*
X128473481Y-82472656D01*
X128577037Y-82387557D01*
X128677602Y-82304889D01*
X128774847Y-82224926D01*
X128869210Y-82147306D01*
X128960365Y-82072300D01*
X129048745Y-81999552D01*
X129134027Y-81929328D01*
X129216642Y-81861274D01*
X129296270Y-81795656D01*
X129373337Y-81732122D01*
X129447526Y-81670935D01*
X129519261Y-81611747D01*
X129588227Y-81554818D01*
X129654843Y-81499803D01*
X129718800Y-81446958D01*
X129780510Y-81395944D01*
X129839669Y-81347014D01*
X129896685Y-81299830D01*
X129951258Y-81254643D01*
X130003790Y-81211120D01*
X130053985Y-81169507D01*
X130102241Y-81129477D01*
X130148266Y-81091271D01*
X130192452Y-81054567D01*
X130234512Y-81019602D01*
X130274832Y-80986059D01*
X130313132Y-80954171D01*
X130349789Y-80923624D01*
X130384529Y-80894650D01*
X130417724Y-80866939D01*
X130449104Y-80840717D01*
X130479033Y-80815682D01*
X130507250Y-80792053D01*
X130534110Y-80769536D01*
X130559357Y-80748344D01*
X130583340Y-80728187D01*
X130605810Y-80709277D01*
X130627106Y-80691329D01*
X130646987Y-80674548D01*
X130665782Y-80658658D01*
X130683259Y-80643856D01*
X130699738Y-80629874D01*
X130714993Y-80616905D01*
X130729333Y-80604687D01*
X130742544Y-80593406D01*
X130754922Y-80582810D01*
X130766262Y-80573077D01*
X130776849Y-80563964D01*
X130786489Y-80555641D01*
X130795452Y-80547876D01*
X130803555Y-80540830D01*
X130811055Y-80534282D01*
X130817781Y-80528384D01*
X130823974Y-80522927D01*
X130829476Y-80518053D01*
X130834513Y-80513564D01*
X130838939Y-80509594D01*
X130842963Y-80505957D01*
X130846452Y-80502777D01*
X130849600Y-80499882D01*
X130852288Y-80497384D01*
X130854688Y-80495124D01*
X130856699Y-80493206D01*
X130858473Y-80491484D01*
X130859924Y-80490050D01*
X130861184Y-80488775D01*
X130862183Y-80487737D01*
X130863033Y-80486824D01*
X130863678Y-80486103D01*
X130864211Y-80485476D01*
X130864591Y-80484999D01*
X130864889Y-80484591D01*
X130865082Y-80484294D01*
X130865218Y-80484045D01*
X130865289Y-80483875D01*
X130865324Y-80483736D01*
X130865326Y-80483646D01*
X130865306Y-80483575D01*
X130865271Y-80483530D01*
X130865222Y-80483497D01*
X130865068Y-80483471D01*
X130864797Y-80483513D01*
X130864339Y-80483669D01*
X130863611Y-80484007D01*
X130862512Y-80484607D01*
X130860931Y-80485564D01*
X130858751Y-80486975D01*
X130855863Y-80488938D01*
X130852198Y-80491518D01*
X130847813Y-80494689D01*
X130843170Y-80498122D01*
X130840669Y-80500000D01*
M02*
