G04 #@! TF.GenerationSoftware,KiCad,Pcbnew,8.0.6*
G04 #@! TF.CreationDate,2025-05-21T14:19:44-04:00*
G04 #@! TF.ProjectId,DJUNGELSKOG Keychain,444a554e-4745-44c5-934b-4f47204b6579,rev?*
G04 #@! TF.SameCoordinates,Original*
G04 #@! TF.FileFunction,Legend,Bot*
G04 #@! TF.FilePolarity,Positive*
%FSLAX46Y46*%
G04 Gerber Fmt 4.6, Leading zero omitted, Abs format (unit mm)*
G04 Created by KiCad (PCBNEW 8.0.6) date 2025-05-21 14:19:44*
%MOMM*%
%LPD*%
G01*
G04 APERTURE LIST*
%ADD10C,0.150000*%
%ADD11C,0.120000*%
%ADD12R,1.800000X1.800000*%
%ADD13C,1.800000*%
%ADD14C,2.000000*%
%ADD15C,1.600000*%
%ADD16O,1.600000X1.600000*%
%ADD17R,1.270000X5.080000*%
%ADD18C,17.800000*%
G04 APERTURE END LIST*
D10*
X117833332Y-116657200D02*
X117690475Y-116704819D01*
X117690475Y-116704819D02*
X117452380Y-116704819D01*
X117452380Y-116704819D02*
X117357142Y-116657200D01*
X117357142Y-116657200D02*
X117309523Y-116609580D01*
X117309523Y-116609580D02*
X117261904Y-116514342D01*
X117261904Y-116514342D02*
X117261904Y-116419104D01*
X117261904Y-116419104D02*
X117309523Y-116323866D01*
X117309523Y-116323866D02*
X117357142Y-116276247D01*
X117357142Y-116276247D02*
X117452380Y-116228628D01*
X117452380Y-116228628D02*
X117642856Y-116181009D01*
X117642856Y-116181009D02*
X117738094Y-116133390D01*
X117738094Y-116133390D02*
X117785713Y-116085771D01*
X117785713Y-116085771D02*
X117833332Y-115990533D01*
X117833332Y-115990533D02*
X117833332Y-115895295D01*
X117833332Y-115895295D02*
X117785713Y-115800057D01*
X117785713Y-115800057D02*
X117738094Y-115752438D01*
X117738094Y-115752438D02*
X117642856Y-115704819D01*
X117642856Y-115704819D02*
X117404761Y-115704819D01*
X117404761Y-115704819D02*
X117261904Y-115752438D01*
X116928570Y-115704819D02*
X116690475Y-116704819D01*
X116690475Y-116704819D02*
X116499999Y-115990533D01*
X116499999Y-115990533D02*
X116309523Y-116704819D01*
X116309523Y-116704819D02*
X116071428Y-115704819D01*
X115166666Y-116704819D02*
X115738094Y-116704819D01*
X115452380Y-116704819D02*
X115452380Y-115704819D01*
X115452380Y-115704819D02*
X115547618Y-115847676D01*
X115547618Y-115847676D02*
X115642856Y-115942914D01*
X115642856Y-115942914D02*
X115738094Y-115990533D01*
X121084819Y-110333333D02*
X120608628Y-110000000D01*
X121084819Y-109761905D02*
X120084819Y-109761905D01*
X120084819Y-109761905D02*
X120084819Y-110142857D01*
X120084819Y-110142857D02*
X120132438Y-110238095D01*
X120132438Y-110238095D02*
X120180057Y-110285714D01*
X120180057Y-110285714D02*
X120275295Y-110333333D01*
X120275295Y-110333333D02*
X120418152Y-110333333D01*
X120418152Y-110333333D02*
X120513390Y-110285714D01*
X120513390Y-110285714D02*
X120561009Y-110238095D01*
X120561009Y-110238095D02*
X120608628Y-110142857D01*
X120608628Y-110142857D02*
X120608628Y-109761905D01*
X121084819Y-111285714D02*
X121084819Y-110714286D01*
X121084819Y-111000000D02*
X120084819Y-111000000D01*
X120084819Y-111000000D02*
X120227676Y-110904762D01*
X120227676Y-110904762D02*
X120322914Y-110809524D01*
X120322914Y-110809524D02*
X120370533Y-110714286D01*
X171324819Y-114833333D02*
X170848628Y-114500000D01*
X171324819Y-114261905D02*
X170324819Y-114261905D01*
X170324819Y-114261905D02*
X170324819Y-114642857D01*
X170324819Y-114642857D02*
X170372438Y-114738095D01*
X170372438Y-114738095D02*
X170420057Y-114785714D01*
X170420057Y-114785714D02*
X170515295Y-114833333D01*
X170515295Y-114833333D02*
X170658152Y-114833333D01*
X170658152Y-114833333D02*
X170753390Y-114785714D01*
X170753390Y-114785714D02*
X170801009Y-114738095D01*
X170801009Y-114738095D02*
X170848628Y-114642857D01*
X170848628Y-114642857D02*
X170848628Y-114261905D01*
X170420057Y-115214286D02*
X170372438Y-115261905D01*
X170372438Y-115261905D02*
X170324819Y-115357143D01*
X170324819Y-115357143D02*
X170324819Y-115595238D01*
X170324819Y-115595238D02*
X170372438Y-115690476D01*
X170372438Y-115690476D02*
X170420057Y-115738095D01*
X170420057Y-115738095D02*
X170515295Y-115785714D01*
X170515295Y-115785714D02*
X170610533Y-115785714D01*
X170610533Y-115785714D02*
X170753390Y-115738095D01*
X170753390Y-115738095D02*
X171324819Y-115166667D01*
X171324819Y-115166667D02*
X171324819Y-115785714D01*
X170324819Y-102333333D02*
X169848628Y-102000000D01*
X170324819Y-101761905D02*
X169324819Y-101761905D01*
X169324819Y-101761905D02*
X169324819Y-102142857D01*
X169324819Y-102142857D02*
X169372438Y-102238095D01*
X169372438Y-102238095D02*
X169420057Y-102285714D01*
X169420057Y-102285714D02*
X169515295Y-102333333D01*
X169515295Y-102333333D02*
X169658152Y-102333333D01*
X169658152Y-102333333D02*
X169753390Y-102285714D01*
X169753390Y-102285714D02*
X169801009Y-102238095D01*
X169801009Y-102238095D02*
X169848628Y-102142857D01*
X169848628Y-102142857D02*
X169848628Y-101761905D01*
X169324819Y-102666667D02*
X169324819Y-103285714D01*
X169324819Y-103285714D02*
X169705771Y-102952381D01*
X169705771Y-102952381D02*
X169705771Y-103095238D01*
X169705771Y-103095238D02*
X169753390Y-103190476D01*
X169753390Y-103190476D02*
X169801009Y-103238095D01*
X169801009Y-103238095D02*
X169896247Y-103285714D01*
X169896247Y-103285714D02*
X170134342Y-103285714D01*
X170134342Y-103285714D02*
X170229580Y-103238095D01*
X170229580Y-103238095D02*
X170277200Y-103190476D01*
X170277200Y-103190476D02*
X170324819Y-103095238D01*
X170324819Y-103095238D02*
X170324819Y-102809524D01*
X170324819Y-102809524D02*
X170277200Y-102714286D01*
X170277200Y-102714286D02*
X170229580Y-102666667D01*
X152785714Y-108431009D02*
X152642857Y-108478628D01*
X152642857Y-108478628D02*
X152595238Y-108526247D01*
X152595238Y-108526247D02*
X152547619Y-108621485D01*
X152547619Y-108621485D02*
X152547619Y-108764342D01*
X152547619Y-108764342D02*
X152595238Y-108859580D01*
X152595238Y-108859580D02*
X152642857Y-108907200D01*
X152642857Y-108907200D02*
X152738095Y-108954819D01*
X152738095Y-108954819D02*
X153119047Y-108954819D01*
X153119047Y-108954819D02*
X153119047Y-107954819D01*
X153119047Y-107954819D02*
X152785714Y-107954819D01*
X152785714Y-107954819D02*
X152690476Y-108002438D01*
X152690476Y-108002438D02*
X152642857Y-108050057D01*
X152642857Y-108050057D02*
X152595238Y-108145295D01*
X152595238Y-108145295D02*
X152595238Y-108240533D01*
X152595238Y-108240533D02*
X152642857Y-108335771D01*
X152642857Y-108335771D02*
X152690476Y-108383390D01*
X152690476Y-108383390D02*
X152785714Y-108431009D01*
X152785714Y-108431009D02*
X153119047Y-108431009D01*
X152261904Y-107954819D02*
X151690476Y-107954819D01*
X151976190Y-108954819D02*
X151976190Y-107954819D01*
X150833333Y-108954819D02*
X151404761Y-108954819D01*
X151119047Y-108954819D02*
X151119047Y-107954819D01*
X151119047Y-107954819D02*
X151214285Y-108097676D01*
X151214285Y-108097676D02*
X151309523Y-108192914D01*
X151309523Y-108192914D02*
X151404761Y-108240533D01*
D11*
G04 #@! TO.C,SW1*
X113000000Y-119750000D02*
X113000000Y-121250000D01*
X114250000Y-123750000D02*
X118750000Y-123750000D01*
X118750000Y-117250000D02*
X114250000Y-117250000D01*
X120000000Y-121250000D02*
X120000000Y-119750000D01*
G04 #@! TO.C,R1*
X121630000Y-107230000D02*
X121960000Y-107230000D01*
X121630000Y-113770000D02*
X121630000Y-107230000D01*
X121960000Y-113770000D02*
X121630000Y-113770000D01*
X124040000Y-113770000D02*
X124370000Y-113770000D01*
X124370000Y-107230000D02*
X124040000Y-107230000D01*
X124370000Y-113770000D02*
X124370000Y-107230000D01*
G04 #@! TO.C,R2*
X167130000Y-111730000D02*
X167130000Y-118270000D01*
X167130000Y-118270000D02*
X167460000Y-118270000D01*
X167460000Y-111730000D02*
X167130000Y-111730000D01*
X169540000Y-111730000D02*
X169870000Y-111730000D01*
X169870000Y-111730000D02*
X169870000Y-118270000D01*
X169870000Y-118270000D02*
X169540000Y-118270000D01*
G04 #@! TO.C,R3*
X166130000Y-99230000D02*
X166130000Y-105770000D01*
X166130000Y-105770000D02*
X166460000Y-105770000D01*
X166460000Y-99230000D02*
X166130000Y-99230000D01*
X168540000Y-99230000D02*
X168870000Y-99230000D01*
X168870000Y-99230000D02*
X168870000Y-105770000D01*
X168870000Y-105770000D02*
X168540000Y-105770000D01*
G04 #@! TO.C,BT1*
X141220000Y-114540000D02*
X143300000Y-112460000D01*
X141220000Y-117000000D02*
X141220000Y-114540000D01*
X141220000Y-123630000D02*
X141220000Y-123000000D01*
X142660000Y-127580000D02*
X141220000Y-123630000D01*
X146800000Y-112460000D02*
X143300000Y-112460000D01*
X160700000Y-112460000D02*
X157200000Y-112460000D01*
X161340000Y-127580000D02*
X162780000Y-123630000D01*
X162780000Y-114540000D02*
X160700000Y-112460000D01*
X162780000Y-117000000D02*
X162780000Y-114540000D01*
X162780000Y-123630000D02*
X162780000Y-123000000D01*
X146000000Y-128550000D02*
G75*
G02*
X142674757Y-127588169I-1310000J1700000D01*
G01*
X161340000Y-127580000D02*
G75*
G02*
X158003354Y-128566530I-2030000J730001D01*
G01*
G04 #@! TD*
%LPC*%
D12*
G04 #@! TO.C,D2*
X137960000Y-101500000D03*
D13*
X140500000Y-101500000D03*
G04 #@! TD*
D12*
G04 #@! TO.C,.*
X133500000Y-95000000D03*
D13*
X136040000Y-95000000D03*
G04 #@! TD*
D12*
G04 #@! TO.C,.*
X143460000Y-95000000D03*
D13*
X146000000Y-95000000D03*
G04 #@! TD*
D14*
G04 #@! TO.C,SW1*
X119750000Y-118250000D03*
X113250000Y-118250000D03*
X119750000Y-122750000D03*
X113250000Y-122750000D03*
G04 #@! TD*
D15*
G04 #@! TO.C,R1*
X123000000Y-106690000D03*
D16*
X123000000Y-114310000D03*
G04 #@! TD*
D15*
G04 #@! TO.C,R2*
X168500000Y-118810000D03*
D16*
X168500000Y-111190000D03*
G04 #@! TD*
D15*
G04 #@! TO.C,R3*
X167500000Y-106310000D03*
D16*
X167500000Y-98690000D03*
G04 #@! TD*
D17*
G04 #@! TO.C,BT1*
X162985000Y-120000000D03*
X141015000Y-120000000D03*
D18*
X152000000Y-120000000D03*
G04 #@! TD*
%LPD*%
M02*
