%TF.GenerationSoftware,KiCad,Pcbnew,9.0.2*%
%TF.CreationDate,2025-05-24T17:19:21-04:00*%
%TF.ProjectId,DJUNGELSKOG Keychain,444a554e-4745-44c5-934b-4f47204b6579,rev?*%
%TF.SameCoordinates,Original*%
%TF.FileFunction,Copper,L2,Bot*%
%TF.FilePolarity,Positive*%
%FSLAX46Y46*%
G04 Gerber Fmt 4.6, Leading zero omitted, Abs format (unit mm)*
G04 Created by KiCad (PCBNEW 9.0.2) date 2025-05-24 17:19:21*
%MOMM*%
%LPD*%
G01*
G04 APERTURE LIST*
%TA.AperFunction,ComponentPad*%
%ADD10C,1.800000*%
%TD*%
%TA.AperFunction,ComponentPad*%
%ADD11R,1.800000X1.800000*%
%TD*%
%TA.AperFunction,ComponentPad*%
%ADD12C,2.000000*%
%TD*%
%TA.AperFunction,ComponentPad*%
%ADD13C,1.600000*%
%TD*%
%TA.AperFunction,SMDPad,CuDef*%
%ADD14R,1.270000X5.080000*%
%TD*%
%TA.AperFunction,SMDPad,CuDef*%
%ADD15C,17.800000*%
%TD*%
%TA.AperFunction,ViaPad*%
%ADD16C,5.500000*%
%TD*%
%TA.AperFunction,Conductor*%
%ADD17C,0.200000*%
%TD*%
G04 APERTURE END LIST*
D10*
%TO.P,D2,2,A*%
%TO.N,Net-(D1-A)*%
X140500000Y-101500000D03*
D11*
%TO.P,D2,1,K*%
%TO.N,Net-(D2-K)*%
X137960000Y-101500000D03*
%TD*%
D10*
%TO.P,D3,2,A*%
%TO.N,Net-(D1-A)*%
X135500000Y-94500000D03*
D11*
%TO.P,D3,1,K*%
%TO.N,Net-(D3-K)*%
X132960000Y-94500000D03*
%TD*%
D10*
%TO.P,D1,2,A*%
%TO.N,Net-(D1-A)*%
X146500000Y-95000000D03*
D11*
%TO.P,D1,1,K*%
%TO.N,Net-(D1-K)*%
X143960000Y-95000000D03*
%TD*%
D12*
%TO.P,SW1,1,1*%
%TO.N,Net-(BT1-+)*%
X118500000Y-116000000D03*
X118500000Y-122500000D03*
%TO.P,SW1,2,2*%
%TO.N,Net-(D1-A)*%
X123000000Y-116000000D03*
X123000000Y-122500000D03*
%TD*%
D13*
%TO.P,R3,1*%
%TO.N,Net-(D3-K)*%
X158000000Y-105500000D03*
%TO.P,R3,2*%
%TO.N,Net-(BT1--)*%
X158000000Y-113120000D03*
%TD*%
%TO.P,R2,1*%
%TO.N,Net-(D2-K)*%
X161500000Y-113120000D03*
%TO.P,R2,2*%
%TO.N,Net-(BT1--)*%
X161500000Y-105500000D03*
%TD*%
%TO.P,R1,1*%
%TO.N,Net-(D1-K)*%
X168500000Y-113120000D03*
%TO.P,R1,2*%
%TO.N,Net-(BT1--)*%
X168500000Y-105500000D03*
%TD*%
D14*
%TO.P,BT1,1,+*%
%TO.N,Net-(BT1-+)*%
X162485000Y-124500000D03*
X140515000Y-124500000D03*
D15*
%TO.P,BT1,2,-*%
%TO.N,Net-(BT1--)*%
X151500000Y-124500000D03*
%TD*%
D16*
%TO.N,*%
X146000000Y-61500000D03*
%TD*%
D17*
%TO.N,Net-(D2-K)*%
X134299000Y-97839000D02*
X137960000Y-101500000D01*
X134299000Y-94002529D02*
X134299000Y-97839000D01*
X135002529Y-93299000D02*
X134299000Y-94002529D01*
X158423150Y-93299000D02*
X135002529Y-93299000D01*
X170002000Y-104877850D02*
X158423150Y-93299000D01*
X170002000Y-113175050D02*
X170002000Y-104877850D01*
X168956050Y-114221000D02*
X170002000Y-113175050D01*
X162601000Y-114221000D02*
X168956050Y-114221000D01*
X161500000Y-113120000D02*
X162601000Y-114221000D01*
%TO.N,Net-(D3-K)*%
X121699000Y-105761000D02*
X132960000Y-94500000D01*
X121699000Y-123038892D02*
X121699000Y-105761000D01*
X123538892Y-123801000D02*
X122461108Y-123801000D01*
X141839892Y-105500000D02*
X123538892Y-123801000D01*
X122461108Y-123801000D02*
X121699000Y-123038892D01*
X158000000Y-105500000D02*
X141839892Y-105500000D01*
%TO.N,Net-(D1-K)*%
X169601000Y-112019000D02*
X168500000Y-113120000D01*
X158356050Y-93799000D02*
X169601000Y-105043950D01*
X169601000Y-105043950D02*
X169601000Y-112019000D01*
X143960000Y-95000000D02*
X145161000Y-93799000D01*
X145161000Y-93799000D02*
X158356050Y-93799000D01*
%TO.N,Net-(BT1--)*%
X161500000Y-105500000D02*
X168500000Y-105500000D01*
X158000000Y-118000000D02*
X151500000Y-124500000D01*
X158000000Y-113120000D02*
X158000000Y-118000000D01*
X151500000Y-115500000D02*
X161500000Y-105500000D01*
X151500000Y-124500000D02*
X151500000Y-115500000D01*
%TO.N,Net-(D1-A)*%
X135500000Y-96500000D02*
X135500000Y-94500000D01*
X140500000Y-101500000D02*
X135500000Y-96500000D01*
X140500000Y-101000000D02*
X146500000Y-95000000D01*
X140500000Y-101500000D02*
X140500000Y-101000000D01*
X123000000Y-122500000D02*
X123000000Y-116000000D01*
X126000000Y-116000000D02*
X140500000Y-101500000D01*
X123000000Y-116000000D02*
X126000000Y-116000000D01*
%TO.N,Net-(BT1-+)*%
X118500000Y-122500000D02*
X118500000Y-116000000D01*
X120500000Y-124500000D02*
X118500000Y-122500000D01*
X140515000Y-124500000D02*
X120500000Y-124500000D01*
X162485000Y-126527179D02*
X162485000Y-124500000D01*
X155311179Y-133701000D02*
X162485000Y-126527179D01*
X146976000Y-133701000D02*
X155311179Y-133701000D01*
X140515000Y-127240000D02*
X146976000Y-133701000D01*
X140515000Y-124500000D02*
X140515000Y-127240000D01*
%TD*%
M02*
