%TF.GenerationSoftware,KiCad,Pcbnew,9.0.2*%
%TF.CreationDate,2025-05-24T17:19:21-04:00*%
%TF.ProjectId,DJUNGELSKOG Keychain,444a554e-4745-44c5-934b-4f47204b6579,rev?*%
%TF.SameCoordinates,Original*%
%TF.FileFunction,Legend,Top*%
%TF.FilePolarity,Positive*%
%FSLAX46Y46*%
G04 Gerber Fmt 4.6, Leading zero omitted, Abs format (unit mm)*
G04 Created by KiCad (PCBNEW 9.0.2) date 2025-05-24 17:19:21*
%MOMM*%
%LPD*%
G01*
G04 APERTURE LIST*
%ADD10C,0.100000*%
%ADD11C,0.120000*%
%ADD12C,0.000000*%
G04 APERTURE END LIST*
D10*
G36*
X146821667Y-118876475D02*
G01*
X146898415Y-118880013D01*
X146968885Y-118890275D01*
X147014800Y-118904375D01*
X147042851Y-118922660D01*
X147058248Y-118944493D01*
X147063407Y-118971120D01*
X147060762Y-118990018D01*
X147053820Y-119002199D01*
X147040286Y-119012782D01*
X147006254Y-119031936D01*
X146989423Y-119044941D01*
X146975840Y-119066629D01*
X146965954Y-119100202D01*
X146959247Y-119165850D01*
X146956123Y-119308175D01*
X146960536Y-119546086D01*
X146969068Y-119632468D01*
X146975278Y-119650233D01*
X146983356Y-119662205D01*
X147017184Y-119684675D01*
X147044004Y-119701938D01*
X147058577Y-119722080D01*
X147063407Y-119746163D01*
X147058780Y-119770608D01*
X147044898Y-119791178D01*
X147019652Y-119808966D01*
X146978593Y-119823588D01*
X146883043Y-119839613D01*
X146757431Y-119845631D01*
X146656873Y-119839889D01*
X146594146Y-119825788D01*
X146557716Y-119806906D01*
X146538859Y-119784831D01*
X146532789Y-119758558D01*
X146536980Y-119739385D01*
X146550668Y-119719918D01*
X146577424Y-119699207D01*
X146603666Y-119675088D01*
X146616076Y-119644253D01*
X146624861Y-119544505D01*
X146629082Y-119312327D01*
X146623252Y-119152405D01*
X146611435Y-119087807D01*
X146596599Y-119062787D01*
X146566495Y-119037981D01*
X146528271Y-119006535D01*
X146521032Y-118992428D01*
X146518440Y-118973867D01*
X146525472Y-118946764D01*
X146547383Y-118925385D01*
X146582222Y-118910105D01*
X146648438Y-118893695D01*
X146734513Y-118880784D01*
X146821667Y-118876475D01*
G37*
G36*
X148084403Y-118871163D02*
G01*
X148084403Y-119181168D01*
X147802669Y-119352749D01*
X148083060Y-119523780D01*
X148084403Y-119831465D01*
X147474590Y-119480061D01*
X147474590Y-119223178D01*
X148084403Y-118871163D01*
G37*
G36*
X148488930Y-119040607D02*
G01*
X148576506Y-119046239D01*
X148654421Y-119062427D01*
X148724075Y-119088478D01*
X148760899Y-119112256D01*
X148788738Y-119143250D01*
X148806722Y-119179843D01*
X148812613Y-119218538D01*
X148808179Y-119252926D01*
X148794656Y-119286284D01*
X148770883Y-119319496D01*
X148734699Y-119353115D01*
X148717411Y-119369921D01*
X148713572Y-119379127D01*
X148720881Y-119392808D01*
X148750942Y-119404101D01*
X148811326Y-119420969D01*
X148857252Y-119444880D01*
X148891566Y-119475212D01*
X148916096Y-119512383D01*
X148931450Y-119557796D01*
X148936933Y-119613661D01*
X148932271Y-119666810D01*
X148918394Y-119717349D01*
X148895027Y-119766050D01*
X148861339Y-119813513D01*
X148823270Y-119852521D01*
X148776365Y-119886934D01*
X148719365Y-119916731D01*
X148650680Y-119941557D01*
X148583402Y-119957446D01*
X148510344Y-119967290D01*
X148430861Y-119970683D01*
X148337708Y-119965958D01*
X148257905Y-119952660D01*
X148189610Y-119931849D01*
X148151278Y-119910757D01*
X148131307Y-119886717D01*
X148124886Y-119858637D01*
X148130406Y-119830915D01*
X148146990Y-119807896D01*
X148171309Y-119792424D01*
X148200601Y-119787196D01*
X148293292Y-119804354D01*
X148320300Y-119808690D01*
X148363206Y-119810460D01*
X148416250Y-119805837D01*
X148458605Y-119793052D01*
X148492472Y-119773030D01*
X148521586Y-119743699D01*
X148537713Y-119713605D01*
X148542969Y-119681622D01*
X148538621Y-119651534D01*
X148525871Y-119625681D01*
X148503951Y-119602915D01*
X148476469Y-119586228D01*
X148443452Y-119575789D01*
X148403506Y-119572079D01*
X148365557Y-119574411D01*
X148334385Y-119580872D01*
X148307213Y-119586428D01*
X148290318Y-119579113D01*
X148269050Y-119549303D01*
X148254501Y-119511877D01*
X148249938Y-119477252D01*
X148252584Y-119461839D01*
X148259342Y-119453499D01*
X148316861Y-119430724D01*
X148357486Y-119410681D01*
X148398743Y-119376196D01*
X148421224Y-119343830D01*
X148428236Y-119310800D01*
X148420832Y-119275352D01*
X148398072Y-119244488D01*
X148365005Y-119223515D01*
X148325654Y-119216461D01*
X148282117Y-119222506D01*
X148215867Y-119254441D01*
X148192419Y-119262196D01*
X148176029Y-119256850D01*
X148158469Y-119237650D01*
X148146525Y-119212205D01*
X148142655Y-119186175D01*
X148149873Y-119158956D01*
X148174590Y-119130154D01*
X148225758Y-119098126D01*
X148280344Y-119075570D01*
X148349467Y-119056543D01*
X148421320Y-119044495D01*
X148488930Y-119040607D01*
G37*
G36*
X150001250Y-118881144D02*
G01*
X150082482Y-118893676D01*
X150144469Y-118912196D01*
X150208874Y-118943964D01*
X150263803Y-118984260D01*
X150310328Y-119033433D01*
X150349023Y-119092386D01*
X150374997Y-119148743D01*
X150394072Y-119211128D01*
X150405954Y-119280393D01*
X150410083Y-119357512D01*
X150404481Y-119434787D01*
X150387430Y-119513094D01*
X150360236Y-119587194D01*
X150326369Y-119648100D01*
X150282929Y-119701414D01*
X150232357Y-119745910D01*
X150173988Y-119782174D01*
X150106795Y-119810338D01*
X150022563Y-119830823D01*
X149931245Y-119837815D01*
X149848569Y-119834945D01*
X149777555Y-119832869D01*
X149632109Y-119830000D01*
X149582955Y-119830000D01*
X149486784Y-119834701D01*
X149440134Y-119837815D01*
X149396824Y-119832057D01*
X149364357Y-119816139D01*
X149347886Y-119799893D01*
X149338318Y-119781200D01*
X149335048Y-119759169D01*
X149338544Y-119736512D01*
X149348115Y-119720640D01*
X149363981Y-119708844D01*
X149390491Y-119698414D01*
X149413770Y-119689047D01*
X149426273Y-119676859D01*
X149433683Y-119658102D01*
X149440928Y-119617875D01*
X149450819Y-119418145D01*
X149455277Y-119123161D01*
X149453211Y-119083960D01*
X149777494Y-119083960D01*
X149777494Y-119615493D01*
X149782608Y-119653886D01*
X149795324Y-119675638D01*
X149817224Y-119688188D01*
X149855469Y-119693224D01*
X149905944Y-119687522D01*
X149947282Y-119671392D01*
X149981577Y-119645064D01*
X150009923Y-119607146D01*
X150032249Y-119554817D01*
X150047341Y-119484126D01*
X150053000Y-119390240D01*
X150046912Y-119278459D01*
X150030674Y-119193567D01*
X150006716Y-119130122D01*
X149976757Y-119085587D01*
X149939241Y-119054671D01*
X149892859Y-119035651D01*
X149834952Y-119028883D01*
X149806026Y-119032509D01*
X149790195Y-119041339D01*
X149781138Y-119056726D01*
X149777494Y-119083960D01*
X149453211Y-119083960D01*
X149452522Y-119070897D01*
X149446667Y-119047506D01*
X149433555Y-119031717D01*
X149406001Y-119017465D01*
X149378172Y-119001585D01*
X149362810Y-118981118D01*
X149357580Y-118954694D01*
X149361206Y-118933479D01*
X149371888Y-118915847D01*
X149390736Y-118900839D01*
X149427713Y-118886921D01*
X149482510Y-118881543D01*
X149527634Y-118882215D01*
X149610921Y-118884291D01*
X149831472Y-118877880D01*
X149896441Y-118876475D01*
X150001250Y-118881144D01*
G37*
G36*
X151032964Y-118876475D02*
G01*
X151109863Y-118879869D01*
X151189035Y-118890214D01*
X151249150Y-118904737D01*
X151282946Y-118920867D01*
X151298972Y-118935760D01*
X151308344Y-118953527D01*
X151311584Y-118975150D01*
X151308720Y-118995408D01*
X151300959Y-119009588D01*
X151286812Y-119021570D01*
X151255896Y-119039263D01*
X151224020Y-119062658D01*
X151211383Y-119086707D01*
X151207087Y-119132461D01*
X151200942Y-119301702D01*
X151197156Y-119519872D01*
X151188607Y-119590764D01*
X151169915Y-119655341D01*
X151142964Y-119707319D01*
X151108129Y-119748850D01*
X151073142Y-119777138D01*
X151031124Y-119801798D01*
X150981062Y-119822672D01*
X150901900Y-119842751D01*
X150817786Y-119849539D01*
X150741955Y-119844622D01*
X150665256Y-119829694D01*
X150592388Y-119805390D01*
X150532571Y-119774740D01*
X150490617Y-119740821D01*
X150458077Y-119696460D01*
X150437404Y-119645417D01*
X150430539Y-119591252D01*
X150435594Y-119546933D01*
X150450122Y-119509271D01*
X150474136Y-119476763D01*
X150505611Y-119451590D01*
X150541585Y-119436575D01*
X150583496Y-119431395D01*
X150624935Y-119435761D01*
X150660956Y-119448371D01*
X150692733Y-119469192D01*
X150718076Y-119497372D01*
X150732803Y-119528670D01*
X150737796Y-119564324D01*
X150729492Y-119612257D01*
X150728210Y-119626789D01*
X150732019Y-119645714D01*
X150743292Y-119660617D01*
X150760351Y-119670219D01*
X150783653Y-119673684D01*
X150811361Y-119669256D01*
X150835061Y-119656169D01*
X150855887Y-119633262D01*
X150870609Y-119605023D01*
X150880066Y-119569936D01*
X150883487Y-119526345D01*
X150882815Y-119464002D01*
X150881411Y-119296268D01*
X150872191Y-119116871D01*
X150866680Y-119091890D01*
X150857170Y-119073396D01*
X150839645Y-119056116D01*
X150797575Y-119043354D01*
X150781970Y-119036760D01*
X150768387Y-119023449D01*
X150759342Y-119006409D01*
X150756420Y-118988705D01*
X150759779Y-118964837D01*
X150769495Y-118944960D01*
X150785973Y-118928072D01*
X150820980Y-118909049D01*
X150881594Y-118891618D01*
X150955728Y-118880299D01*
X151032964Y-118876475D01*
G37*
G36*
X152351081Y-119235329D02*
G01*
X152351081Y-119402819D01*
X152347807Y-119505615D01*
X152339570Y-119574560D01*
X152328428Y-119618302D01*
X152305060Y-119667593D01*
X152272959Y-119711205D01*
X152231388Y-119749792D01*
X152179038Y-119783581D01*
X152114105Y-119812353D01*
X152046459Y-119832570D01*
X151971452Y-119845164D01*
X151888058Y-119849539D01*
X151798491Y-119844772D01*
X151719791Y-119831187D01*
X151650549Y-119809615D01*
X151589535Y-119780542D01*
X151535737Y-119744087D01*
X151496220Y-119706754D01*
X151466759Y-119666840D01*
X151446284Y-119623920D01*
X151433664Y-119577418D01*
X151424889Y-119513215D01*
X151421554Y-119426816D01*
X151424973Y-119262074D01*
X151427049Y-119155034D01*
X151424449Y-119102831D01*
X151418684Y-119076938D01*
X151406271Y-119057125D01*
X151382109Y-119036577D01*
X151355006Y-119013961D01*
X151340696Y-118991773D01*
X151336191Y-118969043D01*
X151341841Y-118943444D01*
X151359577Y-118920317D01*
X151385876Y-118902992D01*
X151421127Y-118891618D01*
X151499853Y-118880558D01*
X151599118Y-118876475D01*
X151707278Y-118881250D01*
X151786697Y-118893756D01*
X151821685Y-118906087D01*
X151843987Y-118922858D01*
X151856846Y-118943948D01*
X151861313Y-118970814D01*
X151855766Y-118997844D01*
X151839453Y-119018503D01*
X151797993Y-119040118D01*
X151780511Y-119053038D01*
X151769234Y-119074373D01*
X151763920Y-119103449D01*
X151761601Y-119157538D01*
X151756106Y-119416741D01*
X151759219Y-119475353D01*
X151771241Y-119523478D01*
X151791192Y-119563154D01*
X151818998Y-119595893D01*
X151857745Y-119623486D01*
X151903558Y-119640390D01*
X151958400Y-119646329D01*
X152010752Y-119641163D01*
X152056585Y-119626240D01*
X152095911Y-119601923D01*
X152123447Y-119571346D01*
X152138779Y-119543374D01*
X152148482Y-119512056D01*
X152153326Y-119476246D01*
X152155259Y-119422236D01*
X152155259Y-119270622D01*
X152150062Y-119113453D01*
X152145429Y-119067046D01*
X152132341Y-119041690D01*
X152102442Y-119020823D01*
X152069881Y-119004056D01*
X152053166Y-118991331D01*
X152043183Y-118976258D01*
X152039794Y-118957686D01*
X152045009Y-118932482D01*
X152060622Y-118912231D01*
X152089436Y-118895771D01*
X152146536Y-118882237D01*
X152247400Y-118876475D01*
X152346275Y-118882121D01*
X152401884Y-118895343D01*
X152429890Y-118911426D01*
X152445096Y-118931253D01*
X152450183Y-118955976D01*
X152447783Y-118974865D01*
X152441634Y-118986629D01*
X152397976Y-119016732D01*
X152368617Y-119039248D01*
X152357431Y-119060085D01*
X152354062Y-119098181D01*
X152351081Y-119235329D01*
G37*
G36*
X152871685Y-118924347D02*
G01*
X153211854Y-119224766D01*
X153257293Y-119258460D01*
X153279570Y-119265921D01*
X153296030Y-119259860D01*
X153307843Y-119239026D01*
X153313154Y-119191793D01*
X153309984Y-119112204D01*
X153303079Y-119074190D01*
X153287736Y-119047226D01*
X153260947Y-119027601D01*
X153236667Y-119012887D01*
X153222601Y-118999024D01*
X153214349Y-118982160D01*
X153211366Y-118959701D01*
X153215993Y-118933579D01*
X153229493Y-118912778D01*
X153253362Y-118895955D01*
X153291477Y-118883436D01*
X153329743Y-118878616D01*
X153403890Y-118876475D01*
X153499467Y-118880323D01*
X153547260Y-118888871D01*
X153584519Y-118907082D01*
X153604677Y-118931423D01*
X153611496Y-118963487D01*
X153606003Y-118990803D01*
X153589481Y-119013394D01*
X153559106Y-119032486D01*
X153531629Y-119047934D01*
X153519112Y-119067840D01*
X153506428Y-119122869D01*
X153500122Y-119238627D01*
X153500122Y-119462231D01*
X153500793Y-119602854D01*
X153496780Y-119715497D01*
X153486383Y-119777670D01*
X153468662Y-119817951D01*
X153446069Y-119838824D01*
X153417568Y-119845631D01*
X153396908Y-119843282D01*
X153380137Y-119836655D01*
X153328846Y-119795683D01*
X152923770Y-119430662D01*
X152882225Y-119400545D01*
X152854710Y-119392866D01*
X152840433Y-119397402D01*
X152828481Y-119412667D01*
X152819043Y-119445498D01*
X152814959Y-119506866D01*
X152818240Y-119594584D01*
X152825401Y-119636681D01*
X152841250Y-119666593D01*
X152867838Y-119687240D01*
X152895366Y-119705734D01*
X152909969Y-119725720D01*
X152914672Y-119748117D01*
X152908423Y-119779112D01*
X152889728Y-119804152D01*
X152855270Y-119824702D01*
X152798055Y-119839635D01*
X152708469Y-119845631D01*
X152646721Y-119842384D01*
X152599592Y-119833709D01*
X152564183Y-119820901D01*
X152534258Y-119800914D01*
X152517937Y-119777787D01*
X152512526Y-119750315D01*
X152515288Y-119728279D01*
X152522418Y-119714228D01*
X152535806Y-119701963D01*
X152566076Y-119682049D01*
X152583535Y-119667119D01*
X152596269Y-119645592D01*
X152604056Y-119615493D01*
X152612296Y-119517291D01*
X152615657Y-119361053D01*
X152609524Y-119196165D01*
X152595202Y-119103438D01*
X152586182Y-119076639D01*
X152576456Y-119060268D01*
X152562605Y-119047332D01*
X152538904Y-119033279D01*
X152510800Y-119016949D01*
X152495429Y-119003176D01*
X152486306Y-118986945D01*
X152483155Y-118966967D01*
X152489119Y-118938736D01*
X152507178Y-118915582D01*
X152540925Y-118896264D01*
X152597522Y-118881971D01*
X152643158Y-118878165D01*
X152731734Y-118876475D01*
X152782953Y-118879085D01*
X152811967Y-118885207D01*
X152837396Y-118897945D01*
X152871685Y-118924347D01*
G37*
G36*
X154173804Y-118876475D02*
G01*
X154261828Y-118882757D01*
X154343126Y-118901144D01*
X154391058Y-118912623D01*
X154407685Y-118909832D01*
X154447723Y-118897053D01*
X154477826Y-118892107D01*
X154501956Y-118896597D01*
X154526479Y-118910961D01*
X154552442Y-118938086D01*
X154584137Y-118989197D01*
X154602670Y-119042254D01*
X154608862Y-119098431D01*
X154605213Y-119137154D01*
X154594974Y-119168898D01*
X154578637Y-119195090D01*
X154556316Y-119215670D01*
X154530175Y-119227870D01*
X154498953Y-119232093D01*
X154460003Y-119225355D01*
X154419940Y-119203883D01*
X154362848Y-119141235D01*
X154322288Y-119100755D01*
X154280726Y-119073504D01*
X154237503Y-119057630D01*
X154191573Y-119052330D01*
X154148835Y-119056488D01*
X154112048Y-119068408D01*
X154080010Y-119087859D01*
X154051927Y-119115406D01*
X154024187Y-119160122D01*
X154006566Y-119215894D01*
X154000209Y-119285643D01*
X154005729Y-119364793D01*
X154021665Y-119435639D01*
X154047480Y-119499462D01*
X154083190Y-119557302D01*
X154117455Y-119593886D01*
X154157562Y-119622088D01*
X154201546Y-119640500D01*
X154243475Y-119646329D01*
X154275423Y-119640507D01*
X154300505Y-119623553D01*
X154317053Y-119597964D01*
X154322793Y-119564996D01*
X154317784Y-119537151D01*
X154304474Y-119520544D01*
X154291163Y-119514438D01*
X154252390Y-119513461D01*
X154224440Y-119508547D01*
X154202137Y-119494227D01*
X154187191Y-119472627D01*
X154182109Y-119445561D01*
X154186477Y-119419857D01*
X154199415Y-119398170D01*
X154222331Y-119379369D01*
X154258557Y-119363496D01*
X154345164Y-119344449D01*
X154449799Y-119337606D01*
X154560639Y-119344139D01*
X154644338Y-119361542D01*
X154679780Y-119377126D01*
X154702558Y-119396379D01*
X154715673Y-119419361D01*
X154720176Y-119447393D01*
X154715791Y-119471024D01*
X154702590Y-119491357D01*
X154682683Y-119506024D01*
X154656978Y-119513461D01*
X154636156Y-119518259D01*
X154626997Y-119523597D01*
X154621113Y-119533273D01*
X154612892Y-119558157D01*
X154586802Y-119627818D01*
X154548571Y-119688801D01*
X154497487Y-119742316D01*
X154456284Y-119772971D01*
X154409057Y-119799298D01*
X154355094Y-119821207D01*
X154270071Y-119842383D01*
X154179911Y-119849539D01*
X154105512Y-119845107D01*
X154035199Y-119832044D01*
X153968344Y-119810501D01*
X153904405Y-119780357D01*
X153843233Y-119741142D01*
X153790582Y-119695429D01*
X153745717Y-119642917D01*
X153708217Y-119583009D01*
X153677025Y-119510911D01*
X153658308Y-119435194D01*
X153651980Y-119354825D01*
X153659368Y-119273923D01*
X153681537Y-119195733D01*
X153719207Y-119119070D01*
X153758393Y-119062573D01*
X153804381Y-119013201D01*
X153857601Y-118970440D01*
X153918754Y-118934056D01*
X153995200Y-118902566D01*
X154079712Y-118883179D01*
X154173804Y-118876475D01*
G37*
G36*
X154892855Y-118896015D02*
G01*
X155243954Y-118896015D01*
X155399171Y-118891496D01*
X155447303Y-118884554D01*
X155494120Y-118872934D01*
X155517201Y-118868660D01*
X155539669Y-118872716D01*
X155560874Y-118885303D01*
X155581681Y-118908471D01*
X155606507Y-118952931D01*
X155621782Y-119003758D01*
X155627110Y-119062466D01*
X155621866Y-119105039D01*
X155607815Y-119135006D01*
X155585036Y-119155021D01*
X155554815Y-119161751D01*
X155533306Y-119159109D01*
X155518545Y-119152103D01*
X155505359Y-119138935D01*
X155484167Y-119109544D01*
X155462016Y-119081753D01*
X155437035Y-119061630D01*
X155408818Y-119048239D01*
X155355781Y-119037465D01*
X155258365Y-119032791D01*
X155206921Y-119036893D01*
X155178416Y-119046569D01*
X155164331Y-119059413D01*
X155157714Y-119075341D01*
X155154012Y-119098370D01*
X155152363Y-119225071D01*
X155156461Y-119259809D01*
X155165308Y-119273675D01*
X155183917Y-119279767D01*
X155235772Y-119282896D01*
X155261131Y-119279611D01*
X155276072Y-119271355D01*
X155285616Y-119256679D01*
X155291887Y-119229345D01*
X155301962Y-119173902D01*
X155309270Y-119159841D01*
X155321257Y-119147280D01*
X155337376Y-119137623D01*
X155356001Y-119134396D01*
X155382305Y-119140986D01*
X155405460Y-119161995D01*
X155417659Y-119186550D01*
X155429945Y-119233070D01*
X155437417Y-119284491D01*
X155439959Y-119338888D01*
X155435749Y-119411057D01*
X155424140Y-119469877D01*
X155406315Y-119517613D01*
X155390897Y-119539740D01*
X155372012Y-119552198D01*
X155348490Y-119556448D01*
X155327019Y-119552962D01*
X155314968Y-119544052D01*
X155307602Y-119528212D01*
X155300802Y-119494105D01*
X155291154Y-119460769D01*
X155274016Y-119438517D01*
X155248822Y-119424764D01*
X155212569Y-119419672D01*
X155186719Y-119424776D01*
X155172025Y-119438417D01*
X155164581Y-119461441D01*
X155161217Y-119509064D01*
X155165614Y-119591680D01*
X155174834Y-119658480D01*
X155184795Y-119674286D01*
X155207623Y-119685591D01*
X155240118Y-119690895D01*
X155301352Y-119693224D01*
X155369533Y-119689720D01*
X155419303Y-119680547D01*
X155454736Y-119667334D01*
X155485677Y-119646468D01*
X155513623Y-119615831D01*
X155538695Y-119573361D01*
X155558818Y-119537471D01*
X155573804Y-119519628D01*
X155591518Y-119509307D01*
X155614959Y-119505645D01*
X155641788Y-119511888D01*
X155663869Y-119531107D01*
X155678124Y-119558951D01*
X155683164Y-119594488D01*
X155678467Y-119637510D01*
X155661854Y-119696948D01*
X155637772Y-119755822D01*
X155609769Y-119806064D01*
X155583208Y-119837510D01*
X155571495Y-119843495D01*
X155556219Y-119845631D01*
X155518239Y-119841113D01*
X155470959Y-119834263D01*
X155401796Y-119830000D01*
X154822513Y-119830000D01*
X154789751Y-119825690D01*
X154767254Y-119814185D01*
X154752588Y-119795442D01*
X154747470Y-119769427D01*
X154749896Y-119750772D01*
X154756018Y-119739691D01*
X154767654Y-119730656D01*
X154794364Y-119716549D01*
X154812448Y-119706452D01*
X154824040Y-119695300D01*
X154832113Y-119680829D01*
X154839061Y-119657930D01*
X154855155Y-119546375D01*
X154861531Y-119381081D01*
X154856235Y-119200946D01*
X154843896Y-119099855D01*
X154828925Y-119050071D01*
X154814453Y-119031753D01*
X154780992Y-119019113D01*
X154758229Y-119007524D01*
X154745248Y-118990223D01*
X154740631Y-118965441D01*
X154743990Y-118944159D01*
X154754003Y-118925446D01*
X154769449Y-118910870D01*
X154789235Y-118902182D01*
X154822291Y-118897966D01*
X154892855Y-118896015D01*
G37*
G36*
X156159865Y-119191610D02*
G01*
X156159865Y-119506195D01*
X156162724Y-119578208D01*
X156169497Y-119620178D01*
X156178000Y-119642177D01*
X156195896Y-119660417D01*
X156225294Y-119672747D01*
X156271301Y-119677592D01*
X156321789Y-119673411D01*
X156361641Y-119661932D01*
X156393056Y-119644131D01*
X156418758Y-119618903D01*
X156439573Y-119584719D01*
X156455216Y-119539473D01*
X156466129Y-119512939D01*
X156481893Y-119498742D01*
X156503576Y-119493921D01*
X156526719Y-119497564D01*
X156546600Y-119508330D01*
X156564148Y-119527138D01*
X156581246Y-119563723D01*
X156587473Y-119612868D01*
X156581125Y-119668229D01*
X156560941Y-119728499D01*
X156524337Y-119795256D01*
X156503950Y-119823250D01*
X156488860Y-119837937D01*
X156472135Y-119846541D01*
X156451491Y-119849539D01*
X156299877Y-119830000D01*
X155822505Y-119830000D01*
X155778573Y-119826603D01*
X155755277Y-119818764D01*
X155738980Y-119805869D01*
X155729545Y-119789891D01*
X155726273Y-119769794D01*
X155728923Y-119751604D01*
X155735860Y-119740118D01*
X155781350Y-119713129D01*
X155813339Y-119690646D01*
X155830259Y-119662205D01*
X155835938Y-119621483D01*
X155838991Y-119498928D01*
X155835572Y-119317273D01*
X155831481Y-119145814D01*
X155828874Y-119095724D01*
X155823176Y-119071748D01*
X155810945Y-119055336D01*
X155788433Y-119043415D01*
X155747349Y-119027330D01*
X155730425Y-119017770D01*
X155713144Y-118998150D01*
X155707833Y-118977165D01*
X155712186Y-118955029D01*
X155725630Y-118935086D01*
X155750658Y-118916426D01*
X155791852Y-118899251D01*
X155839591Y-118887440D01*
X155901628Y-118879446D01*
X155980957Y-118876475D01*
X156105337Y-118880522D01*
X156179527Y-118890214D01*
X156221320Y-118903881D01*
X156246941Y-118921156D01*
X156261030Y-118941542D01*
X156265744Y-118966174D01*
X156262524Y-118987429D01*
X156254021Y-119000978D01*
X156237890Y-119012156D01*
X156198333Y-119030959D01*
X156177895Y-119046240D01*
X156166521Y-119069794D01*
X156162048Y-119105481D01*
X156159865Y-119191610D01*
G37*
G36*
X157026195Y-118876475D02*
G01*
X157101412Y-118884052D01*
X157211209Y-118911463D01*
X157232519Y-118915493D01*
X157272819Y-118903281D01*
X157296693Y-118899068D01*
X157324878Y-118905511D01*
X157356897Y-118927571D01*
X157394879Y-118972280D01*
X157424648Y-119022922D01*
X157441058Y-119069015D01*
X157446231Y-119111803D01*
X157440238Y-119148181D01*
X157422784Y-119177810D01*
X157396606Y-119198105D01*
X157365692Y-119204738D01*
X157339581Y-119201743D01*
X157320385Y-119193625D01*
X157244792Y-119128351D01*
X157187269Y-119083894D01*
X157134608Y-119059858D01*
X157084935Y-119052330D01*
X157050141Y-119057110D01*
X157025095Y-119070160D01*
X157008448Y-119090661D01*
X157002869Y-119116810D01*
X157007998Y-119141068D01*
X157024084Y-119163208D01*
X157054679Y-119184237D01*
X157106001Y-119203761D01*
X157234620Y-119243900D01*
X157287290Y-119264394D01*
X157353862Y-119304272D01*
X157402310Y-119348729D01*
X157435687Y-119397951D01*
X157455710Y-119452967D01*
X157462595Y-119515537D01*
X157457714Y-119572528D01*
X157443494Y-119624038D01*
X157420078Y-119671125D01*
X157386950Y-119714573D01*
X157342978Y-119754834D01*
X157280017Y-119794860D01*
X157207134Y-119824369D01*
X157122558Y-119842972D01*
X157024118Y-119849539D01*
X156935563Y-119844499D01*
X156839227Y-119828717D01*
X156749470Y-119803962D01*
X156698543Y-119779808D01*
X156679491Y-119762302D01*
X156659544Y-119732009D01*
X156638764Y-119684064D01*
X156618750Y-119610378D01*
X156612325Y-119540633D01*
X156616247Y-119509349D01*
X156626430Y-119489098D01*
X156646536Y-119472114D01*
X156671004Y-119466566D01*
X156696195Y-119472717D01*
X156722234Y-119493250D01*
X156790134Y-119587711D01*
X156820955Y-119620383D01*
X156869574Y-119649199D01*
X156925269Y-119667601D01*
X156982475Y-119673684D01*
X157029419Y-119668728D01*
X157063197Y-119655488D01*
X157086732Y-119634050D01*
X157093911Y-119609204D01*
X157088141Y-119585244D01*
X157069792Y-119563775D01*
X157041211Y-119546639D01*
X156990779Y-119527749D01*
X156899173Y-119497851D01*
X156841486Y-119473405D01*
X156791960Y-119444475D01*
X156745498Y-119408620D01*
X156696162Y-119356623D01*
X156662823Y-119303508D01*
X156643366Y-119248451D01*
X156636871Y-119190205D01*
X156643814Y-119130931D01*
X156665020Y-119072419D01*
X156698899Y-119019125D01*
X156744888Y-118973073D01*
X156804956Y-118931222D01*
X156871047Y-118901240D01*
X156944303Y-118882837D01*
X157026195Y-118876475D01*
G37*
G36*
X158316102Y-119079380D02*
G01*
X158243012Y-119150882D01*
X158219076Y-119178099D01*
X158206918Y-119200661D01*
X158203323Y-119219942D01*
X158205505Y-119236442D01*
X158212360Y-119253647D01*
X158246554Y-119300054D01*
X158502032Y-119598457D01*
X158548866Y-119648100D01*
X158587456Y-119669959D01*
X158621035Y-119687824D01*
X158640457Y-119705252D01*
X158652044Y-119726957D01*
X158656210Y-119755994D01*
X158650131Y-119787313D01*
X158632868Y-119809313D01*
X158602061Y-119824107D01*
X158551125Y-119830000D01*
X158292227Y-119830000D01*
X158266917Y-119826767D01*
X158249180Y-119818093D01*
X158232116Y-119801230D01*
X158199781Y-119759902D01*
X158141151Y-119684885D01*
X158059159Y-119591374D01*
X158006036Y-119537946D01*
X157990859Y-119528285D01*
X157978681Y-119525551D01*
X157959730Y-119531907D01*
X157946708Y-119552811D01*
X157941006Y-119598579D01*
X157944465Y-119638271D01*
X157953331Y-119664829D01*
X157966224Y-119681988D01*
X157987962Y-119697070D01*
X158009683Y-119715793D01*
X158021724Y-119736054D01*
X158025697Y-119758742D01*
X158019512Y-119785954D01*
X158000642Y-119807915D01*
X157964759Y-119825725D01*
X157893630Y-119839586D01*
X157761427Y-119845631D01*
X157643370Y-119841100D01*
X157576535Y-119830488D01*
X157553494Y-119820396D01*
X157535502Y-119804720D01*
X157523643Y-119784743D01*
X157519748Y-119762650D01*
X157524027Y-119739795D01*
X157537248Y-119718725D01*
X157561636Y-119698536D01*
X157577518Y-119685428D01*
X157587281Y-119672096D01*
X157601753Y-119622943D01*
X157611334Y-119535017D01*
X157615369Y-119384378D01*
X157610990Y-119206339D01*
X157601020Y-119112170D01*
X157594042Y-119082219D01*
X157586366Y-119065580D01*
X157574501Y-119052541D01*
X157553515Y-119038042D01*
X157531148Y-119020438D01*
X157518524Y-118999863D01*
X157514253Y-118975211D01*
X157520460Y-118944534D01*
X157538677Y-118921050D01*
X157567621Y-118904257D01*
X157616285Y-118890275D01*
X157690549Y-118880289D01*
X157791530Y-118876475D01*
X157892027Y-118882556D01*
X157951386Y-118897114D01*
X157978256Y-118914046D01*
X157993669Y-118936846D01*
X157999075Y-118967395D01*
X157997003Y-118987017D01*
X157991625Y-119000184D01*
X157954012Y-119035966D01*
X157945165Y-119048996D01*
X157934412Y-119080968D01*
X157927553Y-119116794D01*
X157925314Y-119151493D01*
X157929166Y-119187062D01*
X157937661Y-119202561D01*
X157949310Y-119206997D01*
X157963546Y-119203890D01*
X157978558Y-119193625D01*
X158037299Y-119125359D01*
X158079259Y-119065294D01*
X158088101Y-119039263D01*
X158085575Y-119026280D01*
X158075340Y-119003237D01*
X158068350Y-118985738D01*
X158066242Y-118970814D01*
X158072271Y-118939890D01*
X158089905Y-118916054D01*
X158121685Y-118897663D01*
X158159937Y-118887226D01*
X158219989Y-118879531D01*
X158309324Y-118876475D01*
X158407949Y-118880548D01*
X158465579Y-118890214D01*
X158502241Y-118907194D01*
X158522303Y-118931325D01*
X158529204Y-118964464D01*
X158525901Y-118985983D01*
X158515832Y-119006229D01*
X158500618Y-119022322D01*
X158482676Y-119031203D01*
X158463514Y-119034554D01*
X158415936Y-119036699D01*
X158382434Y-119039357D01*
X158362325Y-119044637D01*
X158344056Y-119055321D01*
X158316102Y-119079380D01*
G37*
G36*
X159268852Y-118883002D02*
G01*
X159348328Y-118902052D01*
X159421705Y-118933333D01*
X159489994Y-118977226D01*
X159544980Y-119027197D01*
X159593136Y-119086686D01*
X159634647Y-119156744D01*
X159665213Y-119231266D01*
X159682981Y-119304054D01*
X159688808Y-119375952D01*
X159682092Y-119454883D01*
X159662254Y-119528668D01*
X159629148Y-119598489D01*
X159581830Y-119665258D01*
X159533646Y-119715074D01*
X159478635Y-119757454D01*
X159416130Y-119792695D01*
X159345219Y-119820779D01*
X159254834Y-119842419D01*
X159164968Y-119849539D01*
X159086937Y-119844044D01*
X159011549Y-119827657D01*
X158938066Y-119800202D01*
X158875610Y-119766272D01*
X158821056Y-119725166D01*
X158773656Y-119676614D01*
X158732964Y-119620012D01*
X158701437Y-119560229D01*
X158679034Y-119497868D01*
X158665498Y-119432354D01*
X158660912Y-119363007D01*
X158666877Y-119282675D01*
X158681885Y-119219026D01*
X159002302Y-119219026D01*
X159009484Y-119297782D01*
X159033627Y-119396102D01*
X159069758Y-119492649D01*
X159112639Y-119574583D01*
X159136239Y-119604352D01*
X159164235Y-119626912D01*
X159195660Y-119641642D01*
X159226456Y-119646329D01*
X159258652Y-119641986D01*
X159285616Y-119629441D01*
X159308644Y-119608288D01*
X159325503Y-119581289D01*
X159336112Y-119548267D01*
X159339907Y-119507660D01*
X159333559Y-119424576D01*
X159313285Y-119330950D01*
X159281862Y-119240799D01*
X159244591Y-119169078D01*
X159216215Y-119131770D01*
X159185057Y-119104537D01*
X159150393Y-119086284D01*
X159117096Y-119079685D01*
X159082223Y-119085230D01*
X159053012Y-119101484D01*
X159027948Y-119129755D01*
X159008923Y-119170129D01*
X159002302Y-119219026D01*
X158681885Y-119219026D01*
X158684338Y-119208621D01*
X158713080Y-119139746D01*
X158753480Y-119075167D01*
X158797811Y-119023752D01*
X158849063Y-118979628D01*
X158907853Y-118942421D01*
X158975069Y-118912074D01*
X159038114Y-118892622D01*
X159106822Y-118880614D01*
X159182004Y-118876475D01*
X159268852Y-118883002D01*
G37*
G36*
X160246659Y-118876475D02*
G01*
X160334682Y-118882757D01*
X160415980Y-118901144D01*
X160463913Y-118912623D01*
X160480539Y-118909832D01*
X160520577Y-118897053D01*
X160550680Y-118892107D01*
X160574810Y-118896597D01*
X160599333Y-118910961D01*
X160625296Y-118938086D01*
X160656991Y-118989197D01*
X160675524Y-119042254D01*
X160681716Y-119098431D01*
X160678067Y-119137154D01*
X160667828Y-119168898D01*
X160651491Y-119195090D01*
X160629171Y-119215670D01*
X160603029Y-119227870D01*
X160571807Y-119232093D01*
X160532857Y-119225355D01*
X160492794Y-119203883D01*
X160435703Y-119141235D01*
X160395142Y-119100755D01*
X160353581Y-119073504D01*
X160310357Y-119057630D01*
X160264427Y-119052330D01*
X160221689Y-119056488D01*
X160184902Y-119068408D01*
X160152864Y-119087859D01*
X160124781Y-119115406D01*
X160097042Y-119160122D01*
X160079420Y-119215894D01*
X160073063Y-119285643D01*
X160078583Y-119364793D01*
X160094519Y-119435639D01*
X160120334Y-119499462D01*
X160156045Y-119557302D01*
X160190309Y-119593886D01*
X160230416Y-119622088D01*
X160274401Y-119640500D01*
X160316329Y-119646329D01*
X160348277Y-119640507D01*
X160373360Y-119623553D01*
X160389907Y-119597964D01*
X160395647Y-119564996D01*
X160390638Y-119537151D01*
X160377329Y-119520544D01*
X160364017Y-119514438D01*
X160325244Y-119513461D01*
X160297294Y-119508547D01*
X160274991Y-119494227D01*
X160260046Y-119472627D01*
X160254963Y-119445561D01*
X160259331Y-119419857D01*
X160272269Y-119398170D01*
X160295185Y-119379369D01*
X160331411Y-119363496D01*
X160418018Y-119344449D01*
X160522653Y-119337606D01*
X160633493Y-119344139D01*
X160717192Y-119361542D01*
X160752634Y-119377126D01*
X160775412Y-119396379D01*
X160788527Y-119419361D01*
X160793030Y-119447393D01*
X160788646Y-119471024D01*
X160775444Y-119491357D01*
X160755537Y-119506024D01*
X160729832Y-119513461D01*
X160709010Y-119518259D01*
X160699851Y-119523597D01*
X160693967Y-119533273D01*
X160685746Y-119558157D01*
X160659656Y-119627818D01*
X160621426Y-119688801D01*
X160570341Y-119742316D01*
X160529138Y-119772971D01*
X160481911Y-119799298D01*
X160427948Y-119821207D01*
X160342925Y-119842383D01*
X160252765Y-119849539D01*
X160178366Y-119845107D01*
X160108053Y-119832044D01*
X160041199Y-119810501D01*
X159977259Y-119780357D01*
X159916087Y-119741142D01*
X159863436Y-119695429D01*
X159818571Y-119642917D01*
X159781071Y-119583009D01*
X159749879Y-119510911D01*
X159731162Y-119435194D01*
X159724834Y-119354825D01*
X159732222Y-119273923D01*
X159754391Y-119195733D01*
X159792062Y-119119070D01*
X159831247Y-119062573D01*
X159877235Y-119013201D01*
X159930455Y-118970440D01*
X159991608Y-118934056D01*
X160068054Y-118902566D01*
X160152567Y-118883179D01*
X160246659Y-118876475D01*
G37*
D11*
%TO.C,D2*%
X141730000Y-101500000D02*
G75*
G02*
X136730000Y-101500000I-2500000J0D01*
G01*
X136730000Y-101500000D02*
G75*
G02*
X141730000Y-101500000I2500000J0D01*
G01*
X142220000Y-101500000D02*
G75*
G02*
X136670000Y-103044830I-2990000J0D01*
G01*
X136670000Y-99955170D02*
G75*
G02*
X142220000Y-101500000I2560000J-1544830D01*
G01*
X136670000Y-99955000D02*
X136670000Y-103045000D01*
%TO.C,D3*%
X136730000Y-94500000D02*
G75*
G02*
X131730000Y-94500000I-2500000J0D01*
G01*
X131730000Y-94500000D02*
G75*
G02*
X136730000Y-94500000I2500000J0D01*
G01*
X137220000Y-94500000D02*
G75*
G02*
X131670000Y-96044830I-2990000J0D01*
G01*
X131670000Y-92955170D02*
G75*
G02*
X137220000Y-94500000I2560000J-1544830D01*
G01*
X131670000Y-92955000D02*
X131670000Y-96045000D01*
%TO.C,D1*%
X147730000Y-95000000D02*
G75*
G02*
X142730000Y-95000000I-2500000J0D01*
G01*
X142730000Y-95000000D02*
G75*
G02*
X147730000Y-95000000I2500000J0D01*
G01*
X148220000Y-95000000D02*
G75*
G02*
X142670000Y-96544830I-2990000J0D01*
G01*
X142670000Y-93455170D02*
G75*
G02*
X148220000Y-95000000I2560000J-1544830D01*
G01*
X142670000Y-93455000D02*
X142670000Y-96545000D01*
D12*
%TO.C,G\u002A\u002A\u002A*%
G36*
X145844068Y-88669046D02*
G01*
X146137214Y-88696676D01*
X146387369Y-88760490D01*
X146661468Y-88875024D01*
X146858885Y-88970965D01*
X147488632Y-89361189D01*
X148101787Y-89882490D01*
X148655592Y-90490883D01*
X149107292Y-91142387D01*
X149274490Y-91455843D01*
X149557277Y-92116668D01*
X149749102Y-92748240D01*
X149859788Y-93403412D01*
X149899156Y-94135042D01*
X149888103Y-94757940D01*
X149823468Y-95654323D01*
X149696940Y-96450387D01*
X149494946Y-97173171D01*
X149203912Y-97849710D01*
X148810265Y-98507040D01*
X148300433Y-99172199D01*
X147660843Y-99872222D01*
X146991638Y-100527481D01*
X146621115Y-100870074D01*
X146166189Y-101279761D01*
X145641039Y-101744602D01*
X145059845Y-102252657D01*
X144436785Y-102791986D01*
X143786040Y-103350647D01*
X143121788Y-103916701D01*
X142458210Y-104478207D01*
X141809484Y-105023224D01*
X141189790Y-105539813D01*
X140613307Y-106016033D01*
X140094214Y-106439944D01*
X139646692Y-106799605D01*
X139284919Y-107083075D01*
X139023075Y-107278415D01*
X138875339Y-107373684D01*
X138852767Y-107381185D01*
X138751718Y-107329310D01*
X138554326Y-107192303D01*
X138300439Y-106998086D01*
X138260204Y-106965952D01*
X137491089Y-106325032D01*
X136668234Y-105598827D01*
X135849016Y-104839830D01*
X135090816Y-104100533D01*
X134770928Y-103773829D01*
X133606485Y-102496762D01*
X132608732Y-101259086D01*
X131773385Y-100054383D01*
X131096162Y-98876233D01*
X130572780Y-97718218D01*
X130386811Y-97203484D01*
X130304812Y-96951286D01*
X130242950Y-96732859D01*
X130198357Y-96517565D01*
X130168167Y-96274766D01*
X130149510Y-95973824D01*
X130139519Y-95584100D01*
X130135327Y-95074957D01*
X130134424Y-94633862D01*
X130979575Y-94633862D01*
X131011310Y-95431217D01*
X131091243Y-96167161D01*
X131220152Y-96795140D01*
X131234153Y-96844669D01*
X131584021Y-97813646D01*
X132082980Y-98820402D01*
X132734364Y-99869851D01*
X133541505Y-100966905D01*
X134507736Y-102116478D01*
X135613802Y-103300384D01*
X136002996Y-103691187D01*
X136430457Y-104107664D01*
X136876301Y-104531765D01*
X137320643Y-104945440D01*
X137743600Y-105330642D01*
X138125286Y-105669321D01*
X138445816Y-105943428D01*
X138685308Y-106134914D01*
X138823875Y-106225731D01*
X138842074Y-106230662D01*
X138923630Y-106176806D01*
X139122011Y-106025565D01*
X139417698Y-105792431D01*
X139791175Y-105492894D01*
X140222924Y-105142447D01*
X140533756Y-104887964D01*
X141560038Y-104039061D01*
X142545992Y-103212056D01*
X143480826Y-102416546D01*
X144353747Y-101662131D01*
X145153965Y-100958406D01*
X145870688Y-100314972D01*
X146493123Y-99741425D01*
X147010479Y-99247363D01*
X147411964Y-98842384D01*
X147686786Y-98536087D01*
X147714600Y-98501549D01*
X148247775Y-97693306D01*
X148638006Y-96795165D01*
X148888292Y-95798410D01*
X148998359Y-94769686D01*
X148977369Y-93717393D01*
X148809817Y-92763834D01*
X148495366Y-91907998D01*
X148033677Y-91148876D01*
X147630259Y-90682127D01*
X147011999Y-90143117D01*
X146393272Y-89776945D01*
X145777217Y-89584479D01*
X145166976Y-89566585D01*
X144565690Y-89724134D01*
X144412680Y-89793218D01*
X143859309Y-90144960D01*
X143292102Y-90656860D01*
X142721697Y-91313773D01*
X142158729Y-92100552D01*
X141613835Y-93002053D01*
X141097653Y-94003129D01*
X140620819Y-95088635D01*
X140526186Y-95327164D01*
X140378697Y-95703330D01*
X140255417Y-96013025D01*
X140169894Y-96222528D01*
X140136165Y-96297841D01*
X140079316Y-96239585D01*
X139938352Y-96063434D01*
X139732993Y-95794843D01*
X139482957Y-95459266D01*
X139416279Y-95368572D01*
X138608886Y-94304713D01*
X137816594Y-93333415D01*
X137047804Y-92462392D01*
X136310919Y-91699355D01*
X135614337Y-91052016D01*
X134966461Y-90528086D01*
X134375692Y-90135277D01*
X133850429Y-89881302D01*
X133399074Y-89773871D01*
X133318119Y-89770648D01*
X132947905Y-89850703D01*
X132554530Y-90073932D01*
X132164750Y-90413689D01*
X131805320Y-90843329D01*
X131502996Y-91336206D01*
X131319063Y-91761454D01*
X131165783Y-92338894D01*
X131057589Y-93041145D01*
X130995261Y-93821653D01*
X130979575Y-94633862D01*
X130134424Y-94633862D01*
X130134158Y-94504181D01*
X130135972Y-93816435D01*
X130144255Y-93276828D01*
X130160767Y-92856560D01*
X130187270Y-92526829D01*
X130225526Y-92258835D01*
X130277296Y-92023776D01*
X130288419Y-91981881D01*
X130602475Y-91108164D01*
X131034812Y-90349356D01*
X131576991Y-89716513D01*
X132220573Y-89220690D01*
X132523524Y-89053775D01*
X132845735Y-88905314D01*
X133084782Y-88831247D01*
X133310465Y-88816899D01*
X133539764Y-88840123D01*
X134134800Y-88998824D01*
X134792987Y-89318140D01*
X135510485Y-89794852D01*
X136283450Y-90425739D01*
X137108041Y-91207583D01*
X137980416Y-92137164D01*
X138896732Y-93211262D01*
X139192313Y-93577083D01*
X139870218Y-94426372D01*
X140366569Y-93403256D01*
X140905315Y-92386409D01*
X141487192Y-91460237D01*
X142098531Y-90641304D01*
X142725665Y-89946173D01*
X143354927Y-89391408D01*
X143972649Y-88993573D01*
X144028297Y-88965496D01*
X144346244Y-88816978D01*
X144603302Y-88726890D01*
X144866539Y-88680873D01*
X145203027Y-88664570D01*
X145440997Y-88663066D01*
X145844068Y-88669046D01*
G37*
G36*
X139119883Y-65167367D02*
G01*
X139525041Y-65366892D01*
X139879937Y-65658791D01*
X140130195Y-65993748D01*
X140192573Y-66140241D01*
X140243254Y-66237599D01*
X140337108Y-66286334D01*
X140501703Y-66283284D01*
X140764604Y-66225283D01*
X141153376Y-66109166D01*
X141530034Y-65986701D01*
X142080298Y-65823480D01*
X142688975Y-65674253D01*
X143323074Y-65543931D01*
X143949606Y-65437425D01*
X144535580Y-65359645D01*
X145048006Y-65315502D01*
X145453894Y-65309905D01*
X145720253Y-65347766D01*
X145748952Y-65358730D01*
X145916203Y-65405776D01*
X146211853Y-65464563D01*
X146580923Y-65524540D01*
X146704364Y-65542097D01*
X147105955Y-65608076D01*
X147442166Y-65696431D01*
X147777834Y-65830351D01*
X148177795Y-66033021D01*
X148366910Y-66136648D01*
X148848174Y-66410074D01*
X149251712Y-66657936D01*
X149622889Y-66912616D01*
X150007068Y-67206497D01*
X150449614Y-67571960D01*
X150810950Y-67881267D01*
X151596643Y-68559626D01*
X152129231Y-68084897D01*
X152757810Y-67601561D01*
X153362741Y-67295787D01*
X153953109Y-67163333D01*
X154117153Y-67156727D01*
X154841190Y-67231041D01*
X155466437Y-67457253D01*
X156005988Y-67840271D01*
X156048823Y-67880702D01*
X156306919Y-68151172D01*
X156470896Y-68398456D01*
X156585563Y-68701932D01*
X156649551Y-68944900D01*
X156720542Y-69274066D01*
X156754730Y-69563800D01*
X156753938Y-69878250D01*
X156719989Y-70281563D01*
X156694066Y-70511805D01*
X156599536Y-71136735D01*
X156467173Y-71625678D01*
X156274281Y-72026756D01*
X155998162Y-72388087D01*
X155647975Y-72729572D01*
X155094545Y-73222552D01*
X155326244Y-73563980D01*
X155489712Y-73851787D01*
X155606643Y-74140595D01*
X155623001Y-74202522D01*
X155688829Y-74416890D01*
X155811130Y-74744155D01*
X155968870Y-75129532D01*
X156056234Y-75330909D01*
X156247533Y-75776844D01*
X156437374Y-76242823D01*
X156593500Y-76648962D01*
X156634333Y-76762545D01*
X156787230Y-77170691D01*
X156976546Y-77636243D01*
X157139391Y-78009454D01*
X157324424Y-78434317D01*
X157526090Y-78927271D01*
X157700805Y-79381770D01*
X157701174Y-79382777D01*
X157900217Y-79894053D01*
X158110482Y-80359087D01*
X158349519Y-80804176D01*
X158634878Y-81255621D01*
X158984111Y-81739718D01*
X159414768Y-82282769D01*
X159944400Y-82911071D01*
X160421391Y-83458909D01*
X160767085Y-83858559D01*
X161106768Y-84262233D01*
X161401180Y-84622632D01*
X161609648Y-84890545D01*
X161854035Y-85213953D01*
X162155994Y-85604632D01*
X162456615Y-85986480D01*
X162503389Y-86045091D01*
X162770337Y-86402526D01*
X163081448Y-86855529D01*
X163392132Y-87337658D01*
X163588147Y-87661454D01*
X163847846Y-88091599D01*
X164114292Y-88509949D01*
X164353071Y-88863654D01*
X164504744Y-89069204D01*
X164783531Y-89433989D01*
X165154591Y-89944823D01*
X165620181Y-90604867D01*
X166182558Y-91417284D01*
X166235635Y-91494545D01*
X166417974Y-91771716D01*
X166657089Y-92151284D01*
X166917160Y-92575803D01*
X167088728Y-92862579D01*
X167342220Y-93286965D01*
X167598149Y-93708353D01*
X167820832Y-94068324D01*
X167934943Y-94248034D01*
X168290256Y-94855616D01*
X168660664Y-95591869D01*
X169023991Y-96404537D01*
X169358061Y-97241362D01*
X169640697Y-98050088D01*
X169838653Y-98733966D01*
X169978321Y-99275286D01*
X170125930Y-99825122D01*
X170265008Y-100323401D01*
X170379082Y-100710053D01*
X170391208Y-100748959D01*
X170558237Y-101303702D01*
X170700657Y-101836544D01*
X170821030Y-102369651D01*
X170921919Y-102925188D01*
X171005885Y-103525322D01*
X171075490Y-104192216D01*
X171133298Y-104948038D01*
X171181870Y-105814952D01*
X171223768Y-106815124D01*
X171261555Y-107970720D01*
X171273269Y-108379535D01*
X171309917Y-109767414D01*
X171337314Y-110990571D01*
X171355168Y-112068795D01*
X171363189Y-113021874D01*
X171361085Y-113869596D01*
X171348565Y-114631749D01*
X171325339Y-115328122D01*
X171291115Y-115978502D01*
X171245602Y-116602679D01*
X171188509Y-117220441D01*
X171136051Y-117707914D01*
X171048603Y-118449909D01*
X170968502Y-119039494D01*
X170887220Y-119508303D01*
X170796229Y-119887972D01*
X170687003Y-120210133D01*
X170551014Y-120506422D01*
X170379734Y-120808474D01*
X170240312Y-121030876D01*
X169917039Y-121425084D01*
X169533248Y-121676070D01*
X169067008Y-121790413D01*
X168496388Y-121774691D01*
X168034967Y-121692486D01*
X167520955Y-121555905D01*
X167125303Y-121388282D01*
X166781720Y-121153257D01*
X166423917Y-120814468D01*
X166412454Y-120802514D01*
X166147925Y-120496840D01*
X165842239Y-120098534D01*
X165527069Y-119653978D01*
X165234090Y-119209555D01*
X164994976Y-118811645D01*
X164841402Y-118506631D01*
X164836713Y-118495091D01*
X164730486Y-118274732D01*
X164635861Y-118151132D01*
X164612881Y-118141454D01*
X164590816Y-118230108D01*
X164569647Y-118481232D01*
X164550235Y-118872568D01*
X164533443Y-119381859D01*
X164520132Y-119986848D01*
X164511164Y-120665276D01*
X164510051Y-120796909D01*
X164502808Y-121723737D01*
X164496146Y-122484411D01*
X164489135Y-123097498D01*
X164480846Y-123581564D01*
X164470349Y-123955177D01*
X164456716Y-124236903D01*
X164439017Y-124445309D01*
X164416323Y-124598963D01*
X164387705Y-124716430D01*
X164352233Y-124816279D01*
X164308979Y-124917075D01*
X164303192Y-124930182D01*
X164119119Y-125276466D01*
X163835597Y-125721571D01*
X163478837Y-126228915D01*
X163075051Y-126761916D01*
X162650451Y-127283994D01*
X162450123Y-127516364D01*
X162116331Y-127912359D01*
X161734727Y-128391353D01*
X161360490Y-128882993D01*
X161137522Y-129189837D01*
X160734353Y-129714705D01*
X160236316Y-130281202D01*
X159629690Y-130903198D01*
X158900752Y-131594562D01*
X158035780Y-132369162D01*
X157720712Y-132643194D01*
X157405498Y-132935621D01*
X157129840Y-133227293D01*
X156936785Y-133471219D01*
X156889439Y-133550628D01*
X156669762Y-133842246D01*
X156458363Y-133950105D01*
X156200198Y-134063979D01*
X155952361Y-134241568D01*
X155950363Y-134243423D01*
X155683793Y-134460234D01*
X155305494Y-134728034D01*
X154865455Y-135015455D01*
X154413665Y-135291126D01*
X154000116Y-135523680D01*
X153674795Y-135681747D01*
X153629261Y-135699945D01*
X153275982Y-135788522D01*
X152802318Y-135846135D01*
X152270269Y-135871147D01*
X151741833Y-135861919D01*
X151279012Y-135816812D01*
X151045455Y-135768240D01*
X150852249Y-135710887D01*
X150519156Y-135608506D01*
X150082244Y-135472328D01*
X149577579Y-135313581D01*
X149152000Y-135178738D01*
X148130126Y-134834492D01*
X147263512Y-134498281D01*
X146523865Y-134157371D01*
X145882890Y-133799024D01*
X145454305Y-133514312D01*
X144742251Y-133041549D01*
X143865955Y-132522838D01*
X143148364Y-132128685D01*
X142206914Y-131535930D01*
X141317134Y-130801525D01*
X140970440Y-130459208D01*
X140598924Y-130065101D01*
X140337310Y-129757693D01*
X140164624Y-129493316D01*
X140059892Y-129228301D01*
X140002139Y-128918980D01*
X139970391Y-128521686D01*
X139961819Y-128359290D01*
X139915637Y-127438856D01*
X138945819Y-127266140D01*
X138430888Y-127180034D01*
X137876530Y-127096276D01*
X137373208Y-127028241D01*
X137190910Y-127006698D01*
X136827372Y-126954725D01*
X136335923Y-126867823D01*
X135767852Y-126755906D01*
X135174449Y-126628890D01*
X134835637Y-126551447D01*
X134189809Y-126404795D01*
X133480769Y-126251920D01*
X132780088Y-126107764D01*
X132159338Y-125987271D01*
X131955113Y-125950052D01*
X131435542Y-125849910D01*
X130936131Y-125739788D01*
X130507351Y-125631724D01*
X130199676Y-125537755D01*
X130154022Y-125520478D01*
X129842181Y-125406639D01*
X129422539Y-125268281D01*
X128965824Y-125128323D01*
X128764888Y-125070316D01*
X128300718Y-124922199D01*
X127893394Y-124760427D01*
X127597113Y-124607237D01*
X127539777Y-124567651D01*
X127213051Y-124318445D01*
X126978438Y-124502991D01*
X126701193Y-124662603D01*
X126256777Y-124835175D01*
X125639890Y-125022474D01*
X124845233Y-125226267D01*
X124721819Y-125255666D01*
X124269458Y-125377668D01*
X123722615Y-125547802D01*
X123156685Y-125741632D01*
X122736000Y-125899252D01*
X122285199Y-126071633D01*
X121867240Y-126222372D01*
X121527515Y-126335676D01*
X121311411Y-126395757D01*
X121305296Y-126396961D01*
X121064876Y-126457023D01*
X120717560Y-126560935D01*
X120329755Y-126688581D01*
X120243115Y-126718724D01*
X119408527Y-127003719D01*
X118703604Y-127223404D01*
X118089368Y-127387870D01*
X117526844Y-127507205D01*
X116977056Y-127591499D01*
X116783696Y-127614234D01*
X116001693Y-127668398D01*
X115205366Y-127667324D01*
X114453110Y-127613707D01*
X113803322Y-127510243D01*
X113633093Y-127468811D01*
X113081654Y-127280308D01*
X112448348Y-126999895D01*
X111789683Y-126658041D01*
X111162169Y-126285213D01*
X110622315Y-125911880D01*
X110380904Y-125715320D01*
X110084441Y-125424831D01*
X109826973Y-125098606D01*
X109584095Y-124697997D01*
X109331405Y-124184358D01*
X109143826Y-123756244D01*
X108952347Y-123304997D01*
X108746026Y-122819066D01*
X108565445Y-122394027D01*
X108544179Y-122344000D01*
X108345583Y-121804192D01*
X108151692Y-121149284D01*
X107979690Y-120448484D01*
X107846763Y-119770998D01*
X107775830Y-119249818D01*
X107763841Y-118730725D01*
X107785374Y-118450853D01*
X108571401Y-118450853D01*
X108576279Y-118803737D01*
X108593277Y-119049813D01*
X108685592Y-119794694D01*
X108857630Y-120586775D01*
X109117585Y-121455310D01*
X109473654Y-122429552D01*
X109690101Y-122964995D01*
X110000777Y-123676266D01*
X110290759Y-124242015D01*
X110587195Y-124695145D01*
X110917229Y-125068559D01*
X111308006Y-125395161D01*
X111786673Y-125707854D01*
X112101983Y-125888457D01*
X112759252Y-126236949D01*
X113310310Y-126490495D01*
X113796806Y-126664881D01*
X114260390Y-126775892D01*
X114561819Y-126820676D01*
X115107474Y-126876929D01*
X115559984Y-126898889D01*
X116001203Y-126886293D01*
X116512985Y-126838879D01*
X116726109Y-126813744D01*
X117236606Y-126738428D01*
X117718334Y-126643919D01*
X118141117Y-126538808D01*
X118474784Y-126431683D01*
X118689161Y-126331134D01*
X118754074Y-126245752D01*
X118750650Y-126237395D01*
X118666751Y-126110022D01*
X118509554Y-125887436D01*
X118350685Y-125669091D01*
X118133100Y-125371139D01*
X117859647Y-124993014D01*
X117581284Y-124605249D01*
X117516527Y-124514545D01*
X117151562Y-124032785D01*
X116690824Y-123470560D01*
X116173608Y-122873421D01*
X115639210Y-122286920D01*
X115204972Y-121834984D01*
X114912924Y-121573206D01*
X114537066Y-121281153D01*
X114154825Y-121018696D01*
X114125577Y-121000328D01*
X113785286Y-120784242D01*
X113348890Y-120501121D01*
X112872952Y-120187932D01*
X112420242Y-119885820D01*
X111541577Y-119324819D01*
X110721814Y-118861881D01*
X109983808Y-118508984D01*
X109355365Y-118279541D01*
X108992046Y-118183644D01*
X108755881Y-118164460D01*
X108623467Y-118245645D01*
X108571401Y-118450853D01*
X107785374Y-118450853D01*
X107810955Y-118118370D01*
X107855257Y-117802546D01*
X107930205Y-117381575D01*
X107955442Y-117285630D01*
X108927637Y-117285630D01*
X109010293Y-117345132D01*
X109224878Y-117418447D01*
X109466275Y-117476840D01*
X110024588Y-117643532D01*
X110699956Y-117934445D01*
X111479194Y-118342793D01*
X112349116Y-118861794D01*
X113070639Y-119331338D01*
X113558267Y-119658472D01*
X114036933Y-119978289D01*
X114467238Y-120264560D01*
X114809788Y-120491054D01*
X114968585Y-120595004D01*
X115298784Y-120849053D01*
X115713734Y-121230788D01*
X116192158Y-121716629D01*
X116712778Y-122282994D01*
X117254315Y-122906301D01*
X117795492Y-123562970D01*
X118315032Y-124229419D01*
X118621122Y-124642954D01*
X118925849Y-125068506D01*
X119188546Y-125443804D01*
X119391468Y-125742803D01*
X119516869Y-125939461D01*
X119549455Y-126005318D01*
X119577558Y-126068096D01*
X119682794Y-126071807D01*
X119896553Y-126011177D01*
X120219328Y-125892782D01*
X120720912Y-125700837D01*
X120827911Y-125120133D01*
X120922762Y-124397223D01*
X120916849Y-123736192D01*
X120805051Y-123061745D01*
X120650194Y-122506741D01*
X120275807Y-121569456D01*
X119760845Y-120699984D01*
X119091632Y-119879467D01*
X118254492Y-119089047D01*
X118047968Y-118918564D01*
X117312818Y-118368049D01*
X116636675Y-117958325D01*
X115984118Y-117671417D01*
X115319724Y-117489349D01*
X115181210Y-117463747D01*
X114608669Y-117335843D01*
X114025571Y-117138804D01*
X113376487Y-116855640D01*
X112972810Y-116671155D01*
X112655662Y-116536613D01*
X114533514Y-116536613D01*
X114632558Y-116592855D01*
X114863404Y-116641923D01*
X115244878Y-116697662D01*
X115600662Y-116746541D01*
X116322234Y-116923067D01*
X117078894Y-117259707D01*
X117880260Y-117761451D01*
X118551291Y-118277862D01*
X119452979Y-119091951D01*
X120185581Y-119907948D01*
X120763865Y-120745686D01*
X121202600Y-121625000D01*
X121363582Y-122054683D01*
X121492983Y-122445888D01*
X121580370Y-122752358D01*
X121632966Y-123027790D01*
X121657990Y-123325882D01*
X121662662Y-123700332D01*
X121654202Y-124204838D01*
X121653994Y-124214519D01*
X121649217Y-124665671D01*
X121654642Y-125041841D01*
X121669065Y-125309094D01*
X121691283Y-125433498D01*
X121697395Y-125438337D01*
X121807372Y-125404879D01*
X122047537Y-125314870D01*
X122377911Y-125183650D01*
X122621031Y-125083963D01*
X123113939Y-124895997D01*
X123667545Y-124710207D01*
X124181800Y-124559602D01*
X124306182Y-124527974D01*
X124754696Y-124416529D01*
X125208295Y-124299578D01*
X125585692Y-124198181D01*
X125665171Y-124175864D01*
X126192887Y-124025524D01*
X125580010Y-123277125D01*
X125257189Y-122890782D01*
X124912760Y-122491215D01*
X124602625Y-122142854D01*
X124489865Y-122020727D01*
X123924539Y-121341086D01*
X123355235Y-120505960D01*
X123020330Y-119942545D01*
X122834154Y-119629396D01*
X122558307Y-119187378D01*
X122207774Y-118639841D01*
X121797543Y-118010133D01*
X121342601Y-117321607D01*
X121220158Y-117137811D01*
X120865070Y-116653155D01*
X120454868Y-116169805D01*
X120022130Y-115720002D01*
X119599434Y-115335989D01*
X119219357Y-115050009D01*
X118976050Y-114916816D01*
X118670945Y-114789582D01*
X118411899Y-114680356D01*
X118302546Y-114633441D01*
X117945130Y-114490917D01*
X117681355Y-114437414D01*
X117442211Y-114474372D01*
X117158693Y-114603235D01*
X117055637Y-114659491D01*
X116526309Y-114973577D01*
X115963009Y-115341117D01*
X115424858Y-115721385D01*
X114970979Y-116073660D01*
X114838910Y-116186391D01*
X114655518Y-116347226D01*
X114547443Y-116459351D01*
X114533514Y-116536613D01*
X112655662Y-116536613D01*
X112618389Y-116520801D01*
X112352809Y-116420624D01*
X112219199Y-116386545D01*
X112055874Y-116358197D01*
X111774234Y-116283225D01*
X111430069Y-116176737D01*
X111366523Y-116155636D01*
X110933404Y-116033293D01*
X110513432Y-115954756D01*
X110142605Y-115922050D01*
X109856918Y-115937198D01*
X109692370Y-116002225D01*
X109666546Y-116060059D01*
X109609491Y-116209591D01*
X109466547Y-116421627D01*
X109403000Y-116498786D01*
X109159598Y-116810025D01*
X108991759Y-117086870D01*
X108927667Y-117282673D01*
X108927637Y-117285630D01*
X107955442Y-117285630D01*
X108009349Y-117080692D01*
X108118466Y-116836524D01*
X108283331Y-116585696D01*
X108427440Y-116395706D01*
X108734845Y-116041437D01*
X109056153Y-115768824D01*
X109412526Y-115575218D01*
X109825122Y-115457971D01*
X110315103Y-115414435D01*
X110903627Y-115441960D01*
X111611855Y-115537898D01*
X112460947Y-115699601D01*
X113019441Y-115820939D01*
X113342667Y-115892437D01*
X113578879Y-115926368D01*
X113770913Y-115908278D01*
X113961604Y-115823712D01*
X114193788Y-115658216D01*
X114510302Y-115397336D01*
X114668313Y-115264551D01*
X115032837Y-114985879D01*
X115504271Y-114663786D01*
X116026592Y-114333111D01*
X116543781Y-114028692D01*
X116999814Y-113785365D01*
X117190159Y-113696293D01*
X117298841Y-113649010D01*
X118533455Y-113649010D01*
X118571384Y-113778347D01*
X118705900Y-113895772D01*
X118968093Y-114022492D01*
X119226182Y-114121520D01*
X119619170Y-114330254D01*
X120078912Y-114686913D01*
X120589290Y-115174328D01*
X121134186Y-115775329D01*
X121697485Y-116472746D01*
X122263068Y-117249408D01*
X122522801Y-117633454D01*
X122840382Y-118118467D01*
X123132430Y-118572148D01*
X123379522Y-118963726D01*
X123562233Y-119262428D01*
X123659687Y-119434545D01*
X123930327Y-119910389D01*
X124289357Y-120446608D01*
X124690274Y-120977372D01*
X125034780Y-121381100D01*
X125310405Y-121689420D01*
X125646058Y-122076121D01*
X125985474Y-122476057D01*
X126119738Y-122637290D01*
X126415867Y-122985055D01*
X126636320Y-123211965D01*
X126814761Y-123346059D01*
X126984853Y-123415375D01*
X127076800Y-123434424D01*
X127344633Y-123518451D01*
X127672363Y-123676194D01*
X127895608Y-123812100D01*
X128268986Y-124024389D01*
X128698583Y-124211263D01*
X128924364Y-124285329D01*
X129259557Y-124382919D01*
X129698049Y-124518836D01*
X130168651Y-124670764D01*
X130402182Y-124748605D01*
X130848650Y-124881620D01*
X131415770Y-125024315D01*
X132041054Y-125162203D01*
X132662014Y-125280796D01*
X132795439Y-125303454D01*
X133313251Y-125392194D01*
X133782394Y-125478387D01*
X134165469Y-125554723D01*
X134425077Y-125613894D01*
X134504166Y-125637401D01*
X134767940Y-125718724D01*
X135156759Y-125815639D01*
X135620114Y-125918027D01*
X136107497Y-126015769D01*
X136568400Y-126098748D01*
X136952316Y-126156843D01*
X137208735Y-126179936D01*
X137212432Y-126179973D01*
X137496083Y-126203180D01*
X137881308Y-126261783D01*
X138291133Y-126343801D01*
X138345455Y-126356321D01*
X138732614Y-126448012D01*
X139035692Y-126508884D01*
X139283022Y-126526559D01*
X139296514Y-126524234D01*
X140746910Y-126524234D01*
X140762006Y-127574480D01*
X140768800Y-128018132D01*
X140775584Y-128411562D01*
X140781492Y-128707186D01*
X140785097Y-128843831D01*
X140862192Y-129031445D01*
X141080479Y-129325419D01*
X141434936Y-129719213D01*
X141544530Y-129832791D01*
X142003073Y-130280064D01*
X142450190Y-130661386D01*
X142934275Y-131012503D01*
X143503726Y-131369159D01*
X144035652Y-131672727D01*
X144434117Y-131903344D01*
X144899108Y-132186755D01*
X145345253Y-132470634D01*
X145449054Y-132539010D01*
X146259143Y-133046922D01*
X147056336Y-133477830D01*
X147894968Y-133857173D01*
X148829374Y-134210389D01*
X149486761Y-134429379D01*
X150031323Y-134602121D01*
X150539500Y-134760888D01*
X150975336Y-134894633D01*
X151302875Y-134992308D01*
X151472579Y-135039552D01*
X151905344Y-135096445D01*
X152423577Y-135089448D01*
X152945672Y-135025267D01*
X153390028Y-134910607D01*
X153479923Y-134874613D01*
X153894536Y-134658771D01*
X154387213Y-134352803D01*
X154903120Y-133994891D01*
X155387423Y-133623215D01*
X155785289Y-133275957D01*
X155809711Y-133252356D01*
X156050956Y-133011251D01*
X156198686Y-132826498D01*
X156281401Y-132635893D01*
X156327600Y-132377234D01*
X156360006Y-132051288D01*
X156376640Y-131383008D01*
X156322419Y-130595106D01*
X156204002Y-129735642D01*
X156028047Y-128852672D01*
X155801212Y-127994255D01*
X155795184Y-127974308D01*
X155459914Y-126986805D01*
X155087596Y-126146193D01*
X154656906Y-125430423D01*
X154146518Y-124817447D01*
X153535108Y-124285218D01*
X152801350Y-123811688D01*
X151923919Y-123374808D01*
X150970289Y-122985853D01*
X150521937Y-122826143D01*
X150196961Y-122736645D01*
X149952094Y-122707861D01*
X149776151Y-122723750D01*
X149532604Y-122746627D01*
X149369915Y-122674794D01*
X149239480Y-122532066D01*
X149024439Y-122344259D01*
X148952453Y-122319271D01*
X151466728Y-122319271D01*
X152032496Y-122531961D01*
X153079694Y-123016062D01*
X154011447Y-123633834D01*
X154816492Y-124375371D01*
X155483562Y-125230766D01*
X155869723Y-125906783D01*
X156389093Y-127117296D01*
X156777782Y-128392436D01*
X157044378Y-129764365D01*
X157156599Y-130727053D01*
X157270498Y-132000102D01*
X157829431Y-131467557D01*
X158132829Y-131177720D01*
X158514307Y-130812188D01*
X158919029Y-130423551D01*
X159204028Y-130149324D01*
X159608281Y-129733128D01*
X160037905Y-129247140D01*
X160430305Y-128764018D01*
X160630372Y-128493625D01*
X160940292Y-128069239D01*
X161279311Y-127632389D01*
X161597230Y-127246645D01*
X161760842Y-127061988D01*
X162093704Y-126680868D01*
X162439760Y-126247940D01*
X162776179Y-125795952D01*
X163080130Y-125357649D01*
X163328781Y-124965778D01*
X163499301Y-124653086D01*
X163565965Y-124472930D01*
X163580543Y-124316728D01*
X163543739Y-124171557D01*
X163433204Y-123997724D01*
X163226588Y-123755537D01*
X163060449Y-123575113D01*
X162705049Y-123223495D01*
X162344989Y-122942435D01*
X161911617Y-122681885D01*
X161644646Y-122542988D01*
X161265651Y-122361903D01*
X160929410Y-122218472D01*
X160681173Y-122131097D01*
X160587451Y-122113075D01*
X160404962Y-122080818D01*
X160335973Y-122033627D01*
X160200460Y-121967918D01*
X159901691Y-121923115D01*
X159459915Y-121898903D01*
X158895381Y-121894967D01*
X158228335Y-121910991D01*
X157479028Y-121946661D01*
X156667708Y-122001661D01*
X155814623Y-122075676D01*
X155478910Y-122109219D01*
X155072906Y-122144783D01*
X154539365Y-122182123D01*
X153935400Y-122217723D01*
X153318125Y-122248068D01*
X153034091Y-122259725D01*
X151466728Y-122319271D01*
X148952453Y-122319271D01*
X148733349Y-122243215D01*
X148343302Y-122227764D01*
X147831391Y-122296739D01*
X147246338Y-122430342D01*
X146235485Y-122723409D01*
X145336950Y-123061558D01*
X144510099Y-123467515D01*
X143714298Y-123964002D01*
X142908910Y-124573747D01*
X142053301Y-125319471D01*
X142011706Y-125357753D01*
X140746910Y-126524234D01*
X139296514Y-126524234D01*
X139502938Y-126488661D01*
X139723774Y-126382814D01*
X139973863Y-126196641D01*
X140281539Y-125917765D01*
X140675136Y-125533809D01*
X141028816Y-125184182D01*
X141929111Y-124338142D01*
X142777680Y-123635551D01*
X143607819Y-123055856D01*
X144452825Y-122578510D01*
X145345995Y-122182960D01*
X146320624Y-121848659D01*
X146536430Y-121784984D01*
X147091237Y-121625294D01*
X161741981Y-121625294D01*
X162050991Y-121808377D01*
X162324618Y-121968531D01*
X162650828Y-122156853D01*
X162775637Y-122228213D01*
X163070411Y-122418747D01*
X163332774Y-122625338D01*
X163415192Y-122704665D01*
X163570839Y-122863183D01*
X163663368Y-122942324D01*
X163669192Y-122944364D01*
X163679017Y-122856974D01*
X163687498Y-122614700D01*
X163694068Y-122247383D01*
X163698161Y-121784863D01*
X163699273Y-121358370D01*
X163699273Y-119772377D01*
X163189951Y-120427873D01*
X162759626Y-120917110D01*
X162338029Y-121273910D01*
X162211305Y-121354332D01*
X161741981Y-121625294D01*
X147091237Y-121625294D01*
X147650400Y-121464350D01*
X151264473Y-121422599D01*
X152095857Y-121410748D01*
X152896200Y-121395102D01*
X153640357Y-121376461D01*
X154303181Y-121355627D01*
X154859526Y-121333399D01*
X155284246Y-121310579D01*
X155552194Y-121287966D01*
X155571273Y-121285491D01*
X155976308Y-121240471D01*
X156478923Y-121201089D01*
X157047512Y-121168092D01*
X157650471Y-121142228D01*
X158256198Y-121124244D01*
X158833086Y-121114888D01*
X159349533Y-121114909D01*
X159773933Y-121125053D01*
X160074683Y-121146068D01*
X160214966Y-121175630D01*
X160377226Y-121231042D01*
X160567828Y-121223950D01*
X160822419Y-121144755D01*
X161176650Y-120983860D01*
X161457853Y-120840993D01*
X161962364Y-120499666D01*
X162473869Y-120006872D01*
X162964953Y-119392638D01*
X163382564Y-118732942D01*
X163514454Y-118492441D01*
X163603434Y-118295820D01*
X163657917Y-118097585D01*
X163686314Y-117852242D01*
X163697035Y-117514296D01*
X163698493Y-117038253D01*
X163698483Y-117024215D01*
X163689768Y-116447642D01*
X163666908Y-115810250D01*
X163633762Y-115204085D01*
X163607835Y-114862545D01*
X163562737Y-114305457D01*
X163518654Y-113680946D01*
X163482688Y-113092451D01*
X163471510Y-112876727D01*
X163437802Y-112320066D01*
X164345819Y-112320066D01*
X164348670Y-113037124D01*
X164437848Y-114324422D01*
X164690889Y-115652737D01*
X165101048Y-116992250D01*
X165427063Y-117805642D01*
X165590193Y-118151096D01*
X165777202Y-118505919D01*
X165966922Y-118835055D01*
X166138182Y-119103447D01*
X166269812Y-119276039D01*
X166340369Y-119318055D01*
X166333221Y-119223320D01*
X166291522Y-118998069D01*
X166225132Y-118694754D01*
X166173084Y-118382813D01*
X166122605Y-117915098D01*
X166076029Y-117320560D01*
X166035689Y-116628152D01*
X166009249Y-116017091D01*
X165982438Y-115395413D01*
X165950375Y-114817993D01*
X165915390Y-114316629D01*
X165879815Y-113923120D01*
X165845980Y-113669265D01*
X165832991Y-113612406D01*
X165660698Y-113279765D01*
X165368501Y-112938070D01*
X165010110Y-112641373D01*
X164692182Y-112464361D01*
X164345819Y-112320066D01*
X163437802Y-112320066D01*
X163387933Y-111496534D01*
X163268916Y-110066957D01*
X163118495Y-108615271D01*
X162940708Y-107168748D01*
X162739593Y-105754661D01*
X162519186Y-104400284D01*
X162283525Y-103132890D01*
X162036647Y-101979752D01*
X161782589Y-100968143D01*
X161632547Y-100453818D01*
X161278759Y-99375217D01*
X160926529Y-98442845D01*
X160554448Y-97619638D01*
X160141108Y-96868529D01*
X159665101Y-96152455D01*
X159105021Y-95434349D01*
X158439458Y-94677148D01*
X158065091Y-94277202D01*
X157499434Y-93723343D01*
X156931473Y-93261495D01*
X156297557Y-92844071D01*
X155705154Y-92512774D01*
X155355575Y-92313770D01*
X155037386Y-92108048D01*
X154815305Y-91937674D01*
X154803425Y-91926637D01*
X154553167Y-91752159D01*
X154336662Y-91706804D01*
X154111692Y-91659209D01*
X153958400Y-91544584D01*
X153843987Y-91321094D01*
X153892271Y-91113743D01*
X154081299Y-90944010D01*
X154389118Y-90833376D01*
X154717549Y-90801818D01*
X154859290Y-90864946D01*
X155060251Y-91025047D01*
X155163090Y-91126650D01*
X155403596Y-91336176D01*
X155738701Y-91572294D01*
X156092968Y-91782267D01*
X156741923Y-92150605D01*
X157307528Y-92531484D01*
X157846358Y-92967875D01*
X158414989Y-93502750D01*
X158590235Y-93679052D01*
X159463891Y-94614607D01*
X160191251Y-95499868D01*
X160792638Y-96364304D01*
X161288374Y-97237386D01*
X161698783Y-98148581D01*
X161733642Y-98237091D01*
X162242066Y-99670801D01*
X162692644Y-101215472D01*
X163087769Y-102883216D01*
X163429834Y-104686143D01*
X163721232Y-106636365D01*
X163964355Y-108745992D01*
X164096665Y-110196766D01*
X164207273Y-111534624D01*
X164530546Y-111590472D01*
X165050560Y-111736562D01*
X165524320Y-112000610D01*
X165981569Y-112388810D01*
X166225247Y-112643734D01*
X166414145Y-112894667D01*
X166555447Y-113169930D01*
X166656340Y-113497848D01*
X166724009Y-113906743D01*
X166765639Y-114424938D01*
X166788415Y-115080757D01*
X166796595Y-115601454D01*
X166841912Y-116852351D01*
X166947949Y-117932307D01*
X167115276Y-118845041D01*
X167344465Y-119594273D01*
X167446089Y-119833008D01*
X167571273Y-120142210D01*
X167652597Y-120420402D01*
X167670007Y-120546947D01*
X167689020Y-120682268D01*
X167772869Y-120771573D01*
X167963704Y-120842346D01*
X168215601Y-120902734D01*
X168677841Y-120979062D01*
X169031560Y-120960197D01*
X169314012Y-120826391D01*
X169562454Y-120557893D01*
X169814141Y-120134954D01*
X169870498Y-120025451D01*
X169955845Y-119833892D01*
X170030605Y-119606923D01*
X170099153Y-119320003D01*
X170165867Y-118948592D01*
X170235122Y-118468151D01*
X170311295Y-117854138D01*
X170398762Y-117082015D01*
X170404139Y-117033091D01*
X170442085Y-116663309D01*
X170472659Y-116300180D01*
X170496228Y-115921823D01*
X170513159Y-115506357D01*
X170523817Y-115031904D01*
X170528572Y-114476583D01*
X170527788Y-113818514D01*
X170521834Y-113035817D01*
X170511075Y-112106612D01*
X170500162Y-111306545D01*
X170476829Y-109835316D01*
X170450397Y-108533291D01*
X170419571Y-107384957D01*
X170383058Y-106374801D01*
X170339563Y-105487308D01*
X170287793Y-104706965D01*
X170226453Y-104018259D01*
X170154251Y-103405675D01*
X170069890Y-102853700D01*
X169972079Y-102346821D01*
X169859522Y-101869523D01*
X169730925Y-101406292D01*
X169653266Y-101153076D01*
X169549296Y-100807981D01*
X169414409Y-100337089D01*
X169263495Y-99793561D01*
X169111445Y-99230559D01*
X169055949Y-99020600D01*
X168777345Y-98086740D01*
X168430788Y-97127739D01*
X168038594Y-96196875D01*
X167623079Y-95347424D01*
X167239494Y-94683798D01*
X167049709Y-94380537D01*
X166804435Y-93980529D01*
X166541824Y-93546265D01*
X166391744Y-93295155D01*
X165821588Y-92380570D01*
X165126714Y-91345565D01*
X164304036Y-90185556D01*
X164214915Y-90062909D01*
X163975915Y-89723531D01*
X163674563Y-89279148D01*
X163345643Y-88781880D01*
X163023937Y-88283850D01*
X162951321Y-88169454D01*
X162619312Y-87652480D01*
X162298773Y-87173259D01*
X161971474Y-86708027D01*
X161619187Y-86233024D01*
X161223682Y-85724485D01*
X160766730Y-85158650D01*
X160230103Y-84511754D01*
X159595572Y-83760036D01*
X159322158Y-83438635D01*
X158946432Y-82988481D01*
X158578497Y-82531316D01*
X158250961Y-82108782D01*
X157996430Y-81762521D01*
X157906630Y-81630850D01*
X157746596Y-81374569D01*
X157587420Y-81093036D01*
X157420645Y-80767153D01*
X157237816Y-80377822D01*
X157030478Y-79905943D01*
X156790177Y-79332419D01*
X156508457Y-78638150D01*
X156176862Y-77804038D01*
X155894513Y-77085818D01*
X155715220Y-76636298D01*
X155538053Y-76206015D01*
X155385833Y-75849665D01*
X155297169Y-75654182D01*
X155180466Y-75414916D01*
X155128146Y-75332943D01*
X155125102Y-75398805D01*
X155149632Y-75561818D01*
X155310344Y-76767596D01*
X155397800Y-77903558D01*
X155411723Y-78945240D01*
X155351834Y-79868174D01*
X155217857Y-80647896D01*
X155207861Y-80688000D01*
X154958504Y-81543825D01*
X154670185Y-82275522D01*
X154317492Y-82943193D01*
X154126435Y-83245678D01*
X153786040Y-83694081D01*
X153344167Y-84183482D01*
X152855375Y-84659549D01*
X152374223Y-85067950D01*
X152093786Y-85269841D01*
X151818984Y-85450165D01*
X151476750Y-85675616D01*
X151223423Y-85842988D01*
X150943098Y-86017177D01*
X150712811Y-86139977D01*
X150587840Y-86183636D01*
X150450775Y-86212013D01*
X150186260Y-86287927D01*
X149841084Y-86397555D01*
X149670963Y-86454525D01*
X149185060Y-86599404D01*
X148639815Y-86730940D01*
X148143812Y-86823285D01*
X148089819Y-86830902D01*
X147666160Y-86897143D01*
X147257356Y-86976731D01*
X146940296Y-87054398D01*
X146895729Y-87068013D01*
X146533791Y-87142015D01*
X146038685Y-87184547D01*
X145459229Y-87195837D01*
X144844244Y-87176115D01*
X144242548Y-87125608D01*
X143748728Y-87053277D01*
X143382440Y-86987183D01*
X143083644Y-86937107D01*
X142900350Y-86910947D01*
X142871273Y-86908914D01*
X142698106Y-86925818D01*
X142412032Y-86966233D01*
X142073231Y-87020184D01*
X141741884Y-87077698D01*
X141478171Y-87128801D01*
X141347273Y-87161485D01*
X141199784Y-87190720D01*
X140915155Y-87227163D01*
X140540533Y-87265237D01*
X140285091Y-87287111D01*
X139567803Y-87303068D01*
X138804470Y-87248709D01*
X138040872Y-87132825D01*
X137322789Y-86964203D01*
X136696001Y-86751635D01*
X136206471Y-86504027D01*
X136043086Y-86423491D01*
X135935121Y-86466087D01*
X135894980Y-86510330D01*
X135727049Y-86601722D01*
X135456170Y-86644587D01*
X135410381Y-86645454D01*
X135030487Y-86688654D01*
X134543458Y-86805672D01*
X134001949Y-86977635D01*
X133458616Y-87185671D01*
X132966112Y-87410907D01*
X132577092Y-87634470D01*
X132502359Y-87687751D01*
X132251855Y-87909424D01*
X131914742Y-88255198D01*
X131512399Y-88699297D01*
X131066203Y-89215946D01*
X130597532Y-89779368D01*
X130127764Y-90363789D01*
X129678278Y-90943432D01*
X129270450Y-91492521D01*
X128925660Y-91985281D01*
X128875159Y-92061130D01*
X128609567Y-92459927D01*
X128357155Y-92832594D01*
X128148301Y-93134646D01*
X128023667Y-93308039D01*
X127842048Y-93572104D01*
X127598957Y-93956471D01*
X127319454Y-94418235D01*
X127028601Y-94914491D01*
X126751457Y-95402335D01*
X126513084Y-95838864D01*
X126338542Y-96181171D01*
X126310668Y-96240732D01*
X126177357Y-96517210D01*
X125979674Y-96907690D01*
X125742265Y-97364310D01*
X125489779Y-97839209D01*
X125438671Y-97933965D01*
X125181081Y-98426602D01*
X124872952Y-99042675D01*
X124526036Y-99756447D01*
X124152081Y-100542183D01*
X123762837Y-101374147D01*
X123370055Y-102226601D01*
X122985483Y-103073812D01*
X122620872Y-103890041D01*
X122287970Y-104649554D01*
X121998528Y-105326615D01*
X121764295Y-105895486D01*
X121597020Y-106330433D01*
X121568406Y-106411273D01*
X121420825Y-106801778D01*
X121246925Y-107212338D01*
X121168482Y-107381091D01*
X120767299Y-108215971D01*
X120431591Y-108933717D01*
X120165541Y-109524812D01*
X119973335Y-109979742D01*
X119859156Y-110288991D01*
X119826546Y-110432854D01*
X119769352Y-110647598D01*
X119629975Y-110885747D01*
X119613216Y-110906913D01*
X119513596Y-111074991D01*
X119372050Y-111372669D01*
X119204568Y-111759339D01*
X119027141Y-112194393D01*
X118855759Y-112637220D01*
X118706413Y-113047213D01*
X118595093Y-113383761D01*
X118537792Y-113606256D01*
X118533455Y-113649010D01*
X117298841Y-113649010D01*
X117694004Y-113477091D01*
X118125796Y-112276364D01*
X118286594Y-111829695D01*
X118426889Y-111440877D01*
X118533863Y-111145365D01*
X118594700Y-110978614D01*
X118601585Y-110960182D01*
X118565882Y-110880351D01*
X118369128Y-110846633D01*
X118273292Y-110844727D01*
X117593197Y-110771685D01*
X116920218Y-110566708D01*
X116286385Y-110251022D01*
X115723727Y-109845852D01*
X115264275Y-109372423D01*
X114940059Y-108851961D01*
X114834450Y-108565889D01*
X114833375Y-108557971D01*
X115716045Y-108557971D01*
X115795885Y-108742284D01*
X115987184Y-108978350D01*
X116251333Y-109243583D01*
X116530413Y-109456625D01*
X116854251Y-109628866D01*
X117252672Y-109771693D01*
X117755503Y-109896497D01*
X118392571Y-110014666D01*
X118916537Y-110096872D01*
X118977611Y-110022360D01*
X119099832Y-109812829D01*
X119265530Y-109500328D01*
X119457038Y-109116909D01*
X119458983Y-109112909D01*
X119681661Y-108647014D01*
X119903670Y-108169238D01*
X120095220Y-107744354D01*
X120199534Y-107502808D01*
X120457449Y-106885616D01*
X120227692Y-106163535D01*
X120053424Y-105557964D01*
X119962883Y-105084075D01*
X119953497Y-104710225D01*
X120022689Y-104404766D01*
X120075113Y-104288194D01*
X120271435Y-104009342D01*
X120536006Y-103836471D01*
X120908256Y-103751332D01*
X121272238Y-103734089D01*
X121586029Y-103728562D01*
X121766354Y-103698601D01*
X121864466Y-103621275D01*
X121931621Y-103473653D01*
X121946245Y-103432545D01*
X121993950Y-103294601D01*
X122006820Y-103190305D01*
X121962070Y-103094174D01*
X121836912Y-102980726D01*
X121608561Y-102824481D01*
X121254229Y-102599956D01*
X121134179Y-102524433D01*
X120766765Y-102316223D01*
X120497938Y-102213099D01*
X120378960Y-102209288D01*
X120227905Y-102307648D01*
X119991430Y-102519432D01*
X119699092Y-102813480D01*
X119380447Y-103158631D01*
X119065051Y-103523725D01*
X118782459Y-103877601D01*
X118729559Y-103948235D01*
X118484850Y-104265144D01*
X118178547Y-104641990D01*
X117873226Y-105001939D01*
X117846733Y-105032249D01*
X117403811Y-105568095D01*
X116971591Y-106147044D01*
X116571089Y-106735963D01*
X116223322Y-107301716D01*
X115949306Y-107811169D01*
X115770057Y-108231188D01*
X115728252Y-108372267D01*
X115716045Y-108557971D01*
X114833375Y-108557971D01*
X114763668Y-108044535D01*
X114801333Y-107402406D01*
X114942227Y-106664345D01*
X115128008Y-106035117D01*
X115977317Y-106035117D01*
X115987163Y-106041818D01*
X116052916Y-105973580D01*
X116197978Y-105793750D01*
X116392348Y-105539654D01*
X116413992Y-105510727D01*
X116677336Y-105170239D01*
X116997385Y-104773718D01*
X117307956Y-104403054D01*
X117328424Y-104379273D01*
X117609309Y-104046731D01*
X117880092Y-103714513D01*
X118089286Y-103445995D01*
X118116327Y-103409454D01*
X118589547Y-102806304D01*
X119070470Y-102274452D01*
X119536741Y-101834245D01*
X119966007Y-101506027D01*
X120335912Y-101310147D01*
X120463436Y-101273167D01*
X120687934Y-101260026D01*
X120897573Y-101340575D01*
X121100445Y-101485157D01*
X121378830Y-101689706D01*
X121722366Y-101921293D01*
X121932198Y-102053505D01*
X122421486Y-102350954D01*
X122613011Y-101910386D01*
X123060429Y-100908342D01*
X123543186Y-99875083D01*
X124033047Y-98869204D01*
X124501773Y-97949300D01*
X124716975Y-97544364D01*
X124972767Y-97066325D01*
X125207199Y-96619442D01*
X125401492Y-96240165D01*
X125536869Y-95964944D01*
X125581490Y-95866164D01*
X125726341Y-95564386D01*
X125958780Y-95137666D01*
X126262189Y-94613592D01*
X126619952Y-94019754D01*
X127015452Y-93383739D01*
X127432072Y-92733136D01*
X127846963Y-92104815D01*
X128317989Y-91423466D01*
X128826841Y-90722901D01*
X129357654Y-90022113D01*
X129894560Y-89340101D01*
X130421693Y-88695858D01*
X130923186Y-88108382D01*
X131383173Y-87596668D01*
X131785787Y-87179711D01*
X132115161Y-86876508D01*
X132355430Y-86706054D01*
X132357065Y-86705219D01*
X132593384Y-86602245D01*
X132944459Y-86470240D01*
X133368807Y-86322520D01*
X133824943Y-86172402D01*
X134271384Y-86033201D01*
X134666644Y-85918234D01*
X134969240Y-85840818D01*
X135132893Y-85814182D01*
X135240815Y-85805811D01*
X135272030Y-85760233D01*
X135215586Y-85646748D01*
X135060529Y-85434657D01*
X134943414Y-85283091D01*
X134548523Y-84708782D01*
X134197318Y-84074978D01*
X133930373Y-83457898D01*
X133861685Y-83251091D01*
X133785012Y-83015015D01*
X133727916Y-82875074D01*
X133714435Y-82858545D01*
X133609981Y-82910482D01*
X133393996Y-83049522D01*
X133101658Y-83250509D01*
X132768139Y-83488290D01*
X132428615Y-83737707D01*
X132118261Y-83973607D01*
X131872252Y-84170833D01*
X131833819Y-84203466D01*
X131555166Y-84437397D01*
X131297349Y-84636326D01*
X131019328Y-84827793D01*
X130680064Y-85039339D01*
X130238517Y-85298504D01*
X129986546Y-85443131D01*
X129277571Y-85863394D01*
X128688625Y-86251745D01*
X128169142Y-86647137D01*
X127668558Y-87088521D01*
X127136306Y-87614847D01*
X127046190Y-87708128D01*
X126034493Y-88808367D01*
X125144571Y-89885321D01*
X124332118Y-90996581D01*
X123552827Y-92199738D01*
X123411138Y-92433035D01*
X123228091Y-92732079D01*
X122970660Y-93145678D01*
X122664442Y-93633055D01*
X122335034Y-94153432D01*
X122077573Y-94557398D01*
X121637848Y-95249832D01*
X121235726Y-95894981D01*
X120859217Y-96514497D01*
X120496335Y-97130029D01*
X120135091Y-97763227D01*
X119763496Y-98435741D01*
X119369564Y-99169221D01*
X118941305Y-99985316D01*
X118466731Y-100905678D01*
X117933855Y-101951955D01*
X117419091Y-102970396D01*
X116994465Y-103816023D01*
X116650787Y-104508422D01*
X116383218Y-105057969D01*
X116186924Y-105475038D01*
X116057067Y-105770003D01*
X115988810Y-105953238D01*
X115977317Y-106035117D01*
X115128008Y-106035117D01*
X115181130Y-105855195D01*
X115512826Y-104999798D01*
X115645950Y-104702545D01*
X115836692Y-104302271D01*
X116098417Y-103769683D01*
X116417239Y-103131732D01*
X116779272Y-102415369D01*
X117170629Y-101647542D01*
X117577425Y-100855202D01*
X117985772Y-100065298D01*
X118381785Y-99304782D01*
X118751578Y-98600602D01*
X119081263Y-97979709D01*
X119356956Y-97469052D01*
X119564769Y-97095581D01*
X119572238Y-97082545D01*
X119910112Y-96505428D01*
X120329706Y-95807283D01*
X120810507Y-95020941D01*
X121332004Y-94179236D01*
X121873685Y-93314997D01*
X122415036Y-92461058D01*
X122935546Y-91650249D01*
X123414702Y-90915403D01*
X123604488Y-90628587D01*
X124179674Y-89810345D01*
X124816958Y-88984789D01*
X125492436Y-88177868D01*
X126182203Y-87415531D01*
X126862356Y-86723726D01*
X127508990Y-86128401D01*
X128098201Y-85655505D01*
X128339350Y-85488838D01*
X128735366Y-85237347D01*
X129216210Y-84940282D01*
X129706456Y-84643957D01*
X129955713Y-84496347D01*
X130422765Y-84206562D01*
X130923065Y-83870612D01*
X131379203Y-83541440D01*
X131576388Y-83387984D01*
X131935888Y-83101949D01*
X132292400Y-82825770D01*
X132588644Y-82603555D01*
X132684752Y-82534513D01*
X132984389Y-82266226D01*
X133234188Y-81943180D01*
X133283413Y-81855722D01*
X133436604Y-81592201D01*
X133589038Y-81390515D01*
X133643811Y-81339458D01*
X133713146Y-81273000D01*
X133738983Y-81179480D01*
X133716333Y-81021523D01*
X133640208Y-80761753D01*
X133518418Y-80400028D01*
X133297268Y-79677996D01*
X133149458Y-78990338D01*
X133074836Y-78302753D01*
X133073788Y-77824727D01*
X133914932Y-77824727D01*
X133927190Y-78367185D01*
X133963695Y-78872076D01*
X134019674Y-79308473D01*
X134090351Y-79645450D01*
X134170952Y-79852078D01*
X134235743Y-79902909D01*
X134320624Y-79833514D01*
X134483671Y-79648177D01*
X134695532Y-79381169D01*
X134789455Y-79256364D01*
X135057814Y-78921349D01*
X135279041Y-78698550D01*
X135430595Y-78610385D01*
X135439506Y-78609818D01*
X135604625Y-78680859D01*
X135777799Y-78844667D01*
X135887575Y-79027264D01*
X135897819Y-79084313D01*
X135845487Y-79181513D01*
X135705288Y-79388386D01*
X135502417Y-79668521D01*
X135387680Y-79821610D01*
X134920149Y-80552312D01*
X134632547Y-81280169D01*
X134524138Y-82017376D01*
X134594189Y-82776131D01*
X134841963Y-83568631D01*
X135126270Y-84160139D01*
X135411127Y-84581261D01*
X135802939Y-85023367D01*
X136254859Y-85443862D01*
X136720043Y-85800148D01*
X137151644Y-86049629D01*
X137249115Y-86090436D01*
X138029881Y-86318076D01*
X138897668Y-86455604D01*
X139790276Y-86499487D01*
X140645504Y-86446192D01*
X141301091Y-86320636D01*
X141617156Y-86256551D01*
X141897058Y-86234594D01*
X141996398Y-86242976D01*
X142251976Y-86216887D01*
X142403259Y-86098119D01*
X142623966Y-85952448D01*
X142828881Y-85906545D01*
X143054229Y-85848052D01*
X143373543Y-85690287D01*
X143745560Y-85459819D01*
X144129014Y-85183219D01*
X144482640Y-84887056D01*
X144626182Y-84749288D01*
X144896555Y-84429325D01*
X145202943Y-83995038D01*
X145510873Y-83502851D01*
X145785870Y-83009189D01*
X145993457Y-82570477D01*
X146052953Y-82414117D01*
X146177484Y-82072731D01*
X146280731Y-81872720D01*
X146391052Y-81777529D01*
X146536807Y-81750601D01*
X146568020Y-81750182D01*
X146794311Y-81828534D01*
X146926159Y-82039240D01*
X146943972Y-82345769D01*
X146930042Y-82425235D01*
X146794275Y-82843293D01*
X146563072Y-83331399D01*
X146258787Y-83859127D01*
X145903774Y-84396047D01*
X145520386Y-84911732D01*
X145130977Y-85375753D01*
X144757902Y-85757682D01*
X144423515Y-86027090D01*
X144200561Y-86140624D01*
X144071397Y-86202982D01*
X144110110Y-86272077D01*
X144129069Y-86284683D01*
X144285373Y-86323570D01*
X144580171Y-86349525D01*
X144967711Y-86362917D01*
X145402241Y-86364118D01*
X145838007Y-86353499D01*
X146229257Y-86331430D01*
X146530238Y-86298283D01*
X146675260Y-86264046D01*
X146880198Y-86206012D01*
X147212277Y-86137604D01*
X147615151Y-86069815D01*
X147825434Y-86039603D01*
X148709134Y-85869482D01*
X149613663Y-85604332D01*
X150467309Y-85268102D01*
X151091637Y-84948814D01*
X151570086Y-84625678D01*
X152083304Y-84205240D01*
X152594632Y-83724693D01*
X153067410Y-83221229D01*
X153464978Y-82732039D01*
X153750677Y-82294316D01*
X153797071Y-82204079D01*
X154166765Y-81334606D01*
X154419391Y-80483989D01*
X154562638Y-79606116D01*
X154604192Y-78654872D01*
X154556864Y-77646009D01*
X154486640Y-76883192D01*
X154403976Y-76233729D01*
X154296887Y-75640692D01*
X154177329Y-75146182D01*
X155017091Y-75146182D01*
X155063273Y-75192364D01*
X155109455Y-75146182D01*
X155063273Y-75100000D01*
X155017091Y-75146182D01*
X154177329Y-75146182D01*
X154153387Y-75047153D01*
X153961490Y-74396186D01*
X153715302Y-73648757D01*
X153360914Y-72679293D01*
X153004999Y-71860334D01*
X152631169Y-71158254D01*
X152223038Y-70539429D01*
X152155913Y-70449146D01*
X151925283Y-70166514D01*
X151756304Y-70021170D01*
X151619874Y-69989504D01*
X151595330Y-69994364D01*
X151361662Y-69977190D01*
X151198898Y-69810585D01*
X151136929Y-69525237D01*
X151136923Y-69523781D01*
X151118184Y-69380505D01*
X151047128Y-69234999D01*
X150994882Y-69172216D01*
X152225948Y-69172216D01*
X152536247Y-69606176D01*
X152778053Y-69945629D01*
X153035027Y-70308262D01*
X153139192Y-70455930D01*
X153301647Y-70716278D01*
X153508046Y-71089235D01*
X153728003Y-71518295D01*
X153874607Y-71823557D01*
X154317375Y-72775390D01*
X154650158Y-72511821D01*
X154906430Y-72289058D01*
X155200063Y-72005823D01*
X155363730Y-71835145D01*
X155574425Y-71580506D01*
X155721961Y-71323064D01*
X155816936Y-71022524D01*
X155869946Y-70638596D01*
X155891586Y-70130984D01*
X155893954Y-69818955D01*
X155888349Y-69380769D01*
X155865842Y-69081374D01*
X155818929Y-68875073D01*
X155740109Y-68716168D01*
X155704411Y-68664409D01*
X155368728Y-68346581D01*
X154913419Y-68116688D01*
X154392118Y-67998598D01*
X154184331Y-67988000D01*
X153676254Y-68061767D01*
X153186751Y-68290746D01*
X152693676Y-68686457D01*
X152536247Y-68845192D01*
X152225948Y-69172216D01*
X150994882Y-69172216D01*
X150900082Y-69058296D01*
X150653374Y-68821426D01*
X150328741Y-68534747D01*
X149756567Y-68049935D01*
X149265746Y-67663782D01*
X148808586Y-67342768D01*
X148337396Y-67053375D01*
X147812728Y-66766400D01*
X147286066Y-66525562D01*
X146743958Y-66356572D01*
X146143222Y-66251363D01*
X145440674Y-66201871D01*
X144764728Y-66197121D01*
X144377425Y-66221783D01*
X143897533Y-66281096D01*
X143374524Y-66365756D01*
X142857874Y-66466459D01*
X142397056Y-66573900D01*
X142041547Y-66678777D01*
X141901455Y-66735570D01*
X141693301Y-66817593D01*
X141377075Y-66919876D01*
X141050699Y-67012267D01*
X140722587Y-67112512D01*
X140460909Y-67217887D01*
X140323571Y-67304553D01*
X140159779Y-67416940D01*
X140077329Y-67433818D01*
X139949576Y-67481191D01*
X139702047Y-67610432D01*
X139369516Y-67802228D01*
X138986757Y-68037264D01*
X138957184Y-68055976D01*
X138413645Y-68423552D01*
X137905987Y-68820959D01*
X137382295Y-69291216D01*
X136928395Y-69737167D01*
X136507440Y-70169406D01*
X136191319Y-70514964D01*
X135949844Y-70813224D01*
X135752827Y-71103572D01*
X135570077Y-71425392D01*
X135440649Y-71678099D01*
X134983579Y-72714772D01*
X134591478Y-73845738D01*
X134277108Y-75019583D01*
X134053232Y-76184892D01*
X133932612Y-77290249D01*
X133914932Y-77824727D01*
X133073788Y-77824727D01*
X133073253Y-77580943D01*
X133144556Y-76790608D01*
X133288596Y-75897449D01*
X133494297Y-74915273D01*
X133799188Y-73695481D01*
X134127347Y-72639715D01*
X134487868Y-71727815D01*
X134889844Y-70939624D01*
X135342369Y-70254985D01*
X135854535Y-69653740D01*
X135879372Y-69628072D01*
X136575196Y-68912872D01*
X136316319Y-68401210D01*
X136166149Y-68071507D01*
X136098676Y-67801472D01*
X136094889Y-67496562D01*
X136095657Y-67486697D01*
X136931025Y-67486697D01*
X136977838Y-67861442D01*
X137054349Y-68024248D01*
X137177073Y-68186612D01*
X137279302Y-68209306D01*
X137411274Y-68128395D01*
X137617392Y-67982952D01*
X137877339Y-67805615D01*
X137929819Y-67770509D01*
X138169563Y-67613480D01*
X138498041Y-67401685D01*
X138847620Y-67178711D01*
X138876546Y-67160382D01*
X139169102Y-66959002D01*
X139388034Y-66777602D01*
X139495162Y-66648746D01*
X139500000Y-66628642D01*
X139423589Y-66432455D01*
X139231161Y-66212974D01*
X138977923Y-66016232D01*
X138719083Y-65888262D01*
X138582530Y-65863636D01*
X138211131Y-65933313D01*
X137807172Y-66115450D01*
X137441903Y-66369709D01*
X137188281Y-66652979D01*
X137003012Y-67065046D01*
X136931025Y-67486697D01*
X136095657Y-67486697D01*
X136105929Y-67354815D01*
X136225804Y-66747649D01*
X136477288Y-66231307D01*
X136878095Y-65779312D01*
X137430744Y-65374562D01*
X137989846Y-65128742D01*
X138572580Y-65064216D01*
X139119883Y-65167367D01*
G37*
G36*
X138194779Y-80560810D02*
G01*
X138519729Y-80590898D01*
X138720252Y-80649485D01*
X138739099Y-80663002D01*
X138934532Y-80785118D01*
X139201793Y-80899643D01*
X139238708Y-80911988D01*
X139666651Y-81103772D01*
X140042475Y-81371603D01*
X140317297Y-81675539D01*
X140419771Y-81877014D01*
X140465483Y-82193399D01*
X140373974Y-82499149D01*
X140131747Y-82827455D01*
X139964448Y-82996661D01*
X139798765Y-83139230D01*
X139636241Y-83223874D01*
X139420020Y-83267199D01*
X139093244Y-83285814D01*
X138963293Y-83289105D01*
X138529390Y-83287295D01*
X138086305Y-83267185D01*
X137745091Y-83234881D01*
X137257021Y-83162849D01*
X136911865Y-83095316D01*
X136668754Y-83018169D01*
X136486814Y-82917297D01*
X136325173Y-82778587D01*
X136274006Y-82726946D01*
X136031968Y-82361914D01*
X135923717Y-81938724D01*
X135945721Y-81505381D01*
X136094445Y-81109891D01*
X136366357Y-80800257D01*
X136418511Y-80763554D01*
X136630644Y-80682991D01*
X136963334Y-80620312D01*
X137367585Y-80577640D01*
X137794399Y-80557099D01*
X138194779Y-80560810D01*
G37*
G36*
X145441715Y-77673298D02*
G01*
X145477548Y-77709273D01*
X145626795Y-77908184D01*
X145806632Y-78197554D01*
X145920714Y-78405346D01*
X146073014Y-78740951D01*
X146135966Y-79021822D01*
X146129921Y-79341851D01*
X146128043Y-79361918D01*
X146078493Y-79646935D01*
X146002043Y-79854272D01*
X145954976Y-79911340D01*
X145658997Y-79998863D01*
X145330439Y-79944737D01*
X145038439Y-79761515D01*
X145018362Y-79741273D01*
X144740930Y-79373259D01*
X144540473Y-78952665D01*
X144426181Y-78522570D01*
X144407243Y-78126054D01*
X144492847Y-77806195D01*
X144580000Y-77686182D01*
X144854092Y-77528598D01*
X145162967Y-77524860D01*
X145441715Y-77673298D01*
G37*
G36*
X137267292Y-76071742D02*
G01*
X137424778Y-76230320D01*
X137468000Y-76439000D01*
X137394934Y-76627055D01*
X137199924Y-76873406D01*
X136919256Y-77141018D01*
X136589216Y-77392857D01*
X136441098Y-77487109D01*
X136200914Y-77625368D01*
X136058525Y-77667852D01*
X135951170Y-77610141D01*
X135816089Y-77447815D01*
X135812159Y-77442817D01*
X135675167Y-77255263D01*
X135636906Y-77117333D01*
X135699301Y-76957824D01*
X135830744Y-76755311D01*
X136099189Y-76442102D01*
X136408691Y-76211031D01*
X136727624Y-76068207D01*
X137024366Y-76019741D01*
X137267292Y-76071742D01*
G37*
G36*
X119553359Y-107378917D02*
G01*
X119696537Y-107533362D01*
X119734182Y-107750192D01*
X119665384Y-107901172D01*
X119482160Y-108129557D01*
X119219266Y-108403807D01*
X118911458Y-108692384D01*
X118593493Y-108963746D01*
X118300126Y-109186357D01*
X118066115Y-109328674D01*
X117956182Y-109363636D01*
X117846688Y-109307316D01*
X117704277Y-109184277D01*
X117589454Y-109019799D01*
X117589212Y-108839823D01*
X117712834Y-108607474D01*
X117914065Y-108350909D01*
X118298511Y-107945907D01*
X118674623Y-107639620D01*
X119022442Y-107438634D01*
X119322007Y-107349537D01*
X119553359Y-107378917D01*
G37*
G36*
X119059774Y-105786547D02*
G01*
X119318472Y-105879444D01*
X119472465Y-106024485D01*
X119483829Y-106212133D01*
X119347135Y-106442665D01*
X119101300Y-106719201D01*
X118788222Y-107007386D01*
X118449800Y-107272869D01*
X118127932Y-107481296D01*
X117864517Y-107598315D01*
X117776463Y-107612000D01*
X117590031Y-107549919D01*
X117425091Y-107427273D01*
X117260328Y-107147546D01*
X117248765Y-106823144D01*
X117376594Y-106488338D01*
X117630007Y-106177398D01*
X117995195Y-105924593D01*
X118039303Y-105902892D01*
X118381804Y-105790053D01*
X118734756Y-105754011D01*
X119059774Y-105786547D01*
G37*
%TD*%
M02*
