%TF.GenerationSoftware,KiCad,Pcbnew,8.0.6*%
%TF.CreationDate,2025-05-21T14:19:44-04:00*%
%TF.ProjectId,DJUNGELSKOG Keychain,444a554e-4745-44c5-934b-4f47204b6579,rev?*%
%TF.SameCoordinates,Original*%
%TF.FileFunction,Drillmap*%
%TF.FilePolarity,Positive*%
%FSLAX45Y45*%
G04 Gerber Fmt 4.5, Leading zero omitted, Abs format (unit mm)*
G04 Created by KiCad (PCBNEW 8.0.6) date 2025-05-21 14:19:44*
%MOMM*%
%LPD*%
G01*
G04 APERTURE LIST*
%ADD10C,0.050000*%
%ADD11C,0.200000*%
%ADD12C,0.100000*%
%ADD13C,0.110000*%
%ADD14C,0.500000*%
G04 APERTURE END LIST*
D10*
X14900000Y-5850000D02*
X15000000Y-6100000D01*
X15000000Y-6350000D01*
X14900000Y-6450000D01*
X15050000Y-6500000D01*
X15200000Y-6600000D01*
X15400000Y-6550000D01*
X15650000Y-6600000D01*
X15800000Y-6750000D01*
X15850000Y-7050000D01*
X15750000Y-7300000D01*
X15800000Y-7500000D01*
X16000000Y-8000000D01*
X16100000Y-8100000D01*
X16650000Y-8850000D01*
X17000000Y-9350000D01*
X17200000Y-9950000D01*
X17300000Y-10500000D01*
X17350000Y-11400000D01*
X17250000Y-12100000D01*
X17050000Y-12300000D01*
X16800000Y-12300000D01*
X16650000Y-12250000D01*
X16650000Y-12300000D01*
X16600000Y-12600000D01*
X16150000Y-13100000D01*
X15750000Y-13500000D01*
X15400000Y-13700000D01*
X15100000Y-13700000D01*
X14550000Y-13500000D01*
X14100000Y-13200000D01*
X13900000Y-12950000D01*
X13900000Y-12850000D01*
X13150000Y-12700000D01*
X12700000Y-12550000D01*
X12250000Y-12750000D01*
X11650000Y-12900000D01*
X11300000Y-12850000D01*
X10900000Y-12600000D01*
X10700000Y-12050000D01*
X10700000Y-11700000D01*
X10800000Y-11500000D01*
X10950000Y-11400000D01*
X11150000Y-11400000D01*
X11350000Y-11450000D01*
X11550000Y-11300000D01*
X11750000Y-11200000D01*
X11450000Y-11050000D01*
X11350000Y-10900000D01*
X11350000Y-10700000D01*
X11550000Y-10200000D01*
X12000000Y-9400000D01*
X12300000Y-8900000D01*
X12750000Y-8400000D01*
X13050000Y-8250000D01*
X13250000Y-8050000D01*
X13200000Y-7800000D01*
X13250000Y-7500000D01*
X13350000Y-7100000D01*
X13550000Y-6800000D01*
X13500000Y-6600000D01*
X13650000Y-6400000D01*
X13950000Y-6350000D01*
X14100000Y-6450000D01*
X14250000Y-6400000D01*
X14150000Y-6150000D01*
X14200000Y-5950000D01*
X14400000Y-5750000D01*
X14650000Y-5750000D01*
X14900000Y-5850000D01*
D11*
D12*
X12260000Y-10629000D02*
X12340000Y-10709000D01*
X12340000Y-10629000D02*
X12260000Y-10709000D01*
X12260000Y-11391000D02*
X12340000Y-11471000D01*
X12340000Y-11391000D02*
X12260000Y-11471000D01*
X16710000Y-9829000D02*
X16790000Y-9909000D01*
X16790000Y-9829000D02*
X16710000Y-9909000D01*
X16710000Y-10591000D02*
X16790000Y-10671000D01*
X16790000Y-10591000D02*
X16710000Y-10671000D01*
X16810000Y-11079000D02*
X16890000Y-11159000D01*
X16890000Y-11079000D02*
X16810000Y-11159000D01*
X16810000Y-11841000D02*
X16890000Y-11921000D01*
X16890000Y-11841000D02*
X16810000Y-11921000D01*
X13395000Y-9500000D02*
G75*
G02*
X13305000Y-9500000I-45000J0D01*
G01*
X13305000Y-9500000D02*
G75*
G02*
X13395000Y-9500000I45000J0D01*
G01*
X13649000Y-9500000D02*
G75*
G02*
X13559000Y-9500000I-45000J0D01*
G01*
X13559000Y-9500000D02*
G75*
G02*
X13649000Y-9500000I45000J0D01*
G01*
X13841000Y-10150000D02*
G75*
G02*
X13751000Y-10150000I-45000J0D01*
G01*
X13751000Y-10150000D02*
G75*
G02*
X13841000Y-10150000I45000J0D01*
G01*
X14095000Y-10150000D02*
G75*
G02*
X14005000Y-10150000I-45000J0D01*
G01*
X14005000Y-10150000D02*
G75*
G02*
X14095000Y-10150000I45000J0D01*
G01*
X14391000Y-9500000D02*
G75*
G02*
X14301000Y-9500000I-45000J0D01*
G01*
X14301000Y-9500000D02*
G75*
G02*
X14391000Y-9500000I45000J0D01*
G01*
X14645000Y-9500000D02*
G75*
G02*
X14555000Y-9500000I-45000J0D01*
G01*
X14555000Y-9500000D02*
G75*
G02*
X14645000Y-9500000I45000J0D01*
G01*
D13*
X11325000Y-11770000D02*
X11325000Y-11880000D01*
X11270000Y-11825000D02*
X11380000Y-11825000D01*
X11325000Y-12220000D02*
X11325000Y-12330000D01*
X11270000Y-12275000D02*
X11380000Y-12275000D01*
X11975000Y-11770000D02*
X11975000Y-11880000D01*
X11920000Y-11825000D02*
X12030000Y-11825000D01*
X11975000Y-12220000D02*
X11975000Y-12330000D01*
X11920000Y-12275000D02*
X12030000Y-12275000D01*
D14*
X14776778Y-6326778D02*
X14776778Y-5973222D01*
X14423222Y-5973222D01*
X14423222Y-6326778D01*
X14776778Y-6326778D01*
D11*
X10958277Y-14013984D02*
X10958277Y-13813984D01*
X10958277Y-13813984D02*
X11005896Y-13813984D01*
X11005896Y-13813984D02*
X11034467Y-13823508D01*
X11034467Y-13823508D02*
X11053515Y-13842555D01*
X11053515Y-13842555D02*
X11063039Y-13861603D01*
X11063039Y-13861603D02*
X11072563Y-13899698D01*
X11072563Y-13899698D02*
X11072563Y-13928269D01*
X11072563Y-13928269D02*
X11063039Y-13966365D01*
X11063039Y-13966365D02*
X11053515Y-13985412D01*
X11053515Y-13985412D02*
X11034467Y-14004460D01*
X11034467Y-14004460D02*
X11005896Y-14013984D01*
X11005896Y-14013984D02*
X10958277Y-14013984D01*
X11158277Y-14013984D02*
X11158277Y-13880650D01*
X11158277Y-13918746D02*
X11167801Y-13899698D01*
X11167801Y-13899698D02*
X11177324Y-13890174D01*
X11177324Y-13890174D02*
X11196372Y-13880650D01*
X11196372Y-13880650D02*
X11215420Y-13880650D01*
X11282086Y-14013984D02*
X11282086Y-13880650D01*
X11282086Y-13813984D02*
X11272562Y-13823508D01*
X11272562Y-13823508D02*
X11282086Y-13833031D01*
X11282086Y-13833031D02*
X11291610Y-13823508D01*
X11291610Y-13823508D02*
X11282086Y-13813984D01*
X11282086Y-13813984D02*
X11282086Y-13833031D01*
X11405896Y-14013984D02*
X11386848Y-14004460D01*
X11386848Y-14004460D02*
X11377324Y-13985412D01*
X11377324Y-13985412D02*
X11377324Y-13813984D01*
X11510658Y-14013984D02*
X11491610Y-14004460D01*
X11491610Y-14004460D02*
X11482086Y-13985412D01*
X11482086Y-13985412D02*
X11482086Y-13813984D01*
X11739229Y-14013984D02*
X11739229Y-13813984D01*
X11739229Y-13813984D02*
X11805896Y-13956841D01*
X11805896Y-13956841D02*
X11872562Y-13813984D01*
X11872562Y-13813984D02*
X11872562Y-14013984D01*
X12053515Y-14013984D02*
X12053515Y-13909222D01*
X12053515Y-13909222D02*
X12043991Y-13890174D01*
X12043991Y-13890174D02*
X12024943Y-13880650D01*
X12024943Y-13880650D02*
X11986848Y-13880650D01*
X11986848Y-13880650D02*
X11967801Y-13890174D01*
X12053515Y-14004460D02*
X12034467Y-14013984D01*
X12034467Y-14013984D02*
X11986848Y-14013984D01*
X11986848Y-14013984D02*
X11967801Y-14004460D01*
X11967801Y-14004460D02*
X11958277Y-13985412D01*
X11958277Y-13985412D02*
X11958277Y-13966365D01*
X11958277Y-13966365D02*
X11967801Y-13947317D01*
X11967801Y-13947317D02*
X11986848Y-13937793D01*
X11986848Y-13937793D02*
X12034467Y-13937793D01*
X12034467Y-13937793D02*
X12053515Y-13928269D01*
X12148753Y-13880650D02*
X12148753Y-14080650D01*
X12148753Y-13890174D02*
X12167801Y-13880650D01*
X12167801Y-13880650D02*
X12205896Y-13880650D01*
X12205896Y-13880650D02*
X12224943Y-13890174D01*
X12224943Y-13890174D02*
X12234467Y-13899698D01*
X12234467Y-13899698D02*
X12243991Y-13918746D01*
X12243991Y-13918746D02*
X12243991Y-13975888D01*
X12243991Y-13975888D02*
X12234467Y-13994936D01*
X12234467Y-13994936D02*
X12224943Y-14004460D01*
X12224943Y-14004460D02*
X12205896Y-14013984D01*
X12205896Y-14013984D02*
X12167801Y-14013984D01*
X12167801Y-14013984D02*
X12148753Y-14004460D01*
X12329705Y-13994936D02*
X12339229Y-14004460D01*
X12339229Y-14004460D02*
X12329705Y-14013984D01*
X12329705Y-14013984D02*
X12320182Y-14004460D01*
X12320182Y-14004460D02*
X12329705Y-13994936D01*
X12329705Y-13994936D02*
X12329705Y-14013984D01*
X12329705Y-13890174D02*
X12339229Y-13899698D01*
X12339229Y-13899698D02*
X12329705Y-13909222D01*
X12329705Y-13909222D02*
X12320182Y-13899698D01*
X12320182Y-13899698D02*
X12329705Y-13890174D01*
X12329705Y-13890174D02*
X12329705Y-13909222D01*
D12*
X10617500Y-14302500D02*
X10697500Y-14382500D01*
X10697500Y-14302500D02*
X10617500Y-14382500D01*
D11*
X10996372Y-14233984D02*
X11015420Y-14233984D01*
X11015420Y-14233984D02*
X11034467Y-14243508D01*
X11034467Y-14243508D02*
X11043991Y-14253031D01*
X11043991Y-14253031D02*
X11053515Y-14272079D01*
X11053515Y-14272079D02*
X11063039Y-14310174D01*
X11063039Y-14310174D02*
X11063039Y-14357793D01*
X11063039Y-14357793D02*
X11053515Y-14395888D01*
X11053515Y-14395888D02*
X11043991Y-14414936D01*
X11043991Y-14414936D02*
X11034467Y-14424460D01*
X11034467Y-14424460D02*
X11015420Y-14433984D01*
X11015420Y-14433984D02*
X10996372Y-14433984D01*
X10996372Y-14433984D02*
X10977324Y-14424460D01*
X10977324Y-14424460D02*
X10967801Y-14414936D01*
X10967801Y-14414936D02*
X10958277Y-14395888D01*
X10958277Y-14395888D02*
X10948753Y-14357793D01*
X10948753Y-14357793D02*
X10948753Y-14310174D01*
X10948753Y-14310174D02*
X10958277Y-14272079D01*
X10958277Y-14272079D02*
X10967801Y-14253031D01*
X10967801Y-14253031D02*
X10977324Y-14243508D01*
X10977324Y-14243508D02*
X10996372Y-14233984D01*
X11148753Y-14414936D02*
X11158277Y-14424460D01*
X11158277Y-14424460D02*
X11148753Y-14433984D01*
X11148753Y-14433984D02*
X11139229Y-14424460D01*
X11139229Y-14424460D02*
X11148753Y-14414936D01*
X11148753Y-14414936D02*
X11148753Y-14433984D01*
X11272562Y-14319698D02*
X11253515Y-14310174D01*
X11253515Y-14310174D02*
X11243991Y-14300650D01*
X11243991Y-14300650D02*
X11234467Y-14281603D01*
X11234467Y-14281603D02*
X11234467Y-14272079D01*
X11234467Y-14272079D02*
X11243991Y-14253031D01*
X11243991Y-14253031D02*
X11253515Y-14243508D01*
X11253515Y-14243508D02*
X11272562Y-14233984D01*
X11272562Y-14233984D02*
X11310658Y-14233984D01*
X11310658Y-14233984D02*
X11329705Y-14243508D01*
X11329705Y-14243508D02*
X11339229Y-14253031D01*
X11339229Y-14253031D02*
X11348753Y-14272079D01*
X11348753Y-14272079D02*
X11348753Y-14281603D01*
X11348753Y-14281603D02*
X11339229Y-14300650D01*
X11339229Y-14300650D02*
X11329705Y-14310174D01*
X11329705Y-14310174D02*
X11310658Y-14319698D01*
X11310658Y-14319698D02*
X11272562Y-14319698D01*
X11272562Y-14319698D02*
X11253515Y-14329222D01*
X11253515Y-14329222D02*
X11243991Y-14338746D01*
X11243991Y-14338746D02*
X11234467Y-14357793D01*
X11234467Y-14357793D02*
X11234467Y-14395888D01*
X11234467Y-14395888D02*
X11243991Y-14414936D01*
X11243991Y-14414936D02*
X11253515Y-14424460D01*
X11253515Y-14424460D02*
X11272562Y-14433984D01*
X11272562Y-14433984D02*
X11310658Y-14433984D01*
X11310658Y-14433984D02*
X11329705Y-14424460D01*
X11329705Y-14424460D02*
X11339229Y-14414936D01*
X11339229Y-14414936D02*
X11348753Y-14395888D01*
X11348753Y-14395888D02*
X11348753Y-14357793D01*
X11348753Y-14357793D02*
X11339229Y-14338746D01*
X11339229Y-14338746D02*
X11329705Y-14329222D01*
X11329705Y-14329222D02*
X11310658Y-14319698D01*
X11472562Y-14233984D02*
X11491610Y-14233984D01*
X11491610Y-14233984D02*
X11510658Y-14243508D01*
X11510658Y-14243508D02*
X11520182Y-14253031D01*
X11520182Y-14253031D02*
X11529705Y-14272079D01*
X11529705Y-14272079D02*
X11539229Y-14310174D01*
X11539229Y-14310174D02*
X11539229Y-14357793D01*
X11539229Y-14357793D02*
X11529705Y-14395888D01*
X11529705Y-14395888D02*
X11520182Y-14414936D01*
X11520182Y-14414936D02*
X11510658Y-14424460D01*
X11510658Y-14424460D02*
X11491610Y-14433984D01*
X11491610Y-14433984D02*
X11472562Y-14433984D01*
X11472562Y-14433984D02*
X11453515Y-14424460D01*
X11453515Y-14424460D02*
X11443991Y-14414936D01*
X11443991Y-14414936D02*
X11434467Y-14395888D01*
X11434467Y-14395888D02*
X11424943Y-14357793D01*
X11424943Y-14357793D02*
X11424943Y-14310174D01*
X11424943Y-14310174D02*
X11434467Y-14272079D01*
X11434467Y-14272079D02*
X11443991Y-14253031D01*
X11443991Y-14253031D02*
X11453515Y-14243508D01*
X11453515Y-14243508D02*
X11472562Y-14233984D01*
X11663039Y-14233984D02*
X11682086Y-14233984D01*
X11682086Y-14233984D02*
X11701134Y-14243508D01*
X11701134Y-14243508D02*
X11710658Y-14253031D01*
X11710658Y-14253031D02*
X11720182Y-14272079D01*
X11720182Y-14272079D02*
X11729705Y-14310174D01*
X11729705Y-14310174D02*
X11729705Y-14357793D01*
X11729705Y-14357793D02*
X11720182Y-14395888D01*
X11720182Y-14395888D02*
X11710658Y-14414936D01*
X11710658Y-14414936D02*
X11701134Y-14424460D01*
X11701134Y-14424460D02*
X11682086Y-14433984D01*
X11682086Y-14433984D02*
X11663039Y-14433984D01*
X11663039Y-14433984D02*
X11643991Y-14424460D01*
X11643991Y-14424460D02*
X11634467Y-14414936D01*
X11634467Y-14414936D02*
X11624943Y-14395888D01*
X11624943Y-14395888D02*
X11615420Y-14357793D01*
X11615420Y-14357793D02*
X11615420Y-14310174D01*
X11615420Y-14310174D02*
X11624943Y-14272079D01*
X11624943Y-14272079D02*
X11634467Y-14253031D01*
X11634467Y-14253031D02*
X11643991Y-14243508D01*
X11643991Y-14243508D02*
X11663039Y-14233984D01*
X11815420Y-14433984D02*
X11815420Y-14300650D01*
X11815420Y-14319698D02*
X11824943Y-14310174D01*
X11824943Y-14310174D02*
X11843991Y-14300650D01*
X11843991Y-14300650D02*
X11872563Y-14300650D01*
X11872563Y-14300650D02*
X11891610Y-14310174D01*
X11891610Y-14310174D02*
X11901134Y-14329222D01*
X11901134Y-14329222D02*
X11901134Y-14433984D01*
X11901134Y-14329222D02*
X11910658Y-14310174D01*
X11910658Y-14310174D02*
X11929705Y-14300650D01*
X11929705Y-14300650D02*
X11958277Y-14300650D01*
X11958277Y-14300650D02*
X11977324Y-14310174D01*
X11977324Y-14310174D02*
X11986848Y-14329222D01*
X11986848Y-14329222D02*
X11986848Y-14433984D01*
X12082086Y-14433984D02*
X12082086Y-14300650D01*
X12082086Y-14319698D02*
X12091610Y-14310174D01*
X12091610Y-14310174D02*
X12110658Y-14300650D01*
X12110658Y-14300650D02*
X12139229Y-14300650D01*
X12139229Y-14300650D02*
X12158277Y-14310174D01*
X12158277Y-14310174D02*
X12167801Y-14329222D01*
X12167801Y-14329222D02*
X12167801Y-14433984D01*
X12167801Y-14329222D02*
X12177324Y-14310174D01*
X12177324Y-14310174D02*
X12196372Y-14300650D01*
X12196372Y-14300650D02*
X12224943Y-14300650D01*
X12224943Y-14300650D02*
X12243991Y-14310174D01*
X12243991Y-14310174D02*
X12253515Y-14329222D01*
X12253515Y-14329222D02*
X12253515Y-14433984D01*
X12643991Y-14224460D02*
X12472563Y-14481603D01*
X12901134Y-14233984D02*
X12920182Y-14233984D01*
X12920182Y-14233984D02*
X12939229Y-14243508D01*
X12939229Y-14243508D02*
X12948753Y-14253031D01*
X12948753Y-14253031D02*
X12958277Y-14272079D01*
X12958277Y-14272079D02*
X12967801Y-14310174D01*
X12967801Y-14310174D02*
X12967801Y-14357793D01*
X12967801Y-14357793D02*
X12958277Y-14395888D01*
X12958277Y-14395888D02*
X12948753Y-14414936D01*
X12948753Y-14414936D02*
X12939229Y-14424460D01*
X12939229Y-14424460D02*
X12920182Y-14433984D01*
X12920182Y-14433984D02*
X12901134Y-14433984D01*
X12901134Y-14433984D02*
X12882086Y-14424460D01*
X12882086Y-14424460D02*
X12872563Y-14414936D01*
X12872563Y-14414936D02*
X12863039Y-14395888D01*
X12863039Y-14395888D02*
X12853515Y-14357793D01*
X12853515Y-14357793D02*
X12853515Y-14310174D01*
X12853515Y-14310174D02*
X12863039Y-14272079D01*
X12863039Y-14272079D02*
X12872563Y-14253031D01*
X12872563Y-14253031D02*
X12882086Y-14243508D01*
X12882086Y-14243508D02*
X12901134Y-14233984D01*
X13053515Y-14414936D02*
X13063039Y-14424460D01*
X13063039Y-14424460D02*
X13053515Y-14433984D01*
X13053515Y-14433984D02*
X13043991Y-14424460D01*
X13043991Y-14424460D02*
X13053515Y-14414936D01*
X13053515Y-14414936D02*
X13053515Y-14433984D01*
X13186848Y-14233984D02*
X13205896Y-14233984D01*
X13205896Y-14233984D02*
X13224944Y-14243508D01*
X13224944Y-14243508D02*
X13234467Y-14253031D01*
X13234467Y-14253031D02*
X13243991Y-14272079D01*
X13243991Y-14272079D02*
X13253515Y-14310174D01*
X13253515Y-14310174D02*
X13253515Y-14357793D01*
X13253515Y-14357793D02*
X13243991Y-14395888D01*
X13243991Y-14395888D02*
X13234467Y-14414936D01*
X13234467Y-14414936D02*
X13224944Y-14424460D01*
X13224944Y-14424460D02*
X13205896Y-14433984D01*
X13205896Y-14433984D02*
X13186848Y-14433984D01*
X13186848Y-14433984D02*
X13167801Y-14424460D01*
X13167801Y-14424460D02*
X13158277Y-14414936D01*
X13158277Y-14414936D02*
X13148753Y-14395888D01*
X13148753Y-14395888D02*
X13139229Y-14357793D01*
X13139229Y-14357793D02*
X13139229Y-14310174D01*
X13139229Y-14310174D02*
X13148753Y-14272079D01*
X13148753Y-14272079D02*
X13158277Y-14253031D01*
X13158277Y-14253031D02*
X13167801Y-14243508D01*
X13167801Y-14243508D02*
X13186848Y-14233984D01*
X13320182Y-14233984D02*
X13443991Y-14233984D01*
X13443991Y-14233984D02*
X13377325Y-14310174D01*
X13377325Y-14310174D02*
X13405896Y-14310174D01*
X13405896Y-14310174D02*
X13424944Y-14319698D01*
X13424944Y-14319698D02*
X13434467Y-14329222D01*
X13434467Y-14329222D02*
X13443991Y-14348269D01*
X13443991Y-14348269D02*
X13443991Y-14395888D01*
X13443991Y-14395888D02*
X13434467Y-14414936D01*
X13434467Y-14414936D02*
X13424944Y-14424460D01*
X13424944Y-14424460D02*
X13405896Y-14433984D01*
X13405896Y-14433984D02*
X13348753Y-14433984D01*
X13348753Y-14433984D02*
X13329706Y-14424460D01*
X13329706Y-14424460D02*
X13320182Y-14414936D01*
X13634467Y-14433984D02*
X13520182Y-14433984D01*
X13577325Y-14433984D02*
X13577325Y-14233984D01*
X13577325Y-14233984D02*
X13558277Y-14262555D01*
X13558277Y-14262555D02*
X13539229Y-14281603D01*
X13539229Y-14281603D02*
X13520182Y-14291127D01*
X13815420Y-14233984D02*
X13720182Y-14233984D01*
X13720182Y-14233984D02*
X13710658Y-14329222D01*
X13710658Y-14329222D02*
X13720182Y-14319698D01*
X13720182Y-14319698D02*
X13739229Y-14310174D01*
X13739229Y-14310174D02*
X13786848Y-14310174D01*
X13786848Y-14310174D02*
X13805896Y-14319698D01*
X13805896Y-14319698D02*
X13815420Y-14329222D01*
X13815420Y-14329222D02*
X13824944Y-14348269D01*
X13824944Y-14348269D02*
X13824944Y-14395888D01*
X13824944Y-14395888D02*
X13815420Y-14414936D01*
X13815420Y-14414936D02*
X13805896Y-14424460D01*
X13805896Y-14424460D02*
X13786848Y-14433984D01*
X13786848Y-14433984D02*
X13739229Y-14433984D01*
X13739229Y-14433984D02*
X13720182Y-14424460D01*
X13720182Y-14424460D02*
X13710658Y-14414936D01*
X13901134Y-14233984D02*
X13901134Y-14272079D01*
X13977325Y-14233984D02*
X13977325Y-14272079D01*
X14272563Y-14510174D02*
X14263039Y-14500650D01*
X14263039Y-14500650D02*
X14243991Y-14472079D01*
X14243991Y-14472079D02*
X14234468Y-14453031D01*
X14234468Y-14453031D02*
X14224944Y-14424460D01*
X14224944Y-14424460D02*
X14215420Y-14376841D01*
X14215420Y-14376841D02*
X14215420Y-14338746D01*
X14215420Y-14338746D02*
X14224944Y-14291127D01*
X14224944Y-14291127D02*
X14234468Y-14262555D01*
X14234468Y-14262555D02*
X14243991Y-14243508D01*
X14243991Y-14243508D02*
X14263039Y-14214936D01*
X14263039Y-14214936D02*
X14272563Y-14205412D01*
X14434468Y-14233984D02*
X14396372Y-14233984D01*
X14396372Y-14233984D02*
X14377325Y-14243508D01*
X14377325Y-14243508D02*
X14367801Y-14253031D01*
X14367801Y-14253031D02*
X14348753Y-14281603D01*
X14348753Y-14281603D02*
X14339229Y-14319698D01*
X14339229Y-14319698D02*
X14339229Y-14395888D01*
X14339229Y-14395888D02*
X14348753Y-14414936D01*
X14348753Y-14414936D02*
X14358277Y-14424460D01*
X14358277Y-14424460D02*
X14377325Y-14433984D01*
X14377325Y-14433984D02*
X14415420Y-14433984D01*
X14415420Y-14433984D02*
X14434468Y-14424460D01*
X14434468Y-14424460D02*
X14443991Y-14414936D01*
X14443991Y-14414936D02*
X14453515Y-14395888D01*
X14453515Y-14395888D02*
X14453515Y-14348269D01*
X14453515Y-14348269D02*
X14443991Y-14329222D01*
X14443991Y-14329222D02*
X14434468Y-14319698D01*
X14434468Y-14319698D02*
X14415420Y-14310174D01*
X14415420Y-14310174D02*
X14377325Y-14310174D01*
X14377325Y-14310174D02*
X14358277Y-14319698D01*
X14358277Y-14319698D02*
X14348753Y-14329222D01*
X14348753Y-14329222D02*
X14339229Y-14348269D01*
X14691610Y-14433984D02*
X14691610Y-14233984D01*
X14777325Y-14433984D02*
X14777325Y-14329222D01*
X14777325Y-14329222D02*
X14767801Y-14310174D01*
X14767801Y-14310174D02*
X14748753Y-14300650D01*
X14748753Y-14300650D02*
X14720182Y-14300650D01*
X14720182Y-14300650D02*
X14701134Y-14310174D01*
X14701134Y-14310174D02*
X14691610Y-14319698D01*
X14901134Y-14433984D02*
X14882087Y-14424460D01*
X14882087Y-14424460D02*
X14872563Y-14414936D01*
X14872563Y-14414936D02*
X14863039Y-14395888D01*
X14863039Y-14395888D02*
X14863039Y-14338746D01*
X14863039Y-14338746D02*
X14872563Y-14319698D01*
X14872563Y-14319698D02*
X14882087Y-14310174D01*
X14882087Y-14310174D02*
X14901134Y-14300650D01*
X14901134Y-14300650D02*
X14929706Y-14300650D01*
X14929706Y-14300650D02*
X14948753Y-14310174D01*
X14948753Y-14310174D02*
X14958277Y-14319698D01*
X14958277Y-14319698D02*
X14967801Y-14338746D01*
X14967801Y-14338746D02*
X14967801Y-14395888D01*
X14967801Y-14395888D02*
X14958277Y-14414936D01*
X14958277Y-14414936D02*
X14948753Y-14424460D01*
X14948753Y-14424460D02*
X14929706Y-14433984D01*
X14929706Y-14433984D02*
X14901134Y-14433984D01*
X15082087Y-14433984D02*
X15063039Y-14424460D01*
X15063039Y-14424460D02*
X15053515Y-14405412D01*
X15053515Y-14405412D02*
X15053515Y-14233984D01*
X15234468Y-14424460D02*
X15215420Y-14433984D01*
X15215420Y-14433984D02*
X15177325Y-14433984D01*
X15177325Y-14433984D02*
X15158277Y-14424460D01*
X15158277Y-14424460D02*
X15148753Y-14405412D01*
X15148753Y-14405412D02*
X15148753Y-14329222D01*
X15148753Y-14329222D02*
X15158277Y-14310174D01*
X15158277Y-14310174D02*
X15177325Y-14300650D01*
X15177325Y-14300650D02*
X15215420Y-14300650D01*
X15215420Y-14300650D02*
X15234468Y-14310174D01*
X15234468Y-14310174D02*
X15243991Y-14329222D01*
X15243991Y-14329222D02*
X15243991Y-14348269D01*
X15243991Y-14348269D02*
X15148753Y-14367317D01*
X15320182Y-14424460D02*
X15339230Y-14433984D01*
X15339230Y-14433984D02*
X15377325Y-14433984D01*
X15377325Y-14433984D02*
X15396372Y-14424460D01*
X15396372Y-14424460D02*
X15405896Y-14405412D01*
X15405896Y-14405412D02*
X15405896Y-14395888D01*
X15405896Y-14395888D02*
X15396372Y-14376841D01*
X15396372Y-14376841D02*
X15377325Y-14367317D01*
X15377325Y-14367317D02*
X15348753Y-14367317D01*
X15348753Y-14367317D02*
X15329706Y-14357793D01*
X15329706Y-14357793D02*
X15320182Y-14338746D01*
X15320182Y-14338746D02*
X15320182Y-14329222D01*
X15320182Y-14329222D02*
X15329706Y-14310174D01*
X15329706Y-14310174D02*
X15348753Y-14300650D01*
X15348753Y-14300650D02*
X15377325Y-14300650D01*
X15377325Y-14300650D02*
X15396372Y-14310174D01*
X15472563Y-14510174D02*
X15482087Y-14500650D01*
X15482087Y-14500650D02*
X15501134Y-14472079D01*
X15501134Y-14472079D02*
X15510658Y-14453031D01*
X15510658Y-14453031D02*
X15520182Y-14424460D01*
X15520182Y-14424460D02*
X15529706Y-14376841D01*
X15529706Y-14376841D02*
X15529706Y-14338746D01*
X15529706Y-14338746D02*
X15520182Y-14291127D01*
X15520182Y-14291127D02*
X15510658Y-14262555D01*
X15510658Y-14262555D02*
X15501134Y-14243508D01*
X15501134Y-14243508D02*
X15482087Y-14214936D01*
X15482087Y-14214936D02*
X15472563Y-14205412D01*
D12*
X10697500Y-14606500D02*
G75*
G02*
X10607500Y-14606500I-45000J0D01*
G01*
X10607500Y-14606500D02*
G75*
G02*
X10697500Y-14606500I45000J0D01*
G01*
D11*
X10996372Y-14497984D02*
X11015420Y-14497984D01*
X11015420Y-14497984D02*
X11034467Y-14507508D01*
X11034467Y-14507508D02*
X11043991Y-14517031D01*
X11043991Y-14517031D02*
X11053515Y-14536079D01*
X11053515Y-14536079D02*
X11063039Y-14574174D01*
X11063039Y-14574174D02*
X11063039Y-14621793D01*
X11063039Y-14621793D02*
X11053515Y-14659888D01*
X11053515Y-14659888D02*
X11043991Y-14678936D01*
X11043991Y-14678936D02*
X11034467Y-14688460D01*
X11034467Y-14688460D02*
X11015420Y-14697984D01*
X11015420Y-14697984D02*
X10996372Y-14697984D01*
X10996372Y-14697984D02*
X10977324Y-14688460D01*
X10977324Y-14688460D02*
X10967801Y-14678936D01*
X10967801Y-14678936D02*
X10958277Y-14659888D01*
X10958277Y-14659888D02*
X10948753Y-14621793D01*
X10948753Y-14621793D02*
X10948753Y-14574174D01*
X10948753Y-14574174D02*
X10958277Y-14536079D01*
X10958277Y-14536079D02*
X10967801Y-14517031D01*
X10967801Y-14517031D02*
X10977324Y-14507508D01*
X10977324Y-14507508D02*
X10996372Y-14497984D01*
X11148753Y-14678936D02*
X11158277Y-14688460D01*
X11158277Y-14688460D02*
X11148753Y-14697984D01*
X11148753Y-14697984D02*
X11139229Y-14688460D01*
X11139229Y-14688460D02*
X11148753Y-14678936D01*
X11148753Y-14678936D02*
X11148753Y-14697984D01*
X11253515Y-14697984D02*
X11291610Y-14697984D01*
X11291610Y-14697984D02*
X11310658Y-14688460D01*
X11310658Y-14688460D02*
X11320182Y-14678936D01*
X11320182Y-14678936D02*
X11339229Y-14650365D01*
X11339229Y-14650365D02*
X11348753Y-14612269D01*
X11348753Y-14612269D02*
X11348753Y-14536079D01*
X11348753Y-14536079D02*
X11339229Y-14517031D01*
X11339229Y-14517031D02*
X11329705Y-14507508D01*
X11329705Y-14507508D02*
X11310658Y-14497984D01*
X11310658Y-14497984D02*
X11272562Y-14497984D01*
X11272562Y-14497984D02*
X11253515Y-14507508D01*
X11253515Y-14507508D02*
X11243991Y-14517031D01*
X11243991Y-14517031D02*
X11234467Y-14536079D01*
X11234467Y-14536079D02*
X11234467Y-14583698D01*
X11234467Y-14583698D02*
X11243991Y-14602746D01*
X11243991Y-14602746D02*
X11253515Y-14612269D01*
X11253515Y-14612269D02*
X11272562Y-14621793D01*
X11272562Y-14621793D02*
X11310658Y-14621793D01*
X11310658Y-14621793D02*
X11329705Y-14612269D01*
X11329705Y-14612269D02*
X11339229Y-14602746D01*
X11339229Y-14602746D02*
X11348753Y-14583698D01*
X11472562Y-14497984D02*
X11491610Y-14497984D01*
X11491610Y-14497984D02*
X11510658Y-14507508D01*
X11510658Y-14507508D02*
X11520182Y-14517031D01*
X11520182Y-14517031D02*
X11529705Y-14536079D01*
X11529705Y-14536079D02*
X11539229Y-14574174D01*
X11539229Y-14574174D02*
X11539229Y-14621793D01*
X11539229Y-14621793D02*
X11529705Y-14659888D01*
X11529705Y-14659888D02*
X11520182Y-14678936D01*
X11520182Y-14678936D02*
X11510658Y-14688460D01*
X11510658Y-14688460D02*
X11491610Y-14697984D01*
X11491610Y-14697984D02*
X11472562Y-14697984D01*
X11472562Y-14697984D02*
X11453515Y-14688460D01*
X11453515Y-14688460D02*
X11443991Y-14678936D01*
X11443991Y-14678936D02*
X11434467Y-14659888D01*
X11434467Y-14659888D02*
X11424943Y-14621793D01*
X11424943Y-14621793D02*
X11424943Y-14574174D01*
X11424943Y-14574174D02*
X11434467Y-14536079D01*
X11434467Y-14536079D02*
X11443991Y-14517031D01*
X11443991Y-14517031D02*
X11453515Y-14507508D01*
X11453515Y-14507508D02*
X11472562Y-14497984D01*
X11663039Y-14497984D02*
X11682086Y-14497984D01*
X11682086Y-14497984D02*
X11701134Y-14507508D01*
X11701134Y-14507508D02*
X11710658Y-14517031D01*
X11710658Y-14517031D02*
X11720182Y-14536079D01*
X11720182Y-14536079D02*
X11729705Y-14574174D01*
X11729705Y-14574174D02*
X11729705Y-14621793D01*
X11729705Y-14621793D02*
X11720182Y-14659888D01*
X11720182Y-14659888D02*
X11710658Y-14678936D01*
X11710658Y-14678936D02*
X11701134Y-14688460D01*
X11701134Y-14688460D02*
X11682086Y-14697984D01*
X11682086Y-14697984D02*
X11663039Y-14697984D01*
X11663039Y-14697984D02*
X11643991Y-14688460D01*
X11643991Y-14688460D02*
X11634467Y-14678936D01*
X11634467Y-14678936D02*
X11624943Y-14659888D01*
X11624943Y-14659888D02*
X11615420Y-14621793D01*
X11615420Y-14621793D02*
X11615420Y-14574174D01*
X11615420Y-14574174D02*
X11624943Y-14536079D01*
X11624943Y-14536079D02*
X11634467Y-14517031D01*
X11634467Y-14517031D02*
X11643991Y-14507508D01*
X11643991Y-14507508D02*
X11663039Y-14497984D01*
X11815420Y-14697984D02*
X11815420Y-14564650D01*
X11815420Y-14583698D02*
X11824943Y-14574174D01*
X11824943Y-14574174D02*
X11843991Y-14564650D01*
X11843991Y-14564650D02*
X11872563Y-14564650D01*
X11872563Y-14564650D02*
X11891610Y-14574174D01*
X11891610Y-14574174D02*
X11901134Y-14593222D01*
X11901134Y-14593222D02*
X11901134Y-14697984D01*
X11901134Y-14593222D02*
X11910658Y-14574174D01*
X11910658Y-14574174D02*
X11929705Y-14564650D01*
X11929705Y-14564650D02*
X11958277Y-14564650D01*
X11958277Y-14564650D02*
X11977324Y-14574174D01*
X11977324Y-14574174D02*
X11986848Y-14593222D01*
X11986848Y-14593222D02*
X11986848Y-14697984D01*
X12082086Y-14697984D02*
X12082086Y-14564650D01*
X12082086Y-14583698D02*
X12091610Y-14574174D01*
X12091610Y-14574174D02*
X12110658Y-14564650D01*
X12110658Y-14564650D02*
X12139229Y-14564650D01*
X12139229Y-14564650D02*
X12158277Y-14574174D01*
X12158277Y-14574174D02*
X12167801Y-14593222D01*
X12167801Y-14593222D02*
X12167801Y-14697984D01*
X12167801Y-14593222D02*
X12177324Y-14574174D01*
X12177324Y-14574174D02*
X12196372Y-14564650D01*
X12196372Y-14564650D02*
X12224943Y-14564650D01*
X12224943Y-14564650D02*
X12243991Y-14574174D01*
X12243991Y-14574174D02*
X12253515Y-14593222D01*
X12253515Y-14593222D02*
X12253515Y-14697984D01*
X12643991Y-14488460D02*
X12472563Y-14745603D01*
X12901134Y-14497984D02*
X12920182Y-14497984D01*
X12920182Y-14497984D02*
X12939229Y-14507508D01*
X12939229Y-14507508D02*
X12948753Y-14517031D01*
X12948753Y-14517031D02*
X12958277Y-14536079D01*
X12958277Y-14536079D02*
X12967801Y-14574174D01*
X12967801Y-14574174D02*
X12967801Y-14621793D01*
X12967801Y-14621793D02*
X12958277Y-14659888D01*
X12958277Y-14659888D02*
X12948753Y-14678936D01*
X12948753Y-14678936D02*
X12939229Y-14688460D01*
X12939229Y-14688460D02*
X12920182Y-14697984D01*
X12920182Y-14697984D02*
X12901134Y-14697984D01*
X12901134Y-14697984D02*
X12882086Y-14688460D01*
X12882086Y-14688460D02*
X12872563Y-14678936D01*
X12872563Y-14678936D02*
X12863039Y-14659888D01*
X12863039Y-14659888D02*
X12853515Y-14621793D01*
X12853515Y-14621793D02*
X12853515Y-14574174D01*
X12853515Y-14574174D02*
X12863039Y-14536079D01*
X12863039Y-14536079D02*
X12872563Y-14517031D01*
X12872563Y-14517031D02*
X12882086Y-14507508D01*
X12882086Y-14507508D02*
X12901134Y-14497984D01*
X13053515Y-14678936D02*
X13063039Y-14688460D01*
X13063039Y-14688460D02*
X13053515Y-14697984D01*
X13053515Y-14697984D02*
X13043991Y-14688460D01*
X13043991Y-14688460D02*
X13053515Y-14678936D01*
X13053515Y-14678936D02*
X13053515Y-14697984D01*
X13186848Y-14497984D02*
X13205896Y-14497984D01*
X13205896Y-14497984D02*
X13224944Y-14507508D01*
X13224944Y-14507508D02*
X13234467Y-14517031D01*
X13234467Y-14517031D02*
X13243991Y-14536079D01*
X13243991Y-14536079D02*
X13253515Y-14574174D01*
X13253515Y-14574174D02*
X13253515Y-14621793D01*
X13253515Y-14621793D02*
X13243991Y-14659888D01*
X13243991Y-14659888D02*
X13234467Y-14678936D01*
X13234467Y-14678936D02*
X13224944Y-14688460D01*
X13224944Y-14688460D02*
X13205896Y-14697984D01*
X13205896Y-14697984D02*
X13186848Y-14697984D01*
X13186848Y-14697984D02*
X13167801Y-14688460D01*
X13167801Y-14688460D02*
X13158277Y-14678936D01*
X13158277Y-14678936D02*
X13148753Y-14659888D01*
X13148753Y-14659888D02*
X13139229Y-14621793D01*
X13139229Y-14621793D02*
X13139229Y-14574174D01*
X13139229Y-14574174D02*
X13148753Y-14536079D01*
X13148753Y-14536079D02*
X13158277Y-14517031D01*
X13158277Y-14517031D02*
X13167801Y-14507508D01*
X13167801Y-14507508D02*
X13186848Y-14497984D01*
X13320182Y-14497984D02*
X13443991Y-14497984D01*
X13443991Y-14497984D02*
X13377325Y-14574174D01*
X13377325Y-14574174D02*
X13405896Y-14574174D01*
X13405896Y-14574174D02*
X13424944Y-14583698D01*
X13424944Y-14583698D02*
X13434467Y-14593222D01*
X13434467Y-14593222D02*
X13443991Y-14612269D01*
X13443991Y-14612269D02*
X13443991Y-14659888D01*
X13443991Y-14659888D02*
X13434467Y-14678936D01*
X13434467Y-14678936D02*
X13424944Y-14688460D01*
X13424944Y-14688460D02*
X13405896Y-14697984D01*
X13405896Y-14697984D02*
X13348753Y-14697984D01*
X13348753Y-14697984D02*
X13329706Y-14688460D01*
X13329706Y-14688460D02*
X13320182Y-14678936D01*
X13624944Y-14497984D02*
X13529706Y-14497984D01*
X13529706Y-14497984D02*
X13520182Y-14593222D01*
X13520182Y-14593222D02*
X13529706Y-14583698D01*
X13529706Y-14583698D02*
X13548753Y-14574174D01*
X13548753Y-14574174D02*
X13596372Y-14574174D01*
X13596372Y-14574174D02*
X13615420Y-14583698D01*
X13615420Y-14583698D02*
X13624944Y-14593222D01*
X13624944Y-14593222D02*
X13634467Y-14612269D01*
X13634467Y-14612269D02*
X13634467Y-14659888D01*
X13634467Y-14659888D02*
X13624944Y-14678936D01*
X13624944Y-14678936D02*
X13615420Y-14688460D01*
X13615420Y-14688460D02*
X13596372Y-14697984D01*
X13596372Y-14697984D02*
X13548753Y-14697984D01*
X13548753Y-14697984D02*
X13529706Y-14688460D01*
X13529706Y-14688460D02*
X13520182Y-14678936D01*
X13805896Y-14564650D02*
X13805896Y-14697984D01*
X13758277Y-14488460D02*
X13710658Y-14631317D01*
X13710658Y-14631317D02*
X13834467Y-14631317D01*
X13901134Y-14497984D02*
X13901134Y-14536079D01*
X13977325Y-14497984D02*
X13977325Y-14536079D01*
X14272563Y-14774174D02*
X14263039Y-14764650D01*
X14263039Y-14764650D02*
X14243991Y-14736079D01*
X14243991Y-14736079D02*
X14234468Y-14717031D01*
X14234468Y-14717031D02*
X14224944Y-14688460D01*
X14224944Y-14688460D02*
X14215420Y-14640841D01*
X14215420Y-14640841D02*
X14215420Y-14602746D01*
X14215420Y-14602746D02*
X14224944Y-14555127D01*
X14224944Y-14555127D02*
X14234468Y-14526555D01*
X14234468Y-14526555D02*
X14243991Y-14507508D01*
X14243991Y-14507508D02*
X14263039Y-14478936D01*
X14263039Y-14478936D02*
X14272563Y-14469412D01*
X14434468Y-14497984D02*
X14396372Y-14497984D01*
X14396372Y-14497984D02*
X14377325Y-14507508D01*
X14377325Y-14507508D02*
X14367801Y-14517031D01*
X14367801Y-14517031D02*
X14348753Y-14545603D01*
X14348753Y-14545603D02*
X14339229Y-14583698D01*
X14339229Y-14583698D02*
X14339229Y-14659888D01*
X14339229Y-14659888D02*
X14348753Y-14678936D01*
X14348753Y-14678936D02*
X14358277Y-14688460D01*
X14358277Y-14688460D02*
X14377325Y-14697984D01*
X14377325Y-14697984D02*
X14415420Y-14697984D01*
X14415420Y-14697984D02*
X14434468Y-14688460D01*
X14434468Y-14688460D02*
X14443991Y-14678936D01*
X14443991Y-14678936D02*
X14453515Y-14659888D01*
X14453515Y-14659888D02*
X14453515Y-14612269D01*
X14453515Y-14612269D02*
X14443991Y-14593222D01*
X14443991Y-14593222D02*
X14434468Y-14583698D01*
X14434468Y-14583698D02*
X14415420Y-14574174D01*
X14415420Y-14574174D02*
X14377325Y-14574174D01*
X14377325Y-14574174D02*
X14358277Y-14583698D01*
X14358277Y-14583698D02*
X14348753Y-14593222D01*
X14348753Y-14593222D02*
X14339229Y-14612269D01*
X14691610Y-14697984D02*
X14691610Y-14497984D01*
X14777325Y-14697984D02*
X14777325Y-14593222D01*
X14777325Y-14593222D02*
X14767801Y-14574174D01*
X14767801Y-14574174D02*
X14748753Y-14564650D01*
X14748753Y-14564650D02*
X14720182Y-14564650D01*
X14720182Y-14564650D02*
X14701134Y-14574174D01*
X14701134Y-14574174D02*
X14691610Y-14583698D01*
X14901134Y-14697984D02*
X14882087Y-14688460D01*
X14882087Y-14688460D02*
X14872563Y-14678936D01*
X14872563Y-14678936D02*
X14863039Y-14659888D01*
X14863039Y-14659888D02*
X14863039Y-14602746D01*
X14863039Y-14602746D02*
X14872563Y-14583698D01*
X14872563Y-14583698D02*
X14882087Y-14574174D01*
X14882087Y-14574174D02*
X14901134Y-14564650D01*
X14901134Y-14564650D02*
X14929706Y-14564650D01*
X14929706Y-14564650D02*
X14948753Y-14574174D01*
X14948753Y-14574174D02*
X14958277Y-14583698D01*
X14958277Y-14583698D02*
X14967801Y-14602746D01*
X14967801Y-14602746D02*
X14967801Y-14659888D01*
X14967801Y-14659888D02*
X14958277Y-14678936D01*
X14958277Y-14678936D02*
X14948753Y-14688460D01*
X14948753Y-14688460D02*
X14929706Y-14697984D01*
X14929706Y-14697984D02*
X14901134Y-14697984D01*
X15082087Y-14697984D02*
X15063039Y-14688460D01*
X15063039Y-14688460D02*
X15053515Y-14669412D01*
X15053515Y-14669412D02*
X15053515Y-14497984D01*
X15234468Y-14688460D02*
X15215420Y-14697984D01*
X15215420Y-14697984D02*
X15177325Y-14697984D01*
X15177325Y-14697984D02*
X15158277Y-14688460D01*
X15158277Y-14688460D02*
X15148753Y-14669412D01*
X15148753Y-14669412D02*
X15148753Y-14593222D01*
X15148753Y-14593222D02*
X15158277Y-14574174D01*
X15158277Y-14574174D02*
X15177325Y-14564650D01*
X15177325Y-14564650D02*
X15215420Y-14564650D01*
X15215420Y-14564650D02*
X15234468Y-14574174D01*
X15234468Y-14574174D02*
X15243991Y-14593222D01*
X15243991Y-14593222D02*
X15243991Y-14612269D01*
X15243991Y-14612269D02*
X15148753Y-14631317D01*
X15320182Y-14688460D02*
X15339230Y-14697984D01*
X15339230Y-14697984D02*
X15377325Y-14697984D01*
X15377325Y-14697984D02*
X15396372Y-14688460D01*
X15396372Y-14688460D02*
X15405896Y-14669412D01*
X15405896Y-14669412D02*
X15405896Y-14659888D01*
X15405896Y-14659888D02*
X15396372Y-14640841D01*
X15396372Y-14640841D02*
X15377325Y-14631317D01*
X15377325Y-14631317D02*
X15348753Y-14631317D01*
X15348753Y-14631317D02*
X15329706Y-14621793D01*
X15329706Y-14621793D02*
X15320182Y-14602746D01*
X15320182Y-14602746D02*
X15320182Y-14593222D01*
X15320182Y-14593222D02*
X15329706Y-14574174D01*
X15329706Y-14574174D02*
X15348753Y-14564650D01*
X15348753Y-14564650D02*
X15377325Y-14564650D01*
X15377325Y-14564650D02*
X15396372Y-14574174D01*
X15472563Y-14774174D02*
X15482087Y-14764650D01*
X15482087Y-14764650D02*
X15501134Y-14736079D01*
X15501134Y-14736079D02*
X15510658Y-14717031D01*
X15510658Y-14717031D02*
X15520182Y-14688460D01*
X15520182Y-14688460D02*
X15529706Y-14640841D01*
X15529706Y-14640841D02*
X15529706Y-14602746D01*
X15529706Y-14602746D02*
X15520182Y-14555127D01*
X15520182Y-14555127D02*
X15510658Y-14526555D01*
X15510658Y-14526555D02*
X15501134Y-14507508D01*
X15501134Y-14507508D02*
X15482087Y-14478936D01*
X15482087Y-14478936D02*
X15472563Y-14469412D01*
D13*
X10642500Y-14815500D02*
X10642500Y-14925500D01*
X10587500Y-14870500D02*
X10697500Y-14870500D01*
D11*
X11063039Y-14961984D02*
X10948753Y-14961984D01*
X11005896Y-14961984D02*
X11005896Y-14761984D01*
X11005896Y-14761984D02*
X10986848Y-14790555D01*
X10986848Y-14790555D02*
X10967801Y-14809603D01*
X10967801Y-14809603D02*
X10948753Y-14819127D01*
X11148753Y-14942936D02*
X11158277Y-14952460D01*
X11158277Y-14952460D02*
X11148753Y-14961984D01*
X11148753Y-14961984D02*
X11139229Y-14952460D01*
X11139229Y-14952460D02*
X11148753Y-14942936D01*
X11148753Y-14942936D02*
X11148753Y-14961984D01*
X11348753Y-14961984D02*
X11234467Y-14961984D01*
X11291610Y-14961984D02*
X11291610Y-14761984D01*
X11291610Y-14761984D02*
X11272562Y-14790555D01*
X11272562Y-14790555D02*
X11253515Y-14809603D01*
X11253515Y-14809603D02*
X11234467Y-14819127D01*
X11472562Y-14761984D02*
X11491610Y-14761984D01*
X11491610Y-14761984D02*
X11510658Y-14771508D01*
X11510658Y-14771508D02*
X11520182Y-14781031D01*
X11520182Y-14781031D02*
X11529705Y-14800079D01*
X11529705Y-14800079D02*
X11539229Y-14838174D01*
X11539229Y-14838174D02*
X11539229Y-14885793D01*
X11539229Y-14885793D02*
X11529705Y-14923888D01*
X11529705Y-14923888D02*
X11520182Y-14942936D01*
X11520182Y-14942936D02*
X11510658Y-14952460D01*
X11510658Y-14952460D02*
X11491610Y-14961984D01*
X11491610Y-14961984D02*
X11472562Y-14961984D01*
X11472562Y-14961984D02*
X11453515Y-14952460D01*
X11453515Y-14952460D02*
X11443991Y-14942936D01*
X11443991Y-14942936D02*
X11434467Y-14923888D01*
X11434467Y-14923888D02*
X11424943Y-14885793D01*
X11424943Y-14885793D02*
X11424943Y-14838174D01*
X11424943Y-14838174D02*
X11434467Y-14800079D01*
X11434467Y-14800079D02*
X11443991Y-14781031D01*
X11443991Y-14781031D02*
X11453515Y-14771508D01*
X11453515Y-14771508D02*
X11472562Y-14761984D01*
X11663039Y-14761984D02*
X11682086Y-14761984D01*
X11682086Y-14761984D02*
X11701134Y-14771508D01*
X11701134Y-14771508D02*
X11710658Y-14781031D01*
X11710658Y-14781031D02*
X11720182Y-14800079D01*
X11720182Y-14800079D02*
X11729705Y-14838174D01*
X11729705Y-14838174D02*
X11729705Y-14885793D01*
X11729705Y-14885793D02*
X11720182Y-14923888D01*
X11720182Y-14923888D02*
X11710658Y-14942936D01*
X11710658Y-14942936D02*
X11701134Y-14952460D01*
X11701134Y-14952460D02*
X11682086Y-14961984D01*
X11682086Y-14961984D02*
X11663039Y-14961984D01*
X11663039Y-14961984D02*
X11643991Y-14952460D01*
X11643991Y-14952460D02*
X11634467Y-14942936D01*
X11634467Y-14942936D02*
X11624943Y-14923888D01*
X11624943Y-14923888D02*
X11615420Y-14885793D01*
X11615420Y-14885793D02*
X11615420Y-14838174D01*
X11615420Y-14838174D02*
X11624943Y-14800079D01*
X11624943Y-14800079D02*
X11634467Y-14781031D01*
X11634467Y-14781031D02*
X11643991Y-14771508D01*
X11643991Y-14771508D02*
X11663039Y-14761984D01*
X11815420Y-14961984D02*
X11815420Y-14828650D01*
X11815420Y-14847698D02*
X11824943Y-14838174D01*
X11824943Y-14838174D02*
X11843991Y-14828650D01*
X11843991Y-14828650D02*
X11872563Y-14828650D01*
X11872563Y-14828650D02*
X11891610Y-14838174D01*
X11891610Y-14838174D02*
X11901134Y-14857222D01*
X11901134Y-14857222D02*
X11901134Y-14961984D01*
X11901134Y-14857222D02*
X11910658Y-14838174D01*
X11910658Y-14838174D02*
X11929705Y-14828650D01*
X11929705Y-14828650D02*
X11958277Y-14828650D01*
X11958277Y-14828650D02*
X11977324Y-14838174D01*
X11977324Y-14838174D02*
X11986848Y-14857222D01*
X11986848Y-14857222D02*
X11986848Y-14961984D01*
X12082086Y-14961984D02*
X12082086Y-14828650D01*
X12082086Y-14847698D02*
X12091610Y-14838174D01*
X12091610Y-14838174D02*
X12110658Y-14828650D01*
X12110658Y-14828650D02*
X12139229Y-14828650D01*
X12139229Y-14828650D02*
X12158277Y-14838174D01*
X12158277Y-14838174D02*
X12167801Y-14857222D01*
X12167801Y-14857222D02*
X12167801Y-14961984D01*
X12167801Y-14857222D02*
X12177324Y-14838174D01*
X12177324Y-14838174D02*
X12196372Y-14828650D01*
X12196372Y-14828650D02*
X12224943Y-14828650D01*
X12224943Y-14828650D02*
X12243991Y-14838174D01*
X12243991Y-14838174D02*
X12253515Y-14857222D01*
X12253515Y-14857222D02*
X12253515Y-14961984D01*
X12643991Y-14752460D02*
X12472563Y-15009603D01*
X12901134Y-14761984D02*
X12920182Y-14761984D01*
X12920182Y-14761984D02*
X12939229Y-14771508D01*
X12939229Y-14771508D02*
X12948753Y-14781031D01*
X12948753Y-14781031D02*
X12958277Y-14800079D01*
X12958277Y-14800079D02*
X12967801Y-14838174D01*
X12967801Y-14838174D02*
X12967801Y-14885793D01*
X12967801Y-14885793D02*
X12958277Y-14923888D01*
X12958277Y-14923888D02*
X12948753Y-14942936D01*
X12948753Y-14942936D02*
X12939229Y-14952460D01*
X12939229Y-14952460D02*
X12920182Y-14961984D01*
X12920182Y-14961984D02*
X12901134Y-14961984D01*
X12901134Y-14961984D02*
X12882086Y-14952460D01*
X12882086Y-14952460D02*
X12872563Y-14942936D01*
X12872563Y-14942936D02*
X12863039Y-14923888D01*
X12863039Y-14923888D02*
X12853515Y-14885793D01*
X12853515Y-14885793D02*
X12853515Y-14838174D01*
X12853515Y-14838174D02*
X12863039Y-14800079D01*
X12863039Y-14800079D02*
X12872563Y-14781031D01*
X12872563Y-14781031D02*
X12882086Y-14771508D01*
X12882086Y-14771508D02*
X12901134Y-14761984D01*
X13053515Y-14942936D02*
X13063039Y-14952460D01*
X13063039Y-14952460D02*
X13053515Y-14961984D01*
X13053515Y-14961984D02*
X13043991Y-14952460D01*
X13043991Y-14952460D02*
X13053515Y-14942936D01*
X13053515Y-14942936D02*
X13053515Y-14961984D01*
X13186848Y-14761984D02*
X13205896Y-14761984D01*
X13205896Y-14761984D02*
X13224944Y-14771508D01*
X13224944Y-14771508D02*
X13234467Y-14781031D01*
X13234467Y-14781031D02*
X13243991Y-14800079D01*
X13243991Y-14800079D02*
X13253515Y-14838174D01*
X13253515Y-14838174D02*
X13253515Y-14885793D01*
X13253515Y-14885793D02*
X13243991Y-14923888D01*
X13243991Y-14923888D02*
X13234467Y-14942936D01*
X13234467Y-14942936D02*
X13224944Y-14952460D01*
X13224944Y-14952460D02*
X13205896Y-14961984D01*
X13205896Y-14961984D02*
X13186848Y-14961984D01*
X13186848Y-14961984D02*
X13167801Y-14952460D01*
X13167801Y-14952460D02*
X13158277Y-14942936D01*
X13158277Y-14942936D02*
X13148753Y-14923888D01*
X13148753Y-14923888D02*
X13139229Y-14885793D01*
X13139229Y-14885793D02*
X13139229Y-14838174D01*
X13139229Y-14838174D02*
X13148753Y-14800079D01*
X13148753Y-14800079D02*
X13158277Y-14781031D01*
X13158277Y-14781031D02*
X13167801Y-14771508D01*
X13167801Y-14771508D02*
X13186848Y-14761984D01*
X13424944Y-14828650D02*
X13424944Y-14961984D01*
X13377325Y-14752460D02*
X13329706Y-14895317D01*
X13329706Y-14895317D02*
X13453515Y-14895317D01*
X13510658Y-14761984D02*
X13634467Y-14761984D01*
X13634467Y-14761984D02*
X13567801Y-14838174D01*
X13567801Y-14838174D02*
X13596372Y-14838174D01*
X13596372Y-14838174D02*
X13615420Y-14847698D01*
X13615420Y-14847698D02*
X13624944Y-14857222D01*
X13624944Y-14857222D02*
X13634467Y-14876269D01*
X13634467Y-14876269D02*
X13634467Y-14923888D01*
X13634467Y-14923888D02*
X13624944Y-14942936D01*
X13624944Y-14942936D02*
X13615420Y-14952460D01*
X13615420Y-14952460D02*
X13596372Y-14961984D01*
X13596372Y-14961984D02*
X13539229Y-14961984D01*
X13539229Y-14961984D02*
X13520182Y-14952460D01*
X13520182Y-14952460D02*
X13510658Y-14942936D01*
X13701134Y-14761984D02*
X13824944Y-14761984D01*
X13824944Y-14761984D02*
X13758277Y-14838174D01*
X13758277Y-14838174D02*
X13786848Y-14838174D01*
X13786848Y-14838174D02*
X13805896Y-14847698D01*
X13805896Y-14847698D02*
X13815420Y-14857222D01*
X13815420Y-14857222D02*
X13824944Y-14876269D01*
X13824944Y-14876269D02*
X13824944Y-14923888D01*
X13824944Y-14923888D02*
X13815420Y-14942936D01*
X13815420Y-14942936D02*
X13805896Y-14952460D01*
X13805896Y-14952460D02*
X13786848Y-14961984D01*
X13786848Y-14961984D02*
X13729706Y-14961984D01*
X13729706Y-14961984D02*
X13710658Y-14952460D01*
X13710658Y-14952460D02*
X13701134Y-14942936D01*
X13901134Y-14761984D02*
X13901134Y-14800079D01*
X13977325Y-14761984D02*
X13977325Y-14800079D01*
X14272563Y-15038174D02*
X14263039Y-15028650D01*
X14263039Y-15028650D02*
X14243991Y-15000079D01*
X14243991Y-15000079D02*
X14234468Y-14981031D01*
X14234468Y-14981031D02*
X14224944Y-14952460D01*
X14224944Y-14952460D02*
X14215420Y-14904841D01*
X14215420Y-14904841D02*
X14215420Y-14866746D01*
X14215420Y-14866746D02*
X14224944Y-14819127D01*
X14224944Y-14819127D02*
X14234468Y-14790555D01*
X14234468Y-14790555D02*
X14243991Y-14771508D01*
X14243991Y-14771508D02*
X14263039Y-14742936D01*
X14263039Y-14742936D02*
X14272563Y-14733412D01*
X14434468Y-14828650D02*
X14434468Y-14961984D01*
X14386848Y-14752460D02*
X14339229Y-14895317D01*
X14339229Y-14895317D02*
X14463039Y-14895317D01*
X14691610Y-14961984D02*
X14691610Y-14761984D01*
X14777325Y-14961984D02*
X14777325Y-14857222D01*
X14777325Y-14857222D02*
X14767801Y-14838174D01*
X14767801Y-14838174D02*
X14748753Y-14828650D01*
X14748753Y-14828650D02*
X14720182Y-14828650D01*
X14720182Y-14828650D02*
X14701134Y-14838174D01*
X14701134Y-14838174D02*
X14691610Y-14847698D01*
X14901134Y-14961984D02*
X14882087Y-14952460D01*
X14882087Y-14952460D02*
X14872563Y-14942936D01*
X14872563Y-14942936D02*
X14863039Y-14923888D01*
X14863039Y-14923888D02*
X14863039Y-14866746D01*
X14863039Y-14866746D02*
X14872563Y-14847698D01*
X14872563Y-14847698D02*
X14882087Y-14838174D01*
X14882087Y-14838174D02*
X14901134Y-14828650D01*
X14901134Y-14828650D02*
X14929706Y-14828650D01*
X14929706Y-14828650D02*
X14948753Y-14838174D01*
X14948753Y-14838174D02*
X14958277Y-14847698D01*
X14958277Y-14847698D02*
X14967801Y-14866746D01*
X14967801Y-14866746D02*
X14967801Y-14923888D01*
X14967801Y-14923888D02*
X14958277Y-14942936D01*
X14958277Y-14942936D02*
X14948753Y-14952460D01*
X14948753Y-14952460D02*
X14929706Y-14961984D01*
X14929706Y-14961984D02*
X14901134Y-14961984D01*
X15082087Y-14961984D02*
X15063039Y-14952460D01*
X15063039Y-14952460D02*
X15053515Y-14933412D01*
X15053515Y-14933412D02*
X15053515Y-14761984D01*
X15234468Y-14952460D02*
X15215420Y-14961984D01*
X15215420Y-14961984D02*
X15177325Y-14961984D01*
X15177325Y-14961984D02*
X15158277Y-14952460D01*
X15158277Y-14952460D02*
X15148753Y-14933412D01*
X15148753Y-14933412D02*
X15148753Y-14857222D01*
X15148753Y-14857222D02*
X15158277Y-14838174D01*
X15158277Y-14838174D02*
X15177325Y-14828650D01*
X15177325Y-14828650D02*
X15215420Y-14828650D01*
X15215420Y-14828650D02*
X15234468Y-14838174D01*
X15234468Y-14838174D02*
X15243991Y-14857222D01*
X15243991Y-14857222D02*
X15243991Y-14876269D01*
X15243991Y-14876269D02*
X15148753Y-14895317D01*
X15320182Y-14952460D02*
X15339230Y-14961984D01*
X15339230Y-14961984D02*
X15377325Y-14961984D01*
X15377325Y-14961984D02*
X15396372Y-14952460D01*
X15396372Y-14952460D02*
X15405896Y-14933412D01*
X15405896Y-14933412D02*
X15405896Y-14923888D01*
X15405896Y-14923888D02*
X15396372Y-14904841D01*
X15396372Y-14904841D02*
X15377325Y-14895317D01*
X15377325Y-14895317D02*
X15348753Y-14895317D01*
X15348753Y-14895317D02*
X15329706Y-14885793D01*
X15329706Y-14885793D02*
X15320182Y-14866746D01*
X15320182Y-14866746D02*
X15320182Y-14857222D01*
X15320182Y-14857222D02*
X15329706Y-14838174D01*
X15329706Y-14838174D02*
X15348753Y-14828650D01*
X15348753Y-14828650D02*
X15377325Y-14828650D01*
X15377325Y-14828650D02*
X15396372Y-14838174D01*
X15472563Y-15038174D02*
X15482087Y-15028650D01*
X15482087Y-15028650D02*
X15501134Y-15000079D01*
X15501134Y-15000079D02*
X15510658Y-14981031D01*
X15510658Y-14981031D02*
X15520182Y-14952460D01*
X15520182Y-14952460D02*
X15529706Y-14904841D01*
X15529706Y-14904841D02*
X15529706Y-14866746D01*
X15529706Y-14866746D02*
X15520182Y-14819127D01*
X15520182Y-14819127D02*
X15510658Y-14790555D01*
X15510658Y-14790555D02*
X15501134Y-14771508D01*
X15501134Y-14771508D02*
X15482087Y-14742936D01*
X15482087Y-14742936D02*
X15472563Y-14733412D01*
X10668211Y-15205211D02*
X10668211Y-15063789D01*
X10526789Y-15063789D01*
X10526789Y-15205211D01*
X10668211Y-15205211D01*
X11053515Y-15025984D02*
X10958277Y-15025984D01*
X10958277Y-15025984D02*
X10948753Y-15121222D01*
X10948753Y-15121222D02*
X10958277Y-15111698D01*
X10958277Y-15111698D02*
X10977324Y-15102174D01*
X10977324Y-15102174D02*
X11024944Y-15102174D01*
X11024944Y-15102174D02*
X11043991Y-15111698D01*
X11043991Y-15111698D02*
X11053515Y-15121222D01*
X11053515Y-15121222D02*
X11063039Y-15140269D01*
X11063039Y-15140269D02*
X11063039Y-15187888D01*
X11063039Y-15187888D02*
X11053515Y-15206936D01*
X11053515Y-15206936D02*
X11043991Y-15216460D01*
X11043991Y-15216460D02*
X11024944Y-15225984D01*
X11024944Y-15225984D02*
X10977324Y-15225984D01*
X10977324Y-15225984D02*
X10958277Y-15216460D01*
X10958277Y-15216460D02*
X10948753Y-15206936D01*
X11148753Y-15206936D02*
X11158277Y-15216460D01*
X11158277Y-15216460D02*
X11148753Y-15225984D01*
X11148753Y-15225984D02*
X11139229Y-15216460D01*
X11139229Y-15216460D02*
X11148753Y-15206936D01*
X11148753Y-15206936D02*
X11148753Y-15225984D01*
X11282086Y-15025984D02*
X11301134Y-15025984D01*
X11301134Y-15025984D02*
X11320182Y-15035508D01*
X11320182Y-15035508D02*
X11329705Y-15045031D01*
X11329705Y-15045031D02*
X11339229Y-15064079D01*
X11339229Y-15064079D02*
X11348753Y-15102174D01*
X11348753Y-15102174D02*
X11348753Y-15149793D01*
X11348753Y-15149793D02*
X11339229Y-15187888D01*
X11339229Y-15187888D02*
X11329705Y-15206936D01*
X11329705Y-15206936D02*
X11320182Y-15216460D01*
X11320182Y-15216460D02*
X11301134Y-15225984D01*
X11301134Y-15225984D02*
X11282086Y-15225984D01*
X11282086Y-15225984D02*
X11263039Y-15216460D01*
X11263039Y-15216460D02*
X11253515Y-15206936D01*
X11253515Y-15206936D02*
X11243991Y-15187888D01*
X11243991Y-15187888D02*
X11234467Y-15149793D01*
X11234467Y-15149793D02*
X11234467Y-15102174D01*
X11234467Y-15102174D02*
X11243991Y-15064079D01*
X11243991Y-15064079D02*
X11253515Y-15045031D01*
X11253515Y-15045031D02*
X11263039Y-15035508D01*
X11263039Y-15035508D02*
X11282086Y-15025984D01*
X11472562Y-15025984D02*
X11491610Y-15025984D01*
X11491610Y-15025984D02*
X11510658Y-15035508D01*
X11510658Y-15035508D02*
X11520182Y-15045031D01*
X11520182Y-15045031D02*
X11529705Y-15064079D01*
X11529705Y-15064079D02*
X11539229Y-15102174D01*
X11539229Y-15102174D02*
X11539229Y-15149793D01*
X11539229Y-15149793D02*
X11529705Y-15187888D01*
X11529705Y-15187888D02*
X11520182Y-15206936D01*
X11520182Y-15206936D02*
X11510658Y-15216460D01*
X11510658Y-15216460D02*
X11491610Y-15225984D01*
X11491610Y-15225984D02*
X11472562Y-15225984D01*
X11472562Y-15225984D02*
X11453515Y-15216460D01*
X11453515Y-15216460D02*
X11443991Y-15206936D01*
X11443991Y-15206936D02*
X11434467Y-15187888D01*
X11434467Y-15187888D02*
X11424943Y-15149793D01*
X11424943Y-15149793D02*
X11424943Y-15102174D01*
X11424943Y-15102174D02*
X11434467Y-15064079D01*
X11434467Y-15064079D02*
X11443991Y-15045031D01*
X11443991Y-15045031D02*
X11453515Y-15035508D01*
X11453515Y-15035508D02*
X11472562Y-15025984D01*
X11663039Y-15025984D02*
X11682086Y-15025984D01*
X11682086Y-15025984D02*
X11701134Y-15035508D01*
X11701134Y-15035508D02*
X11710658Y-15045031D01*
X11710658Y-15045031D02*
X11720182Y-15064079D01*
X11720182Y-15064079D02*
X11729705Y-15102174D01*
X11729705Y-15102174D02*
X11729705Y-15149793D01*
X11729705Y-15149793D02*
X11720182Y-15187888D01*
X11720182Y-15187888D02*
X11710658Y-15206936D01*
X11710658Y-15206936D02*
X11701134Y-15216460D01*
X11701134Y-15216460D02*
X11682086Y-15225984D01*
X11682086Y-15225984D02*
X11663039Y-15225984D01*
X11663039Y-15225984D02*
X11643991Y-15216460D01*
X11643991Y-15216460D02*
X11634467Y-15206936D01*
X11634467Y-15206936D02*
X11624943Y-15187888D01*
X11624943Y-15187888D02*
X11615420Y-15149793D01*
X11615420Y-15149793D02*
X11615420Y-15102174D01*
X11615420Y-15102174D02*
X11624943Y-15064079D01*
X11624943Y-15064079D02*
X11634467Y-15045031D01*
X11634467Y-15045031D02*
X11643991Y-15035508D01*
X11643991Y-15035508D02*
X11663039Y-15025984D01*
X11815420Y-15225984D02*
X11815420Y-15092650D01*
X11815420Y-15111698D02*
X11824943Y-15102174D01*
X11824943Y-15102174D02*
X11843991Y-15092650D01*
X11843991Y-15092650D02*
X11872563Y-15092650D01*
X11872563Y-15092650D02*
X11891610Y-15102174D01*
X11891610Y-15102174D02*
X11901134Y-15121222D01*
X11901134Y-15121222D02*
X11901134Y-15225984D01*
X11901134Y-15121222D02*
X11910658Y-15102174D01*
X11910658Y-15102174D02*
X11929705Y-15092650D01*
X11929705Y-15092650D02*
X11958277Y-15092650D01*
X11958277Y-15092650D02*
X11977324Y-15102174D01*
X11977324Y-15102174D02*
X11986848Y-15121222D01*
X11986848Y-15121222D02*
X11986848Y-15225984D01*
X12082086Y-15225984D02*
X12082086Y-15092650D01*
X12082086Y-15111698D02*
X12091610Y-15102174D01*
X12091610Y-15102174D02*
X12110658Y-15092650D01*
X12110658Y-15092650D02*
X12139229Y-15092650D01*
X12139229Y-15092650D02*
X12158277Y-15102174D01*
X12158277Y-15102174D02*
X12167801Y-15121222D01*
X12167801Y-15121222D02*
X12167801Y-15225984D01*
X12167801Y-15121222D02*
X12177324Y-15102174D01*
X12177324Y-15102174D02*
X12196372Y-15092650D01*
X12196372Y-15092650D02*
X12224943Y-15092650D01*
X12224943Y-15092650D02*
X12243991Y-15102174D01*
X12243991Y-15102174D02*
X12253515Y-15121222D01*
X12253515Y-15121222D02*
X12253515Y-15225984D01*
X12643991Y-15016460D02*
X12472563Y-15273603D01*
X12901134Y-15025984D02*
X12920182Y-15025984D01*
X12920182Y-15025984D02*
X12939229Y-15035508D01*
X12939229Y-15035508D02*
X12948753Y-15045031D01*
X12948753Y-15045031D02*
X12958277Y-15064079D01*
X12958277Y-15064079D02*
X12967801Y-15102174D01*
X12967801Y-15102174D02*
X12967801Y-15149793D01*
X12967801Y-15149793D02*
X12958277Y-15187888D01*
X12958277Y-15187888D02*
X12948753Y-15206936D01*
X12948753Y-15206936D02*
X12939229Y-15216460D01*
X12939229Y-15216460D02*
X12920182Y-15225984D01*
X12920182Y-15225984D02*
X12901134Y-15225984D01*
X12901134Y-15225984D02*
X12882086Y-15216460D01*
X12882086Y-15216460D02*
X12872563Y-15206936D01*
X12872563Y-15206936D02*
X12863039Y-15187888D01*
X12863039Y-15187888D02*
X12853515Y-15149793D01*
X12853515Y-15149793D02*
X12853515Y-15102174D01*
X12853515Y-15102174D02*
X12863039Y-15064079D01*
X12863039Y-15064079D02*
X12872563Y-15045031D01*
X12872563Y-15045031D02*
X12882086Y-15035508D01*
X12882086Y-15035508D02*
X12901134Y-15025984D01*
X13053515Y-15206936D02*
X13063039Y-15216460D01*
X13063039Y-15216460D02*
X13053515Y-15225984D01*
X13053515Y-15225984D02*
X13043991Y-15216460D01*
X13043991Y-15216460D02*
X13053515Y-15206936D01*
X13053515Y-15206936D02*
X13053515Y-15225984D01*
X13253515Y-15225984D02*
X13139229Y-15225984D01*
X13196372Y-15225984D02*
X13196372Y-15025984D01*
X13196372Y-15025984D02*
X13177325Y-15054555D01*
X13177325Y-15054555D02*
X13158277Y-15073603D01*
X13158277Y-15073603D02*
X13139229Y-15083127D01*
X13348753Y-15225984D02*
X13386848Y-15225984D01*
X13386848Y-15225984D02*
X13405896Y-15216460D01*
X13405896Y-15216460D02*
X13415420Y-15206936D01*
X13415420Y-15206936D02*
X13434467Y-15178365D01*
X13434467Y-15178365D02*
X13443991Y-15140269D01*
X13443991Y-15140269D02*
X13443991Y-15064079D01*
X13443991Y-15064079D02*
X13434467Y-15045031D01*
X13434467Y-15045031D02*
X13424944Y-15035508D01*
X13424944Y-15035508D02*
X13405896Y-15025984D01*
X13405896Y-15025984D02*
X13367801Y-15025984D01*
X13367801Y-15025984D02*
X13348753Y-15035508D01*
X13348753Y-15035508D02*
X13339229Y-15045031D01*
X13339229Y-15045031D02*
X13329706Y-15064079D01*
X13329706Y-15064079D02*
X13329706Y-15111698D01*
X13329706Y-15111698D02*
X13339229Y-15130746D01*
X13339229Y-15130746D02*
X13348753Y-15140269D01*
X13348753Y-15140269D02*
X13367801Y-15149793D01*
X13367801Y-15149793D02*
X13405896Y-15149793D01*
X13405896Y-15149793D02*
X13424944Y-15140269D01*
X13424944Y-15140269D02*
X13434467Y-15130746D01*
X13434467Y-15130746D02*
X13443991Y-15111698D01*
X13615420Y-15025984D02*
X13577325Y-15025984D01*
X13577325Y-15025984D02*
X13558277Y-15035508D01*
X13558277Y-15035508D02*
X13548753Y-15045031D01*
X13548753Y-15045031D02*
X13529706Y-15073603D01*
X13529706Y-15073603D02*
X13520182Y-15111698D01*
X13520182Y-15111698D02*
X13520182Y-15187888D01*
X13520182Y-15187888D02*
X13529706Y-15206936D01*
X13529706Y-15206936D02*
X13539229Y-15216460D01*
X13539229Y-15216460D02*
X13558277Y-15225984D01*
X13558277Y-15225984D02*
X13596372Y-15225984D01*
X13596372Y-15225984D02*
X13615420Y-15216460D01*
X13615420Y-15216460D02*
X13624944Y-15206936D01*
X13624944Y-15206936D02*
X13634467Y-15187888D01*
X13634467Y-15187888D02*
X13634467Y-15140269D01*
X13634467Y-15140269D02*
X13624944Y-15121222D01*
X13624944Y-15121222D02*
X13615420Y-15111698D01*
X13615420Y-15111698D02*
X13596372Y-15102174D01*
X13596372Y-15102174D02*
X13558277Y-15102174D01*
X13558277Y-15102174D02*
X13539229Y-15111698D01*
X13539229Y-15111698D02*
X13529706Y-15121222D01*
X13529706Y-15121222D02*
X13520182Y-15140269D01*
X13729706Y-15225984D02*
X13767801Y-15225984D01*
X13767801Y-15225984D02*
X13786848Y-15216460D01*
X13786848Y-15216460D02*
X13796372Y-15206936D01*
X13796372Y-15206936D02*
X13815420Y-15178365D01*
X13815420Y-15178365D02*
X13824944Y-15140269D01*
X13824944Y-15140269D02*
X13824944Y-15064079D01*
X13824944Y-15064079D02*
X13815420Y-15045031D01*
X13815420Y-15045031D02*
X13805896Y-15035508D01*
X13805896Y-15035508D02*
X13786848Y-15025984D01*
X13786848Y-15025984D02*
X13748753Y-15025984D01*
X13748753Y-15025984D02*
X13729706Y-15035508D01*
X13729706Y-15035508D02*
X13720182Y-15045031D01*
X13720182Y-15045031D02*
X13710658Y-15064079D01*
X13710658Y-15064079D02*
X13710658Y-15111698D01*
X13710658Y-15111698D02*
X13720182Y-15130746D01*
X13720182Y-15130746D02*
X13729706Y-15140269D01*
X13729706Y-15140269D02*
X13748753Y-15149793D01*
X13748753Y-15149793D02*
X13786848Y-15149793D01*
X13786848Y-15149793D02*
X13805896Y-15140269D01*
X13805896Y-15140269D02*
X13815420Y-15130746D01*
X13815420Y-15130746D02*
X13824944Y-15111698D01*
X13901134Y-15025984D02*
X13901134Y-15064079D01*
X13977325Y-15025984D02*
X13977325Y-15064079D01*
X14272563Y-15302174D02*
X14263039Y-15292650D01*
X14263039Y-15292650D02*
X14243991Y-15264079D01*
X14243991Y-15264079D02*
X14234468Y-15245031D01*
X14234468Y-15245031D02*
X14224944Y-15216460D01*
X14224944Y-15216460D02*
X14215420Y-15168841D01*
X14215420Y-15168841D02*
X14215420Y-15130746D01*
X14215420Y-15130746D02*
X14224944Y-15083127D01*
X14224944Y-15083127D02*
X14234468Y-15054555D01*
X14234468Y-15054555D02*
X14243991Y-15035508D01*
X14243991Y-15035508D02*
X14263039Y-15006936D01*
X14263039Y-15006936D02*
X14272563Y-14997412D01*
X14453515Y-15225984D02*
X14339229Y-15225984D01*
X14396372Y-15225984D02*
X14396372Y-15025984D01*
X14396372Y-15025984D02*
X14377325Y-15054555D01*
X14377325Y-15054555D02*
X14358277Y-15073603D01*
X14358277Y-15073603D02*
X14339229Y-15083127D01*
X14691610Y-15225984D02*
X14691610Y-15025984D01*
X14777325Y-15225984D02*
X14777325Y-15121222D01*
X14777325Y-15121222D02*
X14767801Y-15102174D01*
X14767801Y-15102174D02*
X14748753Y-15092650D01*
X14748753Y-15092650D02*
X14720182Y-15092650D01*
X14720182Y-15092650D02*
X14701134Y-15102174D01*
X14701134Y-15102174D02*
X14691610Y-15111698D01*
X14901134Y-15225984D02*
X14882087Y-15216460D01*
X14882087Y-15216460D02*
X14872563Y-15206936D01*
X14872563Y-15206936D02*
X14863039Y-15187888D01*
X14863039Y-15187888D02*
X14863039Y-15130746D01*
X14863039Y-15130746D02*
X14872563Y-15111698D01*
X14872563Y-15111698D02*
X14882087Y-15102174D01*
X14882087Y-15102174D02*
X14901134Y-15092650D01*
X14901134Y-15092650D02*
X14929706Y-15092650D01*
X14929706Y-15092650D02*
X14948753Y-15102174D01*
X14948753Y-15102174D02*
X14958277Y-15111698D01*
X14958277Y-15111698D02*
X14967801Y-15130746D01*
X14967801Y-15130746D02*
X14967801Y-15187888D01*
X14967801Y-15187888D02*
X14958277Y-15206936D01*
X14958277Y-15206936D02*
X14948753Y-15216460D01*
X14948753Y-15216460D02*
X14929706Y-15225984D01*
X14929706Y-15225984D02*
X14901134Y-15225984D01*
X15082087Y-15225984D02*
X15063039Y-15216460D01*
X15063039Y-15216460D02*
X15053515Y-15197412D01*
X15053515Y-15197412D02*
X15053515Y-15025984D01*
X15234468Y-15216460D02*
X15215420Y-15225984D01*
X15215420Y-15225984D02*
X15177325Y-15225984D01*
X15177325Y-15225984D02*
X15158277Y-15216460D01*
X15158277Y-15216460D02*
X15148753Y-15197412D01*
X15148753Y-15197412D02*
X15148753Y-15121222D01*
X15148753Y-15121222D02*
X15158277Y-15102174D01*
X15158277Y-15102174D02*
X15177325Y-15092650D01*
X15177325Y-15092650D02*
X15215420Y-15092650D01*
X15215420Y-15092650D02*
X15234468Y-15102174D01*
X15234468Y-15102174D02*
X15243991Y-15121222D01*
X15243991Y-15121222D02*
X15243991Y-15140269D01*
X15243991Y-15140269D02*
X15148753Y-15159317D01*
X15310658Y-15302174D02*
X15320182Y-15292650D01*
X15320182Y-15292650D02*
X15339230Y-15264079D01*
X15339230Y-15264079D02*
X15348753Y-15245031D01*
X15348753Y-15245031D02*
X15358277Y-15216460D01*
X15358277Y-15216460D02*
X15367801Y-15168841D01*
X15367801Y-15168841D02*
X15367801Y-15130746D01*
X15367801Y-15130746D02*
X15358277Y-15083127D01*
X15358277Y-15083127D02*
X15348753Y-15054555D01*
X15348753Y-15054555D02*
X15339230Y-15035508D01*
X15339230Y-15035508D02*
X15320182Y-15006936D01*
X15320182Y-15006936D02*
X15310658Y-14997412D01*
M02*
