G04 #@! TF.GenerationSoftware,KiCad,Pcbnew,8.0.6*
G04 #@! TF.CreationDate,2025-05-21T14:19:44-04:00*
G04 #@! TF.ProjectId,DJUNGELSKOG Keychain,444a554e-4745-44c5-934b-4f47204b6579,rev?*
G04 #@! TF.SameCoordinates,Original*
G04 #@! TF.FileFunction,Legend,Top*
G04 #@! TF.FilePolarity,Positive*
%FSLAX46Y46*%
G04 Gerber Fmt 4.6, Leading zero omitted, Abs format (unit mm)*
G04 Created by KiCad (PCBNEW 8.0.6) date 2025-05-21 14:19:44*
%MOMM*%
%LPD*%
G01*
G04 APERTURE LIST*
%ADD10C,0.100000*%
%ADD11C,0.150000*%
%ADD12C,0.120000*%
%ADD13C,0.000000*%
%ADD14R,1.800000X1.800000*%
%ADD15C,1.800000*%
%ADD16C,2.000000*%
%ADD17C,1.600000*%
%ADD18O,1.600000X1.600000*%
G04 APERTURE END LIST*
D10*
G36*
X146829239Y-118860844D02*
G01*
X146882576Y-118862489D01*
X146933778Y-118867424D01*
X146978471Y-118874766D01*
X147026642Y-118889741D01*
X147066347Y-118921248D01*
X147078122Y-118961716D01*
X147067376Y-118996643D01*
X147024628Y-119024470D01*
X147017550Y-119028150D01*
X146986763Y-119067594D01*
X146979937Y-119093607D01*
X146974132Y-119146822D01*
X146971751Y-119198479D01*
X146970644Y-119254298D01*
X146970411Y-119300237D01*
X146970610Y-119362740D01*
X146971205Y-119418969D01*
X146972197Y-119468925D01*
X146973996Y-119522546D01*
X146976972Y-119573951D01*
X146983112Y-119624591D01*
X146996301Y-119651702D01*
X147028541Y-119672951D01*
X147067228Y-119703030D01*
X147078122Y-119739874D01*
X147060965Y-119786036D01*
X147018948Y-119813696D01*
X146988485Y-119823405D01*
X146940156Y-119833129D01*
X146886758Y-119840075D01*
X146835878Y-119843873D01*
X146781117Y-119845544D01*
X146764759Y-119845631D01*
X146710434Y-119844173D01*
X146652714Y-119838251D01*
X146598389Y-119825130D01*
X146555608Y-119801532D01*
X146533199Y-119758070D01*
X146532972Y-119752330D01*
X146555484Y-119706636D01*
X146580600Y-119687850D01*
X146613330Y-119650182D01*
X146616992Y-119636803D01*
X146622655Y-119586718D01*
X146625841Y-119534709D01*
X146627800Y-119481909D01*
X146629128Y-119420511D01*
X146629734Y-119365202D01*
X146629937Y-119304389D01*
X146629513Y-119252758D01*
X146627888Y-119198971D01*
X146624450Y-119147485D01*
X146617591Y-119099114D01*
X146612595Y-119080907D01*
X146581464Y-119041899D01*
X146569609Y-119033768D01*
X146530754Y-119002312D01*
X146529309Y-119000551D01*
X146518562Y-118964403D01*
X146538878Y-118919070D01*
X146549337Y-118911402D01*
X146597757Y-118891593D01*
X146649548Y-118879304D01*
X146654117Y-118878429D01*
X146702925Y-118869929D01*
X146752082Y-118864210D01*
X146801586Y-118861273D01*
X146829239Y-118860844D01*
G37*
G36*
X148099790Y-118855226D02*
G01*
X148099790Y-119187152D01*
X147822575Y-119345666D01*
X148098325Y-119503691D01*
X148099790Y-119835617D01*
X147474773Y-119476336D01*
X147474773Y-119212309D01*
X148099790Y-118855226D01*
G37*
G36*
X148496685Y-119032791D02*
G01*
X148546244Y-119034551D01*
X148601307Y-119041054D01*
X148653401Y-119052349D01*
X148702526Y-119068436D01*
X148735799Y-119082861D01*
X148778045Y-119111746D01*
X148803210Y-119141479D01*
X148824011Y-119188007D01*
X148828122Y-119222323D01*
X148818598Y-119274637D01*
X148793411Y-119319441D01*
X148757282Y-119357520D01*
X148747522Y-119365694D01*
X148728471Y-119387920D01*
X148761200Y-119408192D01*
X148816505Y-119422453D01*
X148862437Y-119443560D01*
X148905181Y-119477923D01*
X148934427Y-119522145D01*
X148950175Y-119576224D01*
X148953175Y-119617752D01*
X148948336Y-119670799D01*
X148933818Y-119721495D01*
X148909623Y-119769839D01*
X148880513Y-119810213D01*
X148875750Y-119815833D01*
X148840515Y-119851261D01*
X148798713Y-119882318D01*
X148750342Y-119909004D01*
X148703654Y-119928398D01*
X148661060Y-119942107D01*
X148609128Y-119954609D01*
X148554692Y-119963539D01*
X148505008Y-119968423D01*
X148453406Y-119970572D01*
X148438311Y-119970683D01*
X148386413Y-119969301D01*
X148337332Y-119965154D01*
X148283630Y-119956820D01*
X148233761Y-119944724D01*
X148194068Y-119931360D01*
X148149315Y-119905655D01*
X148125555Y-119862287D01*
X148124947Y-119852714D01*
X148141987Y-119805200D01*
X148148883Y-119798004D01*
X148194551Y-119776323D01*
X148207013Y-119775533D01*
X148255769Y-119783002D01*
X148301290Y-119792875D01*
X148351743Y-119798456D01*
X148370411Y-119798736D01*
X148421285Y-119794580D01*
X148471436Y-119778953D01*
X148496929Y-119763565D01*
X148531641Y-119726843D01*
X148545289Y-119680034D01*
X148530692Y-119631606D01*
X148507920Y-119608227D01*
X148462064Y-119586120D01*
X148410956Y-119579895D01*
X148362176Y-119584051D01*
X148343056Y-119588688D01*
X148313991Y-119594305D01*
X148274626Y-119561809D01*
X148270760Y-119554738D01*
X148253834Y-119508581D01*
X148250488Y-119478290D01*
X148261479Y-119449958D01*
X148307390Y-119430812D01*
X148321807Y-119425778D01*
X148367591Y-119401804D01*
X148401919Y-119372044D01*
X148427264Y-119330233D01*
X148430006Y-119310006D01*
X148415244Y-119262740D01*
X148401430Y-119246992D01*
X148356712Y-119222969D01*
X148332798Y-119220369D01*
X148290544Y-119226231D01*
X148244748Y-119247614D01*
X148225087Y-119257983D01*
X148198709Y-119266531D01*
X148160118Y-119239665D01*
X148143200Y-119193110D01*
X148142777Y-119184221D01*
X148161829Y-119138419D01*
X148200017Y-119107149D01*
X148229483Y-119090921D01*
X148275458Y-119071498D01*
X148324121Y-119056431D01*
X148355268Y-119048911D01*
X148405147Y-119039733D01*
X148458047Y-119034066D01*
X148496685Y-119032791D01*
G37*
G36*
X149535938Y-118858890D02*
G01*
X149585642Y-118860355D01*
X149619469Y-118860844D01*
X149670150Y-118860844D01*
X149724005Y-118860844D01*
X149773733Y-118860844D01*
X149825893Y-118860844D01*
X149841242Y-118860844D01*
X149890126Y-118860844D01*
X149906699Y-118860844D01*
X149963915Y-118862106D01*
X150016494Y-118865893D01*
X150071975Y-118873501D01*
X150121146Y-118884546D01*
X150158269Y-118896748D01*
X150207722Y-118919674D01*
X150252402Y-118947787D01*
X150292307Y-118981086D01*
X150327438Y-119019571D01*
X150357794Y-119063243D01*
X150366852Y-119078953D01*
X150391025Y-119130033D01*
X150407019Y-119177054D01*
X150418651Y-119227063D01*
X150425921Y-119280060D01*
X150428829Y-119336045D01*
X150428890Y-119345666D01*
X150426624Y-119394667D01*
X150419826Y-119443668D01*
X150408497Y-119492670D01*
X150405687Y-119502470D01*
X150389763Y-119549444D01*
X150368611Y-119596432D01*
X150343649Y-119638513D01*
X150311077Y-119679838D01*
X150274177Y-119716251D01*
X150232950Y-119747753D01*
X150187395Y-119774343D01*
X150137512Y-119796021D01*
X150119923Y-119802156D01*
X150071949Y-119815615D01*
X150022275Y-119824670D01*
X149970901Y-119829320D01*
X149941625Y-119830000D01*
X149858583Y-119830000D01*
X149787020Y-119830000D01*
X149737050Y-119830000D01*
X149686546Y-119830000D01*
X149640718Y-119830000D01*
X149591381Y-119830000D01*
X149542363Y-119830000D01*
X149494417Y-119830000D01*
X149447766Y-119830000D01*
X149398299Y-119822658D01*
X149367411Y-119806796D01*
X149338620Y-119765520D01*
X149336147Y-119745247D01*
X149350558Y-119702749D01*
X149394308Y-119679125D01*
X149396231Y-119678569D01*
X149428960Y-119659030D01*
X149441604Y-119610410D01*
X149442637Y-119602609D01*
X149446530Y-119550551D01*
X149448972Y-119500543D01*
X149451009Y-119446742D01*
X149452407Y-119402575D01*
X149453984Y-119346773D01*
X149455235Y-119291108D01*
X149456159Y-119235581D01*
X149456758Y-119180191D01*
X149457030Y-119124939D01*
X149457048Y-119106552D01*
X149455739Y-119079685D01*
X149792882Y-119079685D01*
X149792882Y-119589420D01*
X149804358Y-119637546D01*
X149809002Y-119642909D01*
X149855778Y-119657816D01*
X149865422Y-119658053D01*
X149920938Y-119651106D01*
X149967045Y-119630265D01*
X150003742Y-119595531D01*
X150031030Y-119546903D01*
X150046085Y-119497997D01*
X150055118Y-119440199D01*
X150057941Y-119391016D01*
X150058129Y-119373510D01*
X150056524Y-119316242D01*
X150051706Y-119264058D01*
X150042028Y-119209602D01*
X150027978Y-119162064D01*
X150012456Y-119126824D01*
X149983483Y-119085685D01*
X149940596Y-119053453D01*
X149893328Y-119037290D01*
X149844905Y-119032791D01*
X149803872Y-119043049D01*
X149792882Y-119079685D01*
X149455739Y-119079685D01*
X149454575Y-119055796D01*
X149449232Y-119033524D01*
X149411374Y-119005924D01*
X149370400Y-118976701D01*
X149358862Y-118937292D01*
X149377158Y-118891830D01*
X149394277Y-118878918D01*
X149442079Y-118862131D01*
X149490265Y-118858157D01*
X149535938Y-118858890D01*
G37*
G36*
X151043161Y-118860844D02*
G01*
X151096847Y-118862460D01*
X151146153Y-118866734D01*
X151195937Y-118873680D01*
X151200942Y-118874521D01*
X151249310Y-118885380D01*
X151294436Y-118904203D01*
X151298394Y-118906762D01*
X151327246Y-118947520D01*
X151329169Y-118965380D01*
X151317445Y-119003237D01*
X151276538Y-119031639D01*
X151270062Y-119034989D01*
X151232693Y-119066817D01*
X151228053Y-119079197D01*
X151223444Y-119132585D01*
X151221210Y-119182490D01*
X151219333Y-119237582D01*
X151217794Y-119292177D01*
X151217184Y-119345427D01*
X151216451Y-119399993D01*
X151215596Y-119450781D01*
X151214253Y-119502586D01*
X151213886Y-119510774D01*
X151208996Y-119560226D01*
X151205094Y-119582093D01*
X151192332Y-119630636D01*
X151171698Y-119678679D01*
X151144418Y-119719766D01*
X151122540Y-119743293D01*
X151080602Y-119776312D01*
X151035099Y-119801510D01*
X150992847Y-119818520D01*
X150942624Y-119832817D01*
X150890875Y-119841819D01*
X150837600Y-119845525D01*
X150826762Y-119845631D01*
X150773642Y-119843236D01*
X150720407Y-119836049D01*
X150671912Y-119825359D01*
X150620909Y-119809378D01*
X150574698Y-119789645D01*
X150536845Y-119768450D01*
X150498317Y-119737883D01*
X150467362Y-119699181D01*
X150459909Y-119686629D01*
X150440541Y-119640227D01*
X150432019Y-119591206D01*
X150431577Y-119576720D01*
X150437965Y-119525635D01*
X150459304Y-119478200D01*
X150477006Y-119456064D01*
X150517746Y-119424911D01*
X150566146Y-119409639D01*
X150591067Y-119407948D01*
X150642096Y-119414639D01*
X150689567Y-119436812D01*
X150704640Y-119448492D01*
X150737031Y-119488443D01*
X150751283Y-119536061D01*
X150752023Y-119551074D01*
X150744230Y-119599468D01*
X150743719Y-119601632D01*
X150742498Y-119615310D01*
X150755687Y-119646329D01*
X150792323Y-119658053D01*
X150840624Y-119641538D01*
X150860467Y-119619706D01*
X150880251Y-119574766D01*
X150886742Y-119524623D01*
X150886845Y-119516636D01*
X150886357Y-119454354D01*
X150884891Y-119286803D01*
X150882705Y-119234098D01*
X150880414Y-119183853D01*
X150877628Y-119133077D01*
X150875610Y-119108506D01*
X150861688Y-119067229D01*
X150845812Y-119051353D01*
X150805024Y-119039141D01*
X150772540Y-119017404D01*
X150759106Y-118978813D01*
X150773883Y-118930694D01*
X150790369Y-118914089D01*
X150834117Y-118891483D01*
X150881431Y-118878011D01*
X150889776Y-118876231D01*
X150941400Y-118867471D01*
X150994179Y-118862347D01*
X151043161Y-118860844D01*
G37*
G36*
X152369644Y-119225498D02*
G01*
X152369644Y-119393049D01*
X152368828Y-119447360D01*
X152365814Y-119502843D01*
X152359651Y-119555863D01*
X152347868Y-119606553D01*
X152346441Y-119610669D01*
X152323491Y-119659207D01*
X152292196Y-119702421D01*
X152252554Y-119740311D01*
X152204566Y-119772877D01*
X152158200Y-119795949D01*
X152127599Y-119808018D01*
X152075148Y-119824474D01*
X152026548Y-119835016D01*
X151975424Y-119841958D01*
X151921776Y-119845300D01*
X151898011Y-119845631D01*
X151843583Y-119843963D01*
X151791918Y-119838960D01*
X151743016Y-119830622D01*
X151685774Y-119815508D01*
X151632849Y-119795182D01*
X151584241Y-119769646D01*
X151539951Y-119738897D01*
X151502565Y-119704173D01*
X151470643Y-119662286D01*
X151448360Y-119616531D01*
X151435093Y-119567134D01*
X151427354Y-119512602D01*
X151424087Y-119463590D01*
X151423203Y-119416985D01*
X151423767Y-119365621D01*
X151424969Y-119311573D01*
X151426412Y-119259232D01*
X151426622Y-119252121D01*
X151427734Y-119203034D01*
X151428545Y-119152718D01*
X151428576Y-119145387D01*
X151426370Y-119096283D01*
X151420760Y-119069672D01*
X151387738Y-119032916D01*
X151386078Y-119031814D01*
X151349441Y-118997681D01*
X151337229Y-118959274D01*
X151354965Y-118913730D01*
X151362142Y-118906517D01*
X151406002Y-118881787D01*
X151427355Y-118876231D01*
X151477782Y-118868117D01*
X151527694Y-118863383D01*
X151581896Y-118861084D01*
X151607362Y-118860844D01*
X151662103Y-118861928D01*
X151712020Y-118865179D01*
X151762411Y-118871428D01*
X151797383Y-118878185D01*
X151845903Y-118898118D01*
X151874207Y-118937955D01*
X151877006Y-118960495D01*
X151858493Y-119007432D01*
X151852826Y-119012519D01*
X151809839Y-119034745D01*
X151783705Y-119066252D01*
X151777182Y-119116920D01*
X151776622Y-119146364D01*
X151776097Y-119197183D01*
X151775105Y-119248906D01*
X151773846Y-119303826D01*
X151772508Y-119357058D01*
X151771249Y-119404528D01*
X151773813Y-119458231D01*
X151786916Y-119510400D01*
X151810839Y-119553835D01*
X151832798Y-119577941D01*
X151876544Y-119607708D01*
X151924309Y-119622925D01*
X151968841Y-119626789D01*
X152019460Y-119621966D01*
X152064829Y-119607494D01*
X152106500Y-119581185D01*
X152130041Y-119554738D01*
X152151362Y-119509269D01*
X152154221Y-119497585D01*
X152159889Y-119448355D01*
X152160816Y-119409658D01*
X152160816Y-119258715D01*
X152159682Y-119208371D01*
X152158148Y-119157309D01*
X152155808Y-119105095D01*
X152151290Y-119058925D01*
X152119340Y-119019789D01*
X152111235Y-119015694D01*
X152068278Y-118992109D01*
X152059455Y-118984675D01*
X152044801Y-118947550D01*
X152063227Y-118901538D01*
X152097069Y-118880872D01*
X152144375Y-118868667D01*
X152196182Y-118862800D01*
X152245732Y-118860922D01*
X152259246Y-118860844D01*
X152309651Y-118862080D01*
X152362612Y-118867104D01*
X152411430Y-118878232D01*
X152418004Y-118880628D01*
X152457834Y-118909023D01*
X152469050Y-118946329D01*
X152459525Y-118980279D01*
X152418051Y-119009502D01*
X152413607Y-119012030D01*
X152377898Y-119045917D01*
X152375750Y-119052575D01*
X152371903Y-119106552D01*
X152370575Y-119157904D01*
X152369839Y-119207077D01*
X152369644Y-119225498D01*
G37*
G36*
X152884508Y-118910425D02*
G01*
X153226692Y-119214996D01*
X153265710Y-119245038D01*
X153290928Y-119255052D01*
X153317439Y-119212864D01*
X153318771Y-119185931D01*
X153317646Y-119133045D01*
X153312483Y-119082602D01*
X153309246Y-119069427D01*
X153278566Y-119029924D01*
X153269678Y-119024975D01*
X153230266Y-118996052D01*
X153228646Y-118993956D01*
X153216434Y-118950969D01*
X153232749Y-118903145D01*
X153277118Y-118874894D01*
X153301674Y-118868171D01*
X153350478Y-118862454D01*
X153401197Y-118860908D01*
X153415980Y-118860844D01*
X153469975Y-118861849D01*
X153522168Y-118865805D01*
X153561793Y-118873545D01*
X153606388Y-118896980D01*
X153630064Y-118943310D01*
X153630669Y-118954145D01*
X153612895Y-119002239D01*
X153574494Y-119028639D01*
X153548360Y-119043049D01*
X153537369Y-119061123D01*
X153525546Y-119110267D01*
X153520713Y-119160016D01*
X153518721Y-119215039D01*
X153518562Y-119230383D01*
X153518562Y-119454842D01*
X153518702Y-119507229D01*
X153519009Y-119558622D01*
X153519295Y-119596015D01*
X153518844Y-119646229D01*
X153516440Y-119695745D01*
X153510601Y-119745834D01*
X153504640Y-119773091D01*
X153482485Y-119820058D01*
X153439613Y-119844993D01*
X153429658Y-119845631D01*
X153389602Y-119836106D01*
X153349478Y-119805470D01*
X153336601Y-119794096D01*
X152929204Y-119427487D01*
X152888580Y-119398061D01*
X152863503Y-119391095D01*
X152834327Y-119433456D01*
X152829686Y-119486407D01*
X152829553Y-119499539D01*
X152830531Y-119552757D01*
X152834726Y-119603969D01*
X152839567Y-119627522D01*
X152867289Y-119668011D01*
X152879378Y-119675394D01*
X152918828Y-119706551D01*
X152929937Y-119741828D01*
X152913070Y-119792006D01*
X152869759Y-119822823D01*
X152819785Y-119837420D01*
X152766687Y-119844009D01*
X152716713Y-119845631D01*
X152666732Y-119843583D01*
X152614302Y-119835518D01*
X152567969Y-119819741D01*
X152529050Y-119790210D01*
X152513747Y-119744026D01*
X152524738Y-119704459D01*
X152564317Y-119674293D01*
X152570655Y-119670509D01*
X152600477Y-119631098D01*
X152605826Y-119607983D01*
X152610956Y-119558905D01*
X152614241Y-119507973D01*
X152616165Y-119458382D01*
X152617264Y-119403313D01*
X152617550Y-119353237D01*
X152617055Y-119300333D01*
X152615155Y-119243066D01*
X152611829Y-119192582D01*
X152606147Y-119142257D01*
X152597278Y-119096050D01*
X152579448Y-119055017D01*
X152543545Y-119029371D01*
X152502354Y-119002407D01*
X152497627Y-118997376D01*
X152484193Y-118957564D01*
X152501058Y-118910521D01*
X152546146Y-118880975D01*
X152596739Y-118867645D01*
X152604117Y-118866461D01*
X152653418Y-118862429D01*
X152705672Y-118861041D01*
X152739916Y-118860844D01*
X152791193Y-118863463D01*
X152822470Y-118870125D01*
X152865183Y-118894598D01*
X152884508Y-118910425D01*
G37*
G36*
X154183635Y-118860844D02*
G01*
X154234088Y-118862795D01*
X154282957Y-118868649D01*
X154335398Y-118879731D01*
X154355826Y-118885512D01*
X154401988Y-118896992D01*
X154449640Y-118884354D01*
X154457431Y-118881605D01*
X154489183Y-118876475D01*
X154537755Y-118893094D01*
X154568806Y-118923614D01*
X154596906Y-118965912D01*
X154617342Y-119015448D01*
X154626425Y-119067655D01*
X154626936Y-119083838D01*
X154620812Y-119132537D01*
X154598815Y-119177661D01*
X154594940Y-119182512D01*
X154555223Y-119212051D01*
X154510676Y-119220369D01*
X154461102Y-119210467D01*
X154427878Y-119192281D01*
X154392587Y-119157309D01*
X154369504Y-119131465D01*
X154331631Y-119095134D01*
X154285776Y-119066669D01*
X154236482Y-119051342D01*
X154201709Y-119048422D01*
X154151563Y-119054361D01*
X154104336Y-119074614D01*
X154065422Y-119109239D01*
X154038889Y-119151495D01*
X154022183Y-119202242D01*
X154015550Y-119255174D01*
X154015108Y-119274347D01*
X154017993Y-119331417D01*
X154026648Y-119385207D01*
X154041074Y-119435716D01*
X154061270Y-119482946D01*
X154087236Y-119526895D01*
X154097173Y-119540816D01*
X154132920Y-119577926D01*
X154169958Y-119603342D01*
X154217459Y-119622301D01*
X154253977Y-119626789D01*
X154299972Y-119609575D01*
X154306734Y-119602609D01*
X154326426Y-119557867D01*
X154327739Y-119539351D01*
X154311374Y-119492944D01*
X154300139Y-119487083D01*
X154262770Y-119486106D01*
X154215429Y-119472543D01*
X154208304Y-119467055D01*
X154186408Y-119422103D01*
X154186322Y-119418450D01*
X154204139Y-119372276D01*
X154248405Y-119344239D01*
X154267411Y-119337850D01*
X154316917Y-119326398D01*
X154370365Y-119318693D01*
X154421182Y-119314992D01*
X154461339Y-119314159D01*
X154510759Y-119315210D01*
X154562916Y-119318989D01*
X154616082Y-119326523D01*
X154658443Y-119336140D01*
X154704332Y-119356288D01*
X154735187Y-119395037D01*
X154739043Y-119419916D01*
X154719504Y-119464368D01*
X154674095Y-119485620D01*
X154670411Y-119486106D01*
X154643545Y-119495387D01*
X154630844Y-119529581D01*
X154614954Y-119579964D01*
X154593571Y-119626606D01*
X154566695Y-119669509D01*
X154534326Y-119708672D01*
X154513363Y-119729371D01*
X154473273Y-119761357D01*
X154428412Y-119788619D01*
X154383959Y-119809118D01*
X154368283Y-119815101D01*
X154319914Y-119829859D01*
X154270154Y-119839787D01*
X154219004Y-119844886D01*
X154189986Y-119845631D01*
X154133709Y-119843175D01*
X154079183Y-119835808D01*
X154026410Y-119823529D01*
X153975388Y-119806338D01*
X153926117Y-119784236D01*
X153910083Y-119775778D01*
X153863031Y-119747024D01*
X153820427Y-119714251D01*
X153782271Y-119677460D01*
X153748562Y-119636651D01*
X153719302Y-119591823D01*
X153710537Y-119575987D01*
X153688172Y-119528449D01*
X153671301Y-119479229D01*
X153659922Y-119428325D01*
X153654037Y-119375738D01*
X153653140Y-119344933D01*
X153656424Y-119290605D01*
X153666276Y-119237469D01*
X153682697Y-119185525D01*
X153705686Y-119134774D01*
X153721772Y-119106308D01*
X153750927Y-119062736D01*
X153784168Y-119023063D01*
X153821498Y-118987288D01*
X153862914Y-118955412D01*
X153908417Y-118927433D01*
X153924494Y-118918974D01*
X153975713Y-118896323D01*
X154029994Y-118879237D01*
X154078958Y-118869018D01*
X154130172Y-118862888D01*
X154183635Y-118860844D01*
G37*
G36*
X154900732Y-118876475D02*
G01*
X155253907Y-118876475D01*
X155303657Y-118876323D01*
X155355668Y-118875703D01*
X155406381Y-118874183D01*
X155409490Y-118874033D01*
X155460702Y-118869662D01*
X155504745Y-118863286D01*
X155528681Y-118860844D01*
X155576405Y-118878515D01*
X155598046Y-118901877D01*
X155622775Y-118944142D01*
X155638346Y-118991560D01*
X155644757Y-119044129D01*
X155644940Y-119055261D01*
X155637535Y-119104115D01*
X155623935Y-119130000D01*
X155581658Y-119156511D01*
X155566294Y-119157843D01*
X155526727Y-119147829D01*
X155494431Y-119110581D01*
X155490334Y-119104598D01*
X155455491Y-119067180D01*
X155417306Y-119047445D01*
X155366863Y-119037428D01*
X155316693Y-119033707D01*
X155268073Y-119032791D01*
X155217265Y-119036419D01*
X155178681Y-119054773D01*
X155168911Y-119088478D01*
X155167687Y-119139779D01*
X155167451Y-119192778D01*
X155167445Y-119204249D01*
X155178436Y-119244549D01*
X155229216Y-119251460D01*
X155245603Y-119251632D01*
X155282240Y-119242107D01*
X155296161Y-119206203D01*
X155305165Y-119157124D01*
X155306908Y-119151737D01*
X155327913Y-119124382D01*
X155366503Y-119110949D01*
X155412047Y-119130942D01*
X155420725Y-119141235D01*
X155440294Y-119188030D01*
X155446371Y-119214996D01*
X155453734Y-119264681D01*
X155456589Y-119316190D01*
X155456629Y-119323196D01*
X155454477Y-119376303D01*
X155446910Y-119430174D01*
X155433894Y-119477823D01*
X155422191Y-119506133D01*
X155387749Y-119542655D01*
X155358932Y-119548632D01*
X155320830Y-119534221D01*
X155305965Y-119486798D01*
X155304954Y-119479511D01*
X155286812Y-119433177D01*
X155243562Y-119409695D01*
X155222156Y-119407948D01*
X155186008Y-119424801D01*
X155176817Y-119474760D01*
X155176482Y-119492700D01*
X155178376Y-119543115D01*
X155180879Y-119575987D01*
X155186584Y-119625942D01*
X155189916Y-119642909D01*
X155219958Y-119666601D01*
X155271083Y-119672847D01*
X155311549Y-119673684D01*
X155364389Y-119671694D01*
X155413629Y-119664815D01*
X155462735Y-119648527D01*
X155503207Y-119618661D01*
X155534425Y-119576863D01*
X155544801Y-119557180D01*
X155569825Y-119514580D01*
X155581926Y-119501249D01*
X155626622Y-119486106D01*
X155671905Y-119504648D01*
X155680111Y-119514193D01*
X155699455Y-119560906D01*
X155701116Y-119582826D01*
X155694981Y-119634358D01*
X155682011Y-119681673D01*
X155679378Y-119689560D01*
X155661850Y-119735229D01*
X155639683Y-119780286D01*
X155626378Y-119802644D01*
X155597801Y-119836350D01*
X155567515Y-119845631D01*
X155528436Y-119840990D01*
X155477695Y-119833846D01*
X155425767Y-119830470D01*
X155412421Y-119830000D01*
X154829902Y-119830000D01*
X154780588Y-119819266D01*
X154770307Y-119812414D01*
X154748654Y-119766991D01*
X154748569Y-119763077D01*
X154758339Y-119729371D01*
X154799371Y-119704459D01*
X154826971Y-119684919D01*
X154840893Y-119649504D01*
X154849648Y-119601058D01*
X154856253Y-119545693D01*
X154860203Y-119492731D01*
X154862573Y-119434685D01*
X154863341Y-119382430D01*
X154863363Y-119371556D01*
X154862859Y-119308732D01*
X154861348Y-119252029D01*
X154858829Y-119201448D01*
X154854264Y-119146830D01*
X154846708Y-119093913D01*
X154833107Y-119044782D01*
X154831123Y-119040362D01*
X154818178Y-119023754D01*
X154786427Y-119012030D01*
X154747012Y-118980304D01*
X154741730Y-118952435D01*
X154756385Y-118908471D01*
X154794975Y-118882826D01*
X154845691Y-118877523D01*
X154895912Y-118876482D01*
X154900732Y-118876475D01*
G37*
G36*
X156175191Y-119180314D02*
G01*
X156175191Y-119493433D01*
X156176563Y-119545655D01*
X156182660Y-119596952D01*
X156192533Y-119625568D01*
X156233772Y-119652691D01*
X156281437Y-119658053D01*
X156333655Y-119653416D01*
X156383030Y-119636285D01*
X156400383Y-119625080D01*
X156435170Y-119585903D01*
X156456029Y-119538580D01*
X156460711Y-119521521D01*
X156485365Y-119478899D01*
X156514933Y-119470474D01*
X156561416Y-119485936D01*
X156580390Y-119506378D01*
X156600535Y-119553029D01*
X156605303Y-119597969D01*
X156600203Y-119648905D01*
X156584901Y-119701696D01*
X156562736Y-119750178D01*
X156540823Y-119787501D01*
X156509902Y-119827228D01*
X156503454Y-119832686D01*
X156462421Y-119845631D01*
X156309769Y-119830000D01*
X155830076Y-119830000D01*
X155781391Y-119825780D01*
X155759490Y-119818032D01*
X155729025Y-119778610D01*
X155727494Y-119763565D01*
X155738241Y-119730348D01*
X155781604Y-119703730D01*
X155786113Y-119701528D01*
X155824574Y-119670011D01*
X155832274Y-119653900D01*
X155838410Y-119604763D01*
X155840289Y-119552509D01*
X155840815Y-119500059D01*
X155840823Y-119491723D01*
X155840419Y-119441652D01*
X155839487Y-119390897D01*
X155838205Y-119338384D01*
X155837404Y-119309518D01*
X155835862Y-119255876D01*
X155834529Y-119203923D01*
X155833477Y-119152493D01*
X155833251Y-119137083D01*
X155830856Y-119088190D01*
X155825680Y-119065764D01*
X155793928Y-119039874D01*
X155747115Y-119021136D01*
X155733845Y-119013251D01*
X155709029Y-118971034D01*
X155708932Y-118967822D01*
X155728359Y-118921558D01*
X155771876Y-118893434D01*
X155797348Y-118884047D01*
X155847079Y-118871811D01*
X155899872Y-118864673D01*
X155953189Y-118861410D01*
X155989567Y-118860844D01*
X156044922Y-118861510D01*
X156093872Y-118863509D01*
X156147397Y-118868036D01*
X156190334Y-118874766D01*
X156238506Y-118891080D01*
X156274456Y-118924556D01*
X156281681Y-118955854D01*
X156268492Y-118994445D01*
X156226173Y-119018879D01*
X156210362Y-119025708D01*
X156181297Y-119061612D01*
X156176360Y-119111792D01*
X156175245Y-119163458D01*
X156175191Y-119180314D01*
G37*
G36*
X157035659Y-118860844D02*
G01*
X157084832Y-118864326D01*
X157136429Y-118873415D01*
X157188132Y-118886230D01*
X157223237Y-118896503D01*
X157243021Y-118900411D01*
X157281612Y-118888443D01*
X157307501Y-118883803D01*
X157355261Y-118900547D01*
X157391035Y-118934109D01*
X157410816Y-118960006D01*
X157436436Y-119002173D01*
X157455069Y-119047711D01*
X157463610Y-119096205D01*
X157463817Y-119104842D01*
X157452982Y-119154190D01*
X157438660Y-119175673D01*
X157396566Y-119202439D01*
X157376866Y-119204738D01*
X157328506Y-119192770D01*
X157289771Y-119160427D01*
X157251325Y-119124626D01*
X157211392Y-119091287D01*
X157167050Y-119065166D01*
X157118507Y-119050283D01*
X157094521Y-119048422D01*
X157046572Y-119059225D01*
X157038346Y-119064787D01*
X157017829Y-119107041D01*
X157039725Y-119151430D01*
X157083615Y-119176956D01*
X157117480Y-119188374D01*
X157167380Y-119203163D01*
X157216524Y-119218441D01*
X157265352Y-119234960D01*
X157300662Y-119249190D01*
X157352379Y-119278378D01*
X157395330Y-119311596D01*
X157429516Y-119348845D01*
X157458968Y-119398866D01*
X157475798Y-119454690D01*
X157480181Y-119505645D01*
X157475879Y-119559767D01*
X157462973Y-119610024D01*
X157441464Y-119656418D01*
X157411350Y-119698948D01*
X157372633Y-119737614D01*
X157357815Y-119749644D01*
X157317052Y-119777296D01*
X157272616Y-119800262D01*
X157224507Y-119818541D01*
X157172725Y-119832133D01*
X157117269Y-119841038D01*
X157058141Y-119845256D01*
X157033461Y-119845631D01*
X156982797Y-119843989D01*
X156930550Y-119839062D01*
X156876718Y-119830851D01*
X156846127Y-119824870D01*
X156794911Y-119812594D01*
X156748066Y-119797548D01*
X156703000Y-119775778D01*
X156669783Y-119739874D01*
X156647435Y-119696277D01*
X156640474Y-119678569D01*
X156625039Y-119627984D01*
X156616011Y-119578323D01*
X156613363Y-119533977D01*
X156624318Y-119485626D01*
X156628750Y-119479267D01*
X156672632Y-119455057D01*
X156678087Y-119454842D01*
X156724016Y-119473385D01*
X156734019Y-119482930D01*
X156765402Y-119522892D01*
X156796086Y-119566650D01*
X156802651Y-119576231D01*
X156839127Y-119611771D01*
X156880321Y-119634605D01*
X156928038Y-119650634D01*
X156977159Y-119657686D01*
X156991451Y-119658053D01*
X157042194Y-119652197D01*
X157068876Y-119641444D01*
X157097668Y-119601686D01*
X157097697Y-119600167D01*
X157074982Y-119559378D01*
X157029078Y-119535555D01*
X156998290Y-119525184D01*
X156946338Y-119509323D01*
X156897270Y-119492197D01*
X156850416Y-119472339D01*
X156847103Y-119470718D01*
X156802678Y-119445233D01*
X156760870Y-119414512D01*
X156749406Y-119404773D01*
X156711639Y-119367000D01*
X156681686Y-119327321D01*
X156656617Y-119278620D01*
X156642183Y-119227324D01*
X156638276Y-119181290D01*
X156643032Y-119131607D01*
X156657302Y-119082972D01*
X156667096Y-119060879D01*
X156692261Y-119018964D01*
X156724158Y-118981515D01*
X156749162Y-118959030D01*
X156794955Y-118925662D01*
X156844405Y-118899198D01*
X156897514Y-118879637D01*
X156954280Y-118866980D01*
X157004380Y-118861707D01*
X157035659Y-118860844D01*
G37*
G36*
X158331612Y-119081639D02*
G01*
X158258094Y-119153203D01*
X158226281Y-119192793D01*
X158219993Y-119216706D01*
X158228541Y-119247480D01*
X158258952Y-119288381D01*
X158262002Y-119291933D01*
X158518946Y-119588932D01*
X158552987Y-119626217D01*
X158565352Y-119637780D01*
X158602721Y-119658785D01*
X158645729Y-119683480D01*
X158658408Y-119696154D01*
X158675238Y-119742022D01*
X158675505Y-119750132D01*
X158659809Y-119798801D01*
X158612720Y-119825008D01*
X158563886Y-119830000D01*
X158303524Y-119830000D01*
X158257117Y-119817299D01*
X158223807Y-119781503D01*
X158205826Y-119757948D01*
X158173171Y-119715306D01*
X158139603Y-119674548D01*
X158106725Y-119636681D01*
X158070574Y-119596757D01*
X158065143Y-119590886D01*
X158029654Y-119554272D01*
X158012630Y-119538618D01*
X157988206Y-119526894D01*
X157957741Y-119567889D01*
X157956210Y-119594061D01*
X157962759Y-119644827D01*
X157979413Y-119672219D01*
X158000907Y-119686873D01*
X158034760Y-119723137D01*
X158041451Y-119753307D01*
X158023460Y-119798997D01*
X157977704Y-119825115D01*
X157930014Y-119835934D01*
X157880563Y-119841704D01*
X157829053Y-119844649D01*
X157778781Y-119845611D01*
X157769853Y-119845631D01*
X157717049Y-119844895D01*
X157664774Y-119842250D01*
X157611536Y-119836239D01*
X157582274Y-119830244D01*
X157540028Y-119804884D01*
X157537822Y-119802400D01*
X157520725Y-119756482D01*
X157538280Y-119710153D01*
X157565666Y-119687117D01*
X157589602Y-119662449D01*
X157603524Y-119615066D01*
X157610017Y-119565006D01*
X157614005Y-119509349D01*
X157616117Y-119452034D01*
X157616904Y-119396507D01*
X157616957Y-119376685D01*
X157616605Y-119319353D01*
X157615550Y-119267496D01*
X157613354Y-119212493D01*
X157609513Y-119158285D01*
X157603433Y-119109470D01*
X157602547Y-119104354D01*
X157588625Y-119059902D01*
X157557606Y-119034012D01*
X157522325Y-118998324D01*
X157515352Y-118965868D01*
X157530052Y-118919065D01*
X157541486Y-118907250D01*
X157585526Y-118884371D01*
X157622575Y-118874766D01*
X157675484Y-118866840D01*
X157725042Y-118862802D01*
X157780241Y-118860966D01*
X157799895Y-118860844D01*
X157851125Y-118862187D01*
X157900438Y-118866910D01*
X157948746Y-118877300D01*
X157963049Y-118882337D01*
X158001700Y-118912501D01*
X158014584Y-118959518D01*
X158006280Y-118995910D01*
X157970989Y-119030915D01*
X157967201Y-119034012D01*
X157949127Y-119077732D01*
X157941193Y-119126081D01*
X157940334Y-119147829D01*
X157951515Y-119195736D01*
X157958653Y-119198143D01*
X157984787Y-119185687D01*
X158017908Y-119148819D01*
X158042428Y-119119009D01*
X158072790Y-119078766D01*
X158092254Y-119037187D01*
X158080041Y-119002505D01*
X158070272Y-118965868D01*
X158083044Y-118918695D01*
X158121362Y-118887086D01*
X158128401Y-118884047D01*
X158177341Y-118870837D01*
X158230735Y-118864107D01*
X158280572Y-118861410D01*
X158320621Y-118860844D01*
X158370553Y-118861714D01*
X158423308Y-118865249D01*
X158472447Y-118873080D01*
X158479134Y-118874766D01*
X158523413Y-118897020D01*
X158546921Y-118943556D01*
X158547522Y-118954633D01*
X158532868Y-119000062D01*
X158496720Y-119027173D01*
X158446649Y-119032370D01*
X158428087Y-119032791D01*
X158380111Y-119042184D01*
X158376796Y-119044026D01*
X158338515Y-119075068D01*
X158331612Y-119081639D01*
G37*
G36*
X159246923Y-118863336D02*
G01*
X159299560Y-118870814D01*
X159349991Y-118883277D01*
X159398216Y-118900724D01*
X159444235Y-118923157D01*
X159488047Y-118950575D01*
X159504954Y-118962937D01*
X159543068Y-118995497D01*
X159577910Y-119032053D01*
X159609480Y-119072607D01*
X159637776Y-119117158D01*
X159652477Y-119144410D01*
X159673890Y-119192839D01*
X159690043Y-119241315D01*
X159700938Y-119289838D01*
X159706573Y-119338407D01*
X159707431Y-119366182D01*
X159704766Y-119416615D01*
X159696770Y-119465330D01*
X159683442Y-119512327D01*
X159664784Y-119557608D01*
X159640795Y-119601171D01*
X159611476Y-119643016D01*
X159598255Y-119659274D01*
X159561825Y-119698217D01*
X159521410Y-119732798D01*
X159477011Y-119763018D01*
X159428628Y-119788875D01*
X159376261Y-119810370D01*
X159357920Y-119816566D01*
X159306499Y-119830616D01*
X159255000Y-119840068D01*
X159203424Y-119844921D01*
X159174738Y-119845631D01*
X159122549Y-119843247D01*
X159071341Y-119836094D01*
X159021115Y-119824173D01*
X158971871Y-119807483D01*
X158944173Y-119795806D01*
X158896199Y-119771010D01*
X158852295Y-119741870D01*
X158812462Y-119708385D01*
X158776698Y-119670555D01*
X158745005Y-119628380D01*
X158735345Y-119613356D01*
X158710444Y-119568268D01*
X158690694Y-119521479D01*
X158676097Y-119472990D01*
X158666652Y-119422801D01*
X158662358Y-119370912D01*
X158662072Y-119353237D01*
X158664374Y-119302589D01*
X158671279Y-119253837D01*
X158682181Y-119211332D01*
X159016957Y-119211332D01*
X159020010Y-119260100D01*
X159029169Y-119313590D01*
X159042633Y-119365769D01*
X159048220Y-119384012D01*
X159064874Y-119431853D01*
X159086055Y-119482390D01*
X159109826Y-119529449D01*
X159127110Y-119558890D01*
X159159372Y-119595758D01*
X159176936Y-119608471D01*
X159223411Y-119625913D01*
X159236531Y-119626789D01*
X159285261Y-119615507D01*
X159314933Y-119591130D01*
X159338374Y-119546365D01*
X159344975Y-119495875D01*
X159342399Y-119444589D01*
X159334671Y-119390870D01*
X159323311Y-119340443D01*
X159318597Y-119323196D01*
X159302503Y-119273172D01*
X159283898Y-119227514D01*
X159260280Y-119181905D01*
X159249965Y-119165170D01*
X159219267Y-119126144D01*
X159192079Y-119103377D01*
X159146962Y-119082524D01*
X159126378Y-119079685D01*
X159078567Y-119091409D01*
X159041625Y-119126580D01*
X159021028Y-119173544D01*
X159016957Y-119211332D01*
X158682181Y-119211332D01*
X158685642Y-119197838D01*
X158706633Y-119144569D01*
X158734253Y-119094031D01*
X158756350Y-119061856D01*
X158789801Y-119021819D01*
X158827321Y-118985973D01*
X158868912Y-118954316D01*
X158914573Y-118926851D01*
X158964304Y-118903575D01*
X158981786Y-118896748D01*
X159030467Y-118881040D01*
X159081742Y-118869820D01*
X159135613Y-118863088D01*
X159184879Y-118860879D01*
X159192079Y-118860844D01*
X159246923Y-118863336D01*
G37*
G36*
X160256489Y-118860844D02*
G01*
X160306942Y-118862795D01*
X160355811Y-118868649D01*
X160408252Y-118879731D01*
X160428681Y-118885512D01*
X160474842Y-118896992D01*
X160522494Y-118884354D01*
X160530286Y-118881605D01*
X160562037Y-118876475D01*
X160610610Y-118893094D01*
X160641660Y-118923614D01*
X160669760Y-118965912D01*
X160690196Y-119015448D01*
X160699279Y-119067655D01*
X160699790Y-119083838D01*
X160693666Y-119132537D01*
X160671669Y-119177661D01*
X160667794Y-119182512D01*
X160628077Y-119212051D01*
X160583531Y-119220369D01*
X160533957Y-119210467D01*
X160500732Y-119192281D01*
X160465441Y-119157309D01*
X160442358Y-119131465D01*
X160404485Y-119095134D01*
X160358630Y-119066669D01*
X160309336Y-119051342D01*
X160274563Y-119048422D01*
X160224417Y-119054361D01*
X160177191Y-119074614D01*
X160138276Y-119109239D01*
X160111743Y-119151495D01*
X160095037Y-119202242D01*
X160088404Y-119255174D01*
X160087962Y-119274347D01*
X160090847Y-119331417D01*
X160099502Y-119385207D01*
X160113928Y-119435716D01*
X160134124Y-119482946D01*
X160160090Y-119526895D01*
X160170027Y-119540816D01*
X160205775Y-119577926D01*
X160242812Y-119603342D01*
X160290313Y-119622301D01*
X160326831Y-119626789D01*
X160372826Y-119609575D01*
X160379588Y-119602609D01*
X160399280Y-119557867D01*
X160400593Y-119539351D01*
X160384228Y-119492944D01*
X160372993Y-119487083D01*
X160335624Y-119486106D01*
X160288284Y-119472543D01*
X160281158Y-119467055D01*
X160259262Y-119422103D01*
X160259176Y-119418450D01*
X160276993Y-119372276D01*
X160321260Y-119344239D01*
X160340265Y-119337850D01*
X160389771Y-119326398D01*
X160443219Y-119318693D01*
X160494037Y-119314992D01*
X160534193Y-119314159D01*
X160583613Y-119315210D01*
X160635770Y-119318989D01*
X160688937Y-119326523D01*
X160731297Y-119336140D01*
X160777186Y-119356288D01*
X160808041Y-119395037D01*
X160811898Y-119419916D01*
X160792358Y-119464368D01*
X160746949Y-119485620D01*
X160743265Y-119486106D01*
X160716399Y-119495387D01*
X160703698Y-119529581D01*
X160687808Y-119579964D01*
X160666425Y-119626606D01*
X160639549Y-119669509D01*
X160607180Y-119708672D01*
X160586217Y-119729371D01*
X160546127Y-119761357D01*
X160501267Y-119788619D01*
X160456813Y-119809118D01*
X160441137Y-119815101D01*
X160392768Y-119829859D01*
X160343009Y-119839787D01*
X160291858Y-119844886D01*
X160262840Y-119845631D01*
X160206563Y-119843175D01*
X160152037Y-119835808D01*
X160099264Y-119823529D01*
X160048242Y-119806338D01*
X159998972Y-119784236D01*
X159982937Y-119775778D01*
X159935885Y-119747024D01*
X159893281Y-119714251D01*
X159855125Y-119677460D01*
X159821417Y-119636651D01*
X159792156Y-119591823D01*
X159783391Y-119575987D01*
X159761026Y-119528449D01*
X159744155Y-119479229D01*
X159732776Y-119428325D01*
X159726891Y-119375738D01*
X159725994Y-119344933D01*
X159729278Y-119290605D01*
X159739131Y-119237469D01*
X159755551Y-119185525D01*
X159778540Y-119134774D01*
X159794626Y-119106308D01*
X159823781Y-119062736D01*
X159857023Y-119023063D01*
X159894352Y-118987288D01*
X159935768Y-118955412D01*
X159981272Y-118927433D01*
X159997348Y-118918974D01*
X160048567Y-118896323D01*
X160102848Y-118879237D01*
X160151812Y-118869018D01*
X160203026Y-118862888D01*
X160256489Y-118860844D01*
G37*
D11*
X134770000Y-91399580D02*
X134817619Y-91447200D01*
X134817619Y-91447200D02*
X134770000Y-91494819D01*
X134770000Y-91494819D02*
X134722381Y-91447200D01*
X134722381Y-91447200D02*
X134770000Y-91399580D01*
X134770000Y-91399580D02*
X134770000Y-91494819D01*
X144730000Y-91399580D02*
X144777619Y-91447200D01*
X144777619Y-91447200D02*
X144730000Y-91494819D01*
X144730000Y-91494819D02*
X144682381Y-91447200D01*
X144682381Y-91447200D02*
X144730000Y-91399580D01*
X144730000Y-91399580D02*
X144730000Y-91494819D01*
D12*
G04 #@! TO.C,D2*
X136670000Y-99955000D02*
X136670000Y-103045000D01*
X136670000Y-99955170D02*
G75*
G02*
X142220000Y-101500462I2560000J-1544830D01*
G01*
X142220000Y-101499538D02*
G75*
G02*
X136670000Y-103044830I-2990000J-462D01*
G01*
X141730000Y-101500000D02*
G75*
G02*
X136730000Y-101500000I-2500000J0D01*
G01*
X136730000Y-101500000D02*
G75*
G02*
X141730000Y-101500000I2500000J0D01*
G01*
G04 #@! TO.C,.*
X132210000Y-93455000D02*
X132210000Y-96545000D01*
X132210000Y-93455170D02*
G75*
G02*
X137760000Y-95000462I2560000J-1544830D01*
G01*
X137760000Y-94999538D02*
G75*
G02*
X132210000Y-96544830I-2990000J-462D01*
G01*
X137270000Y-95000000D02*
G75*
G02*
X132270000Y-95000000I-2500000J0D01*
G01*
X132270000Y-95000000D02*
G75*
G02*
X137270000Y-95000000I2500000J0D01*
G01*
D13*
G04 #@! TO.C,G\u002A\u002A\u002A*
G36*
X119059774Y-105786547D02*
G01*
X119318472Y-105879444D01*
X119472465Y-106024485D01*
X119483829Y-106212133D01*
X119347135Y-106442665D01*
X119101300Y-106719201D01*
X118788222Y-107007386D01*
X118449800Y-107272869D01*
X118127932Y-107481296D01*
X117864517Y-107598315D01*
X117776463Y-107612000D01*
X117590031Y-107549919D01*
X117425091Y-107427273D01*
X117260328Y-107147546D01*
X117248765Y-106823144D01*
X117376594Y-106488338D01*
X117630007Y-106177398D01*
X117995195Y-105924593D01*
X118039303Y-105902892D01*
X118381804Y-105790053D01*
X118734756Y-105754011D01*
X119059774Y-105786547D01*
G37*
G36*
X119553359Y-107378917D02*
G01*
X119696537Y-107533362D01*
X119734182Y-107750192D01*
X119665384Y-107901172D01*
X119482160Y-108129557D01*
X119219266Y-108403807D01*
X118911458Y-108692384D01*
X118593493Y-108963746D01*
X118300126Y-109186357D01*
X118066115Y-109328674D01*
X117956182Y-109363636D01*
X117846688Y-109307316D01*
X117704277Y-109184277D01*
X117589454Y-109019799D01*
X117589212Y-108839823D01*
X117712834Y-108607474D01*
X117914065Y-108350909D01*
X118298511Y-107945907D01*
X118674623Y-107639620D01*
X119022442Y-107438634D01*
X119322007Y-107349537D01*
X119553359Y-107378917D01*
G37*
G36*
X137267292Y-76071742D02*
G01*
X137424778Y-76230320D01*
X137468000Y-76439000D01*
X137394934Y-76627055D01*
X137199924Y-76873406D01*
X136919256Y-77141018D01*
X136589216Y-77392857D01*
X136441098Y-77487109D01*
X136200914Y-77625368D01*
X136058525Y-77667852D01*
X135951170Y-77610141D01*
X135816089Y-77447815D01*
X135812159Y-77442817D01*
X135675167Y-77255263D01*
X135636906Y-77117333D01*
X135699301Y-76957824D01*
X135830744Y-76755311D01*
X136099189Y-76442102D01*
X136408691Y-76211031D01*
X136727624Y-76068207D01*
X137024366Y-76019741D01*
X137267292Y-76071742D01*
G37*
G36*
X145441715Y-77673298D02*
G01*
X145477548Y-77709273D01*
X145626795Y-77908184D01*
X145806632Y-78197554D01*
X145920714Y-78405346D01*
X146073014Y-78740951D01*
X146135966Y-79021822D01*
X146129921Y-79341851D01*
X146128043Y-79361918D01*
X146078493Y-79646935D01*
X146002043Y-79854272D01*
X145954976Y-79911340D01*
X145658997Y-79998863D01*
X145330439Y-79944737D01*
X145038439Y-79761515D01*
X145018362Y-79741273D01*
X144740930Y-79373259D01*
X144540473Y-78952665D01*
X144426181Y-78522570D01*
X144407243Y-78126054D01*
X144492847Y-77806195D01*
X144580000Y-77686182D01*
X144854092Y-77528598D01*
X145162967Y-77524860D01*
X145441715Y-77673298D01*
G37*
G36*
X138194779Y-80560810D02*
G01*
X138519729Y-80590898D01*
X138720252Y-80649485D01*
X138739099Y-80663002D01*
X138934532Y-80785118D01*
X139201793Y-80899643D01*
X139238708Y-80911988D01*
X139666651Y-81103772D01*
X140042475Y-81371603D01*
X140317297Y-81675539D01*
X140419771Y-81877014D01*
X140465483Y-82193399D01*
X140373974Y-82499149D01*
X140131747Y-82827455D01*
X139964448Y-82996661D01*
X139798765Y-83139230D01*
X139636241Y-83223874D01*
X139420020Y-83267199D01*
X139093244Y-83285814D01*
X138963293Y-83289105D01*
X138529390Y-83287295D01*
X138086305Y-83267185D01*
X137745091Y-83234881D01*
X137257021Y-83162849D01*
X136911865Y-83095316D01*
X136668754Y-83018169D01*
X136486814Y-82917297D01*
X136325173Y-82778587D01*
X136274006Y-82726946D01*
X136031968Y-82361914D01*
X135923717Y-81938724D01*
X135945721Y-81505381D01*
X136094445Y-81109891D01*
X136366357Y-80800257D01*
X136418511Y-80763554D01*
X136630644Y-80682991D01*
X136963334Y-80620312D01*
X137367585Y-80577640D01*
X137794399Y-80557099D01*
X138194779Y-80560810D01*
G37*
G36*
X139119883Y-65167367D02*
G01*
X139525041Y-65366892D01*
X139879937Y-65658791D01*
X140130195Y-65993748D01*
X140192573Y-66140241D01*
X140243254Y-66237599D01*
X140337108Y-66286334D01*
X140501703Y-66283284D01*
X140764604Y-66225283D01*
X141153376Y-66109166D01*
X141530034Y-65986701D01*
X142080298Y-65823480D01*
X142688975Y-65674253D01*
X143323074Y-65543931D01*
X143949606Y-65437425D01*
X144535580Y-65359645D01*
X145048006Y-65315502D01*
X145453894Y-65309905D01*
X145720253Y-65347766D01*
X145748952Y-65358730D01*
X145916203Y-65405776D01*
X146211853Y-65464563D01*
X146580923Y-65524540D01*
X146704364Y-65542097D01*
X147105955Y-65608076D01*
X147442166Y-65696431D01*
X147777834Y-65830351D01*
X148177795Y-66033021D01*
X148366910Y-66136648D01*
X148848174Y-66410074D01*
X149251712Y-66657936D01*
X149622889Y-66912616D01*
X150007068Y-67206497D01*
X150449614Y-67571960D01*
X150810950Y-67881267D01*
X151596643Y-68559626D01*
X152129231Y-68084897D01*
X152757810Y-67601561D01*
X153362741Y-67295787D01*
X153953109Y-67163333D01*
X154117153Y-67156727D01*
X154841190Y-67231041D01*
X155466437Y-67457253D01*
X156005988Y-67840271D01*
X156048823Y-67880702D01*
X156306919Y-68151172D01*
X156470896Y-68398456D01*
X156585563Y-68701932D01*
X156649551Y-68944900D01*
X156720542Y-69274066D01*
X156754730Y-69563800D01*
X156753938Y-69878250D01*
X156719989Y-70281563D01*
X156694066Y-70511805D01*
X156599536Y-71136735D01*
X156467173Y-71625678D01*
X156274281Y-72026756D01*
X155998162Y-72388087D01*
X155647975Y-72729572D01*
X155094545Y-73222552D01*
X155326244Y-73563980D01*
X155489712Y-73851787D01*
X155606643Y-74140595D01*
X155623001Y-74202522D01*
X155688829Y-74416890D01*
X155811130Y-74744155D01*
X155968870Y-75129532D01*
X156056234Y-75330909D01*
X156247533Y-75776844D01*
X156437374Y-76242823D01*
X156593500Y-76648962D01*
X156634333Y-76762545D01*
X156787230Y-77170691D01*
X156976546Y-77636243D01*
X157139391Y-78009454D01*
X157324424Y-78434317D01*
X157526090Y-78927271D01*
X157700805Y-79381770D01*
X157701174Y-79382777D01*
X157900217Y-79894053D01*
X158110482Y-80359087D01*
X158349519Y-80804176D01*
X158634878Y-81255621D01*
X158984111Y-81739718D01*
X159414768Y-82282769D01*
X159944400Y-82911071D01*
X160421391Y-83458909D01*
X160767085Y-83858559D01*
X161106768Y-84262233D01*
X161401180Y-84622632D01*
X161609648Y-84890545D01*
X161854035Y-85213953D01*
X162155994Y-85604632D01*
X162456615Y-85986480D01*
X162503389Y-86045091D01*
X162770337Y-86402526D01*
X163081448Y-86855529D01*
X163392132Y-87337658D01*
X163588147Y-87661454D01*
X163847846Y-88091599D01*
X164114292Y-88509949D01*
X164353071Y-88863654D01*
X164504744Y-89069204D01*
X164783531Y-89433989D01*
X165154591Y-89944823D01*
X165620181Y-90604867D01*
X166182558Y-91417284D01*
X166235635Y-91494545D01*
X166417974Y-91771716D01*
X166657089Y-92151284D01*
X166917160Y-92575803D01*
X167088728Y-92862579D01*
X167342220Y-93286965D01*
X167598149Y-93708353D01*
X167820832Y-94068324D01*
X167934943Y-94248034D01*
X168290256Y-94855616D01*
X168660664Y-95591869D01*
X169023991Y-96404537D01*
X169358061Y-97241362D01*
X169640697Y-98050088D01*
X169838653Y-98733966D01*
X169978321Y-99275286D01*
X170125930Y-99825122D01*
X170265008Y-100323401D01*
X170379082Y-100710053D01*
X170391208Y-100748959D01*
X170558237Y-101303702D01*
X170700657Y-101836544D01*
X170821030Y-102369651D01*
X170921919Y-102925188D01*
X171005885Y-103525322D01*
X171075490Y-104192216D01*
X171133298Y-104948038D01*
X171181870Y-105814952D01*
X171223768Y-106815124D01*
X171261555Y-107970720D01*
X171273269Y-108379535D01*
X171309917Y-109767414D01*
X171337314Y-110990571D01*
X171355168Y-112068795D01*
X171363189Y-113021874D01*
X171361085Y-113869596D01*
X171348565Y-114631749D01*
X171325339Y-115328122D01*
X171291115Y-115978502D01*
X171245602Y-116602679D01*
X171188509Y-117220441D01*
X171136051Y-117707914D01*
X171048603Y-118449909D01*
X170968502Y-119039494D01*
X170887220Y-119508303D01*
X170796229Y-119887972D01*
X170687003Y-120210133D01*
X170551014Y-120506422D01*
X170379734Y-120808474D01*
X170240312Y-121030876D01*
X169917039Y-121425084D01*
X169533248Y-121676070D01*
X169067008Y-121790413D01*
X168496388Y-121774691D01*
X168034967Y-121692486D01*
X167520955Y-121555905D01*
X167125303Y-121388282D01*
X166781720Y-121153257D01*
X166423917Y-120814468D01*
X166412454Y-120802514D01*
X166147925Y-120496840D01*
X165842239Y-120098534D01*
X165527069Y-119653978D01*
X165234090Y-119209555D01*
X164994976Y-118811645D01*
X164841402Y-118506631D01*
X164836713Y-118495091D01*
X164730486Y-118274732D01*
X164635861Y-118151132D01*
X164612881Y-118141454D01*
X164590816Y-118230108D01*
X164569647Y-118481232D01*
X164550235Y-118872568D01*
X164533443Y-119381859D01*
X164520132Y-119986848D01*
X164511164Y-120665276D01*
X164510051Y-120796909D01*
X164502808Y-121723737D01*
X164496146Y-122484411D01*
X164489135Y-123097498D01*
X164480846Y-123581564D01*
X164470349Y-123955177D01*
X164456716Y-124236903D01*
X164439017Y-124445309D01*
X164416323Y-124598963D01*
X164387705Y-124716430D01*
X164352233Y-124816279D01*
X164308979Y-124917075D01*
X164303192Y-124930182D01*
X164119119Y-125276466D01*
X163835597Y-125721571D01*
X163478837Y-126228915D01*
X163075051Y-126761916D01*
X162650451Y-127283994D01*
X162450123Y-127516364D01*
X162116331Y-127912359D01*
X161734727Y-128391353D01*
X161360490Y-128882993D01*
X161137522Y-129189837D01*
X160734353Y-129714705D01*
X160236316Y-130281202D01*
X159629690Y-130903198D01*
X158900752Y-131594562D01*
X158035780Y-132369162D01*
X157720712Y-132643194D01*
X157405498Y-132935621D01*
X157129840Y-133227293D01*
X156936785Y-133471219D01*
X156889439Y-133550628D01*
X156669762Y-133842246D01*
X156458363Y-133950105D01*
X156200198Y-134063979D01*
X155952361Y-134241568D01*
X155950363Y-134243423D01*
X155683793Y-134460234D01*
X155305494Y-134728034D01*
X154865455Y-135015455D01*
X154413665Y-135291126D01*
X154000116Y-135523680D01*
X153674795Y-135681747D01*
X153629261Y-135699945D01*
X153275982Y-135788522D01*
X152802318Y-135846135D01*
X152270269Y-135871147D01*
X151741833Y-135861919D01*
X151279012Y-135816812D01*
X151045455Y-135768240D01*
X150852249Y-135710887D01*
X150519156Y-135608506D01*
X150082244Y-135472328D01*
X149577579Y-135313581D01*
X149152000Y-135178738D01*
X148130126Y-134834492D01*
X147263512Y-134498281D01*
X146523865Y-134157371D01*
X145882890Y-133799024D01*
X145454305Y-133514312D01*
X144742251Y-133041549D01*
X143865955Y-132522838D01*
X143148364Y-132128685D01*
X142206914Y-131535930D01*
X141317134Y-130801525D01*
X140970440Y-130459208D01*
X140598924Y-130065101D01*
X140337310Y-129757693D01*
X140164624Y-129493316D01*
X140059892Y-129228301D01*
X140002139Y-128918980D01*
X139970391Y-128521686D01*
X139961819Y-128359290D01*
X139915637Y-127438856D01*
X138945819Y-127266140D01*
X138430888Y-127180034D01*
X137876530Y-127096276D01*
X137373208Y-127028241D01*
X137190910Y-127006698D01*
X136827372Y-126954725D01*
X136335923Y-126867823D01*
X135767852Y-126755906D01*
X135174449Y-126628890D01*
X134835637Y-126551447D01*
X134189809Y-126404795D01*
X133480769Y-126251920D01*
X132780088Y-126107764D01*
X132159338Y-125987271D01*
X131955113Y-125950052D01*
X131435542Y-125849910D01*
X130936131Y-125739788D01*
X130507351Y-125631724D01*
X130199676Y-125537755D01*
X130154022Y-125520478D01*
X129842181Y-125406639D01*
X129422539Y-125268281D01*
X128965824Y-125128323D01*
X128764888Y-125070316D01*
X128300718Y-124922199D01*
X127893394Y-124760427D01*
X127597113Y-124607237D01*
X127539777Y-124567651D01*
X127213051Y-124318445D01*
X126978438Y-124502991D01*
X126701193Y-124662603D01*
X126256777Y-124835175D01*
X125639890Y-125022474D01*
X124845233Y-125226267D01*
X124721819Y-125255666D01*
X124269458Y-125377668D01*
X123722615Y-125547802D01*
X123156685Y-125741632D01*
X122736000Y-125899252D01*
X122285199Y-126071633D01*
X121867240Y-126222372D01*
X121527515Y-126335676D01*
X121311411Y-126395757D01*
X121305296Y-126396961D01*
X121064876Y-126457023D01*
X120717560Y-126560935D01*
X120329755Y-126688581D01*
X120243115Y-126718724D01*
X119408527Y-127003719D01*
X118703604Y-127223404D01*
X118089368Y-127387870D01*
X117526844Y-127507205D01*
X116977056Y-127591499D01*
X116783696Y-127614234D01*
X116001693Y-127668398D01*
X115205366Y-127667324D01*
X114453110Y-127613707D01*
X113803322Y-127510243D01*
X113633093Y-127468811D01*
X113081654Y-127280308D01*
X112448348Y-126999895D01*
X111789683Y-126658041D01*
X111162169Y-126285213D01*
X110622315Y-125911880D01*
X110380904Y-125715320D01*
X110084441Y-125424831D01*
X109826973Y-125098606D01*
X109584095Y-124697997D01*
X109331405Y-124184358D01*
X109143826Y-123756244D01*
X108952347Y-123304997D01*
X108746026Y-122819066D01*
X108565445Y-122394027D01*
X108544179Y-122344000D01*
X108345583Y-121804192D01*
X108151692Y-121149284D01*
X107979690Y-120448484D01*
X107846763Y-119770998D01*
X107775830Y-119249818D01*
X107763841Y-118730725D01*
X107785374Y-118450853D01*
X108571401Y-118450853D01*
X108576279Y-118803737D01*
X108593277Y-119049813D01*
X108685592Y-119794694D01*
X108857630Y-120586775D01*
X109117585Y-121455310D01*
X109473654Y-122429552D01*
X109690101Y-122964995D01*
X110000777Y-123676266D01*
X110290759Y-124242015D01*
X110587195Y-124695145D01*
X110917229Y-125068559D01*
X111308006Y-125395161D01*
X111786673Y-125707854D01*
X112101983Y-125888457D01*
X112759252Y-126236949D01*
X113310310Y-126490495D01*
X113796806Y-126664881D01*
X114260390Y-126775892D01*
X114561819Y-126820676D01*
X115107474Y-126876929D01*
X115559984Y-126898889D01*
X116001203Y-126886293D01*
X116512985Y-126838879D01*
X116726109Y-126813744D01*
X117236606Y-126738428D01*
X117718334Y-126643919D01*
X118141117Y-126538808D01*
X118474784Y-126431683D01*
X118689161Y-126331134D01*
X118754074Y-126245752D01*
X118750650Y-126237395D01*
X118666751Y-126110022D01*
X118509554Y-125887436D01*
X118350685Y-125669091D01*
X118133100Y-125371139D01*
X117859647Y-124993014D01*
X117581284Y-124605249D01*
X117516527Y-124514545D01*
X117151562Y-124032785D01*
X116690824Y-123470560D01*
X116173608Y-122873421D01*
X115639210Y-122286920D01*
X115204972Y-121834984D01*
X114912924Y-121573206D01*
X114537066Y-121281153D01*
X114154825Y-121018696D01*
X114125577Y-121000328D01*
X113785286Y-120784242D01*
X113348890Y-120501121D01*
X112872952Y-120187932D01*
X112420242Y-119885820D01*
X111541577Y-119324819D01*
X110721814Y-118861881D01*
X109983808Y-118508984D01*
X109355365Y-118279541D01*
X108992046Y-118183644D01*
X108755881Y-118164460D01*
X108623467Y-118245645D01*
X108571401Y-118450853D01*
X107785374Y-118450853D01*
X107810955Y-118118370D01*
X107855257Y-117802546D01*
X107930205Y-117381575D01*
X107955442Y-117285630D01*
X108927637Y-117285630D01*
X109010293Y-117345132D01*
X109224878Y-117418447D01*
X109466275Y-117476840D01*
X110024588Y-117643532D01*
X110699956Y-117934445D01*
X111479194Y-118342793D01*
X112349116Y-118861794D01*
X113070639Y-119331338D01*
X113558267Y-119658472D01*
X114036933Y-119978289D01*
X114467238Y-120264560D01*
X114809788Y-120491054D01*
X114968585Y-120595004D01*
X115298784Y-120849053D01*
X115713734Y-121230788D01*
X116192158Y-121716629D01*
X116712778Y-122282994D01*
X117254315Y-122906301D01*
X117795492Y-123562970D01*
X118315032Y-124229419D01*
X118621122Y-124642954D01*
X118925849Y-125068506D01*
X119188546Y-125443804D01*
X119391468Y-125742803D01*
X119516869Y-125939461D01*
X119549455Y-126005318D01*
X119577558Y-126068096D01*
X119682794Y-126071807D01*
X119896553Y-126011177D01*
X120219328Y-125892782D01*
X120720912Y-125700837D01*
X120827911Y-125120133D01*
X120922762Y-124397223D01*
X120916849Y-123736192D01*
X120805051Y-123061745D01*
X120650194Y-122506741D01*
X120275807Y-121569456D01*
X119760845Y-120699984D01*
X119091632Y-119879467D01*
X118254492Y-119089047D01*
X118047968Y-118918564D01*
X117312818Y-118368049D01*
X116636675Y-117958325D01*
X115984118Y-117671417D01*
X115319724Y-117489349D01*
X115181210Y-117463747D01*
X114608669Y-117335843D01*
X114025571Y-117138804D01*
X113376487Y-116855640D01*
X112972810Y-116671155D01*
X112655662Y-116536613D01*
X114533514Y-116536613D01*
X114632558Y-116592855D01*
X114863404Y-116641923D01*
X115244878Y-116697662D01*
X115600662Y-116746541D01*
X116322234Y-116923067D01*
X117078894Y-117259707D01*
X117880260Y-117761451D01*
X118551291Y-118277862D01*
X119452979Y-119091951D01*
X120185581Y-119907948D01*
X120763865Y-120745686D01*
X121202600Y-121625000D01*
X121363582Y-122054683D01*
X121492983Y-122445888D01*
X121580370Y-122752358D01*
X121632966Y-123027790D01*
X121657990Y-123325882D01*
X121662662Y-123700332D01*
X121654202Y-124204838D01*
X121653994Y-124214519D01*
X121649217Y-124665671D01*
X121654642Y-125041841D01*
X121669065Y-125309094D01*
X121691283Y-125433498D01*
X121697395Y-125438337D01*
X121807372Y-125404879D01*
X122047537Y-125314870D01*
X122377911Y-125183650D01*
X122621031Y-125083963D01*
X123113939Y-124895997D01*
X123667545Y-124710207D01*
X124181800Y-124559602D01*
X124306182Y-124527974D01*
X124754696Y-124416529D01*
X125208295Y-124299578D01*
X125585692Y-124198181D01*
X125665171Y-124175864D01*
X126192887Y-124025524D01*
X125580010Y-123277125D01*
X125257189Y-122890782D01*
X124912760Y-122491215D01*
X124602625Y-122142854D01*
X124489865Y-122020727D01*
X123924539Y-121341086D01*
X123355235Y-120505960D01*
X123020330Y-119942545D01*
X122834154Y-119629396D01*
X122558307Y-119187378D01*
X122207774Y-118639841D01*
X121797543Y-118010133D01*
X121342601Y-117321607D01*
X121220158Y-117137811D01*
X120865070Y-116653155D01*
X120454868Y-116169805D01*
X120022130Y-115720002D01*
X119599434Y-115335989D01*
X119219357Y-115050009D01*
X118976050Y-114916816D01*
X118670945Y-114789582D01*
X118411899Y-114680356D01*
X118302546Y-114633441D01*
X117945130Y-114490917D01*
X117681355Y-114437414D01*
X117442211Y-114474372D01*
X117158693Y-114603235D01*
X117055637Y-114659491D01*
X116526309Y-114973577D01*
X115963009Y-115341117D01*
X115424858Y-115721385D01*
X114970979Y-116073660D01*
X114838910Y-116186391D01*
X114655518Y-116347226D01*
X114547443Y-116459351D01*
X114533514Y-116536613D01*
X112655662Y-116536613D01*
X112618389Y-116520801D01*
X112352809Y-116420624D01*
X112219199Y-116386545D01*
X112055874Y-116358197D01*
X111774234Y-116283225D01*
X111430069Y-116176737D01*
X111366523Y-116155636D01*
X110933404Y-116033293D01*
X110513432Y-115954756D01*
X110142605Y-115922050D01*
X109856918Y-115937198D01*
X109692370Y-116002225D01*
X109666546Y-116060059D01*
X109609491Y-116209591D01*
X109466547Y-116421627D01*
X109403000Y-116498786D01*
X109159598Y-116810025D01*
X108991759Y-117086870D01*
X108927667Y-117282673D01*
X108927637Y-117285630D01*
X107955442Y-117285630D01*
X108009349Y-117080692D01*
X108118466Y-116836524D01*
X108283331Y-116585696D01*
X108427440Y-116395706D01*
X108734845Y-116041437D01*
X109056153Y-115768824D01*
X109412526Y-115575218D01*
X109825122Y-115457971D01*
X110315103Y-115414435D01*
X110903627Y-115441960D01*
X111611855Y-115537898D01*
X112460947Y-115699601D01*
X113019441Y-115820939D01*
X113342667Y-115892437D01*
X113578879Y-115926368D01*
X113770913Y-115908278D01*
X113961604Y-115823712D01*
X114193788Y-115658216D01*
X114510302Y-115397336D01*
X114668313Y-115264551D01*
X115032837Y-114985879D01*
X115504271Y-114663786D01*
X116026592Y-114333111D01*
X116543781Y-114028692D01*
X116999814Y-113785365D01*
X117190159Y-113696293D01*
X117298841Y-113649010D01*
X118533455Y-113649010D01*
X118571384Y-113778347D01*
X118705900Y-113895772D01*
X118968093Y-114022492D01*
X119226182Y-114121520D01*
X119619170Y-114330254D01*
X120078912Y-114686913D01*
X120589290Y-115174328D01*
X121134186Y-115775329D01*
X121697485Y-116472746D01*
X122263068Y-117249408D01*
X122522801Y-117633454D01*
X122840382Y-118118467D01*
X123132430Y-118572148D01*
X123379522Y-118963726D01*
X123562233Y-119262428D01*
X123659687Y-119434545D01*
X123930327Y-119910389D01*
X124289357Y-120446608D01*
X124690274Y-120977372D01*
X125034780Y-121381100D01*
X125310405Y-121689420D01*
X125646058Y-122076121D01*
X125985474Y-122476057D01*
X126119738Y-122637290D01*
X126415867Y-122985055D01*
X126636320Y-123211965D01*
X126814761Y-123346059D01*
X126984853Y-123415375D01*
X127076800Y-123434424D01*
X127344633Y-123518451D01*
X127672363Y-123676194D01*
X127895608Y-123812100D01*
X128268986Y-124024389D01*
X128698583Y-124211263D01*
X128924364Y-124285329D01*
X129259557Y-124382919D01*
X129698049Y-124518836D01*
X130168651Y-124670764D01*
X130402182Y-124748605D01*
X130848650Y-124881620D01*
X131415770Y-125024315D01*
X132041054Y-125162203D01*
X132662014Y-125280796D01*
X132795439Y-125303454D01*
X133313251Y-125392194D01*
X133782394Y-125478387D01*
X134165469Y-125554723D01*
X134425077Y-125613894D01*
X134504166Y-125637401D01*
X134767940Y-125718724D01*
X135156759Y-125815639D01*
X135620114Y-125918027D01*
X136107497Y-126015769D01*
X136568400Y-126098748D01*
X136952316Y-126156843D01*
X137208735Y-126179936D01*
X137212432Y-126179973D01*
X137496083Y-126203180D01*
X137881308Y-126261783D01*
X138291133Y-126343801D01*
X138345455Y-126356321D01*
X138732614Y-126448012D01*
X139035692Y-126508884D01*
X139283022Y-126526559D01*
X139296514Y-126524234D01*
X140746910Y-126524234D01*
X140762006Y-127574480D01*
X140768800Y-128018132D01*
X140775584Y-128411562D01*
X140781492Y-128707186D01*
X140785097Y-128843831D01*
X140862192Y-129031445D01*
X141080479Y-129325419D01*
X141434936Y-129719213D01*
X141544530Y-129832791D01*
X142003073Y-130280064D01*
X142450190Y-130661386D01*
X142934275Y-131012503D01*
X143503726Y-131369159D01*
X144035652Y-131672727D01*
X144434117Y-131903344D01*
X144899108Y-132186755D01*
X145345253Y-132470634D01*
X145449054Y-132539010D01*
X146259143Y-133046922D01*
X147056336Y-133477830D01*
X147894968Y-133857173D01*
X148829374Y-134210389D01*
X149486761Y-134429379D01*
X150031323Y-134602121D01*
X150539500Y-134760888D01*
X150975336Y-134894633D01*
X151302875Y-134992308D01*
X151472579Y-135039552D01*
X151905344Y-135096445D01*
X152423577Y-135089448D01*
X152945672Y-135025267D01*
X153390028Y-134910607D01*
X153479923Y-134874613D01*
X153894536Y-134658771D01*
X154387213Y-134352803D01*
X154903120Y-133994891D01*
X155387423Y-133623215D01*
X155785289Y-133275957D01*
X155809711Y-133252356D01*
X156050956Y-133011251D01*
X156198686Y-132826498D01*
X156281401Y-132635893D01*
X156327600Y-132377234D01*
X156360006Y-132051288D01*
X156376640Y-131383008D01*
X156322419Y-130595106D01*
X156204002Y-129735642D01*
X156028047Y-128852672D01*
X155801212Y-127994255D01*
X155795184Y-127974308D01*
X155459914Y-126986805D01*
X155087596Y-126146193D01*
X154656906Y-125430423D01*
X154146518Y-124817447D01*
X153535108Y-124285218D01*
X152801350Y-123811688D01*
X151923919Y-123374808D01*
X150970289Y-122985853D01*
X150521937Y-122826143D01*
X150196961Y-122736645D01*
X149952094Y-122707861D01*
X149776151Y-122723750D01*
X149532604Y-122746627D01*
X149369915Y-122674794D01*
X149239480Y-122532066D01*
X149024439Y-122344259D01*
X148952453Y-122319271D01*
X151466728Y-122319271D01*
X152032496Y-122531961D01*
X153079694Y-123016062D01*
X154011447Y-123633834D01*
X154816492Y-124375371D01*
X155483562Y-125230766D01*
X155869723Y-125906783D01*
X156389093Y-127117296D01*
X156777782Y-128392436D01*
X157044378Y-129764365D01*
X157156599Y-130727053D01*
X157270498Y-132000102D01*
X157829431Y-131467557D01*
X158132829Y-131177720D01*
X158514307Y-130812188D01*
X158919029Y-130423551D01*
X159204028Y-130149324D01*
X159608281Y-129733128D01*
X160037905Y-129247140D01*
X160430305Y-128764018D01*
X160630372Y-128493625D01*
X160940292Y-128069239D01*
X161279311Y-127632389D01*
X161597230Y-127246645D01*
X161760842Y-127061988D01*
X162093704Y-126680868D01*
X162439760Y-126247940D01*
X162776179Y-125795952D01*
X163080130Y-125357649D01*
X163328781Y-124965778D01*
X163499301Y-124653086D01*
X163565965Y-124472930D01*
X163580543Y-124316728D01*
X163543739Y-124171557D01*
X163433204Y-123997724D01*
X163226588Y-123755537D01*
X163060449Y-123575113D01*
X162705049Y-123223495D01*
X162344989Y-122942435D01*
X161911617Y-122681885D01*
X161644646Y-122542988D01*
X161265651Y-122361903D01*
X160929410Y-122218472D01*
X160681173Y-122131097D01*
X160587451Y-122113075D01*
X160404962Y-122080818D01*
X160335973Y-122033627D01*
X160200460Y-121967918D01*
X159901691Y-121923115D01*
X159459915Y-121898903D01*
X158895381Y-121894967D01*
X158228335Y-121910991D01*
X157479028Y-121946661D01*
X156667708Y-122001661D01*
X155814623Y-122075676D01*
X155478910Y-122109219D01*
X155072906Y-122144783D01*
X154539365Y-122182123D01*
X153935400Y-122217723D01*
X153318125Y-122248068D01*
X153034091Y-122259725D01*
X151466728Y-122319271D01*
X148952453Y-122319271D01*
X148733349Y-122243215D01*
X148343302Y-122227764D01*
X147831391Y-122296739D01*
X147246338Y-122430342D01*
X146235485Y-122723409D01*
X145336950Y-123061558D01*
X144510099Y-123467515D01*
X143714298Y-123964002D01*
X142908910Y-124573747D01*
X142053301Y-125319471D01*
X142011706Y-125357753D01*
X140746910Y-126524234D01*
X139296514Y-126524234D01*
X139502938Y-126488661D01*
X139723774Y-126382814D01*
X139973863Y-126196641D01*
X140281539Y-125917765D01*
X140675136Y-125533809D01*
X141028816Y-125184182D01*
X141929111Y-124338142D01*
X142777680Y-123635551D01*
X143607819Y-123055856D01*
X144452825Y-122578510D01*
X145345995Y-122182960D01*
X146320624Y-121848659D01*
X146536430Y-121784984D01*
X147091237Y-121625294D01*
X161741981Y-121625294D01*
X162050991Y-121808377D01*
X162324618Y-121968531D01*
X162650828Y-122156853D01*
X162775637Y-122228213D01*
X163070411Y-122418747D01*
X163332774Y-122625338D01*
X163415192Y-122704665D01*
X163570839Y-122863183D01*
X163663368Y-122942324D01*
X163669192Y-122944364D01*
X163679017Y-122856974D01*
X163687498Y-122614700D01*
X163694068Y-122247383D01*
X163698161Y-121784863D01*
X163699273Y-121358370D01*
X163699273Y-119772377D01*
X163189951Y-120427873D01*
X162759626Y-120917110D01*
X162338029Y-121273910D01*
X162211305Y-121354332D01*
X161741981Y-121625294D01*
X147091237Y-121625294D01*
X147650400Y-121464350D01*
X151264473Y-121422599D01*
X152095857Y-121410748D01*
X152896200Y-121395102D01*
X153640357Y-121376461D01*
X154303181Y-121355627D01*
X154859526Y-121333399D01*
X155284246Y-121310579D01*
X155552194Y-121287966D01*
X155571273Y-121285491D01*
X155976308Y-121240471D01*
X156478923Y-121201089D01*
X157047512Y-121168092D01*
X157650471Y-121142228D01*
X158256198Y-121124244D01*
X158833086Y-121114888D01*
X159349533Y-121114909D01*
X159773933Y-121125053D01*
X160074683Y-121146068D01*
X160214966Y-121175630D01*
X160377226Y-121231042D01*
X160567828Y-121223950D01*
X160822419Y-121144755D01*
X161176650Y-120983860D01*
X161457853Y-120840993D01*
X161962364Y-120499666D01*
X162473869Y-120006872D01*
X162964953Y-119392638D01*
X163382564Y-118732942D01*
X163514454Y-118492441D01*
X163603434Y-118295820D01*
X163657917Y-118097585D01*
X163686314Y-117852242D01*
X163697035Y-117514296D01*
X163698493Y-117038253D01*
X163698483Y-117024215D01*
X163689768Y-116447642D01*
X163666908Y-115810250D01*
X163633762Y-115204085D01*
X163607835Y-114862545D01*
X163562737Y-114305457D01*
X163518654Y-113680946D01*
X163482688Y-113092451D01*
X163471510Y-112876727D01*
X163437802Y-112320066D01*
X164345819Y-112320066D01*
X164348670Y-113037124D01*
X164437848Y-114324422D01*
X164690889Y-115652737D01*
X165101048Y-116992250D01*
X165427063Y-117805642D01*
X165590193Y-118151096D01*
X165777202Y-118505919D01*
X165966922Y-118835055D01*
X166138182Y-119103447D01*
X166269812Y-119276039D01*
X166340369Y-119318055D01*
X166333221Y-119223320D01*
X166291522Y-118998069D01*
X166225132Y-118694754D01*
X166173084Y-118382813D01*
X166122605Y-117915098D01*
X166076029Y-117320560D01*
X166035689Y-116628152D01*
X166009249Y-116017091D01*
X165982438Y-115395413D01*
X165950375Y-114817993D01*
X165915390Y-114316629D01*
X165879815Y-113923120D01*
X165845980Y-113669265D01*
X165832991Y-113612406D01*
X165660698Y-113279765D01*
X165368501Y-112938070D01*
X165010110Y-112641373D01*
X164692182Y-112464361D01*
X164345819Y-112320066D01*
X163437802Y-112320066D01*
X163387933Y-111496534D01*
X163268916Y-110066957D01*
X163118495Y-108615271D01*
X162940708Y-107168748D01*
X162739593Y-105754661D01*
X162519186Y-104400284D01*
X162283525Y-103132890D01*
X162036647Y-101979752D01*
X161782589Y-100968143D01*
X161632547Y-100453818D01*
X161278759Y-99375217D01*
X160926529Y-98442845D01*
X160554448Y-97619638D01*
X160141108Y-96868529D01*
X159665101Y-96152455D01*
X159105021Y-95434349D01*
X158439458Y-94677148D01*
X158065091Y-94277202D01*
X157499434Y-93723343D01*
X156931473Y-93261495D01*
X156297557Y-92844071D01*
X155705154Y-92512774D01*
X155355575Y-92313770D01*
X155037386Y-92108048D01*
X154815305Y-91937674D01*
X154803425Y-91926637D01*
X154553167Y-91752159D01*
X154336662Y-91706804D01*
X154111692Y-91659209D01*
X153958400Y-91544584D01*
X153843987Y-91321094D01*
X153892271Y-91113743D01*
X154081299Y-90944010D01*
X154389118Y-90833376D01*
X154717549Y-90801818D01*
X154859290Y-90864946D01*
X155060251Y-91025047D01*
X155163090Y-91126650D01*
X155403596Y-91336176D01*
X155738701Y-91572294D01*
X156092968Y-91782267D01*
X156741923Y-92150605D01*
X157307528Y-92531484D01*
X157846358Y-92967875D01*
X158414989Y-93502750D01*
X158590235Y-93679052D01*
X159463891Y-94614607D01*
X160191251Y-95499868D01*
X160792638Y-96364304D01*
X161288374Y-97237386D01*
X161698783Y-98148581D01*
X161733642Y-98237091D01*
X162242066Y-99670801D01*
X162692644Y-101215472D01*
X163087769Y-102883216D01*
X163429834Y-104686143D01*
X163721232Y-106636365D01*
X163964355Y-108745992D01*
X164096665Y-110196766D01*
X164207273Y-111534624D01*
X164530546Y-111590472D01*
X165050560Y-111736562D01*
X165524320Y-112000610D01*
X165981569Y-112388810D01*
X166225247Y-112643734D01*
X166414145Y-112894667D01*
X166555447Y-113169930D01*
X166656340Y-113497848D01*
X166724009Y-113906743D01*
X166765639Y-114424938D01*
X166788415Y-115080757D01*
X166796595Y-115601454D01*
X166841912Y-116852351D01*
X166947949Y-117932307D01*
X167115276Y-118845041D01*
X167344465Y-119594273D01*
X167446089Y-119833008D01*
X167571273Y-120142210D01*
X167652597Y-120420402D01*
X167670007Y-120546947D01*
X167689020Y-120682268D01*
X167772869Y-120771573D01*
X167963704Y-120842346D01*
X168215601Y-120902734D01*
X168677841Y-120979062D01*
X169031560Y-120960197D01*
X169314012Y-120826391D01*
X169562454Y-120557893D01*
X169814141Y-120134954D01*
X169870498Y-120025451D01*
X169955845Y-119833892D01*
X170030605Y-119606923D01*
X170099153Y-119320003D01*
X170165867Y-118948592D01*
X170235122Y-118468151D01*
X170311295Y-117854138D01*
X170398762Y-117082015D01*
X170404139Y-117033091D01*
X170442085Y-116663309D01*
X170472659Y-116300180D01*
X170496228Y-115921823D01*
X170513159Y-115506357D01*
X170523817Y-115031904D01*
X170528572Y-114476583D01*
X170527788Y-113818514D01*
X170521834Y-113035817D01*
X170511075Y-112106612D01*
X170500162Y-111306545D01*
X170476829Y-109835316D01*
X170450397Y-108533291D01*
X170419571Y-107384957D01*
X170383058Y-106374801D01*
X170339563Y-105487308D01*
X170287793Y-104706965D01*
X170226453Y-104018259D01*
X170154251Y-103405675D01*
X170069890Y-102853700D01*
X169972079Y-102346821D01*
X169859522Y-101869523D01*
X169730925Y-101406292D01*
X169653266Y-101153076D01*
X169549296Y-100807981D01*
X169414409Y-100337089D01*
X169263495Y-99793561D01*
X169111445Y-99230559D01*
X169055949Y-99020600D01*
X168777345Y-98086740D01*
X168430788Y-97127739D01*
X168038594Y-96196875D01*
X167623079Y-95347424D01*
X167239494Y-94683798D01*
X167049709Y-94380537D01*
X166804435Y-93980529D01*
X166541824Y-93546265D01*
X166391744Y-93295155D01*
X165821588Y-92380570D01*
X165126714Y-91345565D01*
X164304036Y-90185556D01*
X164214915Y-90062909D01*
X163975915Y-89723531D01*
X163674563Y-89279148D01*
X163345643Y-88781880D01*
X163023937Y-88283850D01*
X162951321Y-88169454D01*
X162619312Y-87652480D01*
X162298773Y-87173259D01*
X161971474Y-86708027D01*
X161619187Y-86233024D01*
X161223682Y-85724485D01*
X160766730Y-85158650D01*
X160230103Y-84511754D01*
X159595572Y-83760036D01*
X159322158Y-83438635D01*
X158946432Y-82988481D01*
X158578497Y-82531316D01*
X158250961Y-82108782D01*
X157996430Y-81762521D01*
X157906630Y-81630850D01*
X157746596Y-81374569D01*
X157587420Y-81093036D01*
X157420645Y-80767153D01*
X157237816Y-80377822D01*
X157030478Y-79905943D01*
X156790177Y-79332419D01*
X156508457Y-78638150D01*
X156176862Y-77804038D01*
X155894513Y-77085818D01*
X155715220Y-76636298D01*
X155538053Y-76206015D01*
X155385833Y-75849665D01*
X155297169Y-75654182D01*
X155180466Y-75414916D01*
X155128146Y-75332943D01*
X155125102Y-75398805D01*
X155149632Y-75561818D01*
X155310344Y-76767596D01*
X155397800Y-77903558D01*
X155411723Y-78945240D01*
X155351834Y-79868174D01*
X155217857Y-80647896D01*
X155207861Y-80688000D01*
X154958504Y-81543825D01*
X154670185Y-82275522D01*
X154317492Y-82943193D01*
X154126435Y-83245678D01*
X153786040Y-83694081D01*
X153344167Y-84183482D01*
X152855375Y-84659549D01*
X152374223Y-85067950D01*
X152093786Y-85269841D01*
X151818984Y-85450165D01*
X151476750Y-85675616D01*
X151223423Y-85842988D01*
X150943098Y-86017177D01*
X150712811Y-86139977D01*
X150587840Y-86183636D01*
X150450775Y-86212013D01*
X150186260Y-86287927D01*
X149841084Y-86397555D01*
X149670963Y-86454525D01*
X149185060Y-86599404D01*
X148639815Y-86730940D01*
X148143812Y-86823285D01*
X148089819Y-86830902D01*
X147666160Y-86897143D01*
X147257356Y-86976731D01*
X146940296Y-87054398D01*
X146895729Y-87068013D01*
X146533791Y-87142015D01*
X146038685Y-87184547D01*
X145459229Y-87195837D01*
X144844244Y-87176115D01*
X144242548Y-87125608D01*
X143748728Y-87053277D01*
X143382440Y-86987183D01*
X143083644Y-86937107D01*
X142900350Y-86910947D01*
X142871273Y-86908914D01*
X142698106Y-86925818D01*
X142412032Y-86966233D01*
X142073231Y-87020184D01*
X141741884Y-87077698D01*
X141478171Y-87128801D01*
X141347273Y-87161485D01*
X141199784Y-87190720D01*
X140915155Y-87227163D01*
X140540533Y-87265237D01*
X140285091Y-87287111D01*
X139567803Y-87303068D01*
X138804470Y-87248709D01*
X138040872Y-87132825D01*
X137322789Y-86964203D01*
X136696001Y-86751635D01*
X136206471Y-86504027D01*
X136043086Y-86423491D01*
X135935121Y-86466087D01*
X135894980Y-86510330D01*
X135727049Y-86601722D01*
X135456170Y-86644587D01*
X135410381Y-86645454D01*
X135030487Y-86688654D01*
X134543458Y-86805672D01*
X134001949Y-86977635D01*
X133458616Y-87185671D01*
X132966112Y-87410907D01*
X132577092Y-87634470D01*
X132502359Y-87687751D01*
X132251855Y-87909424D01*
X131914742Y-88255198D01*
X131512399Y-88699297D01*
X131066203Y-89215946D01*
X130597532Y-89779368D01*
X130127764Y-90363789D01*
X129678278Y-90943432D01*
X129270450Y-91492521D01*
X128925660Y-91985281D01*
X128875159Y-92061130D01*
X128609567Y-92459927D01*
X128357155Y-92832594D01*
X128148301Y-93134646D01*
X128023667Y-93308039D01*
X127842048Y-93572104D01*
X127598957Y-93956471D01*
X127319454Y-94418235D01*
X127028601Y-94914491D01*
X126751457Y-95402335D01*
X126513084Y-95838864D01*
X126338542Y-96181171D01*
X126310668Y-96240732D01*
X126177357Y-96517210D01*
X125979674Y-96907690D01*
X125742265Y-97364310D01*
X125489779Y-97839209D01*
X125438671Y-97933965D01*
X125181081Y-98426602D01*
X124872952Y-99042675D01*
X124526036Y-99756447D01*
X124152081Y-100542183D01*
X123762837Y-101374147D01*
X123370055Y-102226601D01*
X122985483Y-103073812D01*
X122620872Y-103890041D01*
X122287970Y-104649554D01*
X121998528Y-105326615D01*
X121764295Y-105895486D01*
X121597020Y-106330433D01*
X121568406Y-106411273D01*
X121420825Y-106801778D01*
X121246925Y-107212338D01*
X121168482Y-107381091D01*
X120767299Y-108215971D01*
X120431591Y-108933717D01*
X120165541Y-109524812D01*
X119973335Y-109979742D01*
X119859156Y-110288991D01*
X119826546Y-110432854D01*
X119769352Y-110647598D01*
X119629975Y-110885747D01*
X119613216Y-110906913D01*
X119513596Y-111074991D01*
X119372050Y-111372669D01*
X119204568Y-111759339D01*
X119027141Y-112194393D01*
X118855759Y-112637220D01*
X118706413Y-113047213D01*
X118595093Y-113383761D01*
X118537792Y-113606256D01*
X118533455Y-113649010D01*
X117298841Y-113649010D01*
X117694004Y-113477091D01*
X118125796Y-112276364D01*
X118286594Y-111829695D01*
X118426889Y-111440877D01*
X118533863Y-111145365D01*
X118594700Y-110978614D01*
X118601585Y-110960182D01*
X118565882Y-110880351D01*
X118369128Y-110846633D01*
X118273292Y-110844727D01*
X117593197Y-110771685D01*
X116920218Y-110566708D01*
X116286385Y-110251022D01*
X115723727Y-109845852D01*
X115264275Y-109372423D01*
X114940059Y-108851961D01*
X114834450Y-108565889D01*
X114833375Y-108557971D01*
X115716045Y-108557971D01*
X115795885Y-108742284D01*
X115987184Y-108978350D01*
X116251333Y-109243583D01*
X116530413Y-109456625D01*
X116854251Y-109628866D01*
X117252672Y-109771693D01*
X117755503Y-109896497D01*
X118392571Y-110014666D01*
X118916537Y-110096872D01*
X118977611Y-110022360D01*
X119099832Y-109812829D01*
X119265530Y-109500328D01*
X119457038Y-109116909D01*
X119458983Y-109112909D01*
X119681661Y-108647014D01*
X119903670Y-108169238D01*
X120095220Y-107744354D01*
X120199534Y-107502808D01*
X120457449Y-106885616D01*
X120227692Y-106163535D01*
X120053424Y-105557964D01*
X119962883Y-105084075D01*
X119953497Y-104710225D01*
X120022689Y-104404766D01*
X120075113Y-104288194D01*
X120271435Y-104009342D01*
X120536006Y-103836471D01*
X120908256Y-103751332D01*
X121272238Y-103734089D01*
X121586029Y-103728562D01*
X121766354Y-103698601D01*
X121864466Y-103621275D01*
X121931621Y-103473653D01*
X121946245Y-103432545D01*
X121993950Y-103294601D01*
X122006820Y-103190305D01*
X121962070Y-103094174D01*
X121836912Y-102980726D01*
X121608561Y-102824481D01*
X121254229Y-102599956D01*
X121134179Y-102524433D01*
X120766765Y-102316223D01*
X120497938Y-102213099D01*
X120378960Y-102209288D01*
X120227905Y-102307648D01*
X119991430Y-102519432D01*
X119699092Y-102813480D01*
X119380447Y-103158631D01*
X119065051Y-103523725D01*
X118782459Y-103877601D01*
X118729559Y-103948235D01*
X118484850Y-104265144D01*
X118178547Y-104641990D01*
X117873226Y-105001939D01*
X117846733Y-105032249D01*
X117403811Y-105568095D01*
X116971591Y-106147044D01*
X116571089Y-106735963D01*
X116223322Y-107301716D01*
X115949306Y-107811169D01*
X115770057Y-108231188D01*
X115728252Y-108372267D01*
X115716045Y-108557971D01*
X114833375Y-108557971D01*
X114763668Y-108044535D01*
X114801333Y-107402406D01*
X114942227Y-106664345D01*
X115128008Y-106035117D01*
X115977317Y-106035117D01*
X115987163Y-106041818D01*
X116052916Y-105973580D01*
X116197978Y-105793750D01*
X116392348Y-105539654D01*
X116413992Y-105510727D01*
X116677336Y-105170239D01*
X116997385Y-104773718D01*
X117307956Y-104403054D01*
X117328424Y-104379273D01*
X117609309Y-104046731D01*
X117880092Y-103714513D01*
X118089286Y-103445995D01*
X118116327Y-103409454D01*
X118589547Y-102806304D01*
X119070470Y-102274452D01*
X119536741Y-101834245D01*
X119966007Y-101506027D01*
X120335912Y-101310147D01*
X120463436Y-101273167D01*
X120687934Y-101260026D01*
X120897573Y-101340575D01*
X121100445Y-101485157D01*
X121378830Y-101689706D01*
X121722366Y-101921293D01*
X121932198Y-102053505D01*
X122421486Y-102350954D01*
X122613011Y-101910386D01*
X123060429Y-100908342D01*
X123543186Y-99875083D01*
X124033047Y-98869204D01*
X124501773Y-97949300D01*
X124716975Y-97544364D01*
X124972767Y-97066325D01*
X125207199Y-96619442D01*
X125401492Y-96240165D01*
X125536869Y-95964944D01*
X125581490Y-95866164D01*
X125726341Y-95564386D01*
X125958780Y-95137666D01*
X126262189Y-94613592D01*
X126619952Y-94019754D01*
X127015452Y-93383739D01*
X127432072Y-92733136D01*
X127846963Y-92104815D01*
X128317989Y-91423466D01*
X128826841Y-90722901D01*
X129357654Y-90022113D01*
X129894560Y-89340101D01*
X130421693Y-88695858D01*
X130923186Y-88108382D01*
X131383173Y-87596668D01*
X131785787Y-87179711D01*
X132115161Y-86876508D01*
X132355430Y-86706054D01*
X132357065Y-86705219D01*
X132593384Y-86602245D01*
X132944459Y-86470240D01*
X133368807Y-86322520D01*
X133824943Y-86172402D01*
X134271384Y-86033201D01*
X134666644Y-85918234D01*
X134969240Y-85840818D01*
X135132893Y-85814182D01*
X135240815Y-85805811D01*
X135272030Y-85760233D01*
X135215586Y-85646748D01*
X135060529Y-85434657D01*
X134943414Y-85283091D01*
X134548523Y-84708782D01*
X134197318Y-84074978D01*
X133930373Y-83457898D01*
X133861685Y-83251091D01*
X133785012Y-83015015D01*
X133727916Y-82875074D01*
X133714435Y-82858545D01*
X133609981Y-82910482D01*
X133393996Y-83049522D01*
X133101658Y-83250509D01*
X132768139Y-83488290D01*
X132428615Y-83737707D01*
X132118261Y-83973607D01*
X131872252Y-84170833D01*
X131833819Y-84203466D01*
X131555166Y-84437397D01*
X131297349Y-84636326D01*
X131019328Y-84827793D01*
X130680064Y-85039339D01*
X130238517Y-85298504D01*
X129986546Y-85443131D01*
X129277571Y-85863394D01*
X128688625Y-86251745D01*
X128169142Y-86647137D01*
X127668558Y-87088521D01*
X127136306Y-87614847D01*
X127046190Y-87708128D01*
X126034493Y-88808367D01*
X125144571Y-89885321D01*
X124332118Y-90996581D01*
X123552827Y-92199738D01*
X123411138Y-92433035D01*
X123228091Y-92732079D01*
X122970660Y-93145678D01*
X122664442Y-93633055D01*
X122335034Y-94153432D01*
X122077573Y-94557398D01*
X121637848Y-95249832D01*
X121235726Y-95894981D01*
X120859217Y-96514497D01*
X120496335Y-97130029D01*
X120135091Y-97763227D01*
X119763496Y-98435741D01*
X119369564Y-99169221D01*
X118941305Y-99985316D01*
X118466731Y-100905678D01*
X117933855Y-101951955D01*
X117419091Y-102970396D01*
X116994465Y-103816023D01*
X116650787Y-104508422D01*
X116383218Y-105057969D01*
X116186924Y-105475038D01*
X116057067Y-105770003D01*
X115988810Y-105953238D01*
X115977317Y-106035117D01*
X115128008Y-106035117D01*
X115181130Y-105855195D01*
X115512826Y-104999798D01*
X115645950Y-104702545D01*
X115836692Y-104302271D01*
X116098417Y-103769683D01*
X116417239Y-103131732D01*
X116779272Y-102415369D01*
X117170629Y-101647542D01*
X117577425Y-100855202D01*
X117985772Y-100065298D01*
X118381785Y-99304782D01*
X118751578Y-98600602D01*
X119081263Y-97979709D01*
X119356956Y-97469052D01*
X119564769Y-97095581D01*
X119572238Y-97082545D01*
X119910112Y-96505428D01*
X120329706Y-95807283D01*
X120810507Y-95020941D01*
X121332004Y-94179236D01*
X121873685Y-93314997D01*
X122415036Y-92461058D01*
X122935546Y-91650249D01*
X123414702Y-90915403D01*
X123604488Y-90628587D01*
X124179674Y-89810345D01*
X124816958Y-88984789D01*
X125492436Y-88177868D01*
X126182203Y-87415531D01*
X126862356Y-86723726D01*
X127508990Y-86128401D01*
X128098201Y-85655505D01*
X128339350Y-85488838D01*
X128735366Y-85237347D01*
X129216210Y-84940282D01*
X129706456Y-84643957D01*
X129955713Y-84496347D01*
X130422765Y-84206562D01*
X130923065Y-83870612D01*
X131379203Y-83541440D01*
X131576388Y-83387984D01*
X131935888Y-83101949D01*
X132292400Y-82825770D01*
X132588644Y-82603555D01*
X132684752Y-82534513D01*
X132984389Y-82266226D01*
X133234188Y-81943180D01*
X133283413Y-81855722D01*
X133436604Y-81592201D01*
X133589038Y-81390515D01*
X133643811Y-81339458D01*
X133713146Y-81273000D01*
X133738983Y-81179480D01*
X133716333Y-81021523D01*
X133640208Y-80761753D01*
X133518418Y-80400028D01*
X133297268Y-79677996D01*
X133149458Y-78990338D01*
X133074836Y-78302753D01*
X133073788Y-77824727D01*
X133914932Y-77824727D01*
X133927190Y-78367185D01*
X133963695Y-78872076D01*
X134019674Y-79308473D01*
X134090351Y-79645450D01*
X134170952Y-79852078D01*
X134235743Y-79902909D01*
X134320624Y-79833514D01*
X134483671Y-79648177D01*
X134695532Y-79381169D01*
X134789455Y-79256364D01*
X135057814Y-78921349D01*
X135279041Y-78698550D01*
X135430595Y-78610385D01*
X135439506Y-78609818D01*
X135604625Y-78680859D01*
X135777799Y-78844667D01*
X135887575Y-79027264D01*
X135897819Y-79084313D01*
X135845487Y-79181513D01*
X135705288Y-79388386D01*
X135502417Y-79668521D01*
X135387680Y-79821610D01*
X134920149Y-80552312D01*
X134632547Y-81280169D01*
X134524138Y-82017376D01*
X134594189Y-82776131D01*
X134841963Y-83568631D01*
X135126270Y-84160139D01*
X135411127Y-84581261D01*
X135802939Y-85023367D01*
X136254859Y-85443862D01*
X136720043Y-85800148D01*
X137151644Y-86049629D01*
X137249115Y-86090436D01*
X138029881Y-86318076D01*
X138897668Y-86455604D01*
X139790276Y-86499487D01*
X140645504Y-86446192D01*
X141301091Y-86320636D01*
X141617156Y-86256551D01*
X141897058Y-86234594D01*
X141996398Y-86242976D01*
X142251976Y-86216887D01*
X142403259Y-86098119D01*
X142623966Y-85952448D01*
X142828881Y-85906545D01*
X143054229Y-85848052D01*
X143373543Y-85690287D01*
X143745560Y-85459819D01*
X144129014Y-85183219D01*
X144482640Y-84887056D01*
X144626182Y-84749288D01*
X144896555Y-84429325D01*
X145202943Y-83995038D01*
X145510873Y-83502851D01*
X145785870Y-83009189D01*
X145993457Y-82570477D01*
X146052953Y-82414117D01*
X146177484Y-82072731D01*
X146280731Y-81872720D01*
X146391052Y-81777529D01*
X146536807Y-81750601D01*
X146568020Y-81750182D01*
X146794311Y-81828534D01*
X146926159Y-82039240D01*
X146943972Y-82345769D01*
X146930042Y-82425235D01*
X146794275Y-82843293D01*
X146563072Y-83331399D01*
X146258787Y-83859127D01*
X145903774Y-84396047D01*
X145520386Y-84911732D01*
X145130977Y-85375753D01*
X144757902Y-85757682D01*
X144423515Y-86027090D01*
X144200561Y-86140624D01*
X144071397Y-86202982D01*
X144110110Y-86272077D01*
X144129069Y-86284683D01*
X144285373Y-86323570D01*
X144580171Y-86349525D01*
X144967711Y-86362917D01*
X145402241Y-86364118D01*
X145838007Y-86353499D01*
X146229257Y-86331430D01*
X146530238Y-86298283D01*
X146675260Y-86264046D01*
X146880198Y-86206012D01*
X147212277Y-86137604D01*
X147615151Y-86069815D01*
X147825434Y-86039603D01*
X148709134Y-85869482D01*
X149613663Y-85604332D01*
X150467309Y-85268102D01*
X151091637Y-84948814D01*
X151570086Y-84625678D01*
X152083304Y-84205240D01*
X152594632Y-83724693D01*
X153067410Y-83221229D01*
X153464978Y-82732039D01*
X153750677Y-82294316D01*
X153797071Y-82204079D01*
X154166765Y-81334606D01*
X154419391Y-80483989D01*
X154562638Y-79606116D01*
X154604192Y-78654872D01*
X154556864Y-77646009D01*
X154486640Y-76883192D01*
X154403976Y-76233729D01*
X154296887Y-75640692D01*
X154177329Y-75146182D01*
X155017091Y-75146182D01*
X155063273Y-75192364D01*
X155109455Y-75146182D01*
X155063273Y-75100000D01*
X155017091Y-75146182D01*
X154177329Y-75146182D01*
X154153387Y-75047153D01*
X153961490Y-74396186D01*
X153715302Y-73648757D01*
X153360914Y-72679293D01*
X153004999Y-71860334D01*
X152631169Y-71158254D01*
X152223038Y-70539429D01*
X152155913Y-70449146D01*
X151925283Y-70166514D01*
X151756304Y-70021170D01*
X151619874Y-69989504D01*
X151595330Y-69994364D01*
X151361662Y-69977190D01*
X151198898Y-69810585D01*
X151136929Y-69525237D01*
X151136923Y-69523781D01*
X151118184Y-69380505D01*
X151047128Y-69234999D01*
X150994882Y-69172216D01*
X152225948Y-69172216D01*
X152536247Y-69606176D01*
X152778053Y-69945629D01*
X153035027Y-70308262D01*
X153139192Y-70455930D01*
X153301647Y-70716278D01*
X153508046Y-71089235D01*
X153728003Y-71518295D01*
X153874607Y-71823557D01*
X154317375Y-72775390D01*
X154650158Y-72511821D01*
X154906430Y-72289058D01*
X155200063Y-72005823D01*
X155363730Y-71835145D01*
X155574425Y-71580506D01*
X155721961Y-71323064D01*
X155816936Y-71022524D01*
X155869946Y-70638596D01*
X155891586Y-70130984D01*
X155893954Y-69818955D01*
X155888349Y-69380769D01*
X155865842Y-69081374D01*
X155818929Y-68875073D01*
X155740109Y-68716168D01*
X155704411Y-68664409D01*
X155368728Y-68346581D01*
X154913419Y-68116688D01*
X154392118Y-67998598D01*
X154184331Y-67988000D01*
X153676254Y-68061767D01*
X153186751Y-68290746D01*
X152693676Y-68686457D01*
X152536247Y-68845192D01*
X152225948Y-69172216D01*
X150994882Y-69172216D01*
X150900082Y-69058296D01*
X150653374Y-68821426D01*
X150328741Y-68534747D01*
X149756567Y-68049935D01*
X149265746Y-67663782D01*
X148808586Y-67342768D01*
X148337396Y-67053375D01*
X147812728Y-66766400D01*
X147286066Y-66525562D01*
X146743958Y-66356572D01*
X146143222Y-66251363D01*
X145440674Y-66201871D01*
X144764728Y-66197121D01*
X144377425Y-66221783D01*
X143897533Y-66281096D01*
X143374524Y-66365756D01*
X142857874Y-66466459D01*
X142397056Y-66573900D01*
X142041547Y-66678777D01*
X141901455Y-66735570D01*
X141693301Y-66817593D01*
X141377075Y-66919876D01*
X141050699Y-67012267D01*
X140722587Y-67112512D01*
X140460909Y-67217887D01*
X140323571Y-67304553D01*
X140159779Y-67416940D01*
X140077329Y-67433818D01*
X139949576Y-67481191D01*
X139702047Y-67610432D01*
X139369516Y-67802228D01*
X138986757Y-68037264D01*
X138957184Y-68055976D01*
X138413645Y-68423552D01*
X137905987Y-68820959D01*
X137382295Y-69291216D01*
X136928395Y-69737167D01*
X136507440Y-70169406D01*
X136191319Y-70514964D01*
X135949844Y-70813224D01*
X135752827Y-71103572D01*
X135570077Y-71425392D01*
X135440649Y-71678099D01*
X134983579Y-72714772D01*
X134591478Y-73845738D01*
X134277108Y-75019583D01*
X134053232Y-76184892D01*
X133932612Y-77290249D01*
X133914932Y-77824727D01*
X133073788Y-77824727D01*
X133073253Y-77580943D01*
X133144556Y-76790608D01*
X133288596Y-75897449D01*
X133494297Y-74915273D01*
X133799188Y-73695481D01*
X134127347Y-72639715D01*
X134487868Y-71727815D01*
X134889844Y-70939624D01*
X135342369Y-70254985D01*
X135854535Y-69653740D01*
X135879372Y-69628072D01*
X136575196Y-68912872D01*
X136316319Y-68401210D01*
X136166149Y-68071507D01*
X136098676Y-67801472D01*
X136094889Y-67496562D01*
X136095657Y-67486697D01*
X136931025Y-67486697D01*
X136977838Y-67861442D01*
X137054349Y-68024248D01*
X137177073Y-68186612D01*
X137279302Y-68209306D01*
X137411274Y-68128395D01*
X137617392Y-67982952D01*
X137877339Y-67805615D01*
X137929819Y-67770509D01*
X138169563Y-67613480D01*
X138498041Y-67401685D01*
X138847620Y-67178711D01*
X138876546Y-67160382D01*
X139169102Y-66959002D01*
X139388034Y-66777602D01*
X139495162Y-66648746D01*
X139500000Y-66628642D01*
X139423589Y-66432455D01*
X139231161Y-66212974D01*
X138977923Y-66016232D01*
X138719083Y-65888262D01*
X138582530Y-65863636D01*
X138211131Y-65933313D01*
X137807172Y-66115450D01*
X137441903Y-66369709D01*
X137188281Y-66652979D01*
X137003012Y-67065046D01*
X136931025Y-67486697D01*
X136095657Y-67486697D01*
X136105929Y-67354815D01*
X136225804Y-66747649D01*
X136477288Y-66231307D01*
X136878095Y-65779312D01*
X137430744Y-65374562D01*
X137989846Y-65128742D01*
X138572580Y-65064216D01*
X139119883Y-65167367D01*
G37*
G36*
X145844068Y-88669046D02*
G01*
X146137214Y-88696676D01*
X146387369Y-88760490D01*
X146661468Y-88875024D01*
X146858885Y-88970965D01*
X147488632Y-89361189D01*
X148101787Y-89882490D01*
X148655592Y-90490883D01*
X149107292Y-91142387D01*
X149274490Y-91455843D01*
X149557277Y-92116668D01*
X149749102Y-92748240D01*
X149859788Y-93403412D01*
X149899156Y-94135042D01*
X149888103Y-94757940D01*
X149823468Y-95654323D01*
X149696940Y-96450387D01*
X149494946Y-97173171D01*
X149203912Y-97849710D01*
X148810265Y-98507040D01*
X148300433Y-99172199D01*
X147660843Y-99872222D01*
X146991638Y-100527481D01*
X146621115Y-100870074D01*
X146166189Y-101279761D01*
X145641039Y-101744602D01*
X145059845Y-102252657D01*
X144436785Y-102791986D01*
X143786040Y-103350647D01*
X143121788Y-103916701D01*
X142458210Y-104478207D01*
X141809484Y-105023224D01*
X141189790Y-105539813D01*
X140613307Y-106016033D01*
X140094214Y-106439944D01*
X139646692Y-106799605D01*
X139284919Y-107083075D01*
X139023075Y-107278415D01*
X138875339Y-107373684D01*
X138852767Y-107381185D01*
X138751718Y-107329310D01*
X138554326Y-107192303D01*
X138300439Y-106998086D01*
X138260204Y-106965952D01*
X137491089Y-106325032D01*
X136668234Y-105598827D01*
X135849016Y-104839830D01*
X135090816Y-104100533D01*
X134770928Y-103773829D01*
X133606485Y-102496762D01*
X132608732Y-101259086D01*
X131773385Y-100054383D01*
X131096162Y-98876233D01*
X130572780Y-97718218D01*
X130386811Y-97203484D01*
X130304812Y-96951286D01*
X130242950Y-96732859D01*
X130198357Y-96517565D01*
X130168167Y-96274766D01*
X130149510Y-95973824D01*
X130139519Y-95584100D01*
X130135327Y-95074957D01*
X130134424Y-94633862D01*
X130979575Y-94633862D01*
X131011310Y-95431217D01*
X131091243Y-96167161D01*
X131220152Y-96795140D01*
X131234153Y-96844669D01*
X131584021Y-97813646D01*
X132082980Y-98820402D01*
X132734364Y-99869851D01*
X133541505Y-100966905D01*
X134507736Y-102116478D01*
X135613802Y-103300384D01*
X136002996Y-103691187D01*
X136430457Y-104107664D01*
X136876301Y-104531765D01*
X137320643Y-104945440D01*
X137743600Y-105330642D01*
X138125286Y-105669321D01*
X138445816Y-105943428D01*
X138685308Y-106134914D01*
X138823875Y-106225731D01*
X138842074Y-106230662D01*
X138923630Y-106176806D01*
X139122011Y-106025565D01*
X139417698Y-105792431D01*
X139791175Y-105492894D01*
X140222924Y-105142447D01*
X140533756Y-104887964D01*
X141560038Y-104039061D01*
X142545992Y-103212056D01*
X143480826Y-102416546D01*
X144353747Y-101662131D01*
X145153965Y-100958406D01*
X145870688Y-100314972D01*
X146493123Y-99741425D01*
X147010479Y-99247363D01*
X147411964Y-98842384D01*
X147686786Y-98536087D01*
X147714600Y-98501549D01*
X148247775Y-97693306D01*
X148638006Y-96795165D01*
X148888292Y-95798410D01*
X148998359Y-94769686D01*
X148977369Y-93717393D01*
X148809817Y-92763834D01*
X148495366Y-91907998D01*
X148033677Y-91148876D01*
X147630259Y-90682127D01*
X147011999Y-90143117D01*
X146393272Y-89776945D01*
X145777217Y-89584479D01*
X145166976Y-89566585D01*
X144565690Y-89724134D01*
X144412680Y-89793218D01*
X143859309Y-90144960D01*
X143292102Y-90656860D01*
X142721697Y-91313773D01*
X142158729Y-92100552D01*
X141613835Y-93002053D01*
X141097653Y-94003129D01*
X140620819Y-95088635D01*
X140526186Y-95327164D01*
X140378697Y-95703330D01*
X140255417Y-96013025D01*
X140169894Y-96222528D01*
X140136165Y-96297841D01*
X140079316Y-96239585D01*
X139938352Y-96063434D01*
X139732993Y-95794843D01*
X139482957Y-95459266D01*
X139416279Y-95368572D01*
X138608886Y-94304713D01*
X137816594Y-93333415D01*
X137047804Y-92462392D01*
X136310919Y-91699355D01*
X135614337Y-91052016D01*
X134966461Y-90528086D01*
X134375692Y-90135277D01*
X133850429Y-89881302D01*
X133399074Y-89773871D01*
X133318119Y-89770648D01*
X132947905Y-89850703D01*
X132554530Y-90073932D01*
X132164750Y-90413689D01*
X131805320Y-90843329D01*
X131502996Y-91336206D01*
X131319063Y-91761454D01*
X131165783Y-92338894D01*
X131057589Y-93041145D01*
X130995261Y-93821653D01*
X130979575Y-94633862D01*
X130134424Y-94633862D01*
X130134158Y-94504181D01*
X130135972Y-93816435D01*
X130144255Y-93276828D01*
X130160767Y-92856560D01*
X130187270Y-92526829D01*
X130225526Y-92258835D01*
X130277296Y-92023776D01*
X130288419Y-91981881D01*
X130602475Y-91108164D01*
X131034812Y-90349356D01*
X131576991Y-89716513D01*
X132220573Y-89220690D01*
X132523524Y-89053775D01*
X132845735Y-88905314D01*
X133084782Y-88831247D01*
X133310465Y-88816899D01*
X133539764Y-88840123D01*
X134134800Y-88998824D01*
X134792987Y-89318140D01*
X135510485Y-89794852D01*
X136283450Y-90425739D01*
X137108041Y-91207583D01*
X137980416Y-92137164D01*
X138896732Y-93211262D01*
X139192313Y-93577083D01*
X139870218Y-94426372D01*
X140366569Y-93403256D01*
X140905315Y-92386409D01*
X141487192Y-91460237D01*
X142098531Y-90641304D01*
X142725665Y-89946173D01*
X143354927Y-89391408D01*
X143972649Y-88993573D01*
X144028297Y-88965496D01*
X144346244Y-88816978D01*
X144603302Y-88726890D01*
X144866539Y-88680873D01*
X145203027Y-88664570D01*
X145440997Y-88663066D01*
X145844068Y-88669046D01*
G37*
D12*
G04 #@! TO.C,.*
X142170000Y-93455000D02*
X142170000Y-96545000D01*
X142170000Y-93455170D02*
G75*
G02*
X147720000Y-95000462I2560000J-1544830D01*
G01*
X147720000Y-94999538D02*
G75*
G02*
X142170000Y-96544830I-2990000J-462D01*
G01*
X147230000Y-95000000D02*
G75*
G02*
X142230000Y-95000000I-2500000J0D01*
G01*
X142230000Y-95000000D02*
G75*
G02*
X147230000Y-95000000I2500000J0D01*
G01*
G04 #@! TD*
%LPC*%
D14*
G04 #@! TO.C,D2*
X137960000Y-101500000D03*
D15*
X140500000Y-101500000D03*
G04 #@! TD*
D14*
G04 #@! TO.C,.*
X133500000Y-95000000D03*
D15*
X136040000Y-95000000D03*
G04 #@! TD*
D14*
G04 #@! TO.C,.*
X143460000Y-95000000D03*
D15*
X146000000Y-95000000D03*
G04 #@! TD*
D16*
G04 #@! TO.C,SW1*
X119750000Y-118250000D03*
X113250000Y-118250000D03*
X119750000Y-122750000D03*
X113250000Y-122750000D03*
G04 #@! TD*
D17*
G04 #@! TO.C,R1*
X123000000Y-106690000D03*
D18*
X123000000Y-114310000D03*
G04 #@! TD*
D17*
G04 #@! TO.C,R2*
X168500000Y-118810000D03*
D18*
X168500000Y-111190000D03*
G04 #@! TD*
D17*
G04 #@! TO.C,R3*
X167500000Y-106310000D03*
D18*
X167500000Y-98690000D03*
G04 #@! TD*
%LPD*%
M02*
